<svg width="373" height="288" viewBox="0 0 373 288" fill="none" xmlns="http://www.w3.org/2000/svg">
<path d="M11.749 285.75V28.25H0.249023V285.75H11.749Z" stroke="#4B4B4B" stroke-width="0.5"/>
<path d="M11.999 34.064H8.18084" stroke="#4B4B4B" stroke-width="0.5"/>
<path d="M11.999 35.1667H8.18084" stroke="#4B4B4B" stroke-width="0.5"/>
<path d="M11.999 36.269H8.18084" stroke="#4B4B4B" stroke-width="0.5"/>
<path d="M11.999 37.3718H8.18084" stroke="#4B4B4B" stroke-width="0.5"/>
<path d="M11.999 38.4741H8.18084" stroke="#4B4B4B" stroke-width="0.5"/>
<path d="M11.999 39.5769H4.36266" stroke="#4B4B4B" stroke-width="0.5"/>
<path d="M11.999 40.6792H8.18084" stroke="#4B4B4B" stroke-width="0.5"/>
<path d="M11.999 41.782H8.18084" stroke="#4B4B4B" stroke-width="0.5"/>
<path d="M11.999 42.8848H8.18084" stroke="#4B4B4B" stroke-width="0.5"/>
<path d="M11.999 43.9873H8.18084" stroke="#4B4B4B" stroke-width="0.5"/>
<path d="M11.999 45.0898H8.18084" stroke="#4B4B4B" stroke-width="0.5"/>
<path d="M11.999 46.1924H8.18084" stroke="#4B4B4B" stroke-width="0.5"/>
<path d="M11.999 47.2949H8.18084" stroke="#4B4B4B" stroke-width="0.5"/>
<path d="M11.999 48.3975H8.18084" stroke="#4B4B4B" stroke-width="0.5"/>
<path d="M11.999 49.5002H4.36266" stroke="#4B4B4B" stroke-width="0.5"/>
<path d="M11.999 50.6025H8.18084" stroke="#4B4B4B" stroke-width="0.5"/>
<path d="M11.999 51.7053H8.18084" stroke="#4B4B4B" stroke-width="0.5"/>
<path d="M11.999 52.8076H8.18084" stroke="#4B4B4B" stroke-width="0.5"/>
<path d="M11.999 53.9104H8.18084" stroke="#4B4B4B" stroke-width="0.5"/>
<path d="M11.999 55.0127H8.18084" stroke="#4B4B4B" stroke-width="0.5"/>
<path d="M11.999 56.1155H8.18084" stroke="#4B4B4B" stroke-width="0.5"/>
<path d="M11.999 57.2178H8.18084" stroke="#4B4B4B" stroke-width="0.5"/>
<path d="M11.999 58.3206H8.18084" stroke="#4B4B4B" stroke-width="0.5"/>
<path d="M11.999 59.4231H8.18084" stroke="#4B4B4B" stroke-width="0.5"/>
<path d="M11.999 60.5256H8.18084" stroke="#4B4B4B" stroke-width="0.5"/>
<path d="M11.999 61.6279H8.18084" stroke="#4B4B4B" stroke-width="0.5"/>
<path d="M11.999 62.7307H4.36266" stroke="#4B4B4B" stroke-width="0.5"/>
<path d="M11.999 63.8333H8.18084" stroke="#4B4B4B" stroke-width="0.5"/>
<path d="M11.999 64.9358H8.18084" stroke="#4B4B4B" stroke-width="0.5"/>
<path d="M11.999 66.0383H8.18084" stroke="#4B4B4B" stroke-width="0.5"/>
<path d="M11.999 67.1409H8.18084" stroke="#4B4B4B" stroke-width="0.5"/>
<path d="M11.999 68.2437H8.18084" stroke="#4B4B4B" stroke-width="0.5"/>
<path d="M11.999 69.3462H8.18084" stroke="#4B4B4B" stroke-width="0.5"/>
<path d="M11.999 70.449H8.18084" stroke="#4B4B4B" stroke-width="0.5"/>
<path d="M11.999 71.5513H8.18084" stroke="#4B4B4B" stroke-width="0.5"/>
<path d="M11.999 72.6541H8.18084" stroke="#4B4B4B" stroke-width="0.5"/>
<path d="M11.999 73.7563H8.18084" stroke="#4B4B4B" stroke-width="0.5"/>
<path d="M11.999 74.8591H8.18084" stroke="#4B4B4B" stroke-width="0.5"/>
<path d="M11.999 75.9614H8.18084" stroke="#4B4B4B" stroke-width="0.5"/>
<path d="M11.999 77.0642H4.36266" stroke="#4B4B4B" stroke-width="0.5"/>
<path d="M11.999 78.1667H8.18084" stroke="#4B4B4B" stroke-width="0.5"/>
<path d="M11.999 79.2693H8.18084" stroke="#4B4B4B" stroke-width="0.5"/>
<path d="M11.999 80.3718H8.18084" stroke="#4B4B4B" stroke-width="0.5"/>
<path d="M11.999 81.4744H8.18084" stroke="#4B4B4B" stroke-width="0.5"/>
<path d="M11.999 82.5769H8.18084" stroke="#4B4B4B" stroke-width="0.5"/>
<path d="M11.999 83.6794H8.18084" stroke="#4B4B4B" stroke-width="0.5"/>
<path d="M11.999 84.782H8.18084" stroke="#4B4B4B" stroke-width="0.5"/>
<path d="M11.999 85.8845H8.18084" stroke="#4B4B4B" stroke-width="0.5"/>
<path d="M11.999 86.9871H8.18084" stroke="#4B4B4B" stroke-width="0.5"/>
<path d="M11.999 88.0898H8.18084" stroke="#4B4B4B" stroke-width="0.5"/>
<path d="M11.999 89.1921H8.18084" stroke="#4B4B4B" stroke-width="0.5"/>
<path d="M11.999 90.2949H8.18084" stroke="#4B4B4B" stroke-width="0.5"/>
<path d="M11.999 91.3972H8.18084" stroke="#4B4B4B" stroke-width="0.5"/>
<path d="M11.999 92.5H8.18084" stroke="#4B4B4B" stroke-width="0.5"/>
<path d="M11.999 93.6028H8.18084" stroke="#4B4B4B" stroke-width="0.5"/>
<path d="M11.999 94.7051H8.18084" stroke="#4B4B4B" stroke-width="0.5"/>
<path d="M11.999 95.8079H4.36266" stroke="#4B4B4B" stroke-width="0.5"/>
<path d="M11.999 96.9102H8.18084" stroke="#4B4B4B" stroke-width="0.5"/>
<path d="M11.999 98.0129H8.18084" stroke="#4B4B4B" stroke-width="0.5"/>
<path d="M11.999 99.1155H8.18084" stroke="#4B4B4B" stroke-width="0.5"/>
<path d="M11.999 100.218H8.18084" stroke="#4B4B4B" stroke-width="0.5"/>
<path d="M11.999 101.321H8.18084" stroke="#4B4B4B" stroke-width="0.5"/>
<path d="M11.999 102.423H8.18084" stroke="#4B4B4B" stroke-width="0.5"/>
<path d="M11.999 103.526H8.18084" stroke="#4B4B4B" stroke-width="0.5"/>
<path d="M11.999 104.628H8.18084" stroke="#4B4B4B" stroke-width="0.5"/>
<path d="M11.999 105.731H8.18084" stroke="#4B4B4B" stroke-width="0.5"/>
<path d="M11.999 106.833H8.18084" stroke="#4B4B4B" stroke-width="0.5"/>
<path d="M11.999 107.936H8.18084" stroke="#4B4B4B" stroke-width="0.5"/>
<path d="M11.999 109.039H8.18084" stroke="#4B4B4B" stroke-width="0.5"/>
<path d="M11.999 110.141H8.18084" stroke="#4B4B4B" stroke-width="0.5"/>
<path d="M11.999 111.244H4.36266" stroke="#4B4B4B" stroke-width="0.5"/>
<path d="M11.999 112.346H8.18084" stroke="#4B4B4B" stroke-width="0.5"/>
<path d="M11.999 113.449H8.18084" stroke="#4B4B4B" stroke-width="0.5"/>
<path d="M11.999 114.551H8.18084" stroke="#4B4B4B" stroke-width="0.5"/>
<path d="M11.999 115.654H8.18084" stroke="#4B4B4B" stroke-width="0.5"/>
<path d="M11.999 116.756H8.18084" stroke="#4B4B4B" stroke-width="0.5"/>
<path d="M11.999 117.859H8.18084" stroke="#4B4B4B" stroke-width="0.5"/>
<path d="M11.999 118.961H8.18084" stroke="#4B4B4B" stroke-width="0.5"/>
<path d="M11.999 120.064H8.18084" stroke="#4B4B4B" stroke-width="0.5"/>
<path d="M11.999 121.167H4.36266" stroke="#4B4B4B" stroke-width="0.5"/>
<path d="M11.999 122.269H8.18084" stroke="#4B4B4B" stroke-width="0.5"/>
<path d="M11.999 123.372H8.18084" stroke="#4B4B4B" stroke-width="0.5"/>
<path d="M11.999 124.474H8.18084" stroke="#4B4B4B" stroke-width="0.5"/>
<path d="M11.999 125.577H8.18084" stroke="#4B4B4B" stroke-width="0.5"/>
<path d="M11.999 126.679H8.18084" stroke="#4B4B4B" stroke-width="0.5"/>
<path d="M11.999 127.782H8.18084" stroke="#4B4B4B" stroke-width="0.5"/>
<path d="M11.999 128.885H8.18084" stroke="#4B4B4B" stroke-width="0.5"/>
<path d="M11.999 129.987H8.18084" stroke="#4B4B4B" stroke-width="0.5"/>
<path d="M11.999 131.09H4.36266" stroke="#4B4B4B" stroke-width="0.5"/>
<path d="M11.999 132.192H8.18084" stroke="#4B4B4B" stroke-width="0.5"/>
<path d="M11.999 133.295H8.18084" stroke="#4B4B4B" stroke-width="0.5"/>
<path d="M11.999 134.397H8.18084" stroke="#4B4B4B" stroke-width="0.5"/>
<path d="M11.999 135.5H8.18084" stroke="#4B4B4B" stroke-width="0.5"/>
<path d="M11.999 136.603H8.18084" stroke="#4B4B4B" stroke-width="0.5"/>
<path d="M11.999 137.705H8.18084" stroke="#4B4B4B" stroke-width="0.5"/>
<path d="M11.999 138.808H8.18084" stroke="#4B4B4B" stroke-width="0.5"/>
<path d="M11.999 139.91H8.18084" stroke="#4B4B4B" stroke-width="0.5"/>
<path d="M11.999 141.013H8.18084" stroke="#4B4B4B" stroke-width="0.5"/>
<path d="M11.999 142.115H8.18084" stroke="#4B4B4B" stroke-width="0.5"/>
<path d="M11.999 143.218H8.18084" stroke="#4B4B4B" stroke-width="0.5"/>
<path d="M11.999 144.321H4.36266" stroke="#4B4B4B" stroke-width="0.5"/>
<path d="M11.999 145.423H8.18084" stroke="#4B4B4B" stroke-width="0.5"/>
<path d="M11.999 146.526H8.18084" stroke="#4B4B4B" stroke-width="0.5"/>
<path d="M11.999 147.628H8.18084" stroke="#4B4B4B" stroke-width="0.5"/>
<path d="M11.999 148.731H8.18084" stroke="#4B4B4B" stroke-width="0.5"/>
<path d="M11.999 149.833H8.18084" stroke="#4B4B4B" stroke-width="0.5"/>
<path d="M11.999 150.936H8.18084" stroke="#4B4B4B" stroke-width="0.5"/>
<path d="M11.999 152.039H8.18084" stroke="#4B4B4B" stroke-width="0.5"/>
<path d="M11.999 153.141H8.18084" stroke="#4B4B4B" stroke-width="0.5"/>
<path d="M11.999 154.244H8.18084" stroke="#4B4B4B" stroke-width="0.5"/>
<path d="M11.999 155.346H8.18084" stroke="#4B4B4B" stroke-width="0.5"/>
<path d="M11.999 156.449H4.36266" stroke="#4B4B4B" stroke-width="0.5"/>
<path d="M11.999 157.551H8.18084" stroke="#4B4B4B" stroke-width="0.5"/>
<path d="M11.999 158.654H8.18084" stroke="#4B4B4B" stroke-width="0.5"/>
<path d="M11.999 159.756H8.18084" stroke="#4B4B4B" stroke-width="0.5"/>
<path d="M11.999 160.859H8.18084" stroke="#4B4B4B" stroke-width="0.5"/>
<path d="M11.999 161.961H8.18084" stroke="#4B4B4B" stroke-width="0.5"/>
<path d="M11.999 163.064H8.18084" stroke="#4B4B4B" stroke-width="0.5"/>
<path d="M11.999 164.167H8.18084" stroke="#4B4B4B" stroke-width="0.5"/>
<path d="M11.999 165.269H8.18084" stroke="#4B4B4B" stroke-width="0.5"/>
<path d="M11.999 166.372H4.36266" stroke="#4B4B4B" stroke-width="0.5"/>
<path d="M11.999 167.474H8.18084" stroke="#4B4B4B" stroke-width="0.5"/>
<path d="M11.999 168.577H8.18084" stroke="#4B4B4B" stroke-width="0.5"/>
<path d="M11.999 169.679H8.18084" stroke="#4B4B4B" stroke-width="0.5"/>
<path d="M11.999 170.782H8.18084" stroke="#4B4B4B" stroke-width="0.5"/>
<path d="M11.999 171.885H8.18084" stroke="#4B4B4B" stroke-width="0.5"/>
<path d="M11.999 172.987H8.18084" stroke="#4B4B4B" stroke-width="0.5"/>
<path d="M11.999 174.09H8.18084" stroke="#4B4B4B" stroke-width="0.5"/>
<path d="M11.999 175.192H8.18084" stroke="#4B4B4B" stroke-width="0.5"/>
<path d="M11.999 176.295H8.18084" stroke="#4B4B4B" stroke-width="0.5"/>
<path d="M11.999 177.397H4.36266" stroke="#4B4B4B" stroke-width="0.5"/>
<path d="M11.999 178.5H8.18084" stroke="#4B4B4B" stroke-width="0.5"/>
<path d="M11.999 179.603H8.18084" stroke="#4B4B4B" stroke-width="0.5"/>
<path d="M11.999 180.705H8.18084" stroke="#4B4B4B" stroke-width="0.5"/>
<path d="M11.999 181.808H8.18084" stroke="#4B4B4B" stroke-width="0.5"/>
<path d="M11.999 182.91H8.18084" stroke="#4B4B4B" stroke-width="0.5"/>
<path d="M11.999 184.013H8.18084" stroke="#4B4B4B" stroke-width="0.5"/>
<path d="M11.999 185.115H8.18084" stroke="#4B4B4B" stroke-width="0.5"/>
<path d="M11.999 186.218H4.36266" stroke="#4B4B4B" stroke-width="0.5"/>
<path d="M11.999 187.321H8.18084" stroke="#4B4B4B" stroke-width="0.5"/>
<path d="M11.999 188.423H8.18084" stroke="#4B4B4B" stroke-width="0.5"/>
<path d="M11.999 189.526H8.18084" stroke="#4B4B4B" stroke-width="0.5"/>
<path d="M11.999 190.628H8.18084" stroke="#4B4B4B" stroke-width="0.5"/>
<path d="M11.999 191.731H8.18084" stroke="#4B4B4B" stroke-width="0.5"/>
<path d="M11.999 192.833H8.18084" stroke="#4B4B4B" stroke-width="0.5"/>
<path d="M11.999 193.936H8.18084" stroke="#4B4B4B" stroke-width="0.5"/>
<path d="M11.999 195.039H8.18084" stroke="#4B4B4B" stroke-width="0.5"/>
<path d="M11.999 196.141H8.18084" stroke="#4B4B4B" stroke-width="0.5"/>
<path d="M11.999 197.244H4.36266" stroke="#4B4B4B" stroke-width="0.5"/>
<path d="M11.999 198.346H8.18084" stroke="#4B4B4B" stroke-width="0.5"/>
<path d="M11.999 199.449H8.18084" stroke="#4B4B4B" stroke-width="0.5"/>
<path d="M11.999 200.551H8.18084" stroke="#4B4B4B" stroke-width="0.5"/>
<path d="M11.999 201.654H8.18084" stroke="#4B4B4B" stroke-width="0.5"/>
<path d="M11.999 202.756H8.18084" stroke="#4B4B4B" stroke-width="0.5"/>
<path d="M11.999 203.859H8.18084" stroke="#4B4B4B" stroke-width="0.5"/>
<path d="M11.999 204.961H8.18084" stroke="#4B4B4B" stroke-width="0.5"/>
<path d="M11.999 206.064H8.18084" stroke="#4B4B4B" stroke-width="0.5"/>
<path d="M11.999 207.167H4.36266" stroke="#4B4B4B" stroke-width="0.5"/>
<path d="M11.999 208.269H8.18084" stroke="#4B4B4B" stroke-width="0.5"/>
<path d="M11.999 209.372H8.18084" stroke="#4B4B4B" stroke-width="0.5"/>
<path d="M11.999 210.474H8.18084" stroke="#4B4B4B" stroke-width="0.5"/>
<path d="M11.999 211.577H8.18084" stroke="#4B4B4B" stroke-width="0.5"/>
<path d="M11.999 212.679H8.18084" stroke="#4B4B4B" stroke-width="0.5"/>
<path d="M11.999 213.782H8.18084" stroke="#4B4B4B" stroke-width="0.5"/>
<path d="M11.999 214.885H8.18084" stroke="#4B4B4B" stroke-width="0.5"/>
<path d="M11.999 215.987H8.18084" stroke="#4B4B4B" stroke-width="0.5"/>
<path d="M11.999 217.09H8.18084" stroke="#4B4B4B" stroke-width="0.5"/>
<path d="M11.999 218.192H8.18084" stroke="#4B4B4B" stroke-width="0.5"/>
<path d="M11.999 219.295H8.18084" stroke="#4B4B4B" stroke-width="0.5"/>
<path d="M11.999 220.397H4.36266" stroke="#4B4B4B" stroke-width="0.5"/>
<path d="M11.999 221.5H8.18084" stroke="#4B4B4B" stroke-width="0.5"/>
<path d="M11.999 222.603H8.18084" stroke="#4B4B4B" stroke-width="0.5"/>
<path d="M11.999 223.705H8.18084" stroke="#4B4B4B" stroke-width="0.5"/>
<path d="M11.999 224.808H8.18084" stroke="#4B4B4B" stroke-width="0.5"/>
<path d="M11.999 225.91H8.18084" stroke="#4B4B4B" stroke-width="0.5"/>
<path d="M11.999 227.013H8.18084" stroke="#4B4B4B" stroke-width="0.5"/>
<path d="M11.999 228.115H8.18084" stroke="#4B4B4B" stroke-width="0.5"/>
<path d="M11.999 229.218H8.18084" stroke="#4B4B4B" stroke-width="0.5"/>
<path d="M11.999 230.321H4.36266" stroke="#4B4B4B" stroke-width="0.5"/>
<path d="M11.999 231.423H8.18084" stroke="#4B4B4B" stroke-width="0.5"/>
<path d="M11.999 232.525H8.18084" stroke="#4B4B4B" stroke-width="0.5"/>
<path d="M11.999 233.628H8.18084" stroke="#4B4B4B" stroke-width="0.5"/>
<path d="M11.999 234.731H8.18084" stroke="#4B4B4B" stroke-width="0.5"/>
<path d="M11.999 235.833H8.18084" stroke="#4B4B4B" stroke-width="0.5"/>
<path d="M11.999 236.936H8.18084" stroke="#4B4B4B" stroke-width="0.5"/>
<path d="M11.999 238.038H8.18084" stroke="#4B4B4B" stroke-width="0.5"/>
<path d="M11.999 239.141H8.18084" stroke="#4B4B4B" stroke-width="0.5"/>
<path d="M11.999 240.244H4.36266" stroke="#4B4B4B" stroke-width="0.5"/>
<path d="M11.999 241.346H8.18084" stroke="#4B4B4B" stroke-width="0.5"/>
<path d="M11.999 242.449H8.18084" stroke="#4B4B4B" stroke-width="0.5"/>
<path d="M11.999 243.551H8.18084" stroke="#4B4B4B" stroke-width="0.5"/>
<path d="M11.999 244.654H8.18084" stroke="#4B4B4B" stroke-width="0.5"/>
<path d="M11.999 245.756H8.18084" stroke="#4B4B4B" stroke-width="0.5"/>
<path d="M11.999 246.859H8.18084" stroke="#4B4B4B" stroke-width="0.5"/>
<path d="M11.999 247.961H8.18084" stroke="#4B4B4B" stroke-width="0.5"/>
<path d="M11.999 249.064H8.18084" stroke="#4B4B4B" stroke-width="0.5"/>
<path d="M11.999 250.167H4.36266" stroke="#4B4B4B" stroke-width="0.5"/>
<path d="M11.999 251.269H8.18084" stroke="#4B4B4B" stroke-width="0.5"/>
<path d="M11.999 252.372H8.18084" stroke="#4B4B4B" stroke-width="0.5"/>
<path d="M11.999 253.474H8.18084" stroke="#4B4B4B" stroke-width="0.5"/>
<path d="M11.999 254.577H8.18084" stroke="#4B4B4B" stroke-width="0.5"/>
<path d="M11.999 255.679H8.18084" stroke="#4B4B4B" stroke-width="0.5"/>
<path d="M11.999 256.782H8.18084" stroke="#4B4B4B" stroke-width="0.5"/>
<path d="M11.999 257.885H8.18084" stroke="#4B4B4B" stroke-width="0.5"/>
<path d="M11.999 258.987H8.18084" stroke="#4B4B4B" stroke-width="0.5"/>
<path d="M11.999 260.09H4.36266" stroke="#4B4B4B" stroke-width="0.5"/>
<path d="M11.999 261.192H8.18084" stroke="#4B4B4B" stroke-width="0.5"/>
<path d="M11.999 262.295H8.18084" stroke="#4B4B4B" stroke-width="0.5"/>
<path d="M11.999 263.397H8.18084" stroke="#4B4B4B" stroke-width="0.5"/>
<path d="M11.999 264.5H8.18084" stroke="#4B4B4B" stroke-width="0.5"/>
<path d="M11.999 265.603H8.18084" stroke="#4B4B4B" stroke-width="0.5"/>
<path d="M11.999 266.705H8.18084" stroke="#4B4B4B" stroke-width="0.5"/>
<path d="M11.999 267.808H8.18084" stroke="#4B4B4B" stroke-width="0.5"/>
<path d="M11.999 268.91H8.18084" stroke="#4B4B4B" stroke-width="0.5"/>
<path d="M11.999 270.013H4.36266" stroke="#4B4B4B" stroke-width="0.5"/>
<path d="M11.999 271.115H8.18084" stroke="#4B4B4B" stroke-width="0.5"/>
<path d="M11.999 272.218H8.18084" stroke="#4B4B4B" stroke-width="0.5"/>
<path d="M11.999 273.321H8.18084" stroke="#4B4B4B" stroke-width="0.5"/>
<path d="M11.999 274.423H8.18084" stroke="#4B4B4B" stroke-width="0.5"/>
<path d="M11.999 275.526H8.18084" stroke="#4B4B4B" stroke-width="0.5"/>
<path d="M11.999 276.628H8.18084" stroke="#4B4B4B" stroke-width="0.5"/>
<path d="M11.999 277.731H4.36266" stroke="#4B4B4B" stroke-width="0.5"/>
<path d="M11.999 278.833H8.18084" stroke="#4B4B4B" stroke-width="0.5"/>
<path d="M11.999 279.936H8.18084" stroke="#4B4B4B" stroke-width="0.5"/>
<path d="M11.999 281.038H8.18084" stroke="#4B4B4B" stroke-width="0.5"/>
<path d="M11.999 282.141H8.18084" stroke="#4B4B4B" stroke-width="0.5"/>
<path d="M26.25 11.75L370.75 11.75L370.75 0.25L26.25 0.249985L26.25 11.75Z" stroke="#4B4B4B" stroke-width="0.5"/>
<path d="M362.891 12L362.891 8.18182" stroke="#4B4B4B" stroke-width="0.5"/>
<path d="M361.418 12L361.418 8.18182" stroke="#4B4B4B" stroke-width="0.5"/>
<path d="M359.941 12L359.941 8.18182" stroke="#4B4B4B" stroke-width="0.5"/>
<path d="M358.469 12L358.469 8.18182" stroke="#4B4B4B" stroke-width="0.5"/>
<path d="M356.994 12L356.994 8.18182" stroke="#4B4B4B" stroke-width="0.5"/>
<path d="M355.52 12L355.52 4.36364" stroke="#4B4B4B" stroke-width="0.5"/>
<path d="M354.045 12L354.045 8.18182" stroke="#4B4B4B" stroke-width="0.5"/>
<path d="M352.572 12L352.572 8.18182" stroke="#4B4B4B" stroke-width="0.5"/>
<path d="M351.096 12L351.096 8.18182" stroke="#4B4B4B" stroke-width="0.5"/>
<path d="M349.621 12L349.621 8.18182" stroke="#4B4B4B" stroke-width="0.5"/>
<path d="M348.146 12L348.146 8.18182" stroke="#4B4B4B" stroke-width="0.5"/>
<path d="M346.672 12L346.672 8.18182" stroke="#4B4B4B" stroke-width="0.5"/>
<path d="M345.199 12L345.199 8.18182" stroke="#4B4B4B" stroke-width="0.5"/>
<path d="M343.723 12L343.723 8.18182" stroke="#4B4B4B" stroke-width="0.5"/>
<path d="M342.25 12L342.25 4.36364" stroke="#4B4B4B" stroke-width="0.5"/>
<path d="M340.773 12L340.773 8.18182" stroke="#4B4B4B" stroke-width="0.5"/>
<path d="M339.301 12L339.301 8.18182" stroke="#4B4B4B" stroke-width="0.5"/>
<path d="M337.826 12L337.826 8.18182" stroke="#4B4B4B" stroke-width="0.5"/>
<path d="M336.354 12L336.354 8.18182" stroke="#4B4B4B" stroke-width="0.5"/>
<path d="M334.877 12L334.877 8.18182" stroke="#4B4B4B" stroke-width="0.5"/>
<path d="M333.404 12L333.404 8.18182" stroke="#4B4B4B" stroke-width="0.5"/>
<path d="M331.928 12L331.928 8.18182" stroke="#4B4B4B" stroke-width="0.5"/>
<path d="M330.455 12L330.455 8.18182" stroke="#4B4B4B" stroke-width="0.5"/>
<path d="M328.98 12L328.98 8.18182" stroke="#4B4B4B" stroke-width="0.5"/>
<path d="M327.506 12L327.506 8.18182" stroke="#4B4B4B" stroke-width="0.5"/>
<path d="M326.031 12L326.031 8.18182" stroke="#4B4B4B" stroke-width="0.5"/>
<path d="M324.559 12L324.559 4.36364" stroke="#4B4B4B" stroke-width="0.5"/>
<path d="M323.082 12L323.082 8.18182" stroke="#4B4B4B" stroke-width="0.5"/>
<path d="M321.609 12L321.609 8.18182" stroke="#4B4B4B" stroke-width="0.5"/>
<path d="M320.135 12L320.135 8.18182" stroke="#4B4B4B" stroke-width="0.5"/>
<path d="M318.66 12L318.66 8.18182" stroke="#4B4B4B" stroke-width="0.5"/>
<path d="M317.186 12L317.186 8.18182" stroke="#4B4B4B" stroke-width="0.5"/>
<path d="M315.713 12L315.713 8.18182" stroke="#4B4B4B" stroke-width="0.5"/>
<path d="M314.236 12L314.236 8.18182" stroke="#4B4B4B" stroke-width="0.5"/>
<path d="M312.764 12L312.764 8.18182" stroke="#4B4B4B" stroke-width="0.5"/>
<path d="M311.287 12L311.287 8.18182" stroke="#4B4B4B" stroke-width="0.5"/>
<path d="M309.814 12L309.814 8.18182" stroke="#4B4B4B" stroke-width="0.5"/>
<path d="M308.34 12L308.34 8.18182" stroke="#4B4B4B" stroke-width="0.5"/>
<path d="M306.865 12L306.865 8.18182" stroke="#4B4B4B" stroke-width="0.5"/>
<path d="M305.391 12L305.391 4.36364" stroke="#4B4B4B" stroke-width="0.5"/>
<path d="M303.918 12L303.918 8.18182" stroke="#4B4B4B" stroke-width="0.5"/>
<path d="M302.441 12L302.441 8.18182" stroke="#4B4B4B" stroke-width="0.5"/>
<path d="M300.969 12L300.969 8.18182" stroke="#4B4B4B" stroke-width="0.5"/>
<path d="M299.494 12L299.494 8.18182" stroke="#4B4B4B" stroke-width="0.5"/>
<path d="M298.02 12L298.02 8.18182" stroke="#4B4B4B" stroke-width="0.5"/>
<path d="M296.545 12L296.545 8.18182" stroke="#4B4B4B" stroke-width="0.5"/>
<path d="M295.072 12L295.072 8.18182" stroke="#4B4B4B" stroke-width="0.5"/>
<path d="M293.596 12L293.596 8.18182" stroke="#4B4B4B" stroke-width="0.5"/>
<path d="M292.123 12L292.123 8.18182" stroke="#4B4B4B" stroke-width="0.5"/>
<path d="M290.646 12L290.646 8.18182" stroke="#4B4B4B" stroke-width="0.5"/>
<path d="M289.174 12L289.174 8.18182" stroke="#4B4B4B" stroke-width="0.5"/>
<path d="M287.699 12L287.699 8.18182" stroke="#4B4B4B" stroke-width="0.5"/>
<path d="M286.227 12L286.227 8.18182" stroke="#4B4B4B" stroke-width="0.5"/>
<path d="M284.75 12L284.75 8.18182" stroke="#4B4B4B" stroke-width="0.5"/>
<path d="M283.273 12L283.273 8.18182" stroke="#4B4B4B" stroke-width="0.5"/>
<path d="M281.801 12L281.801 8.18182" stroke="#4B4B4B" stroke-width="0.5"/>
<path d="M280.326 12L280.326 4.36364" stroke="#4B4B4B" stroke-width="0.5"/>
<path d="M278.854 12L278.854 8.18182" stroke="#4B4B4B" stroke-width="0.5"/>
<path d="M277.377 12L277.377 8.18182" stroke="#4B4B4B" stroke-width="0.5"/>
<path d="M275.904 12L275.904 8.18182" stroke="#4B4B4B" stroke-width="0.5"/>
<path d="M274.428 12L274.428 8.18182" stroke="#4B4B4B" stroke-width="0.5"/>
<path d="M272.955 12L272.955 8.18182" stroke="#4B4B4B" stroke-width="0.5"/>
<path d="M271.48 12L271.48 8.18182" stroke="#4B4B4B" stroke-width="0.5"/>
<path d="M270.006 12L270.006 8.18182" stroke="#4B4B4B" stroke-width="0.5"/>
<path d="M268.531 12L268.531 8.18182" stroke="#4B4B4B" stroke-width="0.5"/>
<path d="M267.059 12L267.059 8.18182" stroke="#4B4B4B" stroke-width="0.5"/>
<path d="M265.582 12L265.582 8.18182" stroke="#4B4B4B" stroke-width="0.5"/>
<path d="M264.109 12L264.109 8.18182" stroke="#4B4B4B" stroke-width="0.5"/>
<path d="M262.635 12L262.635 8.18182" stroke="#4B4B4B" stroke-width="0.5"/>
<path d="M261.16 12L261.16 8.18182" stroke="#4B4B4B" stroke-width="0.5"/>
<path d="M259.686 12L259.686 4.36364" stroke="#4B4B4B" stroke-width="0.5"/>
<path d="M258.213 12L258.213 8.18182" stroke="#4B4B4B" stroke-width="0.5"/>
<path d="M256.736 12L256.736 8.18182" stroke="#4B4B4B" stroke-width="0.5"/>
<path d="M255.264 12L255.264 8.18182" stroke="#4B4B4B" stroke-width="0.5"/>
<path d="M253.787 12L253.787 8.18182" stroke="#4B4B4B" stroke-width="0.5"/>
<path d="M252.314 12L252.314 8.18182" stroke="#4B4B4B" stroke-width="0.5"/>
<path d="M250.84 12L250.84 8.18182" stroke="#4B4B4B" stroke-width="0.5"/>
<path d="M249.365 12L249.365 8.18182" stroke="#4B4B4B" stroke-width="0.5"/>
<path d="M247.891 12L247.891 8.18182" stroke="#4B4B4B" stroke-width="0.5"/>
<path d="M246.418 12L246.418 4.36364" stroke="#4B4B4B" stroke-width="0.5"/>
<path d="M244.941 12L244.941 8.18182" stroke="#4B4B4B" stroke-width="0.5"/>
<path d="M243.469 12L243.469 8.18182" stroke="#4B4B4B" stroke-width="0.5"/>
<path d="M241.994 12L241.994 8.18182" stroke="#4B4B4B" stroke-width="0.5"/>
<path d="M240.52 12L240.52 8.18182" stroke="#4B4B4B" stroke-width="0.5"/>
<path d="M239.045 12L239.045 8.18182" stroke="#4B4B4B" stroke-width="0.5"/>
<path d="M237.572 12L237.572 8.18182" stroke="#4B4B4B" stroke-width="0.5"/>
<path d="M236.096 12L236.096 8.18182" stroke="#4B4B4B" stroke-width="0.5"/>
<path d="M234.623 12L234.623 8.18182" stroke="#4B4B4B" stroke-width="0.5"/>
<path d="M233.146 12L233.146 4.36364" stroke="#4B4B4B" stroke-width="0.5"/>
<path d="M231.674 12L231.674 8.18182" stroke="#4B4B4B" stroke-width="0.5"/>
<path d="M230.199 12L230.199 8.18182" stroke="#4B4B4B" stroke-width="0.5"/>
<path d="M228.727 12L228.727 8.18182" stroke="#4B4B4B" stroke-width="0.5"/>
<path d="M227.25 12L227.25 8.18182" stroke="#4B4B4B" stroke-width="0.5"/>
<path d="M225.777 12L225.777 8.18182" stroke="#4B4B4B" stroke-width="0.5"/>
<path d="M224.301 12L224.301 8.18182" stroke="#4B4B4B" stroke-width="0.5"/>
<path d="M222.828 12L222.828 8.18182" stroke="#4B4B4B" stroke-width="0.5"/>
<path d="M221.354 12L221.354 8.18182" stroke="#4B4B4B" stroke-width="0.5"/>
<path d="M219.879 12L219.879 8.18182" stroke="#4B4B4B" stroke-width="0.5"/>
<path d="M218.404 12L218.404 8.18182" stroke="#4B4B4B" stroke-width="0.5"/>
<path d="M216.928 12L216.928 8.18182" stroke="#4B4B4B" stroke-width="0.5"/>
<path d="M215.455 12L215.455 4.36364" stroke="#4B4B4B" stroke-width="0.5"/>
<path d="M213.98 12L213.98 8.18182" stroke="#4B4B4B" stroke-width="0.5"/>
<path d="M212.506 12L212.506 8.18182" stroke="#4B4B4B" stroke-width="0.5"/>
<path d="M211.031 12L211.031 8.18182" stroke="#4B4B4B" stroke-width="0.5"/>
<path d="M209.559 12L209.559 8.18182" stroke="#4B4B4B" stroke-width="0.5"/>
<path d="M208.082 12L208.082 8.18182" stroke="#4B4B4B" stroke-width="0.5"/>
<path d="M206.609 12L206.609 8.18182" stroke="#4B4B4B" stroke-width="0.5"/>
<path d="M205.135 12L205.135 8.18182" stroke="#4B4B4B" stroke-width="0.5"/>
<path d="M203.66 12L203.66 8.18182" stroke="#4B4B4B" stroke-width="0.5"/>
<path d="M202.186 12L202.186 8.18182" stroke="#4B4B4B" stroke-width="0.5"/>
<path d="M200.713 12L200.713 8.18182" stroke="#4B4B4B" stroke-width="0.5"/>
<path d="M199.236 12L199.236 4.36364" stroke="#4B4B4B" stroke-width="0.5"/>
<path d="M197.764 12L197.764 8.18182" stroke="#4B4B4B" stroke-width="0.5"/>
<path d="M196.287 12L196.287 8.18182" stroke="#4B4B4B" stroke-width="0.5"/>
<path d="M194.814 12L194.814 8.18182" stroke="#4B4B4B" stroke-width="0.5"/>
<path d="M193.34 12L193.34 8.18182" stroke="#4B4B4B" stroke-width="0.5"/>
<path d="M191.865 12L191.865 8.18182" stroke="#4B4B4B" stroke-width="0.5"/>
<path d="M190.391 12L190.391 8.18182" stroke="#4B4B4B" stroke-width="0.5"/>
<path d="M188.918 12L188.918 8.18182" stroke="#4B4B4B" stroke-width="0.5"/>
<path d="M187.441 12L187.441 8.18182" stroke="#4B4B4B" stroke-width="0.5"/>
<path d="M185.969 12L185.969 4.36364" stroke="#4B4B4B" stroke-width="0.5"/>
<path d="M184.494 12L184.494 8.18182" stroke="#4B4B4B" stroke-width="0.5"/>
<path d="M183.02 12L183.02 8.18182" stroke="#4B4B4B" stroke-width="0.5"/>
<path d="M181.545 12L181.545 8.18182" stroke="#4B4B4B" stroke-width="0.5"/>
<path d="M180.072 12L180.072 8.18182" stroke="#4B4B4B" stroke-width="0.5"/>
<path d="M178.596 12L178.596 8.18182" stroke="#4B4B4B" stroke-width="0.5"/>
<path d="M177.123 12L177.123 8.18182" stroke="#4B4B4B" stroke-width="0.5"/>
<path d="M175.646 12L175.646 8.18182" stroke="#4B4B4B" stroke-width="0.5"/>
<path d="M174.172 12L174.172 8.18182" stroke="#4B4B4B" stroke-width="0.5"/>
<path d="M172.699 12L172.699 8.18182" stroke="#4B4B4B" stroke-width="0.5"/>
<path d="M171.223 12L171.223 4.36364" stroke="#4B4B4B" stroke-width="0.5"/>
<path d="M169.75 12L169.75 8.18182" stroke="#4B4B4B" stroke-width="0.5"/>
<path d="M168.273 12L168.273 8.18182" stroke="#4B4B4B" stroke-width="0.5"/>
<path d="M166.801 12L166.801 8.18182" stroke="#4B4B4B" stroke-width="0.5"/>
<path d="M165.326 12L165.326 8.18182" stroke="#4B4B4B" stroke-width="0.5"/>
<path d="M163.854 12L163.854 8.18182" stroke="#4B4B4B" stroke-width="0.5"/>
<path d="M162.377 12L162.377 8.18182" stroke="#4B4B4B" stroke-width="0.5"/>
<path d="M160.904 12L160.904 8.18182" stroke="#4B4B4B" stroke-width="0.5"/>
<path d="M159.428 12L159.428 4.36364" stroke="#4B4B4B" stroke-width="0.5"/>
<path d="M157.955 12L157.955 8.18182" stroke="#4B4B4B" stroke-width="0.5"/>
<path d="M156.48 12L156.48 8.18182" stroke="#4B4B4B" stroke-width="0.5"/>
<path d="M155.006 12L155.006 8.18182" stroke="#4B4B4B" stroke-width="0.5"/>
<path d="M153.531 12L153.531 8.18182" stroke="#4B4B4B" stroke-width="0.5"/>
<path d="M152.059 12L152.059 8.18182" stroke="#4B4B4B" stroke-width="0.5"/>
<path d="M150.582 12L150.582 8.18182" stroke="#4B4B4B" stroke-width="0.5"/>
<path d="M149.109 12L149.109 8.18182" stroke="#4B4B4B" stroke-width="0.5"/>
<path d="M147.635 12L147.635 8.18182" stroke="#4B4B4B" stroke-width="0.5"/>
<path d="M146.16 12L146.16 8.18182" stroke="#4B4B4B" stroke-width="0.5"/>
<path d="M144.686 12L144.686 4.36364" stroke="#4B4B4B" stroke-width="0.5"/>
<path d="M143.213 12L143.213 8.18182" stroke="#4B4B4B" stroke-width="0.5"/>
<path d="M141.736 12L141.736 8.18182" stroke="#4B4B4B" stroke-width="0.5"/>
<path d="M140.264 12L140.264 8.18182" stroke="#4B4B4B" stroke-width="0.5"/>
<path d="M138.787 12L138.787 8.18182" stroke="#4B4B4B" stroke-width="0.5"/>
<path d="M137.314 12L137.314 8.18182" stroke="#4B4B4B" stroke-width="0.5"/>
<path d="M135.84 12L135.84 8.18182" stroke="#4B4B4B" stroke-width="0.5"/>
<path d="M134.365 12L134.365 8.18182" stroke="#4B4B4B" stroke-width="0.5"/>
<path d="M132.891 12L132.891 8.18182" stroke="#4B4B4B" stroke-width="0.5"/>
<path d="M131.418 12L131.418 4.36364" stroke="#4B4B4B" stroke-width="0.5"/>
<path d="M129.941 12L129.941 8.18182" stroke="#4B4B4B" stroke-width="0.5"/>
<path d="M128.469 12L128.469 8.18182" stroke="#4B4B4B" stroke-width="0.5"/>
<path d="M126.994 12L126.994 8.18182" stroke="#4B4B4B" stroke-width="0.5"/>
<path d="M125.52 12L125.52 8.18182" stroke="#4B4B4B" stroke-width="0.5"/>
<path d="M124.045 12L124.045 8.18182" stroke="#4B4B4B" stroke-width="0.5"/>
<path d="M122.572 12L122.572 8.18182" stroke="#4B4B4B" stroke-width="0.5"/>
<path d="M121.096 12L121.096 8.18182" stroke="#4B4B4B" stroke-width="0.5"/>
<path d="M119.623 12L119.623 8.18182" stroke="#4B4B4B" stroke-width="0.5"/>
<path d="M118.146 12L118.146 8.18182" stroke="#4B4B4B" stroke-width="0.5"/>
<path d="M116.674 12L116.674 8.18182" stroke="#4B4B4B" stroke-width="0.5"/>
<path d="M115.199 12L115.199 8.18182" stroke="#4B4B4B" stroke-width="0.5"/>
<path d="M113.723 12L113.723 4.36364" stroke="#4B4B4B" stroke-width="0.5"/>
<path d="M112.25 12L112.25 8.18182" stroke="#4B4B4B" stroke-width="0.5"/>
<path d="M110.777 12L110.777 8.18182" stroke="#4B4B4B" stroke-width="0.5"/>
<path d="M109.301 12L109.301 8.18182" stroke="#4B4B4B" stroke-width="0.5"/>
<path d="M107.826 12L107.826 8.18182" stroke="#4B4B4B" stroke-width="0.5"/>
<path d="M106.354 12L106.354 8.18182" stroke="#4B4B4B" stroke-width="0.5"/>
<path d="M104.877 12L104.877 8.18182" stroke="#4B4B4B" stroke-width="0.5"/>
<path d="M103.404 12L103.404 8.18182" stroke="#4B4B4B" stroke-width="0.5"/>
<path d="M101.928 12L101.928 8.18182" stroke="#4B4B4B" stroke-width="0.5"/>
<path d="M100.455 12L100.455 4.36364" stroke="#4B4B4B" stroke-width="0.5"/>
<path d="M98.9805 12L98.9805 8.18182" stroke="#4B4B4B" stroke-width="0.5"/>
<path d="M97.5059 12L97.5059 8.18182" stroke="#4B4B4B" stroke-width="0.5"/>
<path d="M96.0312 12L96.0313 8.18182" stroke="#4B4B4B" stroke-width="0.5"/>
<path d="M94.5586 12L94.5586 8.18182" stroke="#4B4B4B" stroke-width="0.5"/>
<path d="M93.082 12L93.082 8.18182" stroke="#4B4B4B" stroke-width="0.5"/>
<path d="M91.6094 12L91.6094 8.18182" stroke="#4B4B4B" stroke-width="0.5"/>
<path d="M90.1348 12L90.1348 8.18182" stroke="#4B4B4B" stroke-width="0.5"/>
<path d="M88.6602 12L88.6602 8.18182" stroke="#4B4B4B" stroke-width="0.5"/>
<path d="M87.1855 12L87.1855 4.36364" stroke="#4B4B4B" stroke-width="0.5"/>
<path d="M85.7129 12L85.7129 8.18182" stroke="#4B4B4B" stroke-width="0.5"/>
<path d="M84.2363 12L84.2363 8.18182" stroke="#4B4B4B" stroke-width="0.5"/>
<path d="M82.7637 12L82.7637 8.18182" stroke="#4B4B4B" stroke-width="0.5"/>
<path d="M81.2871 12L81.2871 8.18182" stroke="#4B4B4B" stroke-width="0.5"/>
<path d="M79.8145 12L79.8145 8.18182" stroke="#4B4B4B" stroke-width="0.5"/>
<path d="M78.3398 12L78.3398 8.18182" stroke="#4B4B4B" stroke-width="0.5"/>
<path d="M76.8652 12L76.8652 8.18182" stroke="#4B4B4B" stroke-width="0.5"/>
<path d="M75.3906 12L75.3906 8.18182" stroke="#4B4B4B" stroke-width="0.5"/>
<path d="M73.918 12L73.918 4.36364" stroke="#4B4B4B" stroke-width="0.5"/>
<path d="M72.4414 12L72.4414 8.18182" stroke="#4B4B4B" stroke-width="0.5"/>
<path d="M70.9688 12L70.9688 8.18182" stroke="#4B4B4B" stroke-width="0.5"/>
<path d="M69.4941 12L69.4941 8.18182" stroke="#4B4B4B" stroke-width="0.5"/>
<path d="M68.0195 12L68.0195 8.18182" stroke="#4B4B4B" stroke-width="0.5"/>
<path d="M66.5449 12L66.5449 8.18182" stroke="#4B4B4B" stroke-width="0.5"/>
<path d="M65.0723 12L65.0723 8.18182" stroke="#4B4B4B" stroke-width="0.5"/>
<path d="M63.5957 12L63.5957 8.18182" stroke="#4B4B4B" stroke-width="0.5"/>
<path d="M62.123 12L62.123 8.18182" stroke="#4B4B4B" stroke-width="0.5"/>
<path d="M60.6465 12L60.6465 4.36364" stroke="#4B4B4B" stroke-width="0.5"/>
<path d="M59.1738 12L59.1738 8.18182" stroke="#4B4B4B" stroke-width="0.5"/>
<path d="M57.6992 12L57.6992 8.18182" stroke="#4B4B4B" stroke-width="0.5"/>
<path d="M56.2266 12L56.2266 8.18182" stroke="#4B4B4B" stroke-width="0.5"/>
<path d="M54.75 12L54.75 8.18182" stroke="#4B4B4B" stroke-width="0.5"/>
<path d="M53.2773 12L53.2773 8.18182" stroke="#4B4B4B" stroke-width="0.5"/>
<path d="M51.8008 12L51.8008 8.18182" stroke="#4B4B4B" stroke-width="0.5"/>
<path d="M50.3281 12L50.3281 8.18182" stroke="#4B4B4B" stroke-width="0.5"/>
<path d="M48.8535 12L48.8535 8.18182" stroke="#4B4B4B" stroke-width="0.5"/>
<path d="M47.377 12L47.377 4.36364" stroke="#4B4B4B" stroke-width="0.5"/>
<path d="M45.9043 12L45.9043 8.18182" stroke="#4B4B4B" stroke-width="0.5"/>
<path d="M44.4277 12L44.4277 8.18182" stroke="#4B4B4B" stroke-width="0.5"/>
<path d="M42.9551 12L42.9551 8.18182" stroke="#4B4B4B" stroke-width="0.5"/>
<path d="M41.4805 12L41.4805 8.18182" stroke="#4B4B4B" stroke-width="0.5"/>
<path d="M40.0059 12L40.0059 8.18182" stroke="#4B4B4B" stroke-width="0.5"/>
<path d="M38.5312 12L38.5313 8.18182" stroke="#4B4B4B" stroke-width="0.5"/>
<path d="M37.0586 12L37.0586 4.36364" stroke="#4B4B4B" stroke-width="0.5"/>
<path d="M35.582 12L35.582 8.18182" stroke="#4B4B4B" stroke-width="0.5"/>
<path d="M34.1094 12L34.1094 8.18182" stroke="#4B4B4B" stroke-width="0.5"/>
<path d="M32.6348 12L32.6348 8.18182" stroke="#4B4B4B" stroke-width="0.5"/>
<path d="M31.1602 12L31.1602 8.18182" stroke="#4B4B4B" stroke-width="0.5"/>
<path d="M199.998 27.7188H26.1953V278.031H371.326V198.941L199.998 27.7188Z" stroke="#4B4B4B" stroke-width="0.5" stroke-linecap="round" stroke-linejoin="round"/>
<path d="M149.831 34.3506H84.2621C55.5901 34.3506 32.3467 57.6045 32.3467 86.2897C32.3467 99.9915 37.7581 113.138 47.4024 122.866L160.326 236.77C179.916 256.53 206.584 267.645 234.403 267.645H317.785C342.373 267.645 362.306 247.704 362.306 223.104C362.306 211.35 357.662 200.073 349.386 191.73L223.89 65.2077C204.301 45.4584 177.641 34.3506 149.831 34.3506Z" fill="#9F1127" fill-opacity="0.4"/>
<path d="M371.326 278.031H26.1953V285.744H371.326V278.031Z" stroke="#4B4B4B" stroke-width="0.5" stroke-linecap="round" stroke-linejoin="round"/>
<path d="M26.1953 115.148V278.031V285.744H196.896L26.1953 115.148Z" stroke="#4B4B4B" stroke-width="0.5" stroke-linecap="round" stroke-linejoin="round"/>
<path d="M86.6982 235.09L87.4986 242.775L92.661 243.385V234.272L86.6982 235.09Z" fill="white"/>
<path d="M92.6608 243.729C92.6467 243.729 92.6341 243.729 92.62 243.726L87.4576 243.117C87.2978 243.098 87.171 242.971 87.1553 242.81L86.3534 235.124C86.3346 234.939 86.4646 234.772 86.6494 234.747L92.6138 233.929C92.7124 233.915 92.8127 233.945 92.8879 234.01C92.963 234.076 93.0053 234.17 93.0053 234.27V243.383C93.0053 243.482 92.963 243.576 92.8894 243.641C92.8268 243.698 92.7438 243.729 92.6608 243.729V243.729ZM87.8131 242.465L92.3162 242.996V234.667L87.0754 235.386L87.8131 242.464V242.465Z" fill="black"/>
<path d="M110.876 230.999L111.65 242.213H117.862L118.151 230.999H110.876Z" fill="white"/>
<path d="M117.861 242.557H111.649C111.468 242.557 111.317 242.417 111.305 242.236L110.531 231.022C110.525 230.926 110.558 230.832 110.623 230.763C110.689 230.693 110.78 230.654 110.876 230.654H118.149C118.242 230.654 118.331 230.691 118.397 230.757C118.463 230.825 118.497 230.914 118.496 231.006L118.207 242.221C118.203 242.407 118.049 242.557 117.863 242.557H117.861ZM111.972 241.868H117.526L117.797 231.343H111.247L111.974 241.868H111.972Z" fill="black"/>
<path d="M118.161 250.633C116.009 250.798 112.481 250.942 108.338 250.63C106.983 250.528 106.084 249.814 106.411 249.094C107.323 247.083 108.894 243.268 111.591 241.499L112.261 242.458L113.187 241.555C113.314 241.432 113.541 241.348 113.799 241.331L115.826 241.191C116.249 241.163 116.644 241.315 116.731 241.541L117.054 242.373L118.29 241.282L118.838 245.355C118.956 246.228 119.198 247.095 119.565 247.946L120.118 249.231C120.282 249.911 119.413 250.538 118.161 250.634V250.633Z" fill="white"/>
<path d="M113.282 251C111.771 251 110.087 250.949 108.29 250.814C107.55 250.759 106.882 250.535 106.461 250.2C106.038 249.864 105.897 249.444 106.076 249.049L106.271 248.613C107.202 246.536 108.762 243.06 111.324 241.38C111.403 241.328 111.525 241.302 111.647 241.315C111.769 241.326 111.869 241.37 111.913 241.433L112.32 242.014L112.884 241.464C113.064 241.289 113.39 241.169 113.755 241.144L115.782 241.005C116.379 240.965 116.944 241.182 117.068 241.5L117.212 241.873L117.993 241.183C118.072 241.114 118.224 241.08 118.369 241.099C118.515 241.119 118.622 241.186 118.632 241.266L119.181 245.34C119.297 246.2 119.539 247.062 119.9 247.903L120.453 249.188C120.648 249.984 119.638 250.707 118.21 250.816C116.942 250.913 115.257 250.999 113.281 250.999L113.282 251ZM111.489 241.878C109.241 243.577 107.814 246.76 106.943 248.701L106.748 249.138C106.614 249.431 106.719 249.742 107.033 249.991C107.344 250.239 107.838 250.405 108.386 250.446C112.454 250.752 115.921 250.617 118.114 250.449C119.171 250.368 119.917 249.832 119.776 249.255L119.229 247.988C118.86 247.129 118.612 246.248 118.495 245.368L118.023 241.873L117.348 242.469C117.275 242.534 117.134 242.568 116.996 242.555C116.856 242.542 116.745 242.484 116.717 242.41L116.394 241.578C116.343 241.445 116.115 241.357 115.871 241.375L113.844 241.515C113.696 241.525 113.562 241.574 113.489 241.645L112.563 242.548C112.497 242.611 112.372 242.648 112.236 242.643C112.101 242.638 111.985 242.591 111.938 242.524L111.487 241.879L111.489 241.878Z" fill="black"/>
<path d="M113.786 249.757C112.505 249.757 110.981 249.624 109.268 249.231C109.081 249.189 108.965 249.004 109.009 248.818C109.052 248.631 109.236 248.514 109.423 248.559C114.443 249.71 117.846 248.523 117.881 248.511C118.059 248.445 118.257 248.539 118.322 248.717C118.387 248.896 118.294 249.093 118.116 249.159C118.018 249.195 116.418 249.757 113.788 249.757H113.786Z" fill="black"/>
<path d="M111.293 243.852C111.108 243.852 110.955 243.705 110.948 243.519C110.942 243.328 111.091 243.17 111.282 243.163L116.12 243.002C116.313 242.98 116.47 243.145 116.476 243.336C116.482 243.527 116.333 243.685 116.142 243.691L111.304 243.852C111.304 243.852 111.296 243.852 111.291 243.852H111.293Z" fill="black"/>
<path d="M84.9367 157.886C84.9367 157.886 83.0117 192.946 82.0046 205.048C80.9975 217.151 84.3603 236.606 84.3603 236.606L93.949 236.098C93.949 236.098 94.6069 212.444 95.3179 205.875C95.3179 205.875 99.3683 196.971 100.568 189.029C101.768 181.086 105.857 168.542 105.857 168.542C105.857 168.542 109.178 231.154 109.497 236.073C109.497 236.073 117.016 236.41 119.711 234.703C119.711 234.703 124.488 211.873 123.802 199.451C123.116 187.029 123.87 156.168 123.87 156.168L84.9351 157.886H84.9367Z" fill="white"/>
<path d="M84.3596 236.95C84.1936 236.95 84.0479 236.83 84.0197 236.664C83.9853 236.469 80.6616 217.027 81.6609 205.019C82.6555 193.059 84.5726 158.217 84.593 157.866C84.6024 157.689 84.7449 157.548 84.9219 157.54L123.856 155.822C123.955 155.814 124.044 155.853 124.113 155.921C124.182 155.988 124.22 156.08 124.217 156.176C124.209 156.485 123.471 187.166 124.149 199.432C124.829 211.755 120.1 234.545 120.052 234.773C120.033 234.864 119.978 234.944 119.898 234.994C117.142 236.739 109.796 236.43 109.484 236.418C109.309 236.41 109.166 236.271 109.155 236.095C108.87 231.716 106.175 180.98 105.616 170.459C104.449 174.223 101.824 183.041 100.91 189.08C99.7639 196.666 95.9876 205.224 95.6556 205.966C94.9554 212.521 94.3007 235.871 94.2945 236.108C94.2898 236.288 94.1472 236.433 93.9671 236.443L84.3784 236.95C84.3784 236.95 84.3659 236.95 84.3596 236.95V236.95ZM85.2633 158.217C85.0691 161.732 83.293 193.715 82.3469 205.077C81.4228 216.178 84.2312 233.732 84.6478 236.244L93.6116 235.769C93.693 232.925 94.3133 211.929 94.9742 205.838C94.9789 205.802 94.9883 205.766 95.0024 205.731C95.0432 205.642 99.0466 196.777 100.226 188.975C101.416 181.097 105.487 168.559 105.528 168.434C105.579 168.275 105.739 168.175 105.901 168.199C106.065 168.221 106.19 168.357 106.2 168.523C106.233 169.138 109.407 229.005 109.821 235.738C111.227 235.776 117.046 235.846 119.403 234.485C119.809 232.505 124.104 211.187 123.457 199.469C122.818 187.91 123.433 160.065 123.515 156.528L85.2618 158.217H85.2633Z" fill="black"/>
<path d="M93.5514 206.218H90.6209C90.4299 206.218 90.2764 206.063 90.2764 205.874C90.2764 205.684 90.4314 205.529 90.6209 205.529H93.5514C93.7425 205.529 93.896 205.684 93.896 205.874C93.896 206.063 93.741 206.218 93.5514 206.218Z" fill="black"/>
<path d="M114.429 224.428H114.422C114.231 224.425 114.081 224.267 114.084 224.077C114.191 218.277 120.507 207.89 120.777 207.45C120.875 207.288 121.088 207.235 121.251 207.335C121.414 207.434 121.466 207.647 121.366 207.81C121.301 207.916 114.877 218.476 114.775 224.09C114.772 224.278 114.618 224.428 114.43 224.428H114.429Z" fill="black"/>
<path d="M82.3151 214.633C84.4672 214.798 87.996 214.942 92.1388 214.63C93.4936 214.528 94.3927 213.814 94.0653 213.094C93.1538 211.083 91.5828 207.268 88.8857 205.499L88.2153 206.458L87.2896 205.555C87.1628 205.432 86.9356 205.348 86.6772 205.331L84.6504 205.191C84.2276 205.163 83.8329 205.315 83.7451 205.541L83.4225 206.373L82.1867 205.282L81.6385 209.355C81.521 210.228 81.2783 211.095 80.9118 211.946L80.3589 213.231C80.1944 213.911 81.0637 214.538 82.3151 214.634V214.633Z" fill="white"/>
<path d="M87.1945 215C88.7059 215 90.3897 214.949 92.1862 214.814C92.927 214.759 93.5943 214.535 94.0156 214.2C94.4385 213.864 94.5794 213.444 94.4009 213.049L94.2051 212.613C93.2747 210.536 91.7147 207.06 89.1523 205.38C89.074 205.328 88.9518 205.302 88.8296 205.315C88.7075 205.326 88.6072 205.37 88.5634 205.433L88.1562 206.014L87.5923 205.464C87.4122 205.289 87.0864 205.169 86.7214 205.144L84.6947 205.005C84.0979 204.965 83.5325 205.182 83.4088 205.5L83.2647 205.873L82.4831 205.183C82.4048 205.114 82.2529 205.08 82.1072 205.099C81.9615 205.119 81.855 205.186 81.8441 205.266L81.2959 209.34C81.18 210.2 80.9372 211.062 80.577 211.903L80.0241 213.188C79.8283 213.984 80.8385 214.707 82.267 214.816C83.5341 214.913 85.2194 214.999 87.196 214.999L87.1945 215ZM88.9878 205.878C91.2354 207.577 92.6623 210.76 93.5332 212.701L93.729 213.138C93.8621 213.431 93.7571 213.742 93.4439 213.991C93.1322 214.239 92.6388 214.405 92.0906 214.446C88.023 214.752 84.5553 214.617 82.3625 214.449C81.3053 214.368 80.5597 213.832 80.7007 213.255L81.2473 211.988C81.617 211.129 81.8644 210.248 81.9819 209.368L82.4533 205.873L83.1284 206.469C83.202 206.534 83.343 206.568 83.4808 206.555C83.6202 206.542 83.7314 206.484 83.7596 206.41L84.0823 205.578C84.134 205.445 84.3611 205.357 84.6054 205.375L86.6322 205.515C86.781 205.525 86.9141 205.574 86.9877 205.645L87.9134 206.548C87.9792 206.611 88.1045 206.648 88.2407 206.643C88.3754 206.638 88.4913 206.591 88.5383 206.524L88.9894 205.879L88.9878 205.878Z" fill="black"/>
<path d="M86.6902 213.757C87.9714 213.757 89.4953 213.624 91.2089 213.231C91.3952 213.189 91.5111 213.004 91.4673 212.818C91.425 212.631 91.2402 212.514 91.0538 212.559C86.0339 213.71 82.6304 212.523 82.5959 212.511C82.4174 212.445 82.22 212.539 82.1542 212.717C82.09 212.896 82.1824 213.093 82.361 213.159C82.4581 213.195 84.0588 213.757 86.6886 213.757H86.6902Z" fill="black"/>
<path d="M89.1835 207.852C89.3684 207.852 89.5219 207.705 89.5281 207.519C89.5344 207.328 89.3856 207.17 89.1945 207.163L84.3563 207.002C84.1636 206.98 84.007 207.145 84.0007 207.336C83.9945 207.527 84.1433 207.685 84.3344 207.691L89.1726 207.852C89.1726 207.852 89.1804 207.852 89.1851 207.852H89.1835Z" fill="black"/>
<path d="M110.133 90.4582C110.133 90.4582 107.615 88.9076 107.64 88.0023L106.921 83.3504C106.913 82.9244 107.176 82.5422 107.572 82.4028L109 80.4999C109.379 80.3652 109.625 79.9908 109.598 79.5836L110.5 76.9999V75.9999C110.591 75.9184 110.603 75.779 110.525 75.6851L110.266 73.1712C109.663 72.3223 109.059 70.2908 108.564 70.4287C108.564 70.4287 98.0556 69.2148 97.5434 74.5135C97.4698 75.281 97.7 76.0469 98.1449 76.6734L99.0752 77.986C100.01 79.3032 100.502 80.918 100.336 82.5328C100.302 82.868 99.8646 85.0279 99.5733 86.4564C99.4073 87.2677 98.9578 87.9882 98.3046 88.491C97.4839 89.1237 96.4846 89.9288 96.6475 89.9805C96.6475 89.9805 97.8112 90.8357 99.6485 91.5922C102.911 92.9376 106.622 92.6024 109.635 90.7621L110.135 90.4566L110.133 90.4582Z" fill="white"/>
<path d="M103.794 92.7528C102.337 92.7528 100.884 92.4756 99.5177 91.9117C97.6633 91.1474 96.4933 90.2953 96.4447 90.2593C96.368 90.2029 96.3069 90.1136 96.2912 90.0228C96.2505 89.7878 96.227 89.6579 98.0956 88.2184C98.6829 87.7658 99.0886 87.1158 99.2374 86.3875C99.8639 83.3285 99.9814 82.6378 99.9955 82.4984C100.147 81.0214 99.7214 79.4896 98.7973 78.1865L97.8669 76.8739C97.3594 76.1581 97.1229 75.3092 97.2044 74.4807C97.3093 73.3952 97.8074 72.4868 98.6845 71.7773C101.61 69.4122 107.855 70.0058 108.552 70.081C109.092 70.0027 109.454 70.7717 109.902 71.735C110.117 72.1986 110.341 72.6763 110.551 72.9723L110.966 75.0449C111.161 75.2845 111.135 75.6322 110.903 75.8374L110.787 76.9736L110.586 78.0318C110.62 78.5909 110.029 80.3151 109.506 80.4999L108.73 81.653C108.483 81.7407 107.274 83.0544 107.271 83.3238L107.985 87.949C107.988 87.9694 107.99 87.9898 107.99 88.0117C107.979 88.4346 109.185 89.4652 110.32 90.1638C110.422 90.2264 110.485 90.3376 110.485 90.4582C110.485 90.5788 110.422 90.69 110.319 90.7527L109.819 91.0565C107.979 92.1796 105.886 92.7512 103.798 92.7512L103.794 92.7528ZM97.1323 89.8928C97.5756 90.1826 98.5185 90.7542 99.7793 91.2727C102.902 92.5602 106.519 92.2594 109.456 90.4676L109.486 90.4488C108.652 89.8881 107.312 88.8591 107.296 88.0274L106.582 83.4022C106.579 83.3865 106.579 83.3708 106.577 83.3552C106.568 82.7803 107.963 81.1894 108.5 80.9999L109.276 79.8452C109.506 79.7637 109.909 78.3246 109.893 78.0709L110.086 76.8452C110.079 76.7387 110.122 76.6353 110.202 76.5648L110.359 75.3926L110.001 73.3874C109.739 73.0209 109.503 72.5134 109.276 72.0216C109.081 71.6034 108.76 70.9142 108.585 70.7702C108.566 70.7702 108.546 70.7702 108.527 70.7686C108.461 70.7608 101.928 70.0387 99.1168 72.3114C98.3791 72.9081 97.9765 73.638 97.8888 74.5449C97.8246 75.2074 98.0173 75.8919 98.4276 76.4714L99.358 77.7839C100.379 79.2233 100.849 80.9212 100.68 82.5658C100.652 82.8352 100.393 84.1665 99.9109 86.5222C99.7292 87.4118 99.2327 88.2075 98.5153 88.7604C97.7228 89.3712 97.3281 89.708 97.1323 89.8897V89.8928Z" fill="black"/>
<path d="M108.914 62.3656C106.519 62.2418 109.547 64.7103 100.677 62.1604C97.1453 61.1454 98.9591 65.2898 98.0428 65.0282C94.6565 64.065 94.7724 64.0932 93.1263 64.5427C92.0361 64.8403 91.3407 66.8796 91.5584 68.3973C91.845 70.4021 94.0926 73.5832 96.1069 76.9476C97.15 78.6893 97.7665 81.0922 100 78.5C102.5 79.5 102.866 79.2001 103.5 78.5C105.148 76.6784 107.5 78.2553 108.5 77.5C109.5 76.7447 110.15 74.9678 111.5 73.7336C113.134 72.2409 112.125 71.9872 113.071 68.6291C113.565 66.878 112.194 62.5316 108.916 62.364L108.914 62.3656Z" fill="black"/>
<path d="M123.699 110.521L131.826 105.157C131.826 105.157 136.116 112.2 136.944 111.877C139.898 110.726 145.535 107.393 148.93 104.762C150.113 103.847 150.535 102.263 150.017 100.85C149.626 99.7832 149.47 98.35 150.294 96.758C151.091 95.2207 151.315 98.4288 153.444 99.3103C154.588 99.7841 156.375 98.2054 158.735 95.9286C161.096 93.6531 163.553 96.1868 161.544 99.8043C159.365 103.726 157.119 104.773 156.191 105.633C154.343 107.347 137.389 121.47 133.556 121.613C130.595 121.724 123.698 110.52 123.698 110.52L123.699 110.521Z" fill="white"/>
<path d="M137.641 120.209C135.883 121.258 134.437 121.928 133.57 121.96C130.496 122.076 124.123 111.868 123.406 110.703C123.308 110.545 123.354 110.337 123.51 110.235L131.637 104.87C131.711 104.815 131.811 104.801 131.901 104.822C131.992 104.842 132.072 104.899 132.121 104.979C133.943 107.97 136.25 111.283 136.873 111.535C139.864 110.355 145.377 107.078 148.718 104.491C149.774 103.673 150.166 102.259 149.693 100.971C149.159 99.5145 149.261 98.0038 149.987 96.6017C150.118 96.3504 150.331 96.0135 150.685 96.0046C151.104 95.9938 151.346 96.4091 151.682 96.9818C152.083 97.6656 152.631 98.6024 153.576 98.9928C154.538 99.391 156.373 97.7286 158.497 95.6822C159.788 94.4354 161.004 94.5723 161.711 95.1152C162.668 95.8503 163.117 97.6838 161.846 99.9742C160.097 103.123 158.329 104.439 157.159 105.309C156.865 105.528 156.609 105.717 156.425 105.889C155.502 106.746 144.323 116.221 137.641 120.209V120.209ZM124.169 110.625C126.198 113.872 131.347 121.353 133.543 121.27C137.214 121.132 154.073 107.128 155.955 105.382C156.166 105.186 156.435 104.985 156.746 104.754C157.869 103.918 159.565 102.656 161.242 99.6378C162.316 97.7056 162.02 96.2224 161.291 95.6614C160.68 95.1907 159.793 95.3903 158.975 96.1776C156.512 98.552 154.664 100.189 153.312 99.6299C152.154 99.1501 151.512 98.0537 151.088 97.3296C150.967 97.1244 150.811 96.8578 150.707 96.7377C150.681 96.7734 150.644 96.8303 150.599 96.9172C149.955 98.1607 149.867 99.4442 150.339 100.731C150.916 102.302 150.435 104.032 149.14 105.035C145.738 107.669 140.097 111.017 137.069 112.197C136.801 112.301 135.993 112.616 131.719 105.64L124.17 110.623L124.169 110.625Z" fill="#9F1127"/>
<path d="M85.8547 116.521L77.7275 111.157C77.7275 111.157 73.4382 118.2 72.6096 117.877C69.6561 116.726 64.0192 113.393 60.6238 110.762C59.4411 109.847 59.0183 108.263 59.5367 106.85C59.9274 105.783 60.0841 104.35 59.2595 102.758C58.4624 101.221 58.2386 104.429 56.1093 105.31C54.9656 105.784 53.179 104.205 50.8187 101.929C48.4576 99.6531 46.0006 102.187 48.0096 105.804C50.1889 109.726 52.4352 110.773 53.3628 111.633C55.2109 113.347 72.1648 127.47 75.9977 127.613C78.9592 127.724 85.8555 116.52 85.8555 116.52L85.8547 116.521Z" fill="white"/>
<path d="M71.9128 126.209C73.6707 127.258 75.1168 127.928 75.984 127.96C79.0575 128.076 85.4307 117.868 86.1476 116.703C86.2458 116.545 86.2002 116.337 86.0442 116.235L77.9169 110.87C77.8424 110.815 77.743 110.801 77.6522 110.822C77.5615 110.842 77.4821 110.899 77.4326 110.979C75.6109 113.97 73.3038 117.283 72.681 117.535C69.6896 116.355 64.1763 113.078 60.8354 110.491C59.7802 109.673 59.3876 108.259 59.8609 106.971C60.3944 105.515 60.2928 104.004 59.5663 102.602C59.4355 102.35 59.2225 102.013 58.8684 102.005C58.4499 101.994 58.2075 102.409 57.8712 102.982C57.4704 103.666 56.9223 104.602 55.9779 104.993C55.0162 105.391 53.1811 103.729 51.0572 101.682C49.7657 100.435 48.5494 100.572 47.8424 101.115C46.8857 101.85 46.4371 103.684 47.7077 105.974C49.4566 109.123 51.2248 110.439 52.3947 111.309C52.6889 111.528 52.9445 111.717 53.1284 111.889C54.052 112.746 65.231 122.221 71.9128 126.209V126.209ZM85.3843 116.625C83.3553 119.872 78.2067 127.353 76.0109 127.27C72.3399 127.132 55.4803 113.128 53.5988 111.382C53.3873 111.186 53.1184 110.985 52.8076 110.754C51.685 109.918 49.9887 108.656 48.3116 105.638C47.2377 103.706 47.5337 102.222 48.2624 101.661C48.8735 101.191 49.7612 101.39 50.5791 102.178C53.0417 104.552 54.8899 106.189 56.2416 105.63C57.3998 105.15 58.0414 104.054 58.4662 103.33C58.5869 103.124 58.7423 102.858 58.8468 102.738C58.8729 102.773 58.9101 102.83 58.9549 102.917C59.599 104.161 59.6867 105.444 59.2143 106.731C58.6378 108.302 59.1192 110.032 60.4141 111.035C63.8162 113.669 69.4569 117.017 72.4848 118.197C72.7523 118.301 73.5605 118.616 77.8349 111.64L85.3837 116.623L85.3843 116.625Z" fill="#9F1127"/>
<path d="M74.0169 116.534C74.0169 116.534 72.9362 96.5604 88.0351 90.9501C99.7273 86.6052 114.657 88.48 119.337 90.1027C130.859 94.0983 136.529 109.321 136.529 109.321L123.027 111.224C123.027 111.224 127.096 154.959 125.331 164.714C125.331 164.714 114.466 165.989 109.856 164.162C105.248 162.336 90.0948 159.775 82.8507 163.126L84.1664 116.346L74.0154 116.534H74.0169Z" fill="#9F1127"/>
<path d="M92.8354 153.828C92.6709 153.828 92.5252 153.711 92.4955 153.543C92.4626 153.355 92.5879 153.176 92.7743 153.144C110.019 150.075 115.055 138.06 115.103 137.94C115.175 137.763 115.376 137.678 115.553 137.749C115.73 137.819 115.814 138.021 115.744 138.197C115.694 138.322 110.534 150.685 92.8949 153.822C92.8745 153.825 92.8542 153.826 92.8338 153.826L92.8354 153.828Z" fill="white"/>
<path d="M97.4371 214.585H61.7056V178.876H26.1953V278.031V285.744H133.168V250.294H97.4371V214.585Z" fill="#F4F4F4" stroke="#4B4B4B" stroke-width="0.5" stroke-linecap="round" stroke-linejoin="round"/>
<path d="M133.168 170.273V250.294H125.45V165.063L133.168 170.273Z" fill="#F4F4F4" stroke="#4B4B4B" stroke-width="0.5" stroke-linecap="round" stroke-linejoin="round"/>
<path d="M151.034 286.004V185.525L143.315 182.918V286.004H151.034Z" fill="#F4F4F4" stroke="#4B4B4B" stroke-width="0.5" stroke-linecap="round" stroke-linejoin="round"/>
<path d="M168.899 200.772H161.182V286.004H168.899V200.772Z" fill="#F4F4F4" stroke="#4B4B4B" stroke-width="0.5" stroke-linecap="round" stroke-linejoin="round"/>
<path d="M115.303 250.295V149.815L107.585 147.208V250.295H115.303Z" fill="#F4F4F4" stroke="#4B4B4B" stroke-width="0.5" stroke-linecap="round" stroke-linejoin="round"/>
<path d="M79.5715 214.585V114.106L71.8535 111.499V214.585H79.5715Z" fill="#F4F4F4" stroke="#4B4B4B" stroke-width="0.5" stroke-linecap="round" stroke-linejoin="round"/>
<path d="M97.4369 134.908V214.585H89.7188V129.354L97.4369 134.908Z" fill="#F4F4F4" stroke="#4B4B4B" stroke-width="0.5" stroke-linecap="round" stroke-linejoin="round"/>
<path d="M43.84 178.876V78.397L36.1221 75.79V178.876H43.84Z" fill="#F4F4F4" stroke="#4B4B4B" stroke-width="0.5" stroke-linecap="round" stroke-linejoin="round"/>
<path d="M61.7053 99.1987V178.876H53.9873V93.6445L61.7053 99.1987Z" fill="#F4F4F4" stroke="#4B4B4B" stroke-width="0.5" stroke-linecap="round" stroke-linejoin="round"/>
<path d="M26.1953 71.0926L155.955 200.772H175.98V193.319H159.116L26.1953 60.4805V71.0926Z" fill="#F4F4F4" stroke="#4B4B4B" stroke-width="0.5" stroke-linecap="round" stroke-linejoin="round"/>
<path d="M137.066 250.294H97.4375V257.599H137.066V250.294Z" fill="#F4F4F4" stroke="#4B4B4B" stroke-width="0.5" stroke-linecap="round" stroke-linejoin="round"/>
<path d="M101.335 214.585H61.7061V221.889H101.335V214.585Z" fill="#F4F4F4" stroke="#4B4B4B" stroke-width="0.5" stroke-linecap="round" stroke-linejoin="round"/>
<path d="M65.6037 178.876H25.9746V186.18H65.6037V178.876Z" fill="#F4F4F4" stroke="#4B4B4B" stroke-width="0.5" stroke-linecap="round" stroke-linejoin="round"/>
</svg>
