<svg width="375" height="305" viewBox="0 0 375 305" fill="none" xmlns="http://www.w3.org/2000/svg">
<path d="M11.749 293.75V130.25H0.249023V293.75H11.749Z" stroke="#4B4B4B" stroke-width="0.5"/>
<path d="M11.999 133.855H8.18084" stroke="#4B4B4B" stroke-width="0.5"/>
<path d="M11.999 134.556H8.18084" stroke="#4B4B4B" stroke-width="0.5"/>
<path d="M11.999 135.256H8.18084" stroke="#4B4B4B" stroke-width="0.5"/>
<path d="M11.999 135.957H8.18084" stroke="#4B4B4B" stroke-width="0.5"/>
<path d="M11.999 136.658H8.18084" stroke="#4B4B4B" stroke-width="0.5"/>
<path d="M11.999 137.359H4.36266" stroke="#4B4B4B" stroke-width="0.5"/>
<path d="M11.999 138.06H8.18084" stroke="#4B4B4B" stroke-width="0.5"/>
<path d="M11.999 138.761H8.18084" stroke="#4B4B4B" stroke-width="0.5"/>
<path d="M11.999 139.461H8.18084" stroke="#4B4B4B" stroke-width="0.5"/>
<path d="M11.999 140.162H8.18084" stroke="#4B4B4B" stroke-width="0.5"/>
<path d="M11.999 140.863H8.18084" stroke="#4B4B4B" stroke-width="0.5"/>
<path d="M11.999 141.564H8.18084" stroke="#4B4B4B" stroke-width="0.5"/>
<path d="M11.999 142.265H8.18084" stroke="#4B4B4B" stroke-width="0.5"/>
<path d="M11.999 142.966H8.18084" stroke="#4B4B4B" stroke-width="0.5"/>
<path d="M11.999 143.667H4.36266" stroke="#4B4B4B" stroke-width="0.5"/>
<path d="M11.999 144.367H8.18084" stroke="#4B4B4B" stroke-width="0.5"/>
<path d="M11.999 145.068H8.18084" stroke="#4B4B4B" stroke-width="0.5"/>
<path d="M11.999 145.769H8.18084" stroke="#4B4B4B" stroke-width="0.5"/>
<path d="M11.999 146.47H8.18084" stroke="#4B4B4B" stroke-width="0.5"/>
<path d="M11.999 147.171H8.18084" stroke="#4B4B4B" stroke-width="0.5"/>
<path d="M11.999 147.872H8.18084" stroke="#4B4B4B" stroke-width="0.5"/>
<path d="M11.999 148.573H8.18084" stroke="#4B4B4B" stroke-width="0.5"/>
<path d="M11.999 149.273H8.18084" stroke="#4B4B4B" stroke-width="0.5"/>
<path d="M11.999 149.975H8.18084" stroke="#4B4B4B" stroke-width="0.5"/>
<path d="M11.999 150.675H8.18084" stroke="#4B4B4B" stroke-width="0.5"/>
<path d="M11.999 151.376H8.18084" stroke="#4B4B4B" stroke-width="0.5"/>
<path d="M11.999 152.077H4.36266" stroke="#4B4B4B" stroke-width="0.5"/>
<path d="M11.999 152.778H8.18084" stroke="#4B4B4B" stroke-width="0.5"/>
<path d="M11.999 153.479H8.18084" stroke="#4B4B4B" stroke-width="0.5"/>
<path d="M11.999 154.179H8.18084" stroke="#4B4B4B" stroke-width="0.5"/>
<path d="M11.999 154.88H8.18084" stroke="#4B4B4B" stroke-width="0.5"/>
<path d="M11.999 155.581H8.18084" stroke="#4B4B4B" stroke-width="0.5"/>
<path d="M11.999 156.282H8.18084" stroke="#4B4B4B" stroke-width="0.5"/>
<path d="M11.999 156.983H8.18084" stroke="#4B4B4B" stroke-width="0.5"/>
<path d="M11.999 157.684H8.18084" stroke="#4B4B4B" stroke-width="0.5"/>
<path d="M11.999 158.385H8.18084" stroke="#4B4B4B" stroke-width="0.5"/>
<path d="M11.999 159.085H8.18084" stroke="#4B4B4B" stroke-width="0.5"/>
<path d="M11.999 159.786H8.18084" stroke="#4B4B4B" stroke-width="0.5"/>
<path d="M11.999 160.487H8.18084" stroke="#4B4B4B" stroke-width="0.5"/>
<path d="M11.999 161.188H4.36266" stroke="#4B4B4B" stroke-width="0.5"/>
<path d="M11.999 161.889H8.18084" stroke="#4B4B4B" stroke-width="0.5"/>
<path d="M11.999 162.59H8.18084" stroke="#4B4B4B" stroke-width="0.5"/>
<path d="M11.999 163.291H8.18084" stroke="#4B4B4B" stroke-width="0.5"/>
<path d="M11.999 163.991H8.18084" stroke="#4B4B4B" stroke-width="0.5"/>
<path d="M11.999 164.692H8.18084" stroke="#4B4B4B" stroke-width="0.5"/>
<path d="M11.999 165.393H8.18084" stroke="#4B4B4B" stroke-width="0.5"/>
<path d="M11.999 166.094H8.18084" stroke="#4B4B4B" stroke-width="0.5"/>
<path d="M11.999 166.795H8.18084" stroke="#4B4B4B" stroke-width="0.5"/>
<path d="M11.999 167.496H8.18084" stroke="#4B4B4B" stroke-width="0.5"/>
<path d="M11.999 168.197H8.18084" stroke="#4B4B4B" stroke-width="0.5"/>
<path d="M11.999 168.897H8.18084" stroke="#4B4B4B" stroke-width="0.5"/>
<path d="M11.999 169.598H8.18084" stroke="#4B4B4B" stroke-width="0.5"/>
<path d="M11.999 170.299H8.18084" stroke="#4B4B4B" stroke-width="0.5"/>
<path d="M11.999 171H8.18084" stroke="#4B4B4B" stroke-width="0.5"/>
<path d="M11.999 171.701H8.18084" stroke="#4B4B4B" stroke-width="0.5"/>
<path d="M11.999 172.402H8.18084" stroke="#4B4B4B" stroke-width="0.5"/>
<path d="M11.999 173.103H4.36266" stroke="#4B4B4B" stroke-width="0.5"/>
<path d="M11.999 173.803H8.18084" stroke="#4B4B4B" stroke-width="0.5"/>
<path d="M11.999 174.504H8.18084" stroke="#4B4B4B" stroke-width="0.5"/>
<path d="M11.999 175.205H8.18084" stroke="#4B4B4B" stroke-width="0.5"/>
<path d="M11.999 175.906H8.18084" stroke="#4B4B4B" stroke-width="0.5"/>
<path d="M11.999 176.607H8.18084" stroke="#4B4B4B" stroke-width="0.5"/>
<path d="M11.999 177.308H8.18084" stroke="#4B4B4B" stroke-width="0.5"/>
<path d="M11.999 178.009H8.18084" stroke="#4B4B4B" stroke-width="0.5"/>
<path d="M11.999 178.709H8.18084" stroke="#4B4B4B" stroke-width="0.5"/>
<path d="M11.999 179.41H8.18084" stroke="#4B4B4B" stroke-width="0.5"/>
<path d="M11.999 180.111H8.18084" stroke="#4B4B4B" stroke-width="0.5"/>
<path d="M11.999 180.812H8.18084" stroke="#4B4B4B" stroke-width="0.5"/>
<path d="M11.999 181.513H8.18084" stroke="#4B4B4B" stroke-width="0.5"/>
<path d="M11.999 182.214H8.18084" stroke="#4B4B4B" stroke-width="0.5"/>
<path d="M11.999 182.915H4.36266" stroke="#4B4B4B" stroke-width="0.5"/>
<path d="M11.999 183.615H8.18084" stroke="#4B4B4B" stroke-width="0.5"/>
<path d="M11.999 184.316H8.18084" stroke="#4B4B4B" stroke-width="0.5"/>
<path d="M11.999 185.017H8.18084" stroke="#4B4B4B" stroke-width="0.5"/>
<path d="M11.999 185.718H8.18084" stroke="#4B4B4B" stroke-width="0.5"/>
<path d="M11.999 186.419H8.18084" stroke="#4B4B4B" stroke-width="0.5"/>
<path d="M11.999 187.12H8.18084" stroke="#4B4B4B" stroke-width="0.5"/>
<path d="M11.999 187.821H8.18084" stroke="#4B4B4B" stroke-width="0.5"/>
<path d="M11.999 188.521H8.18084" stroke="#4B4B4B" stroke-width="0.5"/>
<path d="M11.999 189.222H4.36266" stroke="#4B4B4B" stroke-width="0.5"/>
<path d="M11.999 189.923H8.18084" stroke="#4B4B4B" stroke-width="0.5"/>
<path d="M11.999 190.624H8.18084" stroke="#4B4B4B" stroke-width="0.5"/>
<path d="M11.999 191.325H8.18084" stroke="#4B4B4B" stroke-width="0.5"/>
<path d="M11.999 192.026H8.18084" stroke="#4B4B4B" stroke-width="0.5"/>
<path d="M11.999 192.727H8.18084" stroke="#4B4B4B" stroke-width="0.5"/>
<path d="M11.999 193.427H8.18084" stroke="#4B4B4B" stroke-width="0.5"/>
<path d="M11.999 194.128H8.18084" stroke="#4B4B4B" stroke-width="0.5"/>
<path d="M11.999 194.829H8.18084" stroke="#4B4B4B" stroke-width="0.5"/>
<path d="M11.999 195.53H4.36266" stroke="#4B4B4B" stroke-width="0.5"/>
<path d="M11.999 196.231H8.18084" stroke="#4B4B4B" stroke-width="0.5"/>
<path d="M11.999 196.932H8.18084" stroke="#4B4B4B" stroke-width="0.5"/>
<path d="M11.999 197.633H8.18084" stroke="#4B4B4B" stroke-width="0.5"/>
<path d="M11.999 198.333H8.18084" stroke="#4B4B4B" stroke-width="0.5"/>
<path d="M11.999 199.034H8.18084" stroke="#4B4B4B" stroke-width="0.5"/>
<path d="M11.999 199.735H8.18084" stroke="#4B4B4B" stroke-width="0.5"/>
<path d="M11.999 200.436H8.18084" stroke="#4B4B4B" stroke-width="0.5"/>
<path d="M11.999 201.137H8.18084" stroke="#4B4B4B" stroke-width="0.5"/>
<path d="M11.999 201.838H8.18084" stroke="#4B4B4B" stroke-width="0.5"/>
<path d="M11.999 202.539H8.18084" stroke="#4B4B4B" stroke-width="0.5"/>
<path d="M11.999 203.239H8.18084" stroke="#4B4B4B" stroke-width="0.5"/>
<path d="M11.999 203.94H4.36266" stroke="#4B4B4B" stroke-width="0.5"/>
<path d="M11.999 204.641H8.18084" stroke="#4B4B4B" stroke-width="0.5"/>
<path d="M11.999 205.342H8.18084" stroke="#4B4B4B" stroke-width="0.5"/>
<path d="M11.999 206.043H8.18084" stroke="#4B4B4B" stroke-width="0.5"/>
<path d="M11.999 206.744H8.18084" stroke="#4B4B4B" stroke-width="0.5"/>
<path d="M11.999 207.444H8.18084" stroke="#4B4B4B" stroke-width="0.5"/>
<path d="M11.999 208.145H8.18084" stroke="#4B4B4B" stroke-width="0.5"/>
<path d="M11.999 208.846H8.18084" stroke="#4B4B4B" stroke-width="0.5"/>
<path d="M11.999 209.547H8.18084" stroke="#4B4B4B" stroke-width="0.5"/>
<path d="M11.999 210.248H8.18084" stroke="#4B4B4B" stroke-width="0.5"/>
<path d="M11.999 210.949H8.18084" stroke="#4B4B4B" stroke-width="0.5"/>
<path d="M11.999 211.65H4.36266" stroke="#4B4B4B" stroke-width="0.5"/>
<path d="M11.999 212.35H8.18084" stroke="#4B4B4B" stroke-width="0.5"/>
<path d="M11.999 213.051H8.18084" stroke="#4B4B4B" stroke-width="0.5"/>
<path d="M11.999 213.752H8.18084" stroke="#4B4B4B" stroke-width="0.5"/>
<path d="M11.999 214.453H8.18084" stroke="#4B4B4B" stroke-width="0.5"/>
<path d="M11.999 215.154H8.18084" stroke="#4B4B4B" stroke-width="0.5"/>
<path d="M11.999 215.855H8.18084" stroke="#4B4B4B" stroke-width="0.5"/>
<path d="M11.999 216.556H8.18084" stroke="#4B4B4B" stroke-width="0.5"/>
<path d="M11.999 217.256H8.18084" stroke="#4B4B4B" stroke-width="0.5"/>
<path d="M11.999 217.957H4.36266" stroke="#4B4B4B" stroke-width="0.5"/>
<path d="M11.999 218.658H8.18084" stroke="#4B4B4B" stroke-width="0.5"/>
<path d="M11.999 219.359H8.18084" stroke="#4B4B4B" stroke-width="0.5"/>
<path d="M11.999 220.06H8.18084" stroke="#4B4B4B" stroke-width="0.5"/>
<path d="M11.999 220.761H8.18084" stroke="#4B4B4B" stroke-width="0.5"/>
<path d="M11.999 221.461H8.18084" stroke="#4B4B4B" stroke-width="0.5"/>
<path d="M11.999 222.162H8.18084" stroke="#4B4B4B" stroke-width="0.5"/>
<path d="M11.999 222.863H8.18084" stroke="#4B4B4B" stroke-width="0.5"/>
<path d="M11.999 223.564H8.18084" stroke="#4B4B4B" stroke-width="0.5"/>
<path d="M11.999 224.265H8.18084" stroke="#4B4B4B" stroke-width="0.5"/>
<path d="M11.999 224.966H4.36266" stroke="#4B4B4B" stroke-width="0.5"/>
<path d="M11.999 225.667H8.18084" stroke="#4B4B4B" stroke-width="0.5"/>
<path d="M11.999 226.368H8.18084" stroke="#4B4B4B" stroke-width="0.5"/>
<path d="M11.999 227.068H8.18084" stroke="#4B4B4B" stroke-width="0.5"/>
<path d="M11.999 227.769H8.18084" stroke="#4B4B4B" stroke-width="0.5"/>
<path d="M11.999 228.47H8.18084" stroke="#4B4B4B" stroke-width="0.5"/>
<path d="M11.999 229.171H8.18084" stroke="#4B4B4B" stroke-width="0.5"/>
<path d="M11.999 229.872H8.18084" stroke="#4B4B4B" stroke-width="0.5"/>
<path d="M11.999 230.573H4.36266" stroke="#4B4B4B" stroke-width="0.5"/>
<path d="M11.999 231.273H8.18084" stroke="#4B4B4B" stroke-width="0.5"/>
<path d="M11.999 231.974H8.18084" stroke="#4B4B4B" stroke-width="0.5"/>
<path d="M11.999 232.675H8.18084" stroke="#4B4B4B" stroke-width="0.5"/>
<path d="M11.999 233.376H8.18084" stroke="#4B4B4B" stroke-width="0.5"/>
<path d="M11.999 234.077H8.18084" stroke="#4B4B4B" stroke-width="0.5"/>
<path d="M11.999 234.778H8.18084" stroke="#4B4B4B" stroke-width="0.5"/>
<path d="M11.999 235.479H8.18084" stroke="#4B4B4B" stroke-width="0.5"/>
<path d="M11.999 236.179H8.18084" stroke="#4B4B4B" stroke-width="0.5"/>
<path d="M11.999 236.88H8.18084" stroke="#4B4B4B" stroke-width="0.5"/>
<path d="M11.999 237.581H4.36266" stroke="#4B4B4B" stroke-width="0.5"/>
<path d="M11.999 238.282H8.18084" stroke="#4B4B4B" stroke-width="0.5"/>
<path d="M11.999 238.983H8.18084" stroke="#4B4B4B" stroke-width="0.5"/>
<path d="M11.999 239.684H8.18084" stroke="#4B4B4B" stroke-width="0.5"/>
<path d="M11.999 240.385H8.18084" stroke="#4B4B4B" stroke-width="0.5"/>
<path d="M11.999 241.085H8.18084" stroke="#4B4B4B" stroke-width="0.5"/>
<path d="M11.999 241.786H8.18084" stroke="#4B4B4B" stroke-width="0.5"/>
<path d="M11.999 242.487H8.18084" stroke="#4B4B4B" stroke-width="0.5"/>
<path d="M11.999 243.188H8.18084" stroke="#4B4B4B" stroke-width="0.5"/>
<path d="M11.999 243.889H4.36266" stroke="#4B4B4B" stroke-width="0.5"/>
<path d="M11.999 244.59H8.18084" stroke="#4B4B4B" stroke-width="0.5"/>
<path d="M11.999 245.291H8.18084" stroke="#4B4B4B" stroke-width="0.5"/>
<path d="M11.999 245.991H8.18084" stroke="#4B4B4B" stroke-width="0.5"/>
<path d="M11.999 246.692H8.18084" stroke="#4B4B4B" stroke-width="0.5"/>
<path d="M11.999 247.393H8.18084" stroke="#4B4B4B" stroke-width="0.5"/>
<path d="M11.999 248.094H8.18084" stroke="#4B4B4B" stroke-width="0.5"/>
<path d="M11.999 248.795H8.18084" stroke="#4B4B4B" stroke-width="0.5"/>
<path d="M11.999 249.496H8.18084" stroke="#4B4B4B" stroke-width="0.5"/>
<path d="M11.999 250.197H8.18084" stroke="#4B4B4B" stroke-width="0.5"/>
<path d="M11.999 250.897H8.18084" stroke="#4B4B4B" stroke-width="0.5"/>
<path d="M11.999 251.598H8.18084" stroke="#4B4B4B" stroke-width="0.5"/>
<path d="M11.999 252.299H4.36266" stroke="#4B4B4B" stroke-width="0.5"/>
<path d="M11.999 253H8.18084" stroke="#4B4B4B" stroke-width="0.5"/>
<path d="M11.999 253.701H8.18084" stroke="#4B4B4B" stroke-width="0.5"/>
<path d="M11.999 254.402H8.18084" stroke="#4B4B4B" stroke-width="0.5"/>
<path d="M11.999 255.103H8.18084" stroke="#4B4B4B" stroke-width="0.5"/>
<path d="M11.999 255.803H8.18084" stroke="#4B4B4B" stroke-width="0.5"/>
<path d="M11.999 256.504H8.18084" stroke="#4B4B4B" stroke-width="0.5"/>
<path d="M11.999 257.205H8.18084" stroke="#4B4B4B" stroke-width="0.5"/>
<path d="M11.999 257.906H8.18084" stroke="#4B4B4B" stroke-width="0.5"/>
<path d="M11.999 258.607H4.36266" stroke="#4B4B4B" stroke-width="0.5"/>
<path d="M11.999 259.308H8.18084" stroke="#4B4B4B" stroke-width="0.5"/>
<path d="M11.999 260.008H8.18084" stroke="#4B4B4B" stroke-width="0.5"/>
<path d="M11.999 260.709H8.18084" stroke="#4B4B4B" stroke-width="0.5"/>
<path d="M11.999 261.41H8.18084" stroke="#4B4B4B" stroke-width="0.5"/>
<path d="M11.999 262.111H8.18084" stroke="#4B4B4B" stroke-width="0.5"/>
<path d="M11.999 262.812H8.18084" stroke="#4B4B4B" stroke-width="0.5"/>
<path d="M11.999 263.513H8.18084" stroke="#4B4B4B" stroke-width="0.5"/>
<path d="M11.999 264.214H8.18084" stroke="#4B4B4B" stroke-width="0.5"/>
<path d="M11.999 264.915H4.36266" stroke="#4B4B4B" stroke-width="0.5"/>
<path d="M11.999 265.615H8.18084" stroke="#4B4B4B" stroke-width="0.5"/>
<path d="M11.999 266.316H8.18084" stroke="#4B4B4B" stroke-width="0.5"/>
<path d="M11.999 267.017H8.18084" stroke="#4B4B4B" stroke-width="0.5"/>
<path d="M11.999 267.718H8.18084" stroke="#4B4B4B" stroke-width="0.5"/>
<path d="M11.999 268.419H8.18084" stroke="#4B4B4B" stroke-width="0.5"/>
<path d="M11.999 269.12H8.18084" stroke="#4B4B4B" stroke-width="0.5"/>
<path d="M11.999 269.821H8.18084" stroke="#4B4B4B" stroke-width="0.5"/>
<path d="M11.999 270.521H8.18084" stroke="#4B4B4B" stroke-width="0.5"/>
<path d="M11.999 271.222H4.36266" stroke="#4B4B4B" stroke-width="0.5"/>
<path d="M11.999 271.923H8.18084" stroke="#4B4B4B" stroke-width="0.5"/>
<path d="M11.999 272.624H8.18084" stroke="#4B4B4B" stroke-width="0.5"/>
<path d="M11.999 273.325H8.18084" stroke="#4B4B4B" stroke-width="0.5"/>
<path d="M11.999 274.026H8.18084" stroke="#4B4B4B" stroke-width="0.5"/>
<path d="M11.999 274.727H8.18084" stroke="#4B4B4B" stroke-width="0.5"/>
<path d="M11.999 275.427H8.18084" stroke="#4B4B4B" stroke-width="0.5"/>
<path d="M11.999 276.128H8.18084" stroke="#4B4B4B" stroke-width="0.5"/>
<path d="M11.999 276.829H8.18084" stroke="#4B4B4B" stroke-width="0.5"/>
<path d="M11.999 277.53H4.36266" stroke="#4B4B4B" stroke-width="0.5"/>
<path d="M11.999 278.231H8.18084" stroke="#4B4B4B" stroke-width="0.5"/>
<path d="M11.999 278.932H8.18084" stroke="#4B4B4B" stroke-width="0.5"/>
<path d="M11.999 279.632H8.18084" stroke="#4B4B4B" stroke-width="0.5"/>
<path d="M11.999 280.333H8.18084" stroke="#4B4B4B" stroke-width="0.5"/>
<path d="M11.999 281.034H8.18084" stroke="#4B4B4B" stroke-width="0.5"/>
<path d="M11.999 281.735H8.18084" stroke="#4B4B4B" stroke-width="0.5"/>
<path d="M11.999 282.436H8.18084" stroke="#4B4B4B" stroke-width="0.5"/>
<path d="M11.999 283.137H8.18084" stroke="#4B4B4B" stroke-width="0.5"/>
<path d="M11.999 283.838H4.36266" stroke="#4B4B4B" stroke-width="0.5"/>
<path d="M11.999 284.539H8.18084" stroke="#4B4B4B" stroke-width="0.5"/>
<path d="M11.999 285.239H8.18084" stroke="#4B4B4B" stroke-width="0.5"/>
<path d="M11.999 285.94H8.18084" stroke="#4B4B4B" stroke-width="0.5"/>
<path d="M11.999 286.641H8.18084" stroke="#4B4B4B" stroke-width="0.5"/>
<path d="M11.999 287.342H8.18084" stroke="#4B4B4B" stroke-width="0.5"/>
<path d="M11.999 288.043H8.18084" stroke="#4B4B4B" stroke-width="0.5"/>
<path d="M11.999 288.744H4.36266" stroke="#4B4B4B" stroke-width="0.5"/>
<path d="M11.999 289.444H8.18084" stroke="#4B4B4B" stroke-width="0.5"/>
<path d="M11.999 290.145H8.18084" stroke="#4B4B4B" stroke-width="0.5"/>
<path d="M11.999 290.846H8.18084" stroke="#4B4B4B" stroke-width="0.5"/>
<path d="M11.999 291.547H8.18084" stroke="#4B4B4B" stroke-width="0.5"/>
<path d="M24.1219 108.031L188.234 13.2811L182.484 3.32222L18.3721 98.0722L24.1219 108.031Z" stroke="#4B4B4B" stroke-width="0.5"/>
<path d="M184.708 15.6055L182.799 12.299" stroke="#4B4B4B" stroke-width="0.5"/>
<path d="M184.004 16.0115L182.095 12.705" stroke="#4B4B4B" stroke-width="0.5"/>
<path d="M183.301 16.4175L181.392 13.111" stroke="#4B4B4B" stroke-width="0.5"/>
<path d="M182.6 16.8235L180.691 13.517" stroke="#4B4B4B" stroke-width="0.5"/>
<path d="M181.895 17.2295L179.986 13.923" stroke="#4B4B4B" stroke-width="0.5"/>
<path d="M181.191 17.6353L177.373 11.0223" stroke="#4B4B4B" stroke-width="0.5"/>
<path d="M180.486 18.0413L178.577 14.7348" stroke="#4B4B4B" stroke-width="0.5"/>
<path d="M179.783 18.4475L177.874 15.141" stroke="#4B4B4B" stroke-width="0.5"/>
<path d="M179.083 18.8533L177.174 15.5468" stroke="#4B4B4B" stroke-width="0.5"/>
<path d="M178.378 19.2593L176.469 15.9528" stroke="#4B4B4B" stroke-width="0.5"/>
<path d="M177.675 19.6653L175.766 16.3588" stroke="#4B4B4B" stroke-width="0.5"/>
<path d="M176.972 20.0713L175.063 16.7648" stroke="#4B4B4B" stroke-width="0.5"/>
<path d="M176.269 20.4771L174.36 17.1706" stroke="#4B4B4B" stroke-width="0.5"/>
<path d="M175.565 20.8833L173.656 17.5768" stroke="#4B4B4B" stroke-width="0.5"/>
<path d="M174.862 21.2893L171.044 14.6763" stroke="#4B4B4B" stroke-width="0.5"/>
<path d="M174.158 21.6951L172.249 18.3886" stroke="#4B4B4B" stroke-width="0.5"/>
<path d="M173.457 22.1011L171.548 18.7946" stroke="#4B4B4B" stroke-width="0.5"/>
<path d="M172.754 22.5071L170.845 19.2006" stroke="#4B4B4B" stroke-width="0.5"/>
<path d="M172.049 22.9133L170.14 19.6068" stroke="#4B4B4B" stroke-width="0.5"/>
<path d="M171.346 23.3193L169.437 20.0128" stroke="#4B4B4B" stroke-width="0.5"/>
<path d="M170.645 23.7251L168.736 20.4186" stroke="#4B4B4B" stroke-width="0.5"/>
<path d="M169.939 24.1311L168.03 20.8246" stroke="#4B4B4B" stroke-width="0.5"/>
<path d="M169.237 24.5371L167.328 21.2306" stroke="#4B4B4B" stroke-width="0.5"/>
<path d="M168.534 24.9431L166.625 21.6366" stroke="#4B4B4B" stroke-width="0.5"/>
<path d="M167.831 25.3491L165.922 22.0426" stroke="#4B4B4B" stroke-width="0.5"/>
<path d="M167.128 25.7551L165.219 22.4486" stroke="#4B4B4B" stroke-width="0.5"/>
<path d="M166.425 26.1611L162.607 19.5481" stroke="#4B4B4B" stroke-width="0.5"/>
<path d="M165.72 26.5671L163.811 23.2606" stroke="#4B4B4B" stroke-width="0.5"/>
<path d="M165.017 26.9729L163.108 23.6664" stroke="#4B4B4B" stroke-width="0.5"/>
<path d="M164.316 27.3789L162.407 24.0724" stroke="#4B4B4B" stroke-width="0.5"/>
<path d="M163.611 27.7849L161.702 24.4784" stroke="#4B4B4B" stroke-width="0.5"/>
<path d="M162.908 28.1909L160.999 24.8844" stroke="#4B4B4B" stroke-width="0.5"/>
<path d="M162.205 28.5969L160.296 25.2904" stroke="#4B4B4B" stroke-width="0.5"/>
<path d="M161.502 29.0029L159.593 25.6964" stroke="#4B4B4B" stroke-width="0.5"/>
<path d="M160.799 29.4089L158.89 26.1024" stroke="#4B4B4B" stroke-width="0.5"/>
<path d="M160.097 29.8149L158.188 26.5084" stroke="#4B4B4B" stroke-width="0.5"/>
<path d="M159.392 30.2209L157.483 26.9145" stroke="#4B4B4B" stroke-width="0.5"/>
<path d="M158.69 30.627L156.781 27.3205" stroke="#4B4B4B" stroke-width="0.5"/>
<path d="M157.987 31.0327L156.078 27.7262" stroke="#4B4B4B" stroke-width="0.5"/>
<path d="M157.282 31.4387L153.464 24.8257" stroke="#4B4B4B" stroke-width="0.5"/>
<path d="M156.579 31.8447L154.67 28.5382" stroke="#4B4B4B" stroke-width="0.5"/>
<path d="M155.878 32.2507L153.969 28.9442" stroke="#4B4B4B" stroke-width="0.5"/>
<path d="M155.174 32.6567L153.265 29.3502" stroke="#4B4B4B" stroke-width="0.5"/>
<path d="M154.471 33.0627L152.562 29.7562" stroke="#4B4B4B" stroke-width="0.5"/>
<path d="M153.766 33.4688L151.857 30.1623" stroke="#4B4B4B" stroke-width="0.5"/>
<path d="M153.062 33.8748L151.153 30.5683" stroke="#4B4B4B" stroke-width="0.5"/>
<path d="M152.361 34.2805L150.452 30.974" stroke="#4B4B4B" stroke-width="0.5"/>
<path d="M151.656 34.6868L149.747 31.3803" stroke="#4B4B4B" stroke-width="0.5"/>
<path d="M150.953 35.0925L149.044 31.786" stroke="#4B4B4B" stroke-width="0.5"/>
<path d="M150.251 35.4985L148.342 32.192" stroke="#4B4B4B" stroke-width="0.5"/>
<path d="M149.548 35.9045L147.639 32.598" stroke="#4B4B4B" stroke-width="0.5"/>
<path d="M148.845 36.3105L146.936 33.0041" stroke="#4B4B4B" stroke-width="0.5"/>
<path d="M148.142 36.7166L146.233 33.4101" stroke="#4B4B4B" stroke-width="0.5"/>
<path d="M147.437 37.1226L145.528 33.8161" stroke="#4B4B4B" stroke-width="0.5"/>
<path d="M146.735 37.5286L144.826 34.2221" stroke="#4B4B4B" stroke-width="0.5"/>
<path d="M146.032 37.9346L144.123 34.6281" stroke="#4B4B4B" stroke-width="0.5"/>
<path d="M145.328 38.3406L141.51 31.7276" stroke="#4B4B4B" stroke-width="0.5"/>
<path d="M144.625 38.7466L142.716 35.4401" stroke="#4B4B4B" stroke-width="0.5"/>
<path d="M143.924 39.1526L142.015 35.8461" stroke="#4B4B4B" stroke-width="0.5"/>
<path d="M143.219 39.5583L141.31 36.2519" stroke="#4B4B4B" stroke-width="0.5"/>
<path d="M142.516 39.9646L140.607 36.6581" stroke="#4B4B4B" stroke-width="0.5"/>
<path d="M141.812 40.3706L139.903 37.0641" stroke="#4B4B4B" stroke-width="0.5"/>
<path d="M141.109 40.7764L139.2 37.4699" stroke="#4B4B4B" stroke-width="0.5"/>
<path d="M140.407 41.1824L138.498 37.8759" stroke="#4B4B4B" stroke-width="0.5"/>
<path d="M139.704 41.5884L137.795 38.2819" stroke="#4B4B4B" stroke-width="0.5"/>
<path d="M138.999 41.9944L137.09 38.6879" stroke="#4B4B4B" stroke-width="0.5"/>
<path d="M138.296 42.4004L136.387 39.0939" stroke="#4B4B4B" stroke-width="0.5"/>
<path d="M137.595 42.8064L135.686 39.4999" stroke="#4B4B4B" stroke-width="0.5"/>
<path d="M136.89 43.2124L134.981 39.9059" stroke="#4B4B4B" stroke-width="0.5"/>
<path d="M136.188 43.6184L134.278 40.3119" stroke="#4B4B4B" stroke-width="0.5"/>
<path d="M135.484 44.0244L131.666 37.4114" stroke="#4B4B4B" stroke-width="0.5"/>
<path d="M134.781 44.4302L132.872 41.1237" stroke="#4B4B4B" stroke-width="0.5"/>
<path d="M134.078 44.8362L132.169 41.5297" stroke="#4B4B4B" stroke-width="0.5"/>
<path d="M133.375 45.2422L131.466 41.9357" stroke="#4B4B4B" stroke-width="0.5"/>
<path d="M132.67 45.6482L130.761 42.3417" stroke="#4B4B4B" stroke-width="0.5"/>
<path d="M131.969 46.0542L130.06 42.7477" stroke="#4B4B4B" stroke-width="0.5"/>
<path d="M131.267 46.4602L129.358 43.1537" stroke="#4B4B4B" stroke-width="0.5"/>
<path d="M130.562 46.8662L128.653 43.5597" stroke="#4B4B4B" stroke-width="0.5"/>
<path d="M129.858 47.272L127.949 43.9655" stroke="#4B4B4B" stroke-width="0.5"/>
<path d="M129.157 47.678L125.339 41.065" stroke="#4B4B4B" stroke-width="0.5"/>
<path d="M128.452 48.084L126.543 44.7775" stroke="#4B4B4B" stroke-width="0.5"/>
<path d="M127.749 48.4902L125.84 45.1837" stroke="#4B4B4B" stroke-width="0.5"/>
<path d="M127.046 48.896L125.137 45.5895" stroke="#4B4B4B" stroke-width="0.5"/>
<path d="M126.344 49.302L124.435 45.9955" stroke="#4B4B4B" stroke-width="0.5"/>
<path d="M125.641 49.708L123.732 46.4015" stroke="#4B4B4B" stroke-width="0.5"/>
<path d="M124.938 50.114L123.028 46.8075" stroke="#4B4B4B" stroke-width="0.5"/>
<path d="M124.232 50.52L122.323 47.2135" stroke="#4B4B4B" stroke-width="0.5"/>
<path d="M123.529 50.926L121.62 47.6195" stroke="#4B4B4B" stroke-width="0.5"/>
<path d="M122.828 51.3318L119.01 44.7188" stroke="#4B4B4B" stroke-width="0.5"/>
<path d="M122.123 51.738L120.214 48.4315" stroke="#4B4B4B" stroke-width="0.5"/>
<path d="M121.421 52.144L119.512 48.8375" stroke="#4B4B4B" stroke-width="0.5"/>
<path d="M120.716 52.55L118.807 49.2436" stroke="#4B4B4B" stroke-width="0.5"/>
<path d="M120.015 52.9558L118.106 49.6493" stroke="#4B4B4B" stroke-width="0.5"/>
<path d="M119.312 53.3618L117.403 50.0553" stroke="#4B4B4B" stroke-width="0.5"/>
<path d="M118.606 53.7681L116.697 50.4616" stroke="#4B4B4B" stroke-width="0.5"/>
<path d="M117.903 54.1738L115.994 50.8673" stroke="#4B4B4B" stroke-width="0.5"/>
<path d="M117.203 54.5798L115.294 51.2733" stroke="#4B4B4B" stroke-width="0.5"/>
<path d="M116.498 54.9858L114.589 51.6793" stroke="#4B4B4B" stroke-width="0.5"/>
<path d="M115.795 55.3918L113.886 52.0854" stroke="#4B4B4B" stroke-width="0.5"/>
<path d="M115.092 55.7979L113.183 52.4914" stroke="#4B4B4B" stroke-width="0.5"/>
<path d="M114.389 56.2039L110.571 49.5909" stroke="#4B4B4B" stroke-width="0.5"/>
<path d="M113.686 56.6099L111.777 53.3034" stroke="#4B4B4B" stroke-width="0.5"/>
<path d="M112.982 57.0156L111.073 53.7091" stroke="#4B4B4B" stroke-width="0.5"/>
<path d="M112.278 57.4216L110.369 54.1151" stroke="#4B4B4B" stroke-width="0.5"/>
<path d="M111.577 57.8276L109.668 54.5211" stroke="#4B4B4B" stroke-width="0.5"/>
<path d="M110.874 58.2336L108.965 54.9271" stroke="#4B4B4B" stroke-width="0.5"/>
<path d="M110.169 58.6396L108.26 55.3332" stroke="#4B4B4B" stroke-width="0.5"/>
<path d="M109.466 59.0457L107.557 55.7392" stroke="#4B4B4B" stroke-width="0.5"/>
<path d="M108.763 59.4517L106.854 56.1452" stroke="#4B4B4B" stroke-width="0.5"/>
<path d="M108.06 59.8574L106.151 56.5509" stroke="#4B4B4B" stroke-width="0.5"/>
<path d="M107.357 60.2637L105.448 56.9572" stroke="#4B4B4B" stroke-width="0.5"/>
<path d="M106.654 60.6697L102.836 54.0567" stroke="#4B4B4B" stroke-width="0.5"/>
<path d="M105.949 61.0754L104.04 57.7689" stroke="#4B4B4B" stroke-width="0.5"/>
<path d="M105.248 61.4814L103.339 58.1749" stroke="#4B4B4B" stroke-width="0.5"/>
<path d="M104.545 61.8875L102.636 58.581" stroke="#4B4B4B" stroke-width="0.5"/>
<path d="M103.84 62.2935L101.931 58.987" stroke="#4B4B4B" stroke-width="0.5"/>
<path d="M103.137 62.6995L101.228 59.393" stroke="#4B4B4B" stroke-width="0.5"/>
<path d="M102.437 63.1055L100.528 59.799" stroke="#4B4B4B" stroke-width="0.5"/>
<path d="M101.731 63.5115L99.8224 60.205" stroke="#4B4B4B" stroke-width="0.5"/>
<path d="M101.028 63.9175L99.1193 60.611" stroke="#4B4B4B" stroke-width="0.5"/>
<path d="M100.325 64.3235L96.5072 57.7105" stroke="#4B4B4B" stroke-width="0.5"/>
<path d="M99.6221 64.7292L97.7131 61.4228" stroke="#4B4B4B" stroke-width="0.5"/>
<path d="M98.9189 65.1355L97.0099 61.829" stroke="#4B4B4B" stroke-width="0.5"/>
<path d="M98.2158 65.5415L96.3068 62.235" stroke="#4B4B4B" stroke-width="0.5"/>
<path d="M97.5117 65.9475L95.6027 62.641" stroke="#4B4B4B" stroke-width="0.5"/>
<path d="M96.8105 66.3533L94.9015 63.0468" stroke="#4B4B4B" stroke-width="0.5"/>
<path d="M96.1074 66.7593L94.1984 63.4528" stroke="#4B4B4B" stroke-width="0.5"/>
<path d="M95.4023 67.1653L93.4933 63.8588" stroke="#4B4B4B" stroke-width="0.5"/>
<path d="M94.6992 67.5713L92.7902 64.2648" stroke="#4B4B4B" stroke-width="0.5"/>
<path d="M93.9941 67.9773L92.0851 64.6708" stroke="#4B4B4B" stroke-width="0.5"/>
<path d="M93.2939 68.3833L89.4759 61.7703" stroke="#4B4B4B" stroke-width="0.5"/>
<path d="M92.5908 68.7893L90.6818 65.4828" stroke="#4B4B4B" stroke-width="0.5"/>
<path d="M91.8857 69.1953L89.9767 65.8888" stroke="#4B4B4B" stroke-width="0.5"/>
<path d="M91.1826 69.6013L89.2736 66.2948" stroke="#4B4B4B" stroke-width="0.5"/>
<path d="M90.4814 70.0073L88.5724 66.7008" stroke="#4B4B4B" stroke-width="0.5"/>
<path d="M89.7764 70.4133L87.8674 67.1068" stroke="#4B4B4B" stroke-width="0.5"/>
<path d="M89.0732 70.8191L87.1642 67.5126" stroke="#4B4B4B" stroke-width="0.5"/>
<path d="M88.3711 71.2251L86.4621 67.9186" stroke="#4B4B4B" stroke-width="0.5"/>
<path d="M87.668 71.6311L83.85 65.0181" stroke="#4B4B4B" stroke-width="0.5"/>
<path d="M86.9648 72.0371L85.0558 68.7306" stroke="#4B4B4B" stroke-width="0.5"/>
<path d="M86.2617 72.4431L84.3527 69.1366" stroke="#4B4B4B" stroke-width="0.5"/>
<path d="M85.5566 72.8491L83.6476 69.5426" stroke="#4B4B4B" stroke-width="0.5"/>
<path d="M84.8555 73.2549L82.9465 69.9484" stroke="#4B4B4B" stroke-width="0.5"/>
<path d="M84.1523 73.6609L82.2433 70.3544" stroke="#4B4B4B" stroke-width="0.5"/>
<path d="M83.4482 74.0671L81.5392 70.7606" stroke="#4B4B4B" stroke-width="0.5"/>
<path d="M82.7451 74.4729L80.8361 71.1664" stroke="#4B4B4B" stroke-width="0.5"/>
<path d="M82.042 74.8789L80.133 71.5724" stroke="#4B4B4B" stroke-width="0.5"/>
<path d="M81.3389 75.2849L79.4299 71.9784" stroke="#4B4B4B" stroke-width="0.5"/>
<path d="M80.6357 75.6909L76.8177 69.0779" stroke="#4B4B4B" stroke-width="0.5"/>
<path d="M79.9326 76.0969L78.0236 72.7904" stroke="#4B4B4B" stroke-width="0.5"/>
<path d="M79.2275 76.5029L77.3185 73.1964" stroke="#4B4B4B" stroke-width="0.5"/>
<path d="M78.5273 76.9087L76.6183 73.6022" stroke="#4B4B4B" stroke-width="0.5"/>
<path d="M77.8242 77.3147L75.9152 74.0082" stroke="#4B4B4B" stroke-width="0.5"/>
<path d="M77.1191 77.7207L75.2101 74.4142" stroke="#4B4B4B" stroke-width="0.5"/>
<path d="M76.416 78.127L74.507 74.8205" stroke="#4B4B4B" stroke-width="0.5"/>
<path d="M75.7148 78.5327L73.8058 75.2262" stroke="#4B4B4B" stroke-width="0.5"/>
<path d="M75.0098 78.9387L73.1008 75.6322" stroke="#4B4B4B" stroke-width="0.5"/>
<path d="M74.3076 79.345L70.4896 72.732" stroke="#4B4B4B" stroke-width="0.5"/>
<path d="M73.6045 79.751L71.6955 76.4445" stroke="#4B4B4B" stroke-width="0.5"/>
<path d="M72.9014 80.1567L70.9924 76.8502" stroke="#4B4B4B" stroke-width="0.5"/>
<path d="M72.1982 80.5627L70.2892 77.2562" stroke="#4B4B4B" stroke-width="0.5"/>
<path d="M71.4951 80.9688L69.5861 77.6623" stroke="#4B4B4B" stroke-width="0.5"/>
<path d="M70.79 81.3748L68.881 78.0683" stroke="#4B4B4B" stroke-width="0.5"/>
<path d="M70.0889 81.7808L68.1799 78.4743" stroke="#4B4B4B" stroke-width="0.5"/>
<path d="M69.3867 82.1868L67.4777 78.8803" stroke="#4B4B4B" stroke-width="0.5"/>
<path d="M68.6816 82.5925L66.7726 79.286" stroke="#4B4B4B" stroke-width="0.5"/>
<path d="M67.9785 82.9988L66.0695 79.6923" stroke="#4B4B4B" stroke-width="0.5"/>
<path d="M67.2754 83.4048L65.3664 80.0983" stroke="#4B4B4B" stroke-width="0.5"/>
<path d="M66.5723 83.8105L64.6633 80.5041" stroke="#4B4B4B" stroke-width="0.5"/>
<path d="M65.8691 84.2166L62.0511 77.6036" stroke="#4B4B4B" stroke-width="0.5"/>
<path d="M65.166 84.6226L63.257 81.3161" stroke="#4B4B4B" stroke-width="0.5"/>
<path d="M64.4619 85.0286L62.5529 81.7221" stroke="#4B4B4B" stroke-width="0.5"/>
<path d="M63.7607 85.4346L61.8517 82.1281" stroke="#4B4B4B" stroke-width="0.5"/>
<path d="M63.0576 85.8406L61.1486 82.5341" stroke="#4B4B4B" stroke-width="0.5"/>
<path d="M62.3525 86.2466L60.4435 82.9401" stroke="#4B4B4B" stroke-width="0.5"/>
<path d="M61.6494 86.6526L59.7404 83.3461" stroke="#4B4B4B" stroke-width="0.5"/>
<path d="M60.9482 87.0583L59.0392 83.7519" stroke="#4B4B4B" stroke-width="0.5"/>
<path d="M60.2432 87.4644L58.3342 84.1579" stroke="#4B4B4B" stroke-width="0.5"/>
<path d="M59.541 87.8706L55.723 81.2576" stroke="#4B4B4B" stroke-width="0.5"/>
<path d="M58.8359 88.2764L56.9269 84.9699" stroke="#4B4B4B" stroke-width="0.5"/>
<path d="M58.1348 88.6821L56.2258 85.3756" stroke="#4B4B4B" stroke-width="0.5"/>
<path d="M57.4316 89.0884L55.5226 85.7819" stroke="#4B4B4B" stroke-width="0.5"/>
<path d="M56.7266 89.4944L54.8176 86.1879" stroke="#4B4B4B" stroke-width="0.5"/>
<path d="M56.0234 89.9004L54.1144 86.5939" stroke="#4B4B4B" stroke-width="0.5"/>
<path d="M55.3223 90.3064L53.4133 86.9999" stroke="#4B4B4B" stroke-width="0.5"/>
<path d="M54.6182 90.7122L52.7092 87.4057" stroke="#4B4B4B" stroke-width="0.5"/>
<path d="M53.915 91.1182L52.006 87.8117" stroke="#4B4B4B" stroke-width="0.5"/>
<path d="M53.2119 91.5242L49.3939 84.9112" stroke="#4B4B4B" stroke-width="0.5"/>
<path d="M52.5068 91.9304L50.5978 88.6239" stroke="#4B4B4B" stroke-width="0.5"/>
<path d="M51.8057 92.3362L49.8967 89.0297" stroke="#4B4B4B" stroke-width="0.5"/>
<path d="M51.1025 92.7422L49.1935 89.4357" stroke="#4B4B4B" stroke-width="0.5"/>
<path d="M50.3975 93.1484L48.4885 89.8419" stroke="#4B4B4B" stroke-width="0.5"/>
<path d="M49.6953 93.5544L47.7863 90.2479" stroke="#4B4B4B" stroke-width="0.5"/>
<path d="M48.9941 93.9602L47.0851 90.6537" stroke="#4B4B4B" stroke-width="0.5"/>
<path d="M48.2891 94.3662L46.3801 91.0597" stroke="#4B4B4B" stroke-width="0.5"/>
<path d="M47.5859 94.7722L45.6769 91.4657" stroke="#4B4B4B" stroke-width="0.5"/>
<path d="M46.8828 95.1782L43.0648 88.5652" stroke="#4B4B4B" stroke-width="0.5"/>
<path d="M46.1797 95.5842L44.2707 92.2777" stroke="#4B4B4B" stroke-width="0.5"/>
<path d="M45.4775 95.9902L43.5685 92.6837" stroke="#4B4B4B" stroke-width="0.5"/>
<path d="M44.7744 96.396L42.8654 93.0895" stroke="#4B4B4B" stroke-width="0.5"/>
<path d="M44.0693 96.802L42.1603 93.4955" stroke="#4B4B4B" stroke-width="0.5"/>
<path d="M43.3682 97.208L41.4592 93.9015" stroke="#4B4B4B" stroke-width="0.5"/>
<path d="M42.665 97.614L40.756 94.3075" stroke="#4B4B4B" stroke-width="0.5"/>
<path d="M41.96 98.02L40.051 94.7135" stroke="#4B4B4B" stroke-width="0.5"/>
<path d="M41.2568 98.426L39.3478 95.1195" stroke="#4B4B4B" stroke-width="0.5"/>
<path d="M40.5566 98.8318L36.7386 92.2188" stroke="#4B4B4B" stroke-width="0.5"/>
<path d="M39.8516 99.2378L37.9426 95.9313" stroke="#4B4B4B" stroke-width="0.5"/>
<path d="M39.1484 99.644L37.2394 96.3375" stroke="#4B4B4B" stroke-width="0.5"/>
<path d="M38.4453 100.05L36.5363 96.7436" stroke="#4B4B4B" stroke-width="0.5"/>
<path d="M37.7402 100.456L35.8312 97.1496" stroke="#4B4B4B" stroke-width="0.5"/>
<path d="M37.0391 100.862L35.1301 97.5553" stroke="#4B4B4B" stroke-width="0.5"/>
<path d="M36.3359 101.268L34.4269 97.9613" stroke="#4B4B4B" stroke-width="0.5"/>
<path d="M35.6318 101.674L33.7228 98.3673" stroke="#4B4B4B" stroke-width="0.5"/>
<path d="M34.9287 102.08L33.0197 98.7733" stroke="#4B4B4B" stroke-width="0.5"/>
<path d="M34.2275 102.486L30.4095 95.8728" stroke="#4B4B4B" stroke-width="0.5"/>
<path d="M33.5225 102.892L31.6135 99.5854" stroke="#4B4B4B" stroke-width="0.5"/>
<path d="M32.8193 103.298L30.9103 99.9914" stroke="#4B4B4B" stroke-width="0.5"/>
<path d="M32.1143 103.704L30.2053 100.397" stroke="#4B4B4B" stroke-width="0.5"/>
<path d="M31.4131 104.11L29.5041 100.803" stroke="#4B4B4B" stroke-width="0.5"/>
<path d="M30.7109 104.516L28.8019 101.209" stroke="#4B4B4B" stroke-width="0.5"/>
<path d="M30.0059 104.922L28.0969 101.615" stroke="#4B4B4B" stroke-width="0.5"/>
<path d="M29.3027 105.328L25.4847 98.7146" stroke="#4B4B4B" stroke-width="0.5"/>
<path d="M28.6016 105.734L26.6926 102.427" stroke="#4B4B4B" stroke-width="0.5"/>
<path d="M27.8984 106.14L25.9894 102.833" stroke="#4B4B4B" stroke-width="0.5"/>
<path d="M27.1934 106.546L25.2844 103.239" stroke="#4B4B4B" stroke-width="0.5"/>
<path d="M26.4912 106.952L24.5822 103.645" stroke="#4B4B4B" stroke-width="0.5"/>
<path d="M205.239 11.1911L368.629 107.18L374.454 97.265L211.063 1.27608L205.239 11.1911Z" stroke="#4B4B4B" stroke-width="0.5"/>
<path d="M364.867 105.26L366.801 101.969" stroke="#4B4B4B" stroke-width="0.5"/>
<path d="M364.168 104.849L366.102 101.557" stroke="#4B4B4B" stroke-width="0.5"/>
<path d="M363.468 104.437L365.402 101.145" stroke="#4B4B4B" stroke-width="0.5"/>
<path d="M362.769 104.027L364.703 100.735" stroke="#4B4B4B" stroke-width="0.5"/>
<path d="M362.067 103.615L364.001 100.324" stroke="#4B4B4B" stroke-width="0.5"/>
<path d="M361.368 103.204L365.236 96.6197" stroke="#4B4B4B" stroke-width="0.5"/>
<path d="M360.667 102.792L362.601 99.5" stroke="#4B4B4B" stroke-width="0.5"/>
<path d="M359.966 102.38L361.9 99.0884" stroke="#4B4B4B" stroke-width="0.5"/>
<path d="M359.267 101.97L361.201 98.6785" stroke="#4B4B4B" stroke-width="0.5"/>
<path d="M358.568 101.559L360.502 98.2666" stroke="#4B4B4B" stroke-width="0.5"/>
<path d="M357.867 101.147L359.801 97.855" stroke="#4B4B4B" stroke-width="0.5"/>
<path d="M357.166 100.735L359.1 97.4431" stroke="#4B4B4B" stroke-width="0.5"/>
<path d="M356.467 100.325L358.401 97.0332" stroke="#4B4B4B" stroke-width="0.5"/>
<path d="M355.768 99.9136L357.702 96.6216" stroke="#4B4B4B" stroke-width="0.5"/>
<path d="M355.066 99.502L358.934 92.918" stroke="#4B4B4B" stroke-width="0.5"/>
<path d="M354.365 99.0901L356.299 95.7981" stroke="#4B4B4B" stroke-width="0.5"/>
<path d="M353.667 98.6802L355.601 95.3882" stroke="#4B4B4B" stroke-width="0.5"/>
<path d="M352.968 98.2686L354.902 94.9766" stroke="#4B4B4B" stroke-width="0.5"/>
<path d="M352.267 97.8567L354.201 94.5647" stroke="#4B4B4B" stroke-width="0.5"/>
<path d="M351.565 97.4451L353.499 94.1531" stroke="#4B4B4B" stroke-width="0.5"/>
<path d="M350.866 97.0352L352.8 93.7432" stroke="#4B4B4B" stroke-width="0.5"/>
<path d="M350.165 96.6235L352.099 93.3316" stroke="#4B4B4B" stroke-width="0.5"/>
<path d="M349.466 96.2117L351.4 92.9197" stroke="#4B4B4B" stroke-width="0.5"/>
<path d="M348.766 95.8L350.7 92.5081" stroke="#4B4B4B" stroke-width="0.5"/>
<path d="M348.066 95.3901L350 92.0982" stroke="#4B4B4B" stroke-width="0.5"/>
<path d="M347.365 94.9783L349.299 91.6863" stroke="#4B4B4B" stroke-width="0.5"/>
<path d="M346.666 94.5667L350.534 87.9827" stroke="#4B4B4B" stroke-width="0.5"/>
<path d="M345.965 94.1548L347.899 90.8628" stroke="#4B4B4B" stroke-width="0.5"/>
<path d="M345.264 93.7432L347.198 90.4512" stroke="#4B4B4B" stroke-width="0.5"/>
<path d="M344.564 93.3333L346.498 90.0413" stroke="#4B4B4B" stroke-width="0.5"/>
<path d="M343.866 92.9216L345.8 89.6297" stroke="#4B4B4B" stroke-width="0.5"/>
<path d="M343.165 92.5098L345.099 89.2178" stroke="#4B4B4B" stroke-width="0.5"/>
<path d="M342.464 92.0981L344.398 88.8062" stroke="#4B4B4B" stroke-width="0.5"/>
<path d="M341.765 91.6882L343.699 88.3963" stroke="#4B4B4B" stroke-width="0.5"/>
<path d="M341.065 91.2764L342.999 87.9844" stroke="#4B4B4B" stroke-width="0.5"/>
<path d="M340.364 90.8647L342.298 87.5728" stroke="#4B4B4B" stroke-width="0.5"/>
<path d="M339.664 90.4529L341.598 87.1609" stroke="#4B4B4B" stroke-width="0.5"/>
<path d="M338.965 90.0432L340.899 86.7513" stroke="#4B4B4B" stroke-width="0.5"/>
<path d="M338.266 89.6313L340.2 86.3394" stroke="#4B4B4B" stroke-width="0.5"/>
<path d="M337.564 89.2197L341.432 82.6358" stroke="#4B4B4B" stroke-width="0.5"/>
<path d="M336.863 88.8079L338.797 85.5159" stroke="#4B4B4B" stroke-width="0.5"/>
<path d="M336.164 88.3979L338.098 85.106" stroke="#4B4B4B" stroke-width="0.5"/>
<path d="M335.465 87.9863L337.399 84.6944" stroke="#4B4B4B" stroke-width="0.5"/>
<path d="M334.765 87.5747L336.699 84.2827" stroke="#4B4B4B" stroke-width="0.5"/>
<path d="M334.063 87.1628L335.997 83.8709" stroke="#4B4B4B" stroke-width="0.5"/>
<path d="M333.364 86.751L335.298 83.459" stroke="#4B4B4B" stroke-width="0.5"/>
<path d="M332.665 86.3413L334.599 83.0494" stroke="#4B4B4B" stroke-width="0.5"/>
<path d="M331.964 85.9294L333.898 82.6375" stroke="#4B4B4B" stroke-width="0.5"/>
<path d="M331.263 85.5178L333.197 82.2259" stroke="#4B4B4B" stroke-width="0.5"/>
<path d="M330.563 85.106L332.497 81.814" stroke="#4B4B4B" stroke-width="0.5"/>
<path d="M329.863 84.6963L331.797 81.4043" stroke="#4B4B4B" stroke-width="0.5"/>
<path d="M329.164 84.2844L331.098 80.9925" stroke="#4B4B4B" stroke-width="0.5"/>
<path d="M328.463 83.8728L330.397 80.5808" stroke="#4B4B4B" stroke-width="0.5"/>
<path d="M327.762 83.4609L329.696 80.169" stroke="#4B4B4B" stroke-width="0.5"/>
<path d="M327.062 83.051L328.996 79.7591" stroke="#4B4B4B" stroke-width="0.5"/>
<path d="M326.363 82.6394L328.297 79.3474" stroke="#4B4B4B" stroke-width="0.5"/>
<path d="M325.662 82.2275L329.53 75.6436" stroke="#4B4B4B" stroke-width="0.5"/>
<path d="M324.962 81.8159L326.896 78.524" stroke="#4B4B4B" stroke-width="0.5"/>
<path d="M324.263 81.406L326.197 78.114" stroke="#4B4B4B" stroke-width="0.5"/>
<path d="M323.563 80.9944L325.497 77.7024" stroke="#4B4B4B" stroke-width="0.5"/>
<path d="M322.862 80.5825L324.796 77.2906" stroke="#4B4B4B" stroke-width="0.5"/>
<path d="M322.161 80.1709L324.095 76.8789" stroke="#4B4B4B" stroke-width="0.5"/>
<path d="M321.462 79.761L323.396 76.469" stroke="#4B4B4B" stroke-width="0.5"/>
<path d="M320.763 79.3491L322.697 76.0572" stroke="#4B4B4B" stroke-width="0.5"/>
<path d="M320.062 78.9375L321.996 75.6455" stroke="#4B4B4B" stroke-width="0.5"/>
<path d="M319.361 78.5256L321.295 75.2337" stroke="#4B4B4B" stroke-width="0.5"/>
<path d="M318.662 78.114L320.596 74.8221" stroke="#4B4B4B" stroke-width="0.5"/>
<path d="M317.963 77.7041L319.897 74.4121" stroke="#4B4B4B" stroke-width="0.5"/>
<path d="M317.262 77.2925L319.196 74.0005" stroke="#4B4B4B" stroke-width="0.5"/>
<path d="M316.561 76.8806L318.495 73.5887" stroke="#4B4B4B" stroke-width="0.5"/>
<path d="M315.862 76.469L319.73 69.8851" stroke="#4B4B4B" stroke-width="0.5"/>
<path d="M315.163 76.0591L317.097 72.7671" stroke="#4B4B4B" stroke-width="0.5"/>
<path d="M314.462 75.6475L316.396 72.3555" stroke="#4B4B4B" stroke-width="0.5"/>
<path d="M313.761 75.2356L315.695 71.9436" stroke="#4B4B4B" stroke-width="0.5"/>
<path d="M313.062 74.824L314.995 71.532" stroke="#4B4B4B" stroke-width="0.5"/>
<path d="M312.36 74.4141L314.294 71.1221" stroke="#4B4B4B" stroke-width="0.5"/>
<path d="M311.661 74.0022L313.595 70.7102" stroke="#4B4B4B" stroke-width="0.5"/>
<path d="M310.961 73.5906L312.895 70.2986" stroke="#4B4B4B" stroke-width="0.5"/>
<path d="M310.262 73.1787L312.196 69.8868" stroke="#4B4B4B" stroke-width="0.5"/>
<path d="M309.561 72.769L313.428 66.1851" stroke="#4B4B4B" stroke-width="0.5"/>
<path d="M308.861 72.3572L310.795 69.0652" stroke="#4B4B4B" stroke-width="0.5"/>
<path d="M308.16 71.9456L310.094 68.6536" stroke="#4B4B4B" stroke-width="0.5"/>
<path d="M307.459 71.5337L309.393 68.2417" stroke="#4B4B4B" stroke-width="0.5"/>
<path d="M306.76 71.1238L308.694 67.8318" stroke="#4B4B4B" stroke-width="0.5"/>
<path d="M306.062 70.7122L307.995 67.4202" stroke="#4B4B4B" stroke-width="0.5"/>
<path d="M305.36 70.3003L307.294 67.0083" stroke="#4B4B4B" stroke-width="0.5"/>
<path d="M304.659 69.8887L306.593 66.5967" stroke="#4B4B4B" stroke-width="0.5"/>
<path d="M303.96 69.4768L305.894 66.1848" stroke="#4B4B4B" stroke-width="0.5"/>
<path d="M303.261 69.0671L307.129 62.4832" stroke="#4B4B4B" stroke-width="0.5"/>
<path d="M302.56 68.6553L304.494 65.3633" stroke="#4B4B4B" stroke-width="0.5"/>
<path d="M301.858 68.2437L303.792 64.9517" stroke="#4B4B4B" stroke-width="0.5"/>
<path d="M301.16 67.8318L303.094 64.5398" stroke="#4B4B4B" stroke-width="0.5"/>
<path d="M300.461 67.4219L302.395 64.1299" stroke="#4B4B4B" stroke-width="0.5"/>
<path d="M299.76 67.0103L301.694 63.7183" stroke="#4B4B4B" stroke-width="0.5"/>
<path d="M299.059 66.5986L300.993 63.3067" stroke="#4B4B4B" stroke-width="0.5"/>
<path d="M298.359 66.1868L300.293 62.8948" stroke="#4B4B4B" stroke-width="0.5"/>
<path d="M297.66 65.7769L299.594 62.4849" stroke="#4B4B4B" stroke-width="0.5"/>
<path d="M296.959 65.3652L298.893 62.0733" stroke="#4B4B4B" stroke-width="0.5"/>
<path d="M296.259 64.9534L298.193 61.6614" stroke="#4B4B4B" stroke-width="0.5"/>
<path d="M295.56 64.5417L297.494 61.2498" stroke="#4B4B4B" stroke-width="0.5"/>
<path d="M294.86 64.1318L298.728 57.5479" stroke="#4B4B4B" stroke-width="0.5"/>
<path d="M294.159 63.7202L296.093 60.4283" stroke="#4B4B4B" stroke-width="0.5"/>
<path d="M293.458 63.3083L295.392 60.0164" stroke="#4B4B4B" stroke-width="0.5"/>
<path d="M292.759 62.8967L294.693 59.6048" stroke="#4B4B4B" stroke-width="0.5"/>
<path d="M292.058 62.4868L293.992 59.1949" stroke="#4B4B4B" stroke-width="0.5"/>
<path d="M291.359 62.075L293.293 58.783" stroke="#4B4B4B" stroke-width="0.5"/>
<path d="M290.658 61.6633L292.592 58.3714" stroke="#4B4B4B" stroke-width="0.5"/>
<path d="M289.957 61.2517L291.891 57.9598" stroke="#4B4B4B" stroke-width="0.5"/>
<path d="M289.258 60.8398L291.192 57.5479" stroke="#4B4B4B" stroke-width="0.5"/>
<path d="M288.559 60.4299L290.493 57.138" stroke="#4B4B4B" stroke-width="0.5"/>
<path d="M287.857 60.0183L289.791 56.7264" stroke="#4B4B4B" stroke-width="0.5"/>
<path d="M287.157 59.6064L291.025 53.0225" stroke="#4B4B4B" stroke-width="0.5"/>
<path d="M286.458 59.1948L288.392 55.9029" stroke="#4B4B4B" stroke-width="0.5"/>
<path d="M285.759 58.7849L287.693 55.493" stroke="#4B4B4B" stroke-width="0.5"/>
<path d="M285.058 58.3733L286.992 55.0813" stroke="#4B4B4B" stroke-width="0.5"/>
<path d="M284.356 57.9614L286.29 54.6695" stroke="#4B4B4B" stroke-width="0.5"/>
<path d="M283.657 57.5496L285.591 54.2576" stroke="#4B4B4B" stroke-width="0.5"/>
<path d="M282.958 57.1399L284.892 53.8479" stroke="#4B4B4B" stroke-width="0.5"/>
<path d="M282.258 56.728L284.192 53.4361" stroke="#4B4B4B" stroke-width="0.5"/>
<path d="M281.557 56.3164L283.491 53.0244" stroke="#4B4B4B" stroke-width="0.5"/>
<path d="M280.857 55.9045L284.725 49.3206" stroke="#4B4B4B" stroke-width="0.5"/>
<path d="M280.158 55.4946L282.092 52.2027" stroke="#4B4B4B" stroke-width="0.5"/>
<path d="M279.457 55.083L281.391 51.791" stroke="#4B4B4B" stroke-width="0.5"/>
<path d="M278.756 54.6714L280.69 51.3794" stroke="#4B4B4B" stroke-width="0.5"/>
<path d="M278.057 54.2595L279.991 50.9676" stroke="#4B4B4B" stroke-width="0.5"/>
<path d="M277.358 53.8496L279.292 50.5577" stroke="#4B4B4B" stroke-width="0.5"/>
<path d="M276.657 53.438L278.591 50.146" stroke="#4B4B4B" stroke-width="0.5"/>
<path d="M275.956 53.0261L277.89 49.7342" stroke="#4B4B4B" stroke-width="0.5"/>
<path d="M275.257 52.6145L277.191 49.3225" stroke="#4B4B4B" stroke-width="0.5"/>
<path d="M274.556 52.2026L276.49 48.9107" stroke="#4B4B4B" stroke-width="0.5"/>
<path d="M273.856 51.793L277.724 45.2091" stroke="#4B4B4B" stroke-width="0.5"/>
<path d="M273.155 51.3811L275.089 48.0891" stroke="#4B4B4B" stroke-width="0.5"/>
<path d="M272.457 50.9695L274.391 47.6775" stroke="#4B4B4B" stroke-width="0.5"/>
<path d="M271.756 50.5576L273.69 47.2657" stroke="#4B4B4B" stroke-width="0.5"/>
<path d="M271.057 50.1477L272.991 46.8557" stroke="#4B4B4B" stroke-width="0.5"/>
<path d="M270.355 49.7361L272.289 46.4441" stroke="#4B4B4B" stroke-width="0.5"/>
<path d="M269.654 49.3242L271.588 46.0323" stroke="#4B4B4B" stroke-width="0.5"/>
<path d="M268.955 48.9126L270.889 45.6206" stroke="#4B4B4B" stroke-width="0.5"/>
<path d="M268.256 48.5027L272.124 41.9188" stroke="#4B4B4B" stroke-width="0.5"/>
<path d="M267.556 48.0911L269.49 44.7991" stroke="#4B4B4B" stroke-width="0.5"/>
<path d="M266.854 47.6792L268.788 44.3872" stroke="#4B4B4B" stroke-width="0.5"/>
<path d="M266.155 47.2676L268.089 43.9756" stroke="#4B4B4B" stroke-width="0.5"/>
<path d="M265.456 46.8577L267.39 43.5657" stroke="#4B4B4B" stroke-width="0.5"/>
<path d="M264.755 46.446L266.689 43.1541" stroke="#4B4B4B" stroke-width="0.5"/>
<path d="M264.054 46.0342L265.988 42.7422" stroke="#4B4B4B" stroke-width="0.5"/>
<path d="M263.355 45.6223L265.289 42.3304" stroke="#4B4B4B" stroke-width="0.5"/>
<path d="M262.654 45.2107L264.588 41.9187" stroke="#4B4B4B" stroke-width="0.5"/>
<path d="M261.955 44.8008L263.889 41.5088" stroke="#4B4B4B" stroke-width="0.5"/>
<path d="M261.254 44.3892L265.122 37.8052" stroke="#4B4B4B" stroke-width="0.5"/>
<path d="M260.555 43.9773L262.489 40.6853" stroke="#4B4B4B" stroke-width="0.5"/>
<path d="M259.854 43.5657L261.787 40.2737" stroke="#4B4B4B" stroke-width="0.5"/>
<path d="M259.154 43.1558L261.088 39.8638" stroke="#4B4B4B" stroke-width="0.5"/>
<path d="M258.454 42.7441L260.388 39.4522" stroke="#4B4B4B" stroke-width="0.5"/>
<path d="M257.755 42.3323L259.689 39.0403" stroke="#4B4B4B" stroke-width="0.5"/>
<path d="M257.054 41.9207L258.988 38.6287" stroke="#4B4B4B" stroke-width="0.5"/>
<path d="M256.354 41.5107L258.288 38.2188" stroke="#4B4B4B" stroke-width="0.5"/>
<path d="M255.653 41.0989L257.587 37.8069" stroke="#4B4B4B" stroke-width="0.5"/>
<path d="M254.954 40.6873L258.822 34.1033" stroke="#4B4B4B" stroke-width="0.5"/>
<path d="M254.253 40.2756L256.187 36.9837" stroke="#4B4B4B" stroke-width="0.5"/>
<path d="M253.555 39.8657L255.489 36.5738" stroke="#4B4B4B" stroke-width="0.5"/>
<path d="M252.854 39.4539L254.787 36.1619" stroke="#4B4B4B" stroke-width="0.5"/>
<path d="M252.152 39.0422L254.086 35.7503" stroke="#4B4B4B" stroke-width="0.5"/>
<path d="M251.453 38.6304L253.387 35.3384" stroke="#4B4B4B" stroke-width="0.5"/>
<path d="M250.754 38.2205L252.688 34.9285" stroke="#4B4B4B" stroke-width="0.5"/>
<path d="M250.053 37.8088L251.987 34.5169" stroke="#4B4B4B" stroke-width="0.5"/>
<path d="M249.352 37.397L251.286 34.105" stroke="#4B4B4B" stroke-width="0.5"/>
<path d="M248.653 36.9854L250.587 33.6934" stroke="#4B4B4B" stroke-width="0.5"/>
<path d="M247.952 36.5735L249.886 33.2815" stroke="#4B4B4B" stroke-width="0.5"/>
<path d="M247.253 36.1638L249.187 32.8719" stroke="#4B4B4B" stroke-width="0.5"/>
<path d="M246.552 35.752L250.42 29.168" stroke="#4B4B4B" stroke-width="0.5"/>
<path d="M245.853 35.3403L247.787 32.0484" stroke="#4B4B4B" stroke-width="0.5"/>
<path d="M245.151 34.9285L247.085 31.6365" stroke="#4B4B4B" stroke-width="0.5"/>
<path d="M244.452 34.5188L246.386 31.2268" stroke="#4B4B4B" stroke-width="0.5"/>
<path d="M243.752 34.1069L245.686 30.815" stroke="#4B4B4B" stroke-width="0.5"/>
<path d="M243.053 33.6953L244.987 30.4034" stroke="#4B4B4B" stroke-width="0.5"/>
<path d="M242.352 33.2834L244.286 29.9915" stroke="#4B4B4B" stroke-width="0.5"/>
<path d="M241.652 32.8735L243.586 29.5816" stroke="#4B4B4B" stroke-width="0.5"/>
<path d="M240.951 32.4619L242.885 29.17" stroke="#4B4B4B" stroke-width="0.5"/>
<path d="M240.252 32.0503L244.12 25.4664" stroke="#4B4B4B" stroke-width="0.5"/>
<path d="M239.551 31.6384L241.485 28.3465" stroke="#4B4B4B" stroke-width="0.5"/>
<path d="M238.853 31.2285L240.787 27.9366" stroke="#4B4B4B" stroke-width="0.5"/>
<path d="M238.151 30.8167L240.085 27.5247" stroke="#4B4B4B" stroke-width="0.5"/>
<path d="M237.452 30.405L239.386 27.1131" stroke="#4B4B4B" stroke-width="0.5"/>
<path d="M236.751 29.9934L238.685 26.7015" stroke="#4B4B4B" stroke-width="0.5"/>
<path d="M236.052 29.5835L237.986 26.2915" stroke="#4B4B4B" stroke-width="0.5"/>
<path d="M235.351 29.1716L237.285 25.8797" stroke="#4B4B4B" stroke-width="0.5"/>
<path d="M234.652 28.76L236.586 25.4681" stroke="#4B4B4B" stroke-width="0.5"/>
<path d="M233.951 28.3481L237.819 21.7642" stroke="#4B4B4B" stroke-width="0.5"/>
<path d="M233.25 27.9365L235.184 24.6446" stroke="#4B4B4B" stroke-width="0.5"/>
<path d="M232.551 27.5266L234.485 24.2347" stroke="#4B4B4B" stroke-width="0.5"/>
<path d="M231.85 27.115L233.784 23.823" stroke="#4B4B4B" stroke-width="0.5"/>
<path d="M231.15 26.7031L233.084 23.4112" stroke="#4B4B4B" stroke-width="0.5"/>
<path d="M230.449 26.2915L232.383 22.9995" stroke="#4B4B4B" stroke-width="0.5"/>
<path d="M229.751 25.8816L231.685 22.5896" stroke="#4B4B4B" stroke-width="0.5"/>
<path d="M229.05 25.47L230.984 22.178" stroke="#4B4B4B" stroke-width="0.5"/>
<path d="M228.351 25.0581L230.285 21.7661" stroke="#4B4B4B" stroke-width="0.5"/>
<path d="M227.649 24.6462L231.517 18.0623" stroke="#4B4B4B" stroke-width="0.5"/>
<path d="M226.95 24.2366L228.884 20.9446" stroke="#4B4B4B" stroke-width="0.5"/>
<path d="M226.249 23.8247L228.183 20.5327" stroke="#4B4B4B" stroke-width="0.5"/>
<path d="M225.55 23.4131L227.484 20.1211" stroke="#4B4B4B" stroke-width="0.5"/>
<path d="M224.85 23.0012L226.784 19.7093" stroke="#4B4B4B" stroke-width="0.5"/>
<path d="M224.15 22.5913L226.084 19.2994" stroke="#4B4B4B" stroke-width="0.5"/>
<path d="M223.449 22.1797L225.383 18.8877" stroke="#4B4B4B" stroke-width="0.5"/>
<path d="M222.75 21.7681L224.684 18.4761" stroke="#4B4B4B" stroke-width="0.5"/>
<path d="M222.049 21.3562L223.983 18.0642" stroke="#4B4B4B" stroke-width="0.5"/>
<path d="M221.35 20.9463L225.218 14.3624" stroke="#4B4B4B" stroke-width="0.5"/>
<path d="M220.648 20.5347L222.582 17.2427" stroke="#4B4B4B" stroke-width="0.5"/>
<path d="M219.95 20.1228L221.884 16.8308" stroke="#4B4B4B" stroke-width="0.5"/>
<path d="M219.249 19.7112L221.183 16.4192" stroke="#4B4B4B" stroke-width="0.5"/>
<path d="M218.548 19.2996L220.482 16.0076" stroke="#4B4B4B" stroke-width="0.5"/>
<path d="M217.849 18.8896L219.783 15.5977" stroke="#4B4B4B" stroke-width="0.5"/>
<path d="M217.149 18.4778L219.083 15.1858" stroke="#4B4B4B" stroke-width="0.5"/>
<path d="M216.448 18.0659L218.382 14.774" stroke="#4B4B4B" stroke-width="0.5"/>
<path d="M215.747 17.6543L217.681 14.3623" stroke="#4B4B4B" stroke-width="0.5"/>
<path d="M215.049 17.2444L218.917 10.6605" stroke="#4B4B4B" stroke-width="0.5"/>
<path d="M214.35 16.8328L216.284 13.5408" stroke="#4B4B4B" stroke-width="0.5"/>
<path d="M213.648 16.4209L215.582 13.1289" stroke="#4B4B4B" stroke-width="0.5"/>
<path d="M212.947 16.0093L214.881 12.7173" stroke="#4B4B4B" stroke-width="0.5"/>
<path d="M212.248 15.5994L214.182 12.3074" stroke="#4B4B4B" stroke-width="0.5"/>
<path d="M211.547 15.1877L213.481 11.8958" stroke="#4B4B4B" stroke-width="0.5"/>
<path d="M210.848 14.7759L212.782 11.4839" stroke="#4B4B4B" stroke-width="0.5"/>
<path d="M210.147 14.3643L214.015 7.78034" stroke="#4B4B4B" stroke-width="0.5"/>
<path d="M209.448 13.9543L211.382 10.6624" stroke="#4B4B4B" stroke-width="0.5"/>
<path d="M208.747 13.5427L210.681 10.2508" stroke="#4B4B4B" stroke-width="0.5"/>
<path d="M208.048 13.1309L209.982 9.8389" stroke="#4B4B4B" stroke-width="0.5"/>
<path d="M207.347 12.719L209.281 9.42704" stroke="#4B4B4B" stroke-width="0.5"/>
<path d="M370.993 293.98L198.479 194.756V26.844L370.993 126.068V293.98Z" stroke="#4B4B4B" stroke-width="0.5" stroke-linecap="round" stroke-linejoin="round"/>
<path d="M370.993 303.013L198.479 203.789V194.756L370.993 293.98V303.013Z" stroke="#4B4B4B" stroke-width="0.5" stroke-linecap="round" stroke-linejoin="round"/>
<path d="M25.9639 293.98L198.479 194.756V26.844L25.9639 126.068V293.98Z" stroke="#4B4B4B" stroke-width="0.5" stroke-linecap="round" stroke-linejoin="round"/>
<path d="M53.3375 126.537L157.175 66.3626C171.559 58.0268 189.599 68.3657 189.599 84.9448V177.036C189.599 185.005 185.175 192.32 178.104 196.043L74.2668 250.713C59.8974 258.278 42.6094 247.898 42.6094 231.706V145.119C42.6094 137.464 46.6956 130.386 53.3375 126.537Z" fill="#9F1127" fill-opacity="0.4"/>
<path d="M344.938 124.993L245.682 69.868C231.12 61.7804 213.246 72.501 213.605 89.1076L215.499 176.768C215.662 184.306 219.776 191.208 226.343 194.957L323.704 250.547C338.088 258.76 356.009 248.414 356.009 231.896V143.77C356.009 135.974 351.772 128.789 344.938 124.993Z" fill="#9F1127" fill-opacity="0.4"/>
<path d="M178.698 263.09L179.499 270.775L184.661 271.385V262.272L178.698 263.09Z" fill="white"/>
<path d="M184.661 271.729C184.647 271.729 184.634 271.729 184.62 271.726L179.458 271.117C179.298 271.098 179.171 270.971 179.155 270.81L178.353 263.124C178.335 262.939 178.465 262.772 178.649 262.747L184.614 261.929C184.712 261.915 184.813 261.945 184.888 262.01C184.963 262.076 185.005 262.17 185.005 262.27V271.383C185.005 271.482 184.963 271.576 184.889 271.641C184.827 271.698 184.744 271.729 184.661 271.729V271.729ZM179.813 270.465L184.316 270.996V262.667L179.075 263.386L179.813 270.464V270.465Z" fill="black"/>
<path d="M202.876 258.999L203.65 270.213H209.862L210.151 258.999H202.876Z" fill="white"/>
<path d="M209.861 270.557H203.649C203.468 270.557 203.317 270.417 203.305 270.236L202.531 259.022C202.525 258.926 202.558 258.832 202.623 258.763C202.689 258.693 202.78 258.654 202.876 258.654H210.149C210.242 258.654 210.331 258.691 210.397 258.757C210.463 258.825 210.497 258.914 210.496 259.006L210.207 270.221C210.203 270.407 210.049 270.557 209.863 270.557H209.861ZM203.972 269.868H209.526L209.797 259.343H203.247L203.974 269.868H203.972Z" fill="black"/>
<path d="M178.315 279.633C180.467 279.798 183.996 279.942 188.139 279.63C189.494 279.528 190.393 278.814 190.065 278.094C189.154 276.083 187.583 272.268 184.886 270.499L184.215 271.458L183.29 270.555C183.163 270.432 182.936 270.348 182.677 270.331L180.65 270.191C180.228 270.163 179.833 270.315 179.745 270.541L179.422 271.373L178.187 270.282L177.639 274.355C177.521 275.228 177.278 276.095 176.912 276.946L176.359 278.231C176.194 278.911 177.064 279.538 178.315 279.634V279.633Z" fill="white"/>
<path d="M183.194 280C184.706 280 186.39 279.949 188.186 279.814C188.927 279.759 189.594 279.535 190.016 279.2C190.438 278.864 190.579 278.444 190.401 278.049L190.205 277.613C189.275 275.536 187.715 272.06 185.152 270.38C185.074 270.328 184.952 270.302 184.83 270.315C184.707 270.326 184.607 270.37 184.563 270.433L184.156 271.014L183.592 270.464C183.412 270.289 183.086 270.169 182.721 270.144L180.695 270.005C180.098 269.965 179.533 270.182 179.409 270.5L179.265 270.873L178.483 270.183C178.405 270.114 178.253 270.08 178.107 270.099C177.962 270.119 177.855 270.186 177.844 270.266L177.296 274.34C177.18 275.2 176.937 276.062 176.577 276.903L176.024 278.188C175.828 278.984 176.839 279.707 178.267 279.816C179.534 279.913 181.219 279.999 183.196 279.999L183.194 280ZM184.988 270.878C187.235 272.577 188.662 275.76 189.533 277.701L189.729 278.138C189.862 278.431 189.757 278.742 189.444 278.991C189.132 279.239 188.639 279.405 188.091 279.446C184.023 279.752 180.555 279.617 178.363 279.449C177.305 279.368 176.56 278.832 176.701 278.255L177.247 276.988C177.617 276.129 177.864 275.248 177.982 274.368L178.453 270.873L179.128 271.469C179.202 271.534 179.343 271.568 179.481 271.555C179.62 271.542 179.731 271.484 179.76 271.41L180.082 270.578C180.134 270.445 180.361 270.357 180.605 270.375L182.632 270.515C182.781 270.525 182.914 270.574 182.988 270.645L183.913 271.548C183.979 271.611 184.104 271.648 184.241 271.643C184.375 271.638 184.491 271.591 184.538 271.524L184.989 270.879L184.988 270.878Z" fill="black"/>
<path d="M182.69 278.757C183.971 278.757 185.495 278.624 187.209 278.231C187.395 278.189 187.511 278.004 187.467 277.818C187.425 277.631 187.24 277.514 187.054 277.559C182.034 278.71 178.63 277.523 178.596 277.511C178.417 277.445 178.22 277.539 178.154 277.717C178.09 277.896 178.182 278.093 178.361 278.159C178.458 278.195 180.059 278.757 182.689 278.757H182.69Z" fill="black"/>
<path d="M185.184 272.852C185.368 272.852 185.522 272.705 185.528 272.519C185.534 272.328 185.386 272.17 185.195 272.163L180.356 272.002C180.164 271.98 180.007 272.145 180.001 272.336C179.994 272.527 180.143 272.685 180.334 272.691L185.173 272.852C185.173 272.852 185.18 272.852 185.185 272.852H185.184Z" fill="black"/>
<path d="M210.161 278.633C208.009 278.798 204.481 278.942 200.338 278.63C198.983 278.528 198.084 277.814 198.411 277.094C199.323 275.083 200.894 271.268 203.591 269.499L204.261 270.458L205.187 269.555C205.314 269.432 205.541 269.348 205.799 269.331L207.826 269.191C208.249 269.163 208.644 269.315 208.731 269.541L209.054 270.373L210.29 269.282L210.838 273.355C210.956 274.228 211.198 275.095 211.565 275.946L212.118 277.231C212.282 277.911 211.413 278.538 210.161 278.634V278.633Z" fill="white"/>
<path d="M205.282 279C203.771 279 202.087 278.949 200.29 278.814C199.55 278.759 198.882 278.535 198.461 278.2C198.038 277.864 197.897 277.444 198.076 277.049L198.271 276.613C199.202 274.536 200.762 271.06 203.324 269.38C203.403 269.328 203.525 269.302 203.647 269.315C203.769 269.326 203.869 269.37 203.913 269.433L204.32 270.014L204.884 269.464C205.064 269.289 205.39 269.169 205.755 269.144L207.782 269.005C208.379 268.965 208.944 269.182 209.068 269.5L209.212 269.873L209.993 269.183C210.072 269.114 210.224 269.08 210.369 269.099C210.515 269.119 210.622 269.186 210.632 269.266L211.181 273.34C211.297 274.2 211.539 275.062 211.9 275.903L212.453 277.188C212.648 277.984 211.638 278.707 210.21 278.816C208.942 278.913 207.257 278.999 205.281 278.999L205.282 279ZM203.489 269.878C201.241 271.577 199.814 274.76 198.943 276.701L198.748 277.138C198.614 277.431 198.719 277.742 199.033 277.991C199.344 278.239 199.838 278.405 200.386 278.446C204.454 278.752 207.921 278.617 210.114 278.449C211.171 278.368 211.917 277.832 211.776 277.255L211.229 275.988C210.86 275.129 210.612 274.248 210.495 273.368L210.023 269.873L209.348 270.469C209.275 270.534 209.134 270.568 208.996 270.555C208.856 270.542 208.745 270.484 208.717 270.41L208.394 269.578C208.343 269.445 208.115 269.357 207.871 269.375L205.844 269.515C205.696 269.525 205.562 269.574 205.489 269.645L204.563 270.548C204.497 270.611 204.372 270.648 204.236 270.643C204.101 270.638 203.985 270.591 203.938 270.524L203.487 269.879L203.489 269.878Z" fill="black"/>
<path d="M205.786 277.757C204.505 277.757 202.981 277.624 201.268 277.231C201.081 277.189 200.965 277.004 201.009 276.818C201.052 276.631 201.236 276.514 201.423 276.559C206.443 277.71 209.846 276.523 209.881 276.511C210.059 276.445 210.257 276.539 210.322 276.717C210.387 276.896 210.294 277.093 210.116 277.159C210.018 277.195 208.418 277.757 205.788 277.757H205.786Z" fill="black"/>
<path d="M203.293 271.852C203.108 271.852 202.955 271.705 202.948 271.519C202.942 271.328 203.091 271.17 203.282 271.163L208.12 271.002C208.313 270.98 208.47 271.145 208.476 271.336C208.482 271.527 208.333 271.685 208.142 271.691L203.304 271.852C203.304 271.852 203.296 271.852 203.291 271.852H203.293Z" fill="black"/>
<path d="M176.937 185.886C176.937 185.886 175.012 220.946 174.005 233.048C172.998 245.151 176.36 264.606 176.36 264.606L185.949 264.098C185.949 264.098 186.607 240.444 187.318 233.875C187.318 233.875 191.368 224.971 192.568 217.029C193.768 209.086 197.857 196.542 197.857 196.542C197.857 196.542 201.178 259.154 201.497 264.073C201.497 264.073 209.016 264.41 211.711 262.703C211.711 262.703 216.488 239.873 215.802 227.451C215.116 215.029 215.87 184.168 215.87 184.168L176.935 185.886H176.937Z" fill="white"/>
<path d="M176.36 264.95C176.194 264.95 176.048 264.83 176.02 264.664C175.985 264.469 172.662 245.027 173.661 233.019C174.655 221.059 176.573 186.217 176.593 185.866C176.602 185.689 176.745 185.548 176.922 185.54L215.856 183.822C215.955 183.814 216.044 183.853 216.113 183.921C216.182 183.988 216.22 184.08 216.217 184.176C216.209 184.485 215.471 215.166 216.149 227.432C216.829 239.755 212.1 262.545 212.052 262.773C212.033 262.864 211.978 262.944 211.898 262.994C209.142 264.739 201.796 264.43 201.484 264.418C201.309 264.41 201.166 264.271 201.155 264.095C200.87 259.716 198.175 208.98 197.616 198.459C196.449 202.223 193.824 211.041 192.91 217.08C191.764 224.666 187.988 233.224 187.656 233.966C186.955 240.521 186.301 263.871 186.294 264.108C186.29 264.288 186.147 264.433 185.967 264.443L176.378 264.95C176.378 264.95 176.366 264.95 176.36 264.95V264.95ZM177.263 186.217C177.069 189.732 175.293 221.715 174.347 233.077C173.423 244.178 176.231 261.732 176.648 264.244L185.612 263.769C185.693 260.925 186.313 239.929 186.974 233.838C186.979 233.802 186.988 233.766 187.002 233.731C187.043 233.642 191.047 224.777 192.226 216.975C193.416 209.097 197.487 196.559 197.528 196.434C197.579 196.275 197.739 196.175 197.901 196.199C198.065 196.221 198.19 196.357 198.2 196.523C198.233 197.138 201.407 257.005 201.821 263.738C203.227 263.776 209.046 263.846 211.403 262.485C211.809 260.505 216.104 239.187 215.457 227.469C214.818 215.91 215.433 188.065 215.515 184.528L177.262 186.217H177.263Z" fill="black"/>
<path d="M185.551 234.218H182.621C182.43 234.218 182.276 234.063 182.276 233.874C182.276 233.684 182.431 233.529 182.621 233.529H185.551C185.743 233.529 185.896 233.684 185.896 233.874C185.896 234.063 185.741 234.218 185.551 234.218Z" fill="black"/>
<path d="M206.429 252.428H206.422C206.231 252.425 206.081 252.267 206.084 252.077C206.191 246.277 212.507 235.89 212.777 235.45C212.875 235.288 213.088 235.235 213.251 235.335C213.414 235.434 213.466 235.647 213.366 235.81C213.301 235.916 206.877 246.476 206.775 252.09C206.772 252.278 206.618 252.428 206.43 252.428H206.429Z" fill="black"/>
<path d="M202.133 118.458C202.133 118.458 199.615 116.908 199.64 116.002L198.921 111.35C198.913 110.924 199.176 110.542 199.572 110.403L201 108.5C201.379 108.365 201.625 107.991 201.598 107.584L202.5 105V104C202.591 103.918 202.603 103.779 202.525 103.685L202.266 101.171C201.663 100.322 201.059 98.2908 200.564 98.4287C200.564 98.4287 190.056 97.2148 189.543 102.514C189.47 103.281 189.7 104.047 190.145 104.673L191.075 105.986C192.01 107.303 192.502 108.918 192.336 110.533C192.302 110.868 191.865 113.028 191.573 114.456C191.407 115.268 190.958 115.988 190.305 116.491C189.484 117.124 188.485 117.929 188.647 117.98C188.647 117.98 189.811 118.836 191.648 119.592C194.911 120.938 198.622 120.602 201.635 118.762L202.135 118.457L202.133 118.458Z" fill="white"/>
<path d="M195.794 120.753C194.337 120.753 192.884 120.476 191.518 119.912C189.663 119.147 188.493 118.295 188.445 118.259C188.368 118.203 188.307 118.114 188.291 118.023C188.25 117.788 188.227 117.658 190.096 116.218C190.683 115.766 191.089 115.116 191.237 114.387C191.864 111.329 191.981 110.638 191.995 110.498C192.147 109.021 191.721 107.49 190.797 106.186L189.867 104.874C189.359 104.158 189.123 103.309 189.204 102.481C189.309 101.395 189.807 100.487 190.684 99.7773C193.61 97.4122 199.855 98.0058 200.552 98.081C201.092 98.0027 201.454 98.7717 201.902 99.735C202.117 100.199 202.341 100.676 202.551 100.972L202.966 103.045C203.161 103.285 203.135 103.632 202.903 103.837L202.787 104.974L202.586 106.032C202.62 106.591 202.029 108.315 201.506 108.5L200.73 109.653C200.483 109.741 199.274 111.054 199.271 111.324L199.985 115.949C199.988 115.969 199.99 115.99 199.99 116.012C199.979 116.435 201.185 117.465 202.32 118.164C202.422 118.226 202.485 118.338 202.485 118.458C202.485 118.579 202.422 118.69 202.319 118.753L201.819 119.057C199.979 120.18 197.886 120.751 195.798 120.751L195.794 120.753ZM189.132 117.893C189.576 118.183 190.518 118.754 191.779 119.273C194.902 120.56 198.519 120.259 201.456 118.468L201.486 118.449C200.652 117.888 199.312 116.859 199.296 116.027L198.582 111.402C198.579 111.386 198.579 111.371 198.577 111.355C198.568 110.78 199.963 109.189 200.5 109L201.276 107.845C201.506 107.764 201.909 106.325 201.893 106.071L202.086 104.845C202.079 104.739 202.122 104.635 202.202 104.565L202.359 103.393L202.001 101.387C201.739 101.021 201.503 100.513 201.276 100.022C201.081 99.6034 200.76 98.9142 200.585 98.7702C200.566 98.7702 200.546 98.7702 200.527 98.7686C200.461 98.7608 193.928 98.0387 191.117 100.311C190.379 100.908 189.977 101.638 189.889 102.545C189.825 103.207 190.017 103.892 190.428 104.471L191.358 105.784C192.379 107.223 192.849 108.921 192.68 110.566C192.652 110.835 192.393 112.166 191.911 114.522C191.729 115.412 191.233 116.207 190.515 116.76C189.723 117.371 189.328 117.708 189.132 117.89V117.893Z" fill="black"/>
<path d="M200.914 90.3656C198.519 90.2418 201.547 92.7103 192.677 90.1604C189.145 89.1454 190.959 93.2898 190.043 93.0282C186.657 92.065 186.772 92.0932 185.126 92.5427C184.036 92.8403 183.341 94.8796 183.558 96.3973C183.845 98.4021 186.093 101.583 188.107 104.948C189.15 106.689 189.766 109.092 192 106.5C194.5 107.5 194.866 107.2 195.5 106.5C197.148 104.678 199.5 106.255 200.5 105.5C201.5 104.745 202.15 102.968 203.5 101.734C205.134 100.241 204.125 99.9872 205.071 96.6291C205.565 94.878 204.194 90.5316 200.916 90.364L200.914 90.3656Z" fill="black"/>
<path d="M215.699 138.521L223.826 133.157C223.826 133.157 228.116 140.2 228.944 139.877C231.898 138.726 237.535 135.393 240.93 132.762C242.113 131.847 242.535 130.263 242.017 128.85C241.626 127.783 241.47 126.35 242.294 124.758C243.091 123.221 243.315 126.429 245.444 127.31C246.588 127.784 248.375 126.205 250.735 123.929C253.096 121.653 255.553 124.187 253.544 127.804C251.365 131.726 249.119 132.773 248.191 133.633C246.343 135.347 229.389 149.47 225.556 149.613C222.595 149.724 215.698 138.52 215.698 138.52L215.699 138.521Z" fill="white"/>
<path d="M229.641 148.209C227.883 149.258 226.437 149.928 225.57 149.96C222.496 150.076 216.123 139.868 215.406 138.703C215.308 138.545 215.354 138.337 215.51 138.235L223.637 132.87C223.711 132.815 223.811 132.801 223.901 132.822C223.992 132.842 224.072 132.899 224.121 132.979C225.943 135.97 228.25 139.283 228.873 139.535C231.864 138.355 237.377 135.078 240.718 132.491C241.774 131.673 242.166 130.259 241.693 128.971C241.159 127.515 241.261 126.004 241.987 124.602C242.118 124.35 242.331 124.013 242.685 124.005C243.104 123.994 243.346 124.409 243.682 124.982C244.083 125.666 244.631 126.602 245.576 126.993C246.538 127.391 248.373 125.729 250.497 123.682C251.788 122.435 253.004 122.572 253.711 123.115C254.668 123.85 255.117 125.684 253.846 127.974C252.097 131.123 250.329 132.439 249.159 133.309C248.865 133.528 248.609 133.717 248.425 133.889C247.502 134.746 236.323 144.221 229.641 148.209V148.209ZM216.169 138.625C218.198 141.872 223.347 149.353 225.543 149.27C229.214 149.132 246.073 135.128 247.955 133.382C248.166 133.186 248.435 132.985 248.746 132.754C249.869 131.918 251.565 130.656 253.242 127.638C254.316 125.706 254.02 124.222 253.291 123.661C252.68 123.191 251.793 123.39 250.975 124.178C248.512 126.552 246.664 128.189 245.312 127.63C244.154 127.15 243.512 126.054 243.088 125.33C242.967 125.124 242.811 124.858 242.707 124.738C242.681 124.773 242.644 124.83 242.599 124.917C241.955 126.161 241.867 127.444 242.339 128.731C242.916 130.302 242.435 132.032 241.14 133.035C237.738 135.669 232.097 139.017 229.069 140.197C228.801 140.301 227.993 140.616 223.719 133.64L216.17 138.623L216.169 138.625Z" fill="#9F1127"/>
<path d="M177.855 144.521L169.727 139.157C169.727 139.157 165.438 146.2 164.61 145.877C161.656 144.726 156.019 141.393 152.624 138.762C151.441 137.847 151.018 136.263 151.537 134.85C151.927 133.783 152.084 132.35 151.259 130.758C150.462 129.221 150.239 132.429 148.109 133.31C146.966 133.784 145.179 132.205 142.819 129.929C140.458 127.653 138.001 130.187 140.01 133.804C142.189 137.726 144.435 138.773 145.363 139.633C147.211 141.347 164.165 155.47 167.998 155.613C170.959 155.724 177.856 144.52 177.856 144.52L177.855 144.521Z" fill="white"/>
<path d="M163.913 154.209C165.671 155.258 167.117 155.928 167.984 155.96C171.058 156.076 177.431 145.868 178.148 144.703C178.246 144.545 178.2 144.337 178.044 144.235L169.917 138.87C169.842 138.815 169.743 138.801 169.652 138.822C169.561 138.842 169.482 138.899 169.433 138.979C167.611 141.97 165.304 145.283 164.681 145.535C161.69 144.355 156.176 141.078 152.835 138.491C151.78 137.673 151.388 136.259 151.861 134.971C152.394 133.515 152.293 132.004 151.566 130.602C151.435 130.35 151.222 130.013 150.868 130.005C150.45 129.994 150.208 130.409 149.871 130.982C149.47 131.666 148.922 132.602 147.978 132.993C147.016 133.391 145.181 131.729 143.057 129.682C141.766 128.435 140.549 128.572 139.842 129.115C138.886 129.85 138.437 131.684 139.708 133.974C141.457 137.123 143.225 138.439 144.395 139.309C144.689 139.528 144.944 139.717 145.128 139.889C146.052 140.746 157.231 150.221 163.913 154.209V154.209ZM177.384 144.625C175.355 147.872 170.207 155.353 168.011 155.27C164.34 155.132 147.48 141.128 145.599 139.382C145.387 139.186 145.118 138.985 144.808 138.754C143.685 137.918 141.989 136.656 140.312 133.638C139.238 131.706 139.534 130.222 140.262 129.661C140.874 129.191 141.761 129.39 142.579 130.178C145.042 132.552 146.89 134.189 148.242 133.63C149.4 133.15 150.041 132.054 150.466 131.33C150.587 131.124 150.742 130.858 150.847 130.738C150.873 130.773 150.91 130.83 150.955 130.917C151.599 132.161 151.687 133.444 151.214 134.731C150.638 136.302 151.119 138.032 152.414 139.035C155.816 141.669 161.457 145.017 164.485 146.197C164.752 146.301 165.561 146.616 169.835 139.64L177.384 144.623L177.384 144.625Z" fill="#9F1127"/>
<path d="M166.017 144.534C166.017 144.534 164.936 124.56 180.035 118.95C191.727 114.605 206.657 116.48 211.337 118.103C222.859 122.098 228.529 137.321 228.529 137.321L215.027 139.224C215.027 139.224 219.096 182.959 217.331 192.714C217.331 192.714 206.466 193.989 201.856 192.162C197.248 190.336 182.095 187.775 174.851 191.126L176.166 144.346L166.015 144.534H166.017Z" fill="#9F1127"/>
<path d="M184.835 181.828C184.671 181.828 184.525 181.711 184.495 181.543C184.463 181.355 184.588 181.176 184.774 181.144C202.019 178.075 207.055 166.06 207.103 165.94C207.175 165.763 207.376 165.678 207.553 165.749C207.73 165.819 207.814 166.021 207.744 166.197C207.694 166.322 202.534 178.685 184.895 181.822C184.875 181.825 184.854 181.826 184.834 181.826L184.835 181.828Z" fill="white"/>
</svg>
