<svg width="374" height="313" viewBox="0 0 374 313" fill="none" xmlns="http://www.w3.org/2000/svg">
<path d="M24.25 0.641113V12.1411H373.75V0.641113H24.25Z" stroke="#4B4B4B" stroke-width="0.5"/>
<path d="M33.6465 12.3911V7.67683" stroke="#4B4B4B" stroke-width="0.5"/>
<path d="M34.7188 12.3911V7.67683" stroke="#4B4B4B" stroke-width="0.5"/>
<path d="M35.793 12.3911V7.67683" stroke="#4B4B4B" stroke-width="0.5"/>
<path d="M36.8633 12.3911V7.67683" stroke="#4B4B4B" stroke-width="0.5"/>
<path d="M37.9355 12.3911V7.67683" stroke="#4B4B4B" stroke-width="0.5"/>
<path d="M39.0078 12.3911V7.67683" stroke="#4B4B4B" stroke-width="0.5"/>
<path d="M40.0781 12.3911V7.67683" stroke="#4B4B4B" stroke-width="0.5"/>
<path d="M41.1523 12.3911V7.67683" stroke="#4B4B4B" stroke-width="0.5"/>
<path d="M42.2227 12.3911V7.67683" stroke="#4B4B4B" stroke-width="0.5"/>
<path d="M43.2949 12.3911V4.67683" stroke="#4B4B4B" stroke-width="0.5"/>
<path d="M44.3672 12.3911V7.67683" stroke="#4B4B4B" stroke-width="0.5"/>
<path d="M45.4414 12.3911V7.67683" stroke="#4B4B4B" stroke-width="0.5"/>
<path d="M46.5098 12.3911V7.67683" stroke="#4B4B4B" stroke-width="0.5"/>
<path d="M47.582 12.3911V7.67683" stroke="#4B4B4B" stroke-width="0.5"/>
<path d="M48.6543 12.3911V7.67683" stroke="#4B4B4B" stroke-width="0.5"/>
<path d="M49.7285 12.3911V7.67683" stroke="#4B4B4B" stroke-width="0.5"/>
<path d="M50.8008 12.3911V7.67683" stroke="#4B4B4B" stroke-width="0.5"/>
<path d="M51.8711 12.3911V4.67683" stroke="#4B4B4B" stroke-width="0.5"/>
<path d="M52.9434 12.3911V7.67683" stroke="#4B4B4B" stroke-width="0.5"/>
<path d="M54.0137 12.3911V7.67683" stroke="#4B4B4B" stroke-width="0.5"/>
<path d="M55.0879 12.3911V7.67683" stroke="#4B4B4B" stroke-width="0.5"/>
<path d="M56.1602 12.3911V7.67683" stroke="#4B4B4B" stroke-width="0.5"/>
<path d="M57.2305 12.3911V7.67683" stroke="#4B4B4B" stroke-width="0.5"/>
<path d="M58.3027 12.3911V7.67683" stroke="#4B4B4B" stroke-width="0.5"/>
<path d="M59.377 12.3911V7.67683" stroke="#4B4B4B" stroke-width="0.5"/>
<path d="M60.4473 12.3911V7.67683" stroke="#4B4B4B" stroke-width="0.5"/>
<path d="M61.5176 12.3911V4.67683" stroke="#4B4B4B" stroke-width="0.5"/>
<path d="M62.5898 12.3911V7.67683" stroke="#4B4B4B" stroke-width="0.5"/>
<path d="M63.6641 12.3911V7.67683" stroke="#4B4B4B" stroke-width="0.5"/>
<path d="M64.7363 12.3911V7.67683" stroke="#4B4B4B" stroke-width="0.5"/>
<path d="M65.8086 12.3911V7.67683" stroke="#4B4B4B" stroke-width="0.5"/>
<path d="M66.877 12.3911V7.67683" stroke="#4B4B4B" stroke-width="0.5"/>
<path d="M67.9492 12.3911V7.67683" stroke="#4B4B4B" stroke-width="0.5"/>
<path d="M69.0234 12.3911V7.67683" stroke="#4B4B4B" stroke-width="0.5"/>
<path d="M70.0957 12.3911V7.67683" stroke="#4B4B4B" stroke-width="0.5"/>
<path d="M71.168 12.3911V7.67683" stroke="#4B4B4B" stroke-width="0.5"/>
<path d="M72.2383 12.3911V7.67683" stroke="#4B4B4B" stroke-width="0.5"/>
<path d="M73.3105 12.3911V7.67683" stroke="#4B4B4B" stroke-width="0.5"/>
<path d="M74.3828 12.3911V4.67683" stroke="#4B4B4B" stroke-width="0.5"/>
<path d="M75.4551 12.3911V7.67683" stroke="#4B4B4B" stroke-width="0.5"/>
<path d="M76.5254 12.3911V7.67683" stroke="#4B4B4B" stroke-width="0.5"/>
<path d="M77.5977 12.3911V7.67683" stroke="#4B4B4B" stroke-width="0.5"/>
<path d="M78.6719 12.3911V7.67683" stroke="#4B4B4B" stroke-width="0.5"/>
<path d="M79.7422 12.3911V7.67683" stroke="#4B4B4B" stroke-width="0.5"/>
<path d="M80.8145 12.3911V7.67683" stroke="#4B4B4B" stroke-width="0.5"/>
<path d="M81.8848 12.3911V7.67683" stroke="#4B4B4B" stroke-width="0.5"/>
<path d="M82.959 12.3911V7.67683" stroke="#4B4B4B" stroke-width="0.5"/>
<path d="M84.0312 12.3911V4.67683" stroke="#4B4B4B" stroke-width="0.5"/>
<path d="M85.1035 12.3911V7.67683" stroke="#4B4B4B" stroke-width="0.5"/>
<path d="M86.1738 12.3911V7.67683" stroke="#4B4B4B" stroke-width="0.5"/>
<path d="M87.2461 12.3911V7.67683" stroke="#4B4B4B" stroke-width="0.5"/>
<path d="M88.3184 12.3911V7.67683" stroke="#4B4B4B" stroke-width="0.5"/>
<path d="M89.3906 12.3911V7.67683" stroke="#4B4B4B" stroke-width="0.5"/>
<path d="M90.4629 12.3911V7.67683" stroke="#4B4B4B" stroke-width="0.5"/>
<path d="M91.5352 12.3911V7.67683" stroke="#4B4B4B" stroke-width="0.5"/>
<path d="M92.6055 12.3911V7.67683" stroke="#4B4B4B" stroke-width="0.5"/>
<path d="M93.6777 12.3911V7.67683" stroke="#4B4B4B" stroke-width="0.5"/>
<path d="M94.75 12.3911V7.67683" stroke="#4B4B4B" stroke-width="0.5"/>
<path d="M95.8223 12.3911V4.67683" stroke="#4B4B4B" stroke-width="0.5"/>
<path d="M96.8945 12.3911V7.67683" stroke="#4B4B4B" stroke-width="0.5"/>
<path d="M97.9668 12.3911V7.67683" stroke="#4B4B4B" stroke-width="0.5"/>
<path d="M99.0371 12.3911V7.67683" stroke="#4B4B4B" stroke-width="0.5"/>
<path d="M100.109 12.3911V7.67683" stroke="#4B4B4B" stroke-width="0.5"/>
<path d="M101.184 12.3911V7.67683" stroke="#4B4B4B" stroke-width="0.5"/>
<path d="M102.254 12.3911V7.67683" stroke="#4B4B4B" stroke-width="0.5"/>
<path d="M103.326 12.3911V7.67683" stroke="#4B4B4B" stroke-width="0.5"/>
<path d="M104.398 12.3911V7.67683" stroke="#4B4B4B" stroke-width="0.5"/>
<path d="M105.469 12.3911V7.67683" stroke="#4B4B4B" stroke-width="0.5"/>
<path d="M106.543 12.3911V7.67683" stroke="#4B4B4B" stroke-width="0.5"/>
<path d="M107.613 12.3911V4.67683" stroke="#4B4B4B" stroke-width="0.5"/>
<path d="M108.686 12.3911V7.67683" stroke="#4B4B4B" stroke-width="0.5"/>
<path d="M109.758 12.3911V7.67683" stroke="#4B4B4B" stroke-width="0.5"/>
<path d="M110.832 12.3911V7.67683" stroke="#4B4B4B" stroke-width="0.5"/>
<path d="M111.9 12.3911V4.67683" stroke="#4B4B4B" stroke-width="0.5"/>
<path d="M112.973 12.3911V7.67683" stroke="#4B4B4B" stroke-width="0.5"/>
<path d="M114.045 12.3911V7.67683" stroke="#4B4B4B" stroke-width="0.5"/>
<path d="M115.119 12.3911V7.67683" stroke="#4B4B4B" stroke-width="0.5"/>
<path d="M116.191 12.3911V7.67683" stroke="#4B4B4B" stroke-width="0.5"/>
<path d="M117.262 12.3911V7.67683" stroke="#4B4B4B" stroke-width="0.5"/>
<path d="M118.332 12.3911V7.67683" stroke="#4B4B4B" stroke-width="0.5"/>
<path d="M119.404 12.3911V7.67683" stroke="#4B4B4B" stroke-width="0.5"/>
<path d="M120.479 12.3911V7.67683" stroke="#4B4B4B" stroke-width="0.5"/>
<path d="M121.551 12.3911V7.67683" stroke="#4B4B4B" stroke-width="0.5"/>
<path d="M122.621 12.3911V7.67683" stroke="#4B4B4B" stroke-width="0.5"/>
<path d="M123.693 12.3911V7.67683" stroke="#4B4B4B" stroke-width="0.5"/>
<path d="M124.768 12.3911V4.67683" stroke="#4B4B4B" stroke-width="0.5"/>
<path d="M125.838 12.3911V7.67683" stroke="#4B4B4B" stroke-width="0.5"/>
<path d="M126.908 12.3911V7.67683" stroke="#4B4B4B" stroke-width="0.5"/>
<path d="M127.98 12.3911V7.67683" stroke="#4B4B4B" stroke-width="0.5"/>
<path d="M129.055 12.3911V7.67683" stroke="#4B4B4B" stroke-width="0.5"/>
<path d="M130.127 12.3911V7.67683" stroke="#4B4B4B" stroke-width="0.5"/>
<path d="M131.199 12.3911V7.67683" stroke="#4B4B4B" stroke-width="0.5"/>
<path d="M132.268 12.3911V7.67683" stroke="#4B4B4B" stroke-width="0.5"/>
<path d="M133.34 12.3911V7.67683" stroke="#4B4B4B" stroke-width="0.5"/>
<path d="M134.414 12.3911V7.67683" stroke="#4B4B4B" stroke-width="0.5"/>
<path d="M135.486 12.3911V7.67683" stroke="#4B4B4B" stroke-width="0.5"/>
<path d="M136.559 12.3911V7.67683" stroke="#4B4B4B" stroke-width="0.5"/>
<path d="M137.629 12.3911V7.67683" stroke="#4B4B4B" stroke-width="0.5"/>
<path d="M138.701 12.3911V7.67683" stroke="#4B4B4B" stroke-width="0.5"/>
<path d="M139.773 12.3911V7.67683" stroke="#4B4B4B" stroke-width="0.5"/>
<path d="M140.846 12.3911V4.67683" stroke="#4B4B4B" stroke-width="0.5"/>
<path d="M141.916 12.3911V7.67683" stroke="#4B4B4B" stroke-width="0.5"/>
<path d="M142.988 12.3911V7.67683" stroke="#4B4B4B" stroke-width="0.5"/>
<path d="M144.062 12.3911V7.67683" stroke="#4B4B4B" stroke-width="0.5"/>
<path d="M145.133 12.3911V7.67683" stroke="#4B4B4B" stroke-width="0.5"/>
<path d="M146.205 12.3911V7.67683" stroke="#4B4B4B" stroke-width="0.5"/>
<path d="M147.275 12.3911V7.67683" stroke="#4B4B4B" stroke-width="0.5"/>
<path d="M148.35 12.3911V7.67683" stroke="#4B4B4B" stroke-width="0.5"/>
<path d="M149.422 12.3911V7.67683" stroke="#4B4B4B" stroke-width="0.5"/>
<path d="M150.494 12.3911V7.67683" stroke="#4B4B4B" stroke-width="0.5"/>
<path d="M151.562 12.3911V7.67683" stroke="#4B4B4B" stroke-width="0.5"/>
<path d="M152.637 12.3911V7.67683" stroke="#4B4B4B" stroke-width="0.5"/>
<path d="M153.709 12.3911V4.67683" stroke="#4B4B4B" stroke-width="0.5"/>
<path d="M154.781 12.3911V7.67683" stroke="#4B4B4B" stroke-width="0.5"/>
<path d="M155.854 12.3911V7.67683" stroke="#4B4B4B" stroke-width="0.5"/>
<path d="M156.924 12.3911V7.67683" stroke="#4B4B4B" stroke-width="0.5"/>
<path d="M157.996 12.3911V7.67683" stroke="#4B4B4B" stroke-width="0.5"/>
<path d="M159.068 12.3911V7.67683" stroke="#4B4B4B" stroke-width="0.5"/>
<path d="M160.141 12.3911V7.67683" stroke="#4B4B4B" stroke-width="0.5"/>
<path d="M161.213 12.3911V7.67683" stroke="#4B4B4B" stroke-width="0.5"/>
<path d="M162.285 12.3911V7.67683" stroke="#4B4B4B" stroke-width="0.5"/>
<path d="M163.357 12.3911V7.67683" stroke="#4B4B4B" stroke-width="0.5"/>
<path d="M164.428 12.3911V7.67683" stroke="#4B4B4B" stroke-width="0.5"/>
<path d="M165.5 12.3911V7.67683" stroke="#4B4B4B" stroke-width="0.5"/>
<path d="M166.574 12.3911V4.67683" stroke="#4B4B4B" stroke-width="0.5"/>
<path d="M167.645 12.3911V7.67683" stroke="#4B4B4B" stroke-width="0.5"/>
<path d="M168.717 12.3911V7.67683" stroke="#4B4B4B" stroke-width="0.5"/>
<path d="M169.789 12.3911V7.67683" stroke="#4B4B4B" stroke-width="0.5"/>
<path d="M170.859 12.3911V7.67683" stroke="#4B4B4B" stroke-width="0.5"/>
<path d="M171.932 12.3911V7.67683" stroke="#4B4B4B" stroke-width="0.5"/>
<path d="M173.004 12.3911V7.67683" stroke="#4B4B4B" stroke-width="0.5"/>
<path d="M174.076 12.3911V7.67683" stroke="#4B4B4B" stroke-width="0.5"/>
<path d="M175.148 12.3911V7.67683" stroke="#4B4B4B" stroke-width="0.5"/>
<path d="M176.223 12.3911V7.67683" stroke="#4B4B4B" stroke-width="0.5"/>
<path d="M177.291 12.3911V4.67683" stroke="#4B4B4B" stroke-width="0.5"/>
<path d="M178.363 12.3911V7.67683" stroke="#4B4B4B" stroke-width="0.5"/>
<path d="M179.436 12.3911V7.67683" stroke="#4B4B4B" stroke-width="0.5"/>
<path d="M180.51 12.3911V7.67683" stroke="#4B4B4B" stroke-width="0.5"/>
<path d="M181.582 12.3911V7.67683" stroke="#4B4B4B" stroke-width="0.5"/>
<path d="M182.652 12.3911V7.67683" stroke="#4B4B4B" stroke-width="0.5"/>
<path d="M183.725 12.3911V7.67683" stroke="#4B4B4B" stroke-width="0.5"/>
<path d="M184.795 12.3911V7.67683" stroke="#4B4B4B" stroke-width="0.5"/>
<path d="M185.869 12.3911V7.67683" stroke="#4B4B4B" stroke-width="0.5"/>
<path d="M186.939 12.3911V4.67683" stroke="#4B4B4B" stroke-width="0.5"/>
<path d="M188.012 12.3911V7.67683" stroke="#4B4B4B" stroke-width="0.5"/>
<path d="M189.084 12.3911V7.67683" stroke="#4B4B4B" stroke-width="0.5"/>
<path d="M190.156 12.3911V7.67683" stroke="#4B4B4B" stroke-width="0.5"/>
<path d="M191.229 12.3911V7.67683" stroke="#4B4B4B" stroke-width="0.5"/>
<path d="M192.299 12.3911V7.67683" stroke="#4B4B4B" stroke-width="0.5"/>
<path d="M193.371 12.3911V7.67683" stroke="#4B4B4B" stroke-width="0.5"/>
<path d="M194.445 12.3911V7.67683" stroke="#4B4B4B" stroke-width="0.5"/>
<path d="M195.518 12.3911V7.67683" stroke="#4B4B4B" stroke-width="0.5"/>
<path d="M196.59 12.3911V7.67683" stroke="#4B4B4B" stroke-width="0.5"/>
<path d="M197.658 12.3911V7.67683" stroke="#4B4B4B" stroke-width="0.5"/>
<path d="M198.73 12.3911V7.67683" stroke="#4B4B4B" stroke-width="0.5"/>
<path d="M199.805 12.3911V4.67683" stroke="#4B4B4B" stroke-width="0.5"/>
<path d="M200.877 12.3911V7.67683" stroke="#4B4B4B" stroke-width="0.5"/>
<path d="M201.947 12.3911V7.67683" stroke="#4B4B4B" stroke-width="0.5"/>
<path d="M203.02 12.3911V7.67683" stroke="#4B4B4B" stroke-width="0.5"/>
<path d="M204.092 12.3911V7.67683" stroke="#4B4B4B" stroke-width="0.5"/>
<path d="M205.164 12.3911V7.67683" stroke="#4B4B4B" stroke-width="0.5"/>
<path d="M206.236 12.3911V7.67683" stroke="#4B4B4B" stroke-width="0.5"/>
<path d="M207.307 12.3911V7.67683" stroke="#4B4B4B" stroke-width="0.5"/>
<path d="M208.381 12.3911V7.67683" stroke="#4B4B4B" stroke-width="0.5"/>
<path d="M209.453 12.3911V7.67683" stroke="#4B4B4B" stroke-width="0.5"/>
<path d="M210.523 12.3911V7.67683" stroke="#4B4B4B" stroke-width="0.5"/>
<path d="M211.594 12.3911V7.67683" stroke="#4B4B4B" stroke-width="0.5"/>
<path d="M212.666 12.3911V7.67683" stroke="#4B4B4B" stroke-width="0.5"/>
<path d="M213.74 12.3911V7.67683" stroke="#4B4B4B" stroke-width="0.5"/>
<path d="M214.812 12.3911V4.67683" stroke="#4B4B4B" stroke-width="0.5"/>
<path d="M215.885 12.3911V7.67683" stroke="#4B4B4B" stroke-width="0.5"/>
<path d="M216.953 12.3911V7.67683" stroke="#4B4B4B" stroke-width="0.5"/>
<path d="M218.027 12.3911V7.67683" stroke="#4B4B4B" stroke-width="0.5"/>
<path d="M219.1 12.3911V7.67683" stroke="#4B4B4B" stroke-width="0.5"/>
<path d="M220.172 12.3911V7.67683" stroke="#4B4B4B" stroke-width="0.5"/>
<path d="M221.244 12.3911V7.67683" stroke="#4B4B4B" stroke-width="0.5"/>
<path d="M222.316 12.3911V7.67683" stroke="#4B4B4B" stroke-width="0.5"/>
<path d="M223.387 12.3911V7.67683" stroke="#4B4B4B" stroke-width="0.5"/>
<path d="M224.459 12.3911V4.67683" stroke="#4B4B4B" stroke-width="0.5"/>
<path d="M225.531 12.3911V7.67683" stroke="#4B4B4B" stroke-width="0.5"/>
<path d="M226.602 12.3911V7.67683" stroke="#4B4B4B" stroke-width="0.5"/>
<path d="M227.676 12.3911V7.67683" stroke="#4B4B4B" stroke-width="0.5"/>
<path d="M228.748 12.3911V7.67683" stroke="#4B4B4B" stroke-width="0.5"/>
<path d="M229.818 12.3911V7.67683" stroke="#4B4B4B" stroke-width="0.5"/>
<path d="M230.891 12.3911V7.67683" stroke="#4B4B4B" stroke-width="0.5"/>
<path d="M231.963 12.3911V4.67683" stroke="#4B4B4B" stroke-width="0.5"/>
<path d="M233.035 12.3911V7.67683" stroke="#4B4B4B" stroke-width="0.5"/>
<path d="M234.107 12.3911V7.67683" stroke="#4B4B4B" stroke-width="0.5"/>
<path d="M235.18 12.3911V7.67683" stroke="#4B4B4B" stroke-width="0.5"/>
<path d="M236.25 12.3911V7.67683" stroke="#4B4B4B" stroke-width="0.5"/>
<path d="M237.322 12.3911V7.67683" stroke="#4B4B4B" stroke-width="0.5"/>
<path d="M238.395 12.3911V7.67683" stroke="#4B4B4B" stroke-width="0.5"/>
<path d="M239.467 12.3911V7.67683" stroke="#4B4B4B" stroke-width="0.5"/>
<path d="M240.539 12.3911V7.67683" stroke="#4B4B4B" stroke-width="0.5"/>
<path d="M241.613 12.3911V7.67683" stroke="#4B4B4B" stroke-width="0.5"/>
<path d="M242.682 12.3911V7.67683" stroke="#4B4B4B" stroke-width="0.5"/>
<path d="M243.754 12.3911V4.67683" stroke="#4B4B4B" stroke-width="0.5"/>
<path d="M244.826 12.3911V7.67683" stroke="#4B4B4B" stroke-width="0.5"/>
<path d="M245.9 12.3911V7.67683" stroke="#4B4B4B" stroke-width="0.5"/>
<path d="M246.971 12.3911V7.67683" stroke="#4B4B4B" stroke-width="0.5"/>
<path d="M248.043 12.3911V7.67683" stroke="#4B4B4B" stroke-width="0.5"/>
<path d="M249.113 12.3911V7.67683" stroke="#4B4B4B" stroke-width="0.5"/>
<path d="M250.186 12.3911V7.67683" stroke="#4B4B4B" stroke-width="0.5"/>
<path d="M251.26 12.3911V7.67683" stroke="#4B4B4B" stroke-width="0.5"/>
<path d="M252.33 12.3911V7.67683" stroke="#4B4B4B" stroke-width="0.5"/>
<path d="M253.402 12.3911V7.67683" stroke="#4B4B4B" stroke-width="0.5"/>
<path d="M254.475 12.3911V7.67683" stroke="#4B4B4B" stroke-width="0.5"/>
<path d="M255.549 12.3911V7.67683" stroke="#4B4B4B" stroke-width="0.5"/>
<path d="M256.617 12.3911V4.67683" stroke="#4B4B4B" stroke-width="0.5"/>
<path d="M257.689 12.3911V7.67683" stroke="#4B4B4B" stroke-width="0.5"/>
<path d="M258.762 12.3911V7.67683" stroke="#4B4B4B" stroke-width="0.5"/>
<path d="M259.836 12.3911V7.67683" stroke="#4B4B4B" stroke-width="0.5"/>
<path d="M260.908 12.3911V7.67683" stroke="#4B4B4B" stroke-width="0.5"/>
<path d="M261.979 12.3911V7.67683" stroke="#4B4B4B" stroke-width="0.5"/>
<path d="M263.049 12.3911V7.67683" stroke="#4B4B4B" stroke-width="0.5"/>
<path d="M264.121 12.3911V7.67683" stroke="#4B4B4B" stroke-width="0.5"/>
<path d="M265.195 12.3911V7.67683" stroke="#4B4B4B" stroke-width="0.5"/>
<path d="M266.268 12.3911V7.67683" stroke="#4B4B4B" stroke-width="0.5"/>
<path d="M267.338 12.3911V7.67683" stroke="#4B4B4B" stroke-width="0.5"/>
<path d="M268.41 12.3911V7.67683" stroke="#4B4B4B" stroke-width="0.5"/>
<path d="M269.482 12.3911V4.67683" stroke="#4B4B4B" stroke-width="0.5"/>
<path d="M270.555 12.3911V7.67683" stroke="#4B4B4B" stroke-width="0.5"/>
<path d="M271.625 12.3911V7.67683" stroke="#4B4B4B" stroke-width="0.5"/>
<path d="M272.697 12.3911V7.67683" stroke="#4B4B4B" stroke-width="0.5"/>
<path d="M273.771 12.3911V7.67683" stroke="#4B4B4B" stroke-width="0.5"/>
<path d="M274.844 12.3911V7.67683" stroke="#4B4B4B" stroke-width="0.5"/>
<path d="M275.914 12.3911V7.67683" stroke="#4B4B4B" stroke-width="0.5"/>
<path d="M276.984 12.3911V7.67683" stroke="#4B4B4B" stroke-width="0.5"/>
<path d="M278.057 12.3911V7.67683" stroke="#4B4B4B" stroke-width="0.5"/>
<path d="M279.131 12.3911V7.67683" stroke="#4B4B4B" stroke-width="0.5"/>
<path d="M280.203 12.3911V7.67683" stroke="#4B4B4B" stroke-width="0.5"/>
<path d="M281.275 12.3911V4.67683" stroke="#4B4B4B" stroke-width="0.5"/>
<path d="M282.344 12.3911V7.67683" stroke="#4B4B4B" stroke-width="0.5"/>
<path d="M283.418 12.3911V7.67683" stroke="#4B4B4B" stroke-width="0.5"/>
<path d="M284.49 12.3911V7.67683" stroke="#4B4B4B" stroke-width="0.5"/>
<path d="M285.562 12.3911V7.67683" stroke="#4B4B4B" stroke-width="0.5"/>
<path d="M286.633 12.3911V7.67683" stroke="#4B4B4B" stroke-width="0.5"/>
<path d="M287.707 12.3911V7.67683" stroke="#4B4B4B" stroke-width="0.5"/>
<path d="M288.777 12.3911V7.67683" stroke="#4B4B4B" stroke-width="0.5"/>
<path d="M289.85 12.3911V7.67683" stroke="#4B4B4B" stroke-width="0.5"/>
<path d="M290.922 12.3911V7.67683" stroke="#4B4B4B" stroke-width="0.5"/>
<path d="M291.992 12.3911V4.67683" stroke="#4B4B4B" stroke-width="0.5"/>
<path d="M293.066 12.3911V7.67683" stroke="#4B4B4B" stroke-width="0.5"/>
<path d="M294.139 12.3911V7.67683" stroke="#4B4B4B" stroke-width="0.5"/>
<path d="M295.209 12.3911V7.67683" stroke="#4B4B4B" stroke-width="0.5"/>
<path d="M296.281 12.3911V7.67683" stroke="#4B4B4B" stroke-width="0.5"/>
<path d="M297.354 12.3911V7.67683" stroke="#4B4B4B" stroke-width="0.5"/>
<path d="M298.426 12.3911V7.67683" stroke="#4B4B4B" stroke-width="0.5"/>
<path d="M299.498 12.3911V7.67683" stroke="#4B4B4B" stroke-width="0.5"/>
<path d="M300.57 12.3911V7.67683" stroke="#4B4B4B" stroke-width="0.5"/>
<path d="M301.639 12.3911V7.67683" stroke="#4B4B4B" stroke-width="0.5"/>
<path d="M302.713 12.3911V4.67683" stroke="#4B4B4B" stroke-width="0.5"/>
<path d="M303.785 12.3911V7.67683" stroke="#4B4B4B" stroke-width="0.5"/>
<path d="M304.857 12.3911V7.67683" stroke="#4B4B4B" stroke-width="0.5"/>
<path d="M305.93 12.3911V7.67683" stroke="#4B4B4B" stroke-width="0.5"/>
<path d="M307.002 12.3911V7.67683" stroke="#4B4B4B" stroke-width="0.5"/>
<path d="M308.072 12.3911V7.67683" stroke="#4B4B4B" stroke-width="0.5"/>
<path d="M309.145 12.3911V7.67683" stroke="#4B4B4B" stroke-width="0.5"/>
<path d="M310.217 12.3911V7.67683" stroke="#4B4B4B" stroke-width="0.5"/>
<path d="M311.291 12.3911V7.67683" stroke="#4B4B4B" stroke-width="0.5"/>
<path d="M312.361 12.3911V7.67683" stroke="#4B4B4B" stroke-width="0.5"/>
<path d="M313.434 12.3911V7.67683" stroke="#4B4B4B" stroke-width="0.5"/>
<path d="M314.506 12.3911V4.67683" stroke="#4B4B4B" stroke-width="0.5"/>
<path d="M315.576 12.3911V7.67683" stroke="#4B4B4B" stroke-width="0.5"/>
<path d="M316.648 12.3911V7.67683" stroke="#4B4B4B" stroke-width="0.5"/>
<path d="M317.721 12.3911V7.67683" stroke="#4B4B4B" stroke-width="0.5"/>
<path d="M318.793 12.3911V7.67683" stroke="#4B4B4B" stroke-width="0.5"/>
<path d="M319.865 12.3911V7.67683" stroke="#4B4B4B" stroke-width="0.5"/>
<path d="M320.939 12.3911V7.67683" stroke="#4B4B4B" stroke-width="0.5"/>
<path d="M322.008 12.3911V7.67683" stroke="#4B4B4B" stroke-width="0.5"/>
<path d="M323.08 12.3911V4.67683" stroke="#4B4B4B" stroke-width="0.5"/>
<path d="M324.152 12.3911V7.67683" stroke="#4B4B4B" stroke-width="0.5"/>
<path d="M325.227 12.3911V7.67683" stroke="#4B4B4B" stroke-width="0.5"/>
<path d="M326.299 12.3911V7.67683" stroke="#4B4B4B" stroke-width="0.5"/>
<path d="M327.369 12.3911V7.67683" stroke="#4B4B4B" stroke-width="0.5"/>
<path d="M328.439 12.3911V7.67683" stroke="#4B4B4B" stroke-width="0.5"/>
<path d="M329.512 12.3911V7.67683" stroke="#4B4B4B" stroke-width="0.5"/>
<path d="M330.586 12.3911V7.67683" stroke="#4B4B4B" stroke-width="0.5"/>
<path d="M331.656 12.3911V7.67683" stroke="#4B4B4B" stroke-width="0.5"/>
<path d="M332.729 12.3911V4.67683" stroke="#4B4B4B" stroke-width="0.5"/>
<path d="M333.801 12.3911V7.67683" stroke="#4B4B4B" stroke-width="0.5"/>
<path d="M334.873 12.3911V7.67683" stroke="#4B4B4B" stroke-width="0.5"/>
<path d="M335.945 12.3911V7.67683" stroke="#4B4B4B" stroke-width="0.5"/>
<path d="M337.016 12.3911V7.67683" stroke="#4B4B4B" stroke-width="0.5"/>
<path d="M338.088 12.3911V7.67683" stroke="#4B4B4B" stroke-width="0.5"/>
<path d="M339.162 12.3911V7.67683" stroke="#4B4B4B" stroke-width="0.5"/>
<path d="M340.234 12.3911V7.67683" stroke="#4B4B4B" stroke-width="0.5"/>
<path d="M341.305 12.3911V7.67683" stroke="#4B4B4B" stroke-width="0.5"/>
<path d="M342.375 12.3911V7.67683" stroke="#4B4B4B" stroke-width="0.5"/>
<path d="M343.447 12.3911V7.67683" stroke="#4B4B4B" stroke-width="0.5"/>
<path d="M344.521 12.3911V4.67683" stroke="#4B4B4B" stroke-width="0.5"/>
<path d="M345.594 12.3911V7.67683" stroke="#4B4B4B" stroke-width="0.5"/>
<path d="M346.664 12.3911V7.67683" stroke="#4B4B4B" stroke-width="0.5"/>
<path d="M347.734 12.3911V7.67683" stroke="#4B4B4B" stroke-width="0.5"/>
<path d="M348.809 12.3911V7.67683" stroke="#4B4B4B" stroke-width="0.5"/>
<path d="M349.881 12.3911V7.67683" stroke="#4B4B4B" stroke-width="0.5"/>
<path d="M350.953 12.3911V7.67683" stroke="#4B4B4B" stroke-width="0.5"/>
<path d="M352.023 12.3911V7.67683" stroke="#4B4B4B" stroke-width="0.5"/>
<path d="M353.098 12.3911V7.67683" stroke="#4B4B4B" stroke-width="0.5"/>
<path d="M354.168 12.3911V7.67683" stroke="#4B4B4B" stroke-width="0.5"/>
<path d="M355.24 12.3911V4.67683" stroke="#4B4B4B" stroke-width="0.5"/>
<path d="M356.312 12.3911V7.67683" stroke="#4B4B4B" stroke-width="0.5"/>
<path d="M357.383 12.3911V7.67683" stroke="#4B4B4B" stroke-width="0.5"/>
<path d="M358.457 12.3911V7.67683" stroke="#4B4B4B" stroke-width="0.5"/>
<path d="M359.529 12.3911V7.67683" stroke="#4B4B4B" stroke-width="0.5"/>
<path d="M360.6 12.3911V7.67683" stroke="#4B4B4B" stroke-width="0.5"/>
<path d="M361.67 12.3911V7.67683" stroke="#4B4B4B" stroke-width="0.5"/>
<path d="M362.744 12.3911V7.67683" stroke="#4B4B4B" stroke-width="0.5"/>
<path d="M11.749 278.75V26.25H0.249023V278.75H11.749Z" stroke="#4B4B4B" stroke-width="0.5"/>
<path d="M11.999 31.9468H8.18084" stroke="#4B4B4B" stroke-width="0.5"/>
<path d="M11.999 33.0278H8.18084" stroke="#4B4B4B" stroke-width="0.5"/>
<path d="M11.999 34.1089H8.18084" stroke="#4B4B4B" stroke-width="0.5"/>
<path d="M11.999 35.1902H8.18084" stroke="#4B4B4B" stroke-width="0.5"/>
<path d="M11.999 36.2715H8.18084" stroke="#4B4B4B" stroke-width="0.5"/>
<path d="M11.999 37.3525H4.36266" stroke="#4B4B4B" stroke-width="0.5"/>
<path d="M11.999 38.4336H8.18084" stroke="#4B4B4B" stroke-width="0.5"/>
<path d="M11.999 39.5149H8.18084" stroke="#4B4B4B" stroke-width="0.5"/>
<path d="M11.999 40.5962H8.18084" stroke="#4B4B4B" stroke-width="0.5"/>
<path d="M11.999 41.6772H8.18084" stroke="#4B4B4B" stroke-width="0.5"/>
<path d="M11.999 42.7585H8.18084" stroke="#4B4B4B" stroke-width="0.5"/>
<path d="M11.999 43.8398H8.18084" stroke="#4B4B4B" stroke-width="0.5"/>
<path d="M11.999 44.9209H8.18084" stroke="#4B4B4B" stroke-width="0.5"/>
<path d="M11.999 46.002H8.18084" stroke="#4B4B4B" stroke-width="0.5"/>
<path d="M11.999 47.0835H4.36266" stroke="#4B4B4B" stroke-width="0.5"/>
<path d="M11.999 48.1646H8.18084" stroke="#4B4B4B" stroke-width="0.5"/>
<path d="M11.999 49.2456H8.18084" stroke="#4B4B4B" stroke-width="0.5"/>
<path d="M11.999 50.3269H8.18084" stroke="#4B4B4B" stroke-width="0.5"/>
<path d="M11.999 51.4082H8.18084" stroke="#4B4B4B" stroke-width="0.5"/>
<path d="M11.999 52.4893H8.18084" stroke="#4B4B4B" stroke-width="0.5"/>
<path d="M11.999 53.5706H8.18084" stroke="#4B4B4B" stroke-width="0.5"/>
<path d="M11.999 54.6519H8.18084" stroke="#4B4B4B" stroke-width="0.5"/>
<path d="M11.999 55.7329H8.18084" stroke="#4B4B4B" stroke-width="0.5"/>
<path d="M11.999 56.8142H8.18084" stroke="#4B4B4B" stroke-width="0.5"/>
<path d="M11.999 57.8953H8.18084" stroke="#4B4B4B" stroke-width="0.5"/>
<path d="M11.999 58.9766H8.18084" stroke="#4B4B4B" stroke-width="0.5"/>
<path d="M11.999 60.0576H4.36266" stroke="#4B4B4B" stroke-width="0.5"/>
<path d="M11.999 61.1389H8.18084" stroke="#4B4B4B" stroke-width="0.5"/>
<path d="M11.999 62.2202H8.18084" stroke="#4B4B4B" stroke-width="0.5"/>
<path d="M11.999 63.3013H8.18084" stroke="#4B4B4B" stroke-width="0.5"/>
<path d="M11.999 64.3823H8.18084" stroke="#4B4B4B" stroke-width="0.5"/>
<path d="M11.999 65.4636H8.18084" stroke="#4B4B4B" stroke-width="0.5"/>
<path d="M11.999 66.5449H8.18084" stroke="#4B4B4B" stroke-width="0.5"/>
<path d="M11.999 67.626H8.18084" stroke="#4B4B4B" stroke-width="0.5"/>
<path d="M11.999 68.707H8.18084" stroke="#4B4B4B" stroke-width="0.5"/>
<path d="M11.999 69.7886H8.18084" stroke="#4B4B4B" stroke-width="0.5"/>
<path d="M11.999 70.8696H8.18084" stroke="#4B4B4B" stroke-width="0.5"/>
<path d="M11.999 71.9507H8.18084" stroke="#4B4B4B" stroke-width="0.5"/>
<path d="M11.999 73.032H8.18084" stroke="#4B4B4B" stroke-width="0.5"/>
<path d="M11.999 74.1133H4.36266" stroke="#4B4B4B" stroke-width="0.5"/>
<path d="M11.999 75.1943H8.18084" stroke="#4B4B4B" stroke-width="0.5"/>
<path d="M11.999 76.2756H8.18084" stroke="#4B4B4B" stroke-width="0.5"/>
<path d="M11.999 77.3569H8.18084" stroke="#4B4B4B" stroke-width="0.5"/>
<path d="M11.999 78.438H8.18084" stroke="#4B4B4B" stroke-width="0.5"/>
<path d="M11.999 79.5193H8.18084" stroke="#4B4B4B" stroke-width="0.5"/>
<path d="M11.999 80.6006H8.18084" stroke="#4B4B4B" stroke-width="0.5"/>
<path d="M11.999 81.6816H8.18084" stroke="#4B4B4B" stroke-width="0.5"/>
<path d="M11.999 82.7627H8.18084" stroke="#4B4B4B" stroke-width="0.5"/>
<path d="M11.999 83.844H8.18084" stroke="#4B4B4B" stroke-width="0.5"/>
<path d="M11.999 84.9253H8.18084" stroke="#4B4B4B" stroke-width="0.5"/>
<path d="M11.999 86.0063H8.18084" stroke="#4B4B4B" stroke-width="0.5"/>
<path d="M11.999 87.0876H8.18084" stroke="#4B4B4B" stroke-width="0.5"/>
<path d="M11.999 88.1689H8.18084" stroke="#4B4B4B" stroke-width="0.5"/>
<path d="M11.999 89.25H8.18084" stroke="#4B4B4B" stroke-width="0.5"/>
<path d="M11.999 90.3311H8.18084" stroke="#4B4B4B" stroke-width="0.5"/>
<path d="M11.999 91.4124H8.18084" stroke="#4B4B4B" stroke-width="0.5"/>
<path d="M11.999 92.4937H4.36266" stroke="#4B4B4B" stroke-width="0.5"/>
<path d="M11.999 93.5747H8.18084" stroke="#4B4B4B" stroke-width="0.5"/>
<path d="M11.999 94.656H8.18084" stroke="#4B4B4B" stroke-width="0.5"/>
<path d="M11.999 95.7373H8.18084" stroke="#4B4B4B" stroke-width="0.5"/>
<path d="M11.999 96.8184H8.18084" stroke="#4B4B4B" stroke-width="0.5"/>
<path d="M11.999 97.8994H8.18084" stroke="#4B4B4B" stroke-width="0.5"/>
<path d="M11.999 98.9807H8.18084" stroke="#4B4B4B" stroke-width="0.5"/>
<path d="M11.999 100.062H8.18084" stroke="#4B4B4B" stroke-width="0.5"/>
<path d="M11.999 101.143H8.18084" stroke="#4B4B4B" stroke-width="0.5"/>
<path d="M11.999 102.224H8.18084" stroke="#4B4B4B" stroke-width="0.5"/>
<path d="M11.999 103.306H8.18084" stroke="#4B4B4B" stroke-width="0.5"/>
<path d="M11.999 104.387H8.18084" stroke="#4B4B4B" stroke-width="0.5"/>
<path d="M11.999 105.468H8.18084" stroke="#4B4B4B" stroke-width="0.5"/>
<path d="M11.999 106.549H8.18084" stroke="#4B4B4B" stroke-width="0.5"/>
<path d="M11.999 107.63H4.36266" stroke="#4B4B4B" stroke-width="0.5"/>
<path d="M11.999 108.711H8.18084" stroke="#4B4B4B" stroke-width="0.5"/>
<path d="M11.999 109.793H8.18084" stroke="#4B4B4B" stroke-width="0.5"/>
<path d="M11.999 110.874H8.18084" stroke="#4B4B4B" stroke-width="0.5"/>
<path d="M11.999 111.955H8.18084" stroke="#4B4B4B" stroke-width="0.5"/>
<path d="M11.999 113.036H8.18084" stroke="#4B4B4B" stroke-width="0.5"/>
<path d="M11.999 114.118H8.18084" stroke="#4B4B4B" stroke-width="0.5"/>
<path d="M11.999 115.199H8.18084" stroke="#4B4B4B" stroke-width="0.5"/>
<path d="M11.999 116.28H8.18084" stroke="#4B4B4B" stroke-width="0.5"/>
<path d="M11.999 117.361H4.36266" stroke="#4B4B4B" stroke-width="0.5"/>
<path d="M11.999 118.442H8.18084" stroke="#4B4B4B" stroke-width="0.5"/>
<path d="M11.999 119.523H8.18084" stroke="#4B4B4B" stroke-width="0.5"/>
<path d="M11.999 120.605H8.18084" stroke="#4B4B4B" stroke-width="0.5"/>
<path d="M11.999 121.686H8.18084" stroke="#4B4B4B" stroke-width="0.5"/>
<path d="M11.999 122.767H8.18084" stroke="#4B4B4B" stroke-width="0.5"/>
<path d="M11.999 123.848H8.18084" stroke="#4B4B4B" stroke-width="0.5"/>
<path d="M11.999 124.929H8.18084" stroke="#4B4B4B" stroke-width="0.5"/>
<path d="M11.999 126.011H8.18084" stroke="#4B4B4B" stroke-width="0.5"/>
<path d="M11.999 127.092H4.36266" stroke="#4B4B4B" stroke-width="0.5"/>
<path d="M11.999 128.173H8.18084" stroke="#4B4B4B" stroke-width="0.5"/>
<path d="M11.999 129.254H8.18084" stroke="#4B4B4B" stroke-width="0.5"/>
<path d="M11.999 130.335H8.18084" stroke="#4B4B4B" stroke-width="0.5"/>
<path d="M11.999 131.417H8.18084" stroke="#4B4B4B" stroke-width="0.5"/>
<path d="M11.999 132.498H8.18084" stroke="#4B4B4B" stroke-width="0.5"/>
<path d="M11.999 133.579H8.18084" stroke="#4B4B4B" stroke-width="0.5"/>
<path d="M11.999 134.66H8.18084" stroke="#4B4B4B" stroke-width="0.5"/>
<path d="M11.999 135.741H8.18084" stroke="#4B4B4B" stroke-width="0.5"/>
<path d="M11.999 136.823H8.18084" stroke="#4B4B4B" stroke-width="0.5"/>
<path d="M11.999 137.904H8.18084" stroke="#4B4B4B" stroke-width="0.5"/>
<path d="M11.999 138.985H8.18084" stroke="#4B4B4B" stroke-width="0.5"/>
<path d="M11.999 140.066H4.36266" stroke="#4B4B4B" stroke-width="0.5"/>
<path d="M11.999 141.147H8.18084" stroke="#4B4B4B" stroke-width="0.5"/>
<path d="M11.999 142.229H8.18084" stroke="#4B4B4B" stroke-width="0.5"/>
<path d="M11.999 143.31H8.18084" stroke="#4B4B4B" stroke-width="0.5"/>
<path d="M11.999 144.391H8.18084" stroke="#4B4B4B" stroke-width="0.5"/>
<path d="M11.999 145.472H8.18084" stroke="#4B4B4B" stroke-width="0.5"/>
<path d="M11.999 146.553H8.18084" stroke="#4B4B4B" stroke-width="0.5"/>
<path d="M11.999 147.635H8.18084" stroke="#4B4B4B" stroke-width="0.5"/>
<path d="M11.999 148.716H8.18084" stroke="#4B4B4B" stroke-width="0.5"/>
<path d="M11.999 149.797H8.18084" stroke="#4B4B4B" stroke-width="0.5"/>
<path d="M11.999 150.878H8.18084" stroke="#4B4B4B" stroke-width="0.5"/>
<path d="M11.999 151.959H4.36266" stroke="#4B4B4B" stroke-width="0.5"/>
<path d="M11.999 153.041H8.18084" stroke="#4B4B4B" stroke-width="0.5"/>
<path d="M11.999 154.122H8.18084" stroke="#4B4B4B" stroke-width="0.5"/>
<path d="M11.999 155.203H8.18084" stroke="#4B4B4B" stroke-width="0.5"/>
<path d="M11.999 156.284H8.18084" stroke="#4B4B4B" stroke-width="0.5"/>
<path d="M11.999 157.365H8.18084" stroke="#4B4B4B" stroke-width="0.5"/>
<path d="M11.999 158.447H8.18084" stroke="#4B4B4B" stroke-width="0.5"/>
<path d="M11.999 159.528H8.18084" stroke="#4B4B4B" stroke-width="0.5"/>
<path d="M11.999 160.609H8.18084" stroke="#4B4B4B" stroke-width="0.5"/>
<path d="M11.999 161.69H4.36266" stroke="#4B4B4B" stroke-width="0.5"/>
<path d="M11.999 162.771H8.18084" stroke="#4B4B4B" stroke-width="0.5"/>
<path d="M11.999 163.853H8.18084" stroke="#4B4B4B" stroke-width="0.5"/>
<path d="M11.999 164.934H8.18084" stroke="#4B4B4B" stroke-width="0.5"/>
<path d="M11.999 166.015H8.18084" stroke="#4B4B4B" stroke-width="0.5"/>
<path d="M11.999 167.096H8.18084" stroke="#4B4B4B" stroke-width="0.5"/>
<path d="M11.999 168.177H8.18084" stroke="#4B4B4B" stroke-width="0.5"/>
<path d="M11.999 169.258H8.18084" stroke="#4B4B4B" stroke-width="0.5"/>
<path d="M11.999 170.34H8.18084" stroke="#4B4B4B" stroke-width="0.5"/>
<path d="M11.999 171.421H8.18084" stroke="#4B4B4B" stroke-width="0.5"/>
<path d="M11.999 172.502H4.36266" stroke="#4B4B4B" stroke-width="0.5"/>
<path d="M11.999 173.583H8.18084" stroke="#4B4B4B" stroke-width="0.5"/>
<path d="M11.999 174.665H8.18084" stroke="#4B4B4B" stroke-width="0.5"/>
<path d="M11.999 175.746H8.18084" stroke="#4B4B4B" stroke-width="0.5"/>
<path d="M11.999 176.827H8.18084" stroke="#4B4B4B" stroke-width="0.5"/>
<path d="M11.999 177.908H8.18084" stroke="#4B4B4B" stroke-width="0.5"/>
<path d="M11.999 178.989H8.18084" stroke="#4B4B4B" stroke-width="0.5"/>
<path d="M11.999 180.071H8.18084" stroke="#4B4B4B" stroke-width="0.5"/>
<path d="M11.999 181.152H4.36266" stroke="#4B4B4B" stroke-width="0.5"/>
<path d="M11.999 182.233H8.18084" stroke="#4B4B4B" stroke-width="0.5"/>
<path d="M11.999 183.314H8.18084" stroke="#4B4B4B" stroke-width="0.5"/>
<path d="M11.999 184.395H8.18084" stroke="#4B4B4B" stroke-width="0.5"/>
<path d="M11.999 185.477H8.18084" stroke="#4B4B4B" stroke-width="0.5"/>
<path d="M11.999 186.558H8.18084" stroke="#4B4B4B" stroke-width="0.5"/>
<path d="M11.999 187.639H8.18084" stroke="#4B4B4B" stroke-width="0.5"/>
<path d="M11.999 188.72H8.18084" stroke="#4B4B4B" stroke-width="0.5"/>
<path d="M11.999 189.801H8.18084" stroke="#4B4B4B" stroke-width="0.5"/>
<path d="M11.999 190.882H8.18084" stroke="#4B4B4B" stroke-width="0.5"/>
<path d="M11.999 191.964H4.36266" stroke="#4B4B4B" stroke-width="0.5"/>
<path d="M11.999 193.045H8.18084" stroke="#4B4B4B" stroke-width="0.5"/>
<path d="M11.999 194.126H8.18084" stroke="#4B4B4B" stroke-width="0.5"/>
<path d="M11.999 195.207H8.18084" stroke="#4B4B4B" stroke-width="0.5"/>
<path d="M11.999 196.289H8.18084" stroke="#4B4B4B" stroke-width="0.5"/>
<path d="M11.999 197.37H8.18084" stroke="#4B4B4B" stroke-width="0.5"/>
<path d="M11.999 198.451H8.18084" stroke="#4B4B4B" stroke-width="0.5"/>
<path d="M11.999 199.532H8.18084" stroke="#4B4B4B" stroke-width="0.5"/>
<path d="M11.999 200.613H8.18084" stroke="#4B4B4B" stroke-width="0.5"/>
<path d="M11.999 201.695H4.36266" stroke="#4B4B4B" stroke-width="0.5"/>
<path d="M11.999 202.776H8.18084" stroke="#4B4B4B" stroke-width="0.5"/>
<path d="M11.999 203.857H8.18084" stroke="#4B4B4B" stroke-width="0.5"/>
<path d="M11.999 204.938H8.18084" stroke="#4B4B4B" stroke-width="0.5"/>
<path d="M11.999 206.019H8.18084" stroke="#4B4B4B" stroke-width="0.5"/>
<path d="M11.999 207.101H8.18084" stroke="#4B4B4B" stroke-width="0.5"/>
<path d="M11.999 208.182H8.18084" stroke="#4B4B4B" stroke-width="0.5"/>
<path d="M11.999 209.263H8.18084" stroke="#4B4B4B" stroke-width="0.5"/>
<path d="M11.999 210.344H8.18084" stroke="#4B4B4B" stroke-width="0.5"/>
<path d="M11.999 211.425H8.18084" stroke="#4B4B4B" stroke-width="0.5"/>
<path d="M11.999 212.506H8.18084" stroke="#4B4B4B" stroke-width="0.5"/>
<path d="M11.999 213.588H8.18084" stroke="#4B4B4B" stroke-width="0.5"/>
<path d="M11.999 214.669H4.36266" stroke="#4B4B4B" stroke-width="0.5"/>
<path d="M11.999 215.75H8.18084" stroke="#4B4B4B" stroke-width="0.5"/>
<path d="M11.999 216.831H8.18084" stroke="#4B4B4B" stroke-width="0.5"/>
<path d="M11.999 217.912H8.18084" stroke="#4B4B4B" stroke-width="0.5"/>
<path d="M11.999 218.994H8.18084" stroke="#4B4B4B" stroke-width="0.5"/>
<path d="M11.999 220.075H8.18084" stroke="#4B4B4B" stroke-width="0.5"/>
<path d="M11.999 221.156H8.18084" stroke="#4B4B4B" stroke-width="0.5"/>
<path d="M11.999 222.237H8.18084" stroke="#4B4B4B" stroke-width="0.5"/>
<path d="M11.999 223.318H8.18084" stroke="#4B4B4B" stroke-width="0.5"/>
<path d="M11.999 224.4H4.36266" stroke="#4B4B4B" stroke-width="0.5"/>
<path d="M11.999 225.481H8.18084" stroke="#4B4B4B" stroke-width="0.5"/>
<path d="M11.999 226.562H8.18084" stroke="#4B4B4B" stroke-width="0.5"/>
<path d="M11.999 227.643H8.18084" stroke="#4B4B4B" stroke-width="0.5"/>
<path d="M11.999 228.724H8.18084" stroke="#4B4B4B" stroke-width="0.5"/>
<path d="M11.999 229.805H8.18084" stroke="#4B4B4B" stroke-width="0.5"/>
<path d="M11.999 230.887H8.18084" stroke="#4B4B4B" stroke-width="0.5"/>
<path d="M11.999 231.968H8.18084" stroke="#4B4B4B" stroke-width="0.5"/>
<path d="M11.999 233.049H8.18084" stroke="#4B4B4B" stroke-width="0.5"/>
<path d="M11.999 234.13H4.36266" stroke="#4B4B4B" stroke-width="0.5"/>
<path d="M11.999 235.211H8.18084" stroke="#4B4B4B" stroke-width="0.5"/>
<path d="M11.999 236.293H8.18084" stroke="#4B4B4B" stroke-width="0.5"/>
<path d="M11.999 237.374H8.18084" stroke="#4B4B4B" stroke-width="0.5"/>
<path d="M11.999 238.455H8.18084" stroke="#4B4B4B" stroke-width="0.5"/>
<path d="M11.999 239.536H8.18084" stroke="#4B4B4B" stroke-width="0.5"/>
<path d="M11.999 240.618H8.18084" stroke="#4B4B4B" stroke-width="0.5"/>
<path d="M11.999 241.699H8.18084" stroke="#4B4B4B" stroke-width="0.5"/>
<path d="M11.999 242.78H8.18084" stroke="#4B4B4B" stroke-width="0.5"/>
<path d="M11.999 243.861H4.36266" stroke="#4B4B4B" stroke-width="0.5"/>
<path d="M11.999 244.942H8.18084" stroke="#4B4B4B" stroke-width="0.5"/>
<path d="M11.999 246.023H8.18084" stroke="#4B4B4B" stroke-width="0.5"/>
<path d="M11.999 247.105H8.18084" stroke="#4B4B4B" stroke-width="0.5"/>
<path d="M11.999 248.186H8.18084" stroke="#4B4B4B" stroke-width="0.5"/>
<path d="M11.999 249.267H8.18084" stroke="#4B4B4B" stroke-width="0.5"/>
<path d="M11.999 250.348H8.18084" stroke="#4B4B4B" stroke-width="0.5"/>
<path d="M11.999 251.429H8.18084" stroke="#4B4B4B" stroke-width="0.5"/>
<path d="M11.999 252.511H8.18084" stroke="#4B4B4B" stroke-width="0.5"/>
<path d="M11.999 253.592H4.36266" stroke="#4B4B4B" stroke-width="0.5"/>
<path d="M11.999 254.673H8.18084" stroke="#4B4B4B" stroke-width="0.5"/>
<path d="M11.999 255.754H8.18084" stroke="#4B4B4B" stroke-width="0.5"/>
<path d="M11.999 256.835H8.18084" stroke="#4B4B4B" stroke-width="0.5"/>
<path d="M11.999 257.917H8.18084" stroke="#4B4B4B" stroke-width="0.5"/>
<path d="M11.999 258.998H8.18084" stroke="#4B4B4B" stroke-width="0.5"/>
<path d="M11.999 260.079H8.18084" stroke="#4B4B4B" stroke-width="0.5"/>
<path d="M11.999 261.16H8.18084" stroke="#4B4B4B" stroke-width="0.5"/>
<path d="M11.999 262.241H8.18084" stroke="#4B4B4B" stroke-width="0.5"/>
<path d="M11.999 263.323H4.36266" stroke="#4B4B4B" stroke-width="0.5"/>
<path d="M11.999 264.404H8.18084" stroke="#4B4B4B" stroke-width="0.5"/>
<path d="M11.999 265.485H8.18084" stroke="#4B4B4B" stroke-width="0.5"/>
<path d="M11.999 266.566H8.18084" stroke="#4B4B4B" stroke-width="0.5"/>
<path d="M11.999 267.647H8.18084" stroke="#4B4B4B" stroke-width="0.5"/>
<path d="M11.999 268.729H8.18084" stroke="#4B4B4B" stroke-width="0.5"/>
<path d="M11.999 269.81H8.18084" stroke="#4B4B4B" stroke-width="0.5"/>
<path d="M11.999 270.891H4.36266" stroke="#4B4B4B" stroke-width="0.5"/>
<path d="M11.999 271.972H8.18084" stroke="#4B4B4B" stroke-width="0.5"/>
<path d="M11.999 273.053H8.18084" stroke="#4B4B4B" stroke-width="0.5"/>
<path d="M11.999 274.135H8.18084" stroke="#4B4B4B" stroke-width="0.5"/>
<path d="M11.999 275.216H8.18084" stroke="#4B4B4B" stroke-width="0.5"/>
<path d="M371.998 25.0308H22.001V278.502H371.998V25.0308Z" stroke="#4B4B4B" stroke-width="0.5" stroke-linecap="round" stroke-linejoin="round"/>
<path d="M298.901 38.6663H88.7297C59.418 38.6663 35.6562 62.4427 35.6562 91.7725V210.996C35.6562 240.325 59.418 264.102 88.7297 264.102H298.901C328.212 264.102 351.974 240.325 351.974 210.996V91.7725C351.974 62.4427 328.212 38.6663 298.901 38.6663Z" fill="#9F1127" fill-opacity="0.4"/>
<path d="M371.998 278.502H22.001V286.313H371.998V278.502Z" stroke="#4B4B4B" stroke-width="0.5" stroke-linecap="round" stroke-linejoin="round"/>
<path d="M319.728 64.363H207.877V286.313H319.728V64.363Z" fill="white" stroke="#050505" stroke-linecap="round" stroke-linejoin="round"/>
<path d="M199.493 155.92H187.141V174H199.493V155.92Z" fill="white" stroke="#050505" stroke-linecap="round" stroke-linejoin="round"/>
<path d="M195.376 161.262H191.259V168.658H195.376V161.262Z" fill="white" stroke="#050505" stroke-linecap="round" stroke-linejoin="round"/>
<path d="M308.198 75.8684H219.406V286.313H308.198V75.8684Z" fill="#A5A5A5" stroke="#050505" stroke-linecap="round" stroke-linejoin="round"/>
<path d="M319.728 64.363L308.198 75.8685" stroke="#050505" stroke-linecap="round" stroke-linejoin="round"/>
<path d="M219.407 75.8685L207.877 64.363" stroke="#050505" stroke-linecap="round" stroke-linejoin="round"/>
<path d="M291.303 290.09L290.502 297.775L285.34 298.385V289.272L291.303 290.09Z" fill="white"/>
<path d="M285.34 298.729C285.354 298.729 285.367 298.729 285.381 298.726L290.543 298.117C290.703 298.098 290.83 297.971 290.846 297.81L291.648 290.124C291.666 289.939 291.536 289.772 291.352 289.747L285.387 288.929C285.289 288.915 285.188 288.945 285.113 289.01C285.038 289.076 284.996 289.17 284.996 289.27V298.383C284.996 298.482 285.038 298.576 285.112 298.641C285.174 298.698 285.257 298.729 285.34 298.729V298.729ZM290.188 297.465L285.685 297.996V289.667L290.926 290.386L290.188 297.464V297.465Z" fill="black"/>
<path d="M284.527 311.764C286.679 312.069 290.208 312.337 294.351 311.759C295.706 311.57 296.605 310.245 296.277 308.909C295.366 305.178 293.795 298.1 291.098 294.819L290.427 296.598L289.502 294.923C289.375 294.695 289.148 294.54 288.889 294.507L286.862 294.248C286.439 294.195 286.045 294.477 285.957 294.897L285.634 296.44L284.399 294.416L283.85 301.973C283.733 303.593 283.49 305.2 283.124 306.78L282.571 309.164C282.406 310.425 283.276 311.587 284.527 311.766V311.764Z" fill="white"/>
<path d="M289.406 312.445C290.918 312.445 292.602 312.351 294.398 312.101C295.139 311.997 295.806 311.582 296.227 310.96C296.65 310.337 296.791 309.558 296.613 308.825L296.417 308.017C295.487 304.164 293.927 297.716 291.364 294.597C291.286 294.502 291.164 294.453 291.042 294.477C290.919 294.497 290.819 294.58 290.775 294.696L290.368 295.775L289.804 294.754C289.624 294.43 289.298 294.207 288.933 294.16L286.907 293.902C286.31 293.828 285.744 294.231 285.621 294.821L285.477 295.512L284.695 294.232C284.617 294.104 284.465 294.041 284.319 294.077C284.173 294.113 284.067 294.239 284.056 294.388L283.508 301.945C283.392 303.541 283.149 305.14 282.789 306.7L282.236 309.084C282.04 310.561 283.05 311.902 284.479 312.104C285.746 312.284 287.431 312.444 289.408 312.444L289.406 312.445ZM291.2 295.522C293.447 298.674 294.874 304.579 295.745 308.18L295.941 308.99C296.074 309.533 295.969 310.111 295.656 310.573C295.344 311.034 294.851 311.341 294.303 311.418C290.235 311.985 286.767 311.734 284.574 311.422C283.517 311.274 282.772 310.279 282.913 309.208L283.459 306.857C283.829 305.264 284.076 303.629 284.194 301.996L284.665 295.512L285.34 296.618C285.414 296.739 285.555 296.803 285.693 296.778C285.832 296.754 285.943 296.646 285.972 296.508L286.294 294.965C286.346 294.72 286.573 294.555 286.817 294.59L288.844 294.848C288.993 294.867 289.126 294.958 289.2 295.091L290.125 296.765C290.191 296.883 290.316 296.952 290.453 296.942C290.587 296.933 290.703 296.845 290.75 296.72L291.201 295.523L291.2 295.522Z" fill="black"/>
<path d="M289.247 310.162C290.528 310.162 292.052 310.028 293.765 309.635C293.952 309.593 294.068 309.408 294.024 309.222C293.982 309.035 293.797 308.918 293.61 308.963C288.591 310.115 285.187 308.927 285.153 308.915C284.974 308.849 284.777 308.943 284.711 309.122C284.647 309.3 284.739 309.497 284.918 309.563C285.015 309.599 286.615 310.162 289.245 310.162H289.247Z" fill="black"/>
<path d="M291.74 304.257C291.925 304.257 292.079 304.11 292.085 303.923C292.091 303.732 291.942 303.574 291.751 303.568L286.913 303.406C286.72 303.384 286.564 303.549 286.557 303.74C286.551 303.931 286.7 304.089 286.891 304.095L291.729 304.257C291.729 304.257 291.737 304.257 291.742 304.257H291.74Z" fill="black"/>
<path d="M267.125 285.999L266.351 297.213H260.139L259.85 285.999H267.125Z" fill="white"/>
<path d="M260.14 297.557H266.352C266.533 297.557 266.684 297.417 266.696 297.236L267.47 286.022C267.476 285.926 267.443 285.832 267.378 285.763C267.312 285.693 267.221 285.654 267.125 285.654H259.852C259.759 285.654 259.67 285.691 259.604 285.757C259.538 285.825 259.504 285.914 259.505 286.006L259.794 297.221C259.798 297.407 259.952 297.557 260.138 297.557H260.14ZM266.029 296.868H260.475L260.204 286.343H266.754L266.027 296.868H266.029Z" fill="black"/>
<path d="M267.974 303.544C267.99 304.604 267.27 305.536 266.244 305.777C262.673 306.614 254.628 308.476 252.334 308.821C249.356 309.267 245.696 308.349 244.122 306.595C242.547 304.842 247.646 300.654 250.064 299.132C253.657 296.868 257.111 292.397 258.558 292.195C260.005 291.994 262.709 296.222 262.709 296.222L267.125 294.355C267.125 294.355 267.896 298.165 267.974 303.545V303.544Z" fill="white"/>
<path d="M250.777 309.278C251.32 309.278 251.859 309.24 252.384 309.162C254.707 308.814 262.904 306.915 266.322 306.114C267.497 305.838 268.338 304.756 268.319 303.541C268.239 298.19 267.47 294.325 267.462 294.287C267.442 294.185 267.376 294.099 267.285 294.051C267.194 294.002 267.086 293.997 266.989 294.038L262.839 295.794C262.123 294.712 259.96 291.656 258.509 291.856C257.673 291.972 256.495 293.098 254.865 294.655C253.353 296.098 251.641 297.733 249.879 298.843C247.931 300.07 243.808 303.32 243.498 305.533C243.428 306.044 243.55 306.479 243.863 306.828C245.201 308.319 248.031 309.281 250.775 309.281L250.777 309.278ZM267.63 303.55C267.642 304.444 267.027 305.24 266.165 305.442C262.757 306.241 254.581 308.136 252.282 308.481C249.314 308.926 245.841 307.997 244.379 306.366C244.205 306.174 244.142 305.931 244.184 305.627C244.422 303.921 247.86 300.93 250.249 299.426C252.071 298.278 253.809 296.618 255.344 295.153C256.705 293.853 257.991 292.625 258.607 292.539C259.454 292.426 261.346 294.732 262.419 296.409C262.51 296.552 262.69 296.607 262.843 296.541L266.864 294.842C267.06 295.968 267.567 299.277 267.63 303.552V303.55Z" fill="black"/>
<path d="M250.821 306.529C256.234 306.529 263.228 304.054 265.777 303.075C265.956 303.007 266.044 302.808 265.976 302.629C265.907 302.452 265.709 302.363 265.53 302.43C263.118 303.356 250.851 307.82 246.252 304.806C246.093 304.701 245.88 304.747 245.775 304.905C245.67 305.065 245.715 305.278 245.873 305.383C247.131 306.208 248.874 306.528 250.82 306.528L250.821 306.529Z" fill="black"/>
<path d="M257.721 300.427C257.81 300.427 257.899 300.393 257.967 300.324C258.1 300.187 258.098 299.97 257.962 299.836L255.389 297.316C255.252 297.183 255.035 297.186 254.902 297.321C254.768 297.457 254.772 297.675 254.906 297.808L257.48 300.328C257.547 300.394 257.633 300.427 257.721 300.427Z" fill="black"/>
<path d="M293.064 212.886C293.064 212.886 294.989 247.946 295.996 260.048C297.003 272.151 293.641 291.606 293.641 291.606L284.052 291.098C284.052 291.098 283.394 267.444 282.683 260.875C282.683 260.875 278.633 251.971 277.433 244.029C276.233 236.086 272.144 223.542 272.144 223.542C272.144 223.542 268.823 286.154 268.504 291.073C268.504 291.073 260.985 291.41 258.29 289.703C258.29 289.703 253.513 266.873 254.199 254.451C254.885 242.029 254.131 211.168 254.131 211.168L293.066 212.886H293.064Z" fill="white"/>
<path d="M293.641 291.95C293.807 291.95 293.953 291.83 293.981 291.664C294.016 291.469 297.339 272.027 296.34 260.019C295.345 248.059 293.428 213.217 293.408 212.866C293.399 212.689 293.256 212.548 293.079 212.54L254.145 210.822C254.046 210.814 253.957 210.853 253.888 210.921C253.819 210.988 253.781 211.08 253.784 211.176C253.792 211.485 254.53 242.166 253.852 254.432C253.172 266.755 257.901 289.545 257.949 289.773C257.968 289.864 258.023 289.944 258.103 289.994C260.859 291.739 268.205 291.43 268.517 291.418C268.692 291.41 268.835 291.271 268.846 291.095C269.131 286.716 271.826 235.98 272.385 225.459C273.552 229.223 276.177 238.041 277.091 244.08C278.237 251.666 282.013 260.224 282.345 260.966C283.046 267.521 283.7 290.871 283.706 291.108C283.711 291.288 283.854 291.433 284.034 291.443L293.623 291.95C293.623 291.95 293.635 291.95 293.641 291.95V291.95ZM292.738 213.217C292.932 216.732 294.708 248.715 295.654 260.077C296.578 271.178 293.77 288.732 293.353 291.244L284.389 290.769C284.308 287.925 283.688 266.929 283.027 260.838C283.022 260.802 283.013 260.766 282.999 260.731C282.958 260.642 278.954 251.777 277.775 243.975C276.585 236.097 272.514 223.559 272.473 223.434C272.421 223.275 272.262 223.175 272.1 223.199C271.936 223.221 271.811 223.357 271.801 223.523C271.768 224.138 268.594 284.005 268.18 290.738C266.774 290.776 260.955 290.846 258.598 289.485C258.192 287.505 253.897 266.187 254.544 254.469C255.183 242.91 254.568 215.065 254.486 211.528L292.739 213.217H292.738Z" fill="black"/>
<path d="M284.45 261.218H287.38C287.571 261.218 287.725 261.063 287.725 260.874C287.725 260.684 287.57 260.529 287.38 260.529H284.45C284.258 260.529 284.105 260.684 284.105 260.874C284.105 261.063 284.26 261.218 284.45 261.218Z" fill="black"/>
<path d="M263.572 279.428H263.579C263.77 279.425 263.92 279.267 263.917 279.077C263.81 273.277 257.494 262.89 257.224 262.45C257.126 262.288 256.913 262.235 256.75 262.335C256.587 262.434 256.535 262.647 256.635 262.81C256.7 262.916 263.124 273.476 263.226 279.09C263.229 279.278 263.383 279.428 263.571 279.428H263.572Z" fill="black"/>
<path d="M248.22 157.425C247.689 157.382 243.269 164.969 241.193 168.591C240.602 169.621 239.285 169.955 238.278 169.333L222.031 159.303C220.704 158.483 219.565 157.387 218.709 156.081C217.352 154.013 216.544 151.911 214.729 150.442C213.252 149.247 211.756 147.92 211.308 147.573C211.028 147.355 209.725 148.282 210.707 149.93C211.009 150.436 212.135 151.462 212.444 151.927C212.935 152.669 212.935 153.659 212.389 154.361C211.806 155.11 211.319 156.311 211.974 157.981C212.942 160.452 215.136 161.063 216.378 161.207C217.001 161.279 217.576 161.581 217.99 162.056L232.982 179.236C235.308 181.902 239.197 182.504 242.211 180.663C247.085 177.686 253.361 171.685 257.883 164.1L248.222 157.418L248.22 157.425Z" fill="white"/>
<path d="M238.441 182.076C239.794 182.076 241.16 181.711 242.389 180.961C246.833 178.247 253.314 172.439 258.177 164.28C258.27 164.125 258.226 163.923 258.077 163.82L248.416 157.138C248.366 157.104 248.308 157.083 248.247 157.078C247.921 157.057 247.431 157.021 240.892 168.417C240.652 168.833 240.265 169.128 239.803 169.245C239.341 169.363 238.864 169.289 238.458 169.039L222.211 159.008C220.925 158.214 219.813 157.136 218.995 155.891C218.604 155.295 218.253 154.687 217.916 154.099C217.074 152.635 216.278 151.254 214.943 150.174C214.09 149.485 213.247 148.765 212.571 148.185C212.091 147.775 211.712 147.452 211.516 147.3C211.272 147.111 210.895 147.183 210.556 147.482C210.038 147.939 209.689 148.901 210.407 150.107C210.589 150.411 211 150.845 211.397 151.263C211.707 151.589 212.027 151.927 212.154 152.118C212.578 152.759 212.561 153.575 212.115 154.15C211.504 154.936 210.927 156.259 211.651 158.108C212.686 160.751 215.033 161.4 216.337 161.55C216.876 161.613 217.37 161.873 217.73 162.283L232.722 179.464C234.215 181.174 236.314 182.073 238.442 182.073L238.441 182.076ZM257.419 164.205C252.641 172.11 246.353 177.733 242.031 180.374C239.158 182.129 235.462 181.558 233.242 179.014L218.248 161.834C217.775 161.293 217.125 160.95 216.416 160.869C215.265 160.736 213.197 160.167 212.292 157.858C211.806 156.618 211.928 155.512 212.658 154.576C213.288 153.766 213.316 152.627 212.729 151.739C212.569 151.498 212.243 151.153 211.897 150.79C211.543 150.416 211.142 149.993 211 149.755C210.58 149.051 210.66 148.567 210.799 148.285C210.909 148.063 211.075 147.939 211.162 147.9C211.361 148.06 211.703 148.351 212.123 148.71C212.768 149.261 213.65 150.015 214.51 150.71C215.744 151.708 216.508 153.036 217.318 154.442C217.661 155.039 218.015 155.655 218.419 156.269C219.291 157.598 220.477 158.748 221.849 159.594L238.096 169.624C238.663 169.974 239.33 170.077 239.974 169.914C240.621 169.75 241.16 169.341 241.492 168.76C245.613 161.578 247.633 158.454 248.219 157.838L257.419 164.202V164.205Z" fill="#9F1127"/>
<path d="M303.984 171.534C303.984 171.534 305.065 151.56 289.966 145.95C278.274 141.605 263.344 143.48 258.664 145.103C247.142 149.098 241.472 164.321 241.472 164.321L254.974 166.224C254.974 166.224 250.905 209.959 252.67 219.714C252.67 219.714 263.535 220.989 268.145 219.162C272.753 217.336 287.906 214.775 295.15 218.126L293.835 171.346L303.986 171.534H303.984Z" fill="#9F1127"/>
<path d="M285.165 208.828C285.329 208.828 285.475 208.711 285.505 208.543C285.537 208.355 285.412 208.176 285.226 208.144C267.981 205.075 262.945 193.06 262.897 192.94C262.825 192.763 262.624 192.678 262.447 192.749C262.27 192.819 262.186 193.021 262.256 193.197C262.306 193.322 267.466 205.685 285.105 208.822C285.125 208.825 285.146 208.826 285.166 208.826L285.165 208.828Z" fill="white"/>
<path d="M301.363 171.551L291.635 171.109C291.635 171.109 291.562 179.356 290.684 179.503C287.558 180.027 281.01 180.054 276.746 179.536C275.261 179.356 274.087 178.212 273.808 176.734C273.596 175.617 272.996 174.306 271.473 173.361C270 172.45 271.452 175.319 270.075 177.167C269.336 178.16 266.993 177.72 263.799 176.975C260.606 176.231 259.794 179.666 263.373 181.743C267.255 183.993 269.72 183.741 270.957 184.004C273.423 184.529 295.219 187.969 298.583 186.127C301.183 184.704 301.363 171.549 301.363 171.549V171.551Z" fill="white"/>
<path d="M294.356 187.015C296.403 187.015 297.988 186.849 298.749 186.432C301.448 184.956 301.689 172.924 301.708 171.557C301.711 171.371 301.565 171.216 301.379 171.208L291.651 170.766C291.559 170.757 291.466 170.796 291.399 170.86C291.331 170.924 291.292 171.014 291.291 171.107C291.259 174.61 290.976 178.637 290.57 179.172C287.397 179.692 280.983 179.703 276.789 179.194C275.463 179.033 274.402 178.019 274.148 176.671C273.86 175.147 272.998 173.902 271.656 173.07C271.415 172.921 271.059 172.741 270.751 172.915C270.386 173.12 270.39 173.601 270.395 174.265C270.401 175.058 270.411 176.143 269.8 176.962C269.178 177.797 266.75 177.31 263.878 176.641C262.13 176.232 261.156 176.973 260.827 177.802C260.382 178.923 260.936 180.728 263.201 182.043C266.316 183.851 268.509 184.075 269.96 184.222C270.325 184.259 270.641 184.291 270.887 184.344C272.119 184.607 286.575 187.015 294.356 187.015V187.015ZM301.013 171.881C300.934 175.709 300.347 184.772 298.419 185.826C295.195 187.588 273.542 184.203 271.031 183.667C270.749 183.608 270.415 183.573 270.03 183.534C268.638 183.392 266.534 183.177 263.547 181.445C261.635 180.336 261.129 178.911 261.467 178.055C261.751 177.338 262.615 177.055 263.721 177.312C267.053 178.088 269.479 178.547 270.353 177.374C271.101 176.369 271.09 175.098 271.084 174.259C271.083 174.021 271.079 173.712 271.108 173.556C271.148 173.573 271.209 173.603 271.292 173.654C272.483 174.392 273.216 175.449 273.47 176.796C273.78 178.441 275.08 179.68 276.706 179.877C280.977 180.395 287.536 180.38 290.741 179.841C291.024 179.794 291.88 179.65 291.975 171.469L301.011 171.88L301.013 171.881Z" fill="#9F1127"/>
<path d="M267.867 145.458C267.867 145.458 270.385 143.908 270.36 143.002L271.079 138.35C271.087 137.924 270.824 137.542 270.428 137.403L267.449 136.38C267.07 136.245 266.824 135.871 266.85 135.464L267.082 131.767L265.915 130.734C265.824 130.652 265.812 130.513 265.89 130.419L267.734 128.171C268.337 127.322 268.941 125.291 269.436 125.429C269.436 125.429 279.944 124.215 280.457 129.514C280.53 130.281 280.3 131.047 279.855 131.673L278.925 132.986C277.99 134.303 277.498 135.918 277.664 137.533C277.698 137.868 278.135 140.028 278.427 141.456C278.593 142.268 279.042 142.988 279.695 143.491C280.516 144.124 281.515 144.929 281.353 144.98C281.353 144.98 280.189 145.836 278.352 146.592C275.089 147.938 271.378 147.602 268.365 145.762L267.865 145.457L267.867 145.458Z" fill="white"/>
<path d="M274.206 147.753C275.663 147.753 277.116 147.476 278.482 146.912C280.337 146.147 281.507 145.295 281.555 145.259C281.632 145.203 281.693 145.114 281.709 145.023C281.75 144.788 281.773 144.658 279.904 143.218C279.317 142.766 278.911 142.116 278.763 141.387C278.136 138.329 278.019 137.638 278.005 137.498C277.853 136.021 278.279 134.49 279.203 133.186L280.133 131.874C280.641 131.158 280.877 130.309 280.796 129.481C280.691 128.395 280.193 127.487 279.316 126.777C276.39 124.412 270.145 125.006 269.448 125.081C268.908 125.003 268.546 125.772 268.098 126.735C267.883 127.199 267.659 127.676 267.449 127.972L265.62 130.2C265.424 130.439 265.451 130.787 265.683 130.992L266.724 131.915L266.502 135.443C266.467 136.003 266.807 136.521 267.33 136.706L270.311 137.729C270.558 137.816 270.726 138.054 270.729 138.324L270.015 142.949C270.012 142.969 270.01 142.99 270.01 143.012C270.021 143.435 268.815 144.465 267.68 145.164C267.578 145.226 267.515 145.338 267.515 145.458C267.515 145.579 267.578 145.69 267.681 145.753L268.181 146.057C270.021 147.18 272.114 147.751 274.202 147.751L274.206 147.753ZM280.868 144.893C280.424 145.183 279.482 145.754 278.221 146.273C275.098 147.56 271.481 147.259 268.544 145.468L268.514 145.449C269.348 144.888 270.688 143.859 270.704 143.027L271.418 138.402C271.421 138.386 271.421 138.371 271.423 138.355C271.432 137.78 271.078 137.265 270.541 137.076L267.561 136.051C267.33 135.97 267.178 135.736 267.194 135.483L267.426 131.786C267.432 131.68 267.39 131.576 267.31 131.506L266.226 130.547L267.999 128.387C268.261 128.021 268.497 127.513 268.724 127.022C268.919 126.603 269.24 125.914 269.415 125.77C269.434 125.77 269.454 125.77 269.473 125.769C269.539 125.761 276.072 125.039 278.883 127.311C279.621 127.908 280.023 128.638 280.111 129.545C280.175 130.207 279.983 130.892 279.572 131.471L278.642 132.784C277.621 134.223 277.151 135.921 277.32 137.566C277.348 137.835 277.607 139.166 278.089 141.522C278.271 142.412 278.767 143.207 279.485 143.76C280.277 144.371 280.672 144.708 280.868 144.89V144.893Z" fill="black"/>
<path d="M269.086 117.366C271.481 117.242 268.453 119.71 277.323 117.16C280.855 116.145 279.041 120.29 279.957 120.028C283.343 119.065 283.228 119.093 284.874 119.543C285.964 119.84 286.659 121.88 286.442 123.397C286.155 125.402 283.907 128.583 281.893 131.948C280.85 133.689 279.005 133.847 276.771 131.255C276.533 130.98 277.749 129.354 277.114 128.654C275.467 126.832 274.735 129.584 273.404 128.734C272.127 127.918 271.6 127.391 270.249 126.157C268.616 124.664 265.875 126.987 264.929 123.629C264.435 121.878 265.806 117.532 269.084 117.364L269.086 117.366Z" fill="black"/>
</svg>
