<svg width="374" height="289" viewBox="0 0 374 289" fill="none" xmlns="http://www.w3.org/2000/svg">
<path d="M260.766 16.6405H24.835V269.301H372.168V128.309L260.766 16.6405Z" stroke="#4B4B4B" stroke-width="0.5" stroke-linecap="round" stroke-linejoin="round"/>
<path d="M40.2891 208.516V80.912C40.2891 51.9103 63.7439 28.3999 92.6771 28.3999H219.98C233.999 28.3999 247.432 34.0316 257.277 44.0355L337.43 125.487C347.1 135.313 352.522 148.561 352.522 162.363V208.516C352.522 237.518 329.067 261.028 300.134 261.028H92.6771C63.744 261.028 40.2891 237.518 40.2891 208.516Z" fill="#9F1127" fill-opacity="0.4"/>
<path d="M23.251 11.4117H371.751V0.249964H23.251V11.4117Z" stroke="#4B4B4B" stroke-width="0.5"/>
<path d="M26.9854 11.6617V6.17385" stroke="#4B4B4B" stroke-width="0.5"/>
<path d="M28.0498 11.6617V6.17385" stroke="#4B4B4B" stroke-width="0.5"/>
<path d="M28.8447 11.6617V6.17385" stroke="#4B4B4B" stroke-width="0.5"/>
<path d="M29.9072 11.6617V6.17385" stroke="#4B4B4B" stroke-width="0.5"/>
<path d="M30.9697 11.6617V6.17385" stroke="#4B4B4B" stroke-width="0.5"/>
<path d="M32.0322 11.6617V6.17385" stroke="#4B4B4B" stroke-width="0.5"/>
<path d="M33.0947 11.6617V6.17385" stroke="#4B4B4B" stroke-width="0.5"/>
<path d="M34.1572 11.6617V6.17385" stroke="#4B4B4B" stroke-width="0.5"/>
<path d="M35.2197 11.6617V6.17385" stroke="#4B4B4B" stroke-width="0.5"/>
<path d="M36.2822 11.6617V2.74391" stroke="#4B4B4B" stroke-width="0.5"/>
<path d="M37.3428 11.6617V6.17385" stroke="#4B4B4B" stroke-width="0.5"/>
<path d="M38.4072 11.6617V6.17385" stroke="#4B4B4B" stroke-width="0.5"/>
<path d="M39.4678 11.6617V6.17385" stroke="#4B4B4B" stroke-width="0.5"/>
<path d="M40.5322 11.6617V6.17385" stroke="#4B4B4B" stroke-width="0.5"/>
<path d="M41.5928 11.6617V6.17385" stroke="#4B4B4B" stroke-width="0.5"/>
<path d="M42.6572 11.6617V6.17385" stroke="#4B4B4B" stroke-width="0.5"/>
<path d="M43.7178 11.6617V6.17385" stroke="#4B4B4B" stroke-width="0.5"/>
<path d="M44.7822 11.6617V6.17385" stroke="#4B4B4B" stroke-width="0.5"/>
<path d="M45.8428 11.6617V6.17385" stroke="#4B4B4B" stroke-width="0.5"/>
<path d="M46.9072 11.6617V6.17385" stroke="#4B4B4B" stroke-width="0.5"/>
<path d="M47.9678 11.6617V6.17385" stroke="#4B4B4B" stroke-width="0.5"/>
<path d="M49.0303 11.6617V2.74391" stroke="#4B4B4B" stroke-width="0.5"/>
<path d="M50.0928 11.6617V6.17385" stroke="#4B4B4B" stroke-width="0.5"/>
<path d="M51.1553 11.6617V6.17385" stroke="#4B4B4B" stroke-width="0.5"/>
<path d="M52.2178 11.6617V6.17385" stroke="#4B4B4B" stroke-width="0.5"/>
<path d="M53.2803 11.6617V6.17385" stroke="#4B4B4B" stroke-width="0.5"/>
<path d="M54.3428 11.6617V6.17385" stroke="#4B4B4B" stroke-width="0.5"/>
<path d="M55.4053 11.6617V6.17385" stroke="#4B4B4B" stroke-width="0.5"/>
<path d="M56.4678 11.6617V6.17385" stroke="#4B4B4B" stroke-width="0.5"/>
<path d="M57.5303 11.6617V6.17385" stroke="#4B4B4B" stroke-width="0.5"/>
<path d="M58.5928 11.6617V6.17385" stroke="#4B4B4B" stroke-width="0.5"/>
<path d="M59.6553 11.6617V6.17385" stroke="#4B4B4B" stroke-width="0.5"/>
<path d="M60.7158 11.6617V6.17385" stroke="#4B4B4B" stroke-width="0.5"/>
<path d="M61.7803 11.6617V6.17385" stroke="#4B4B4B" stroke-width="0.5"/>
<path d="M62.8408 11.6617V6.17385" stroke="#4B4B4B" stroke-width="0.5"/>
<path d="M63.9053 11.6617V6.17385" stroke="#4B4B4B" stroke-width="0.5"/>
<path d="M64.9658 11.6617V2.74391" stroke="#4B4B4B" stroke-width="0.5"/>
<path d="M66.0303 11.6617V6.17385" stroke="#4B4B4B" stroke-width="0.5"/>
<path d="M67.0908 11.6617V6.17385" stroke="#4B4B4B" stroke-width="0.5"/>
<path d="M68.1553 11.6617V6.17385" stroke="#4B4B4B" stroke-width="0.5"/>
<path d="M69.2158 11.6617V6.17385" stroke="#4B4B4B" stroke-width="0.5"/>
<path d="M70.2803 11.6617V6.17385" stroke="#4B4B4B" stroke-width="0.5"/>
<path d="M71.3408 11.6617V6.17385" stroke="#4B4B4B" stroke-width="0.5"/>
<path d="M72.4033 11.6617V6.17385" stroke="#4B4B4B" stroke-width="0.5"/>
<path d="M73.4658 11.6617V6.17385" stroke="#4B4B4B" stroke-width="0.5"/>
<path d="M74.5283 11.6617V6.17385" stroke="#4B4B4B" stroke-width="0.5"/>
<path d="M75.5908 11.6617V6.17385" stroke="#4B4B4B" stroke-width="0.5"/>
<path d="M76.6533 11.6617V6.17385" stroke="#4B4B4B" stroke-width="0.5"/>
<path d="M77.7158 11.6617V6.17385" stroke="#4B4B4B" stroke-width="0.5"/>
<path d="M78.7783 11.6617V2.74391" stroke="#4B4B4B" stroke-width="0.5"/>
<path d="M79.8408 11.6617V6.17385" stroke="#4B4B4B" stroke-width="0.5"/>
<path d="M80.9033 11.6617V6.17385" stroke="#4B4B4B" stroke-width="0.5"/>
<path d="M81.9658 11.6617V6.17385" stroke="#4B4B4B" stroke-width="0.5"/>
<path d="M83.0283 11.6617V6.17385" stroke="#4B4B4B" stroke-width="0.5"/>
<path d="M84.0889 11.6617V6.17385" stroke="#4B4B4B" stroke-width="0.5"/>
<path d="M85.1533 11.6617V6.17385" stroke="#4B4B4B" stroke-width="0.5"/>
<path d="M86.2139 11.6617V6.17385" stroke="#4B4B4B" stroke-width="0.5"/>
<path d="M87.2783 11.6617V6.17385" stroke="#4B4B4B" stroke-width="0.5"/>
<path d="M88.3389 11.6617V6.17385" stroke="#4B4B4B" stroke-width="0.5"/>
<path d="M89.4033 11.6617V6.17385" stroke="#4B4B4B" stroke-width="0.5"/>
<path d="M90.4639 11.6617V6.17385" stroke="#4B4B4B" stroke-width="0.5"/>
<path d="M91.5283 11.6617V6.17385" stroke="#4B4B4B" stroke-width="0.5"/>
<path d="M92.5889 11.6617V6.17385" stroke="#4B4B4B" stroke-width="0.5"/>
<path d="M93.6533 11.6617V2.74391" stroke="#4B4B4B" stroke-width="0.5"/>
<path d="M94.7139 11.6617V6.17385" stroke="#4B4B4B" stroke-width="0.5"/>
<path d="M95.7764 11.6617V6.17385" stroke="#4B4B4B" stroke-width="0.5"/>
<path d="M96.8389 11.6617V6.17385" stroke="#4B4B4B" stroke-width="0.5"/>
<path d="M97.9014 11.6617V6.17385" stroke="#4B4B4B" stroke-width="0.5"/>
<path d="M98.9639 11.6617V6.17385" stroke="#4B4B4B" stroke-width="0.5"/>
<path d="M100.026 11.6617V6.17385" stroke="#4B4B4B" stroke-width="0.5"/>
<path d="M101.089 11.6617V6.17385" stroke="#4B4B4B" stroke-width="0.5"/>
<path d="M102.151 11.6617V6.17385" stroke="#4B4B4B" stroke-width="0.5"/>
<path d="M103.214 11.6617V6.17385" stroke="#4B4B4B" stroke-width="0.5"/>
<path d="M104.276 11.6617V6.17385" stroke="#4B4B4B" stroke-width="0.5"/>
<path d="M105.339 11.6617V6.17385" stroke="#4B4B4B" stroke-width="0.5"/>
<path d="M106.401 11.6617V6.17385" stroke="#4B4B4B" stroke-width="0.5"/>
<path d="M107.462 11.6617V6.17385" stroke="#4B4B4B" stroke-width="0.5"/>
<path d="M108.526 11.6617V6.17385" stroke="#4B4B4B" stroke-width="0.5"/>
<path d="M109.587 11.6617V6.17385" stroke="#4B4B4B" stroke-width="0.5"/>
<path d="M110.651 11.6617V2.74391" stroke="#4B4B4B" stroke-width="0.5"/>
<path d="M111.712 11.6617V6.17385" stroke="#4B4B4B" stroke-width="0.5"/>
<path d="M112.776 11.6617V6.17385" stroke="#4B4B4B" stroke-width="0.5"/>
<path d="M113.837 11.6617V6.17385" stroke="#4B4B4B" stroke-width="0.5"/>
<path d="M114.901 11.6617V6.17385" stroke="#4B4B4B" stroke-width="0.5"/>
<path d="M115.962 11.6617V6.17385" stroke="#4B4B4B" stroke-width="0.5"/>
<path d="M117.026 11.6617V6.17385" stroke="#4B4B4B" stroke-width="0.5"/>
<path d="M118.087 11.6617V6.17385" stroke="#4B4B4B" stroke-width="0.5"/>
<path d="M119.149 11.6617V6.17385" stroke="#4B4B4B" stroke-width="0.5"/>
<path d="M120.212 11.6617V6.17385" stroke="#4B4B4B" stroke-width="0.5"/>
<path d="M121.274 11.6617V6.17385" stroke="#4B4B4B" stroke-width="0.5"/>
<path d="M122.337 11.6617V2.74391" stroke="#4B4B4B" stroke-width="0.5"/>
<path d="M123.399 11.6617V6.17385" stroke="#4B4B4B" stroke-width="0.5"/>
<path d="M124.462 11.6617V6.17385" stroke="#4B4B4B" stroke-width="0.5"/>
<path d="M125.524 11.6617V6.17385" stroke="#4B4B4B" stroke-width="0.5"/>
<path d="M126.587 11.6617V6.17385" stroke="#4B4B4B" stroke-width="0.5"/>
<path d="M127.649 11.6617V6.17385" stroke="#4B4B4B" stroke-width="0.5"/>
<path d="M128.712 11.6617V6.17385" stroke="#4B4B4B" stroke-width="0.5"/>
<path d="M129.774 11.6617V6.17385" stroke="#4B4B4B" stroke-width="0.5"/>
<path d="M130.835 11.6617V6.17385" stroke="#4B4B4B" stroke-width="0.5"/>
<path d="M131.899 11.6617V6.17385" stroke="#4B4B4B" stroke-width="0.5"/>
<path d="M132.96 11.6617V6.17385" stroke="#4B4B4B" stroke-width="0.5"/>
<path d="M134.024 11.6617V6.17385" stroke="#4B4B4B" stroke-width="0.5"/>
<path d="M135.085 11.6617V6.17385" stroke="#4B4B4B" stroke-width="0.5"/>
<path d="M136.147 11.6617V6.17385" stroke="#4B4B4B" stroke-width="0.5"/>
<path d="M137.21 11.6617V6.17385" stroke="#4B4B4B" stroke-width="0.5"/>
<path d="M138.272 11.6617V6.17385" stroke="#4B4B4B" stroke-width="0.5"/>
<path d="M139.335 11.6617V6.17385" stroke="#4B4B4B" stroke-width="0.5"/>
<path d="M140.397 11.6617V2.74391" stroke="#4B4B4B" stroke-width="0.5"/>
<path d="M141.46 11.6617V6.17385" stroke="#4B4B4B" stroke-width="0.5"/>
<path d="M142.521 11.6617V6.17385" stroke="#4B4B4B" stroke-width="0.5"/>
<path d="M143.585 11.6617V6.17385" stroke="#4B4B4B" stroke-width="0.5"/>
<path d="M144.646 11.6617V6.17385" stroke="#4B4B4B" stroke-width="0.5"/>
<path d="M145.71 11.6617V6.17385" stroke="#4B4B4B" stroke-width="0.5"/>
<path d="M146.771 11.6617V6.17385" stroke="#4B4B4B" stroke-width="0.5"/>
<path d="M147.835 11.6617V6.17385" stroke="#4B4B4B" stroke-width="0.5"/>
<path d="M148.896 11.6617V6.17385" stroke="#4B4B4B" stroke-width="0.5"/>
<path d="M149.96 11.6617V6.17385" stroke="#4B4B4B" stroke-width="0.5"/>
<path d="M151.021 11.6617V6.17385" stroke="#4B4B4B" stroke-width="0.5"/>
<path d="M152.083 11.6617V6.17385" stroke="#4B4B4B" stroke-width="0.5"/>
<path d="M153.146 11.6617V6.17385" stroke="#4B4B4B" stroke-width="0.5"/>
<path d="M154.208 11.6617V2.74391" stroke="#4B4B4B" stroke-width="0.5"/>
<path d="M155.271 11.6617V6.17385" stroke="#4B4B4B" stroke-width="0.5"/>
<path d="M156.333 11.6617V6.17385" stroke="#4B4B4B" stroke-width="0.5"/>
<path d="M157.396 11.6617V6.17385" stroke="#4B4B4B" stroke-width="0.5"/>
<path d="M158.458 11.6617V6.17385" stroke="#4B4B4B" stroke-width="0.5"/>
<path d="M159.521 11.6617V6.17385" stroke="#4B4B4B" stroke-width="0.5"/>
<path d="M160.583 11.6617V6.17385" stroke="#4B4B4B" stroke-width="0.5"/>
<path d="M161.646 11.6617V6.17385" stroke="#4B4B4B" stroke-width="0.5"/>
<path d="M162.708 11.6617V6.17385" stroke="#4B4B4B" stroke-width="0.5"/>
<path d="M163.769 11.6617V6.17385" stroke="#4B4B4B" stroke-width="0.5"/>
<path d="M164.833 11.6617V6.17385" stroke="#4B4B4B" stroke-width="0.5"/>
<path d="M165.894 11.6617V6.17385" stroke="#4B4B4B" stroke-width="0.5"/>
<path d="M166.958 11.6617V6.17385" stroke="#4B4B4B" stroke-width="0.5"/>
<path d="M168.019 11.6617V2.74391" stroke="#4B4B4B" stroke-width="0.5"/>
<path d="M169.083 11.6617V6.17385" stroke="#4B4B4B" stroke-width="0.5"/>
<path d="M170.144 11.6617V6.17385" stroke="#4B4B4B" stroke-width="0.5"/>
<path d="M171.208 11.6617V6.17385" stroke="#4B4B4B" stroke-width="0.5"/>
<path d="M172.269 11.6617V6.17385" stroke="#4B4B4B" stroke-width="0.5"/>
<path d="M173.333 11.6617V6.17385" stroke="#4B4B4B" stroke-width="0.5"/>
<path d="M174.394 11.6617V6.17385" stroke="#4B4B4B" stroke-width="0.5"/>
<path d="M175.456 11.6617V6.17385" stroke="#4B4B4B" stroke-width="0.5"/>
<path d="M176.519 11.6617V6.17385" stroke="#4B4B4B" stroke-width="0.5"/>
<path d="M177.581 11.6617V6.17385" stroke="#4B4B4B" stroke-width="0.5"/>
<path d="M178.644 11.6617V6.17385" stroke="#4B4B4B" stroke-width="0.5"/>
<path d="M179.706 11.6617V2.74391" stroke="#4B4B4B" stroke-width="0.5"/>
<path d="M180.769 11.6617V6.17385" stroke="#4B4B4B" stroke-width="0.5"/>
<path d="M181.831 11.6617V6.17385" stroke="#4B4B4B" stroke-width="0.5"/>
<path d="M182.894 11.6617V6.17385" stroke="#4B4B4B" stroke-width="0.5"/>
<path d="M183.956 11.6617V6.17385" stroke="#4B4B4B" stroke-width="0.5"/>
<path d="M185.019 11.6617V6.17385" stroke="#4B4B4B" stroke-width="0.5"/>
<path d="M186.081 11.6617V6.17385" stroke="#4B4B4B" stroke-width="0.5"/>
<path d="M187.142 11.6617V6.17385" stroke="#4B4B4B" stroke-width="0.5"/>
<path d="M188.206 11.6617V6.17385" stroke="#4B4B4B" stroke-width="0.5"/>
<path d="M189.267 11.6617V6.17385" stroke="#4B4B4B" stroke-width="0.5"/>
<path d="M190.331 11.6617V6.17385" stroke="#4B4B4B" stroke-width="0.5"/>
<path d="M191.392 11.6617V6.17385" stroke="#4B4B4B" stroke-width="0.5"/>
<path d="M192.456 11.6617V6.17385" stroke="#4B4B4B" stroke-width="0.5"/>
<path d="M193.517 11.6617V2.74391" stroke="#4B4B4B" stroke-width="0.5"/>
<path d="M194.581 11.6617V6.17385" stroke="#4B4B4B" stroke-width="0.5"/>
<path d="M195.642 11.6617V6.17385" stroke="#4B4B4B" stroke-width="0.5"/>
<path d="M196.706 11.6617V6.17385" stroke="#4B4B4B" stroke-width="0.5"/>
<path d="M197.767 11.6617V6.17385" stroke="#4B4B4B" stroke-width="0.5"/>
<path d="M198.829 11.6617V6.17385" stroke="#4B4B4B" stroke-width="0.5"/>
<path d="M199.892 11.6617V6.17385" stroke="#4B4B4B" stroke-width="0.5"/>
<path d="M200.954 11.6617V6.17385" stroke="#4B4B4B" stroke-width="0.5"/>
<path d="M202.017 11.6617V6.17385" stroke="#4B4B4B" stroke-width="0.5"/>
<path d="M203.079 11.6617V6.17385" stroke="#4B4B4B" stroke-width="0.5"/>
<path d="M204.142 11.6617V6.17385" stroke="#4B4B4B" stroke-width="0.5"/>
<path d="M205.204 11.6617V6.17385" stroke="#4B4B4B" stroke-width="0.5"/>
<path d="M206.267 11.6617V6.17385" stroke="#4B4B4B" stroke-width="0.5"/>
<path d="M207.329 11.6617V6.17385" stroke="#4B4B4B" stroke-width="0.5"/>
<path d="M208.392 11.6617V2.74391" stroke="#4B4B4B" stroke-width="0.5"/>
<path d="M209.454 11.6617V6.17385" stroke="#4B4B4B" stroke-width="0.5"/>
<path d="M210.515 11.6617V6.17385" stroke="#4B4B4B" stroke-width="0.5"/>
<path d="M211.579 11.6617V6.17385" stroke="#4B4B4B" stroke-width="0.5"/>
<path d="M212.64 11.6617V6.17385" stroke="#4B4B4B" stroke-width="0.5"/>
<path d="M213.704 11.6617V6.17385" stroke="#4B4B4B" stroke-width="0.5"/>
<path d="M214.765 11.6617V6.17385" stroke="#4B4B4B" stroke-width="0.5"/>
<path d="M215.829 11.6617V6.17385" stroke="#4B4B4B" stroke-width="0.5"/>
<path d="M216.89 11.6617V6.17385" stroke="#4B4B4B" stroke-width="0.5"/>
<path d="M217.954 11.6617V6.17385" stroke="#4B4B4B" stroke-width="0.5"/>
<path d="M219.015 11.6617V6.17385" stroke="#4B4B4B" stroke-width="0.5"/>
<path d="M220.079 11.6617V6.17385" stroke="#4B4B4B" stroke-width="0.5"/>
<path d="M221.14 11.6617V6.17385" stroke="#4B4B4B" stroke-width="0.5"/>
<path d="M222.202 11.6617V2.74391" stroke="#4B4B4B" stroke-width="0.5"/>
<path d="M223.265 11.6617V6.17385" stroke="#4B4B4B" stroke-width="0.5"/>
<path d="M224.327 11.6617V6.17385" stroke="#4B4B4B" stroke-width="0.5"/>
<path d="M225.39 11.6617V6.17385" stroke="#4B4B4B" stroke-width="0.5"/>
<path d="M226.452 11.6617V6.17385" stroke="#4B4B4B" stroke-width="0.5"/>
<path d="M227.515 11.6617V6.17385" stroke="#4B4B4B" stroke-width="0.5"/>
<path d="M228.577 11.6617V6.17385" stroke="#4B4B4B" stroke-width="0.5"/>
<path d="M229.64 11.6617V6.17385" stroke="#4B4B4B" stroke-width="0.5"/>
<path d="M230.702 11.6617V6.17385" stroke="#4B4B4B" stroke-width="0.5"/>
<path d="M231.765 11.6617V6.17385" stroke="#4B4B4B" stroke-width="0.5"/>
<path d="M232.827 11.6617V6.17385" stroke="#4B4B4B" stroke-width="0.5"/>
<path d="M233.888 11.6617V6.17385" stroke="#4B4B4B" stroke-width="0.5"/>
<path d="M234.952 11.6617V6.17385" stroke="#4B4B4B" stroke-width="0.5"/>
<path d="M236.013 11.6617V2.74391" stroke="#4B4B4B" stroke-width="0.5"/>
<path d="M237.077 11.6617V6.17385" stroke="#4B4B4B" stroke-width="0.5"/>
<path d="M238.138 11.6617V6.17385" stroke="#4B4B4B" stroke-width="0.5"/>
<path d="M239.202 11.6617V6.17385" stroke="#4B4B4B" stroke-width="0.5"/>
<path d="M240.263 11.6617V6.17385" stroke="#4B4B4B" stroke-width="0.5"/>
<path d="M241.327 11.6617V6.17385" stroke="#4B4B4B" stroke-width="0.5"/>
<path d="M242.388 11.6617V6.17385" stroke="#4B4B4B" stroke-width="0.5"/>
<path d="M243.452 11.6617V6.17385" stroke="#4B4B4B" stroke-width="0.5"/>
<path d="M244.513 11.6617V6.17385" stroke="#4B4B4B" stroke-width="0.5"/>
<path d="M245.575 11.6617V6.17385" stroke="#4B4B4B" stroke-width="0.5"/>
<path d="M246.638 11.6617V6.17385" stroke="#4B4B4B" stroke-width="0.5"/>
<path d="M247.7 11.6617V6.17385" stroke="#4B4B4B" stroke-width="0.5"/>
<path d="M248.763 11.6617V2.74391" stroke="#4B4B4B" stroke-width="0.5"/>
<path d="M249.825 11.6617V6.17385" stroke="#4B4B4B" stroke-width="0.5"/>
<path d="M250.888 11.6617V6.17385" stroke="#4B4B4B" stroke-width="0.5"/>
<path d="M251.95 11.6617V6.17385" stroke="#4B4B4B" stroke-width="0.5"/>
<path d="M253.013 11.6617V6.17385" stroke="#4B4B4B" stroke-width="0.5"/>
<path d="M254.075 11.6617V6.17385" stroke="#4B4B4B" stroke-width="0.5"/>
<path d="M255.136 11.6617V6.17385" stroke="#4B4B4B" stroke-width="0.5"/>
<path d="M256.2 11.6617V6.17385" stroke="#4B4B4B" stroke-width="0.5"/>
<path d="M257.261 11.6617V6.17385" stroke="#4B4B4B" stroke-width="0.5"/>
<path d="M258.325 11.6617V6.17385" stroke="#4B4B4B" stroke-width="0.5"/>
<path d="M259.386 11.6617V6.17385" stroke="#4B4B4B" stroke-width="0.5"/>
<path d="M260.45 11.6617V6.17385" stroke="#4B4B4B" stroke-width="0.5"/>
<path d="M261.511 11.6617V6.17385" stroke="#4B4B4B" stroke-width="0.5"/>
<path d="M262.575 11.6617V2.74391" stroke="#4B4B4B" stroke-width="0.5"/>
<path d="M263.636 11.6617V6.17385" stroke="#4B4B4B" stroke-width="0.5"/>
<path d="M264.7 11.6617V6.17385" stroke="#4B4B4B" stroke-width="0.5"/>
<path d="M265.761 11.6617V6.17385" stroke="#4B4B4B" stroke-width="0.5"/>
<path d="M266.823 11.6617V6.17385" stroke="#4B4B4B" stroke-width="0.5"/>
<path d="M267.886 11.6617V6.17385" stroke="#4B4B4B" stroke-width="0.5"/>
<path d="M268.948 11.6617V6.17385" stroke="#4B4B4B" stroke-width="0.5"/>
<path d="M270.011 11.6617V6.17385" stroke="#4B4B4B" stroke-width="0.5"/>
<path d="M271.073 11.6617V6.17385" stroke="#4B4B4B" stroke-width="0.5"/>
<path d="M272.136 11.6617V6.17385" stroke="#4B4B4B" stroke-width="0.5"/>
<path d="M273.198 11.6617V6.17385" stroke="#4B4B4B" stroke-width="0.5"/>
<path d="M274.261 11.6617V6.17385" stroke="#4B4B4B" stroke-width="0.5"/>
<path d="M275.323 11.6617V6.17385" stroke="#4B4B4B" stroke-width="0.5"/>
<path d="M276.386 11.6617V6.17385" stroke="#4B4B4B" stroke-width="0.5"/>
<path d="M277.448 11.6617V6.17385" stroke="#4B4B4B" stroke-width="0.5"/>
<path d="M278.509 11.6617V6.17385" stroke="#4B4B4B" stroke-width="0.5"/>
<path d="M279.573 11.6617V6.17385" stroke="#4B4B4B" stroke-width="0.5"/>
<path d="M280.634 11.6617V6.17385" stroke="#4B4B4B" stroke-width="0.5"/>
<path d="M281.698 11.6617V6.17385" stroke="#4B4B4B" stroke-width="0.5"/>
<path d="M282.759 11.6617V6.17385" stroke="#4B4B4B" stroke-width="0.5"/>
<path d="M283.823 11.6617V2.74391" stroke="#4B4B4B" stroke-width="0.5"/>
<path d="M284.884 11.6617V6.17385" stroke="#4B4B4B" stroke-width="0.5"/>
<path d="M285.948 11.6617V6.17385" stroke="#4B4B4B" stroke-width="0.5"/>
<path d="M287.009 11.6617V6.17385" stroke="#4B4B4B" stroke-width="0.5"/>
<path d="M288.073 11.6617V6.17385" stroke="#4B4B4B" stroke-width="0.5"/>
<path d="M289.134 11.6617V6.17385" stroke="#4B4B4B" stroke-width="0.5"/>
<path d="M290.196 11.6617V6.17385" stroke="#4B4B4B" stroke-width="0.5"/>
<path d="M291.259 11.6617V6.17385" stroke="#4B4B4B" stroke-width="0.5"/>
<path d="M292.321 11.6617V6.17385" stroke="#4B4B4B" stroke-width="0.5"/>
<path d="M293.384 11.6617V6.17385" stroke="#4B4B4B" stroke-width="0.5"/>
<path d="M294.446 11.6617V6.17385" stroke="#4B4B4B" stroke-width="0.5"/>
<path d="M295.509 11.6617V6.17385" stroke="#4B4B4B" stroke-width="0.5"/>
<path d="M296.571 11.6617V6.17385" stroke="#4B4B4B" stroke-width="0.5"/>
<path d="M297.634 11.6617V6.17385" stroke="#4B4B4B" stroke-width="0.5"/>
<path d="M298.696 11.6617V6.17385" stroke="#4B4B4B" stroke-width="0.5"/>
<path d="M299.759 11.6617V2.74391" stroke="#4B4B4B" stroke-width="0.5"/>
<path d="M300.821 11.6617V6.17385" stroke="#4B4B4B" stroke-width="0.5"/>
<path d="M301.882 11.6617V6.17385" stroke="#4B4B4B" stroke-width="0.5"/>
<path d="M302.946 11.6617V6.17385" stroke="#4B4B4B" stroke-width="0.5"/>
<path d="M304.007 11.6617V6.17385" stroke="#4B4B4B" stroke-width="0.5"/>
<path d="M305.071 11.6617V6.17385" stroke="#4B4B4B" stroke-width="0.5"/>
<path d="M306.132 11.6617V6.17385" stroke="#4B4B4B" stroke-width="0.5"/>
<path d="M307.196 11.6617V6.17385" stroke="#4B4B4B" stroke-width="0.5"/>
<path d="M308.257 11.6617V6.17385" stroke="#4B4B4B" stroke-width="0.5"/>
<path d="M309.321 11.6617V6.17385" stroke="#4B4B4B" stroke-width="0.5"/>
<path d="M310.382 11.6617V6.17385" stroke="#4B4B4B" stroke-width="0.5"/>
<path d="M311.446 11.6617V6.17385" stroke="#4B4B4B" stroke-width="0.5"/>
<path d="M312.507 11.6617V6.17385" stroke="#4B4B4B" stroke-width="0.5"/>
<path d="M313.569 11.6617V6.17385" stroke="#4B4B4B" stroke-width="0.5"/>
<path d="M314.632 11.6617V6.17385" stroke="#4B4B4B" stroke-width="0.5"/>
<path d="M315.694 11.6617V6.17385" stroke="#4B4B4B" stroke-width="0.5"/>
<path d="M316.757 11.6617V2.74391" stroke="#4B4B4B" stroke-width="0.5"/>
<path d="M317.819 11.6617V6.17385" stroke="#4B4B4B" stroke-width="0.5"/>
<path d="M318.882 11.6617V6.17385" stroke="#4B4B4B" stroke-width="0.5"/>
<path d="M319.944 11.6617V6.17385" stroke="#4B4B4B" stroke-width="0.5"/>
<path d="M321.007 11.6617V6.17385" stroke="#4B4B4B" stroke-width="0.5"/>
<path d="M322.069 11.6617V6.17385" stroke="#4B4B4B" stroke-width="0.5"/>
<path d="M323.132 11.6617V6.17385" stroke="#4B4B4B" stroke-width="0.5"/>
<path d="M324.194 11.6617V6.17385" stroke="#4B4B4B" stroke-width="0.5"/>
<path d="M325.255 11.6617V6.17385" stroke="#4B4B4B" stroke-width="0.5"/>
<path d="M326.319 11.6617V6.17385" stroke="#4B4B4B" stroke-width="0.5"/>
<path d="M327.38 11.6617V6.17385" stroke="#4B4B4B" stroke-width="0.5"/>
<path d="M328.444 11.6617V6.17385" stroke="#4B4B4B" stroke-width="0.5"/>
<path d="M329.505 11.6617V6.17385" stroke="#4B4B4B" stroke-width="0.5"/>
<path d="M330.569 11.6617V6.17385" stroke="#4B4B4B" stroke-width="0.5"/>
<path d="M331.63 11.6617V6.17385" stroke="#4B4B4B" stroke-width="0.5"/>
<path d="M332.694 11.6617V2.74391" stroke="#4B4B4B" stroke-width="0.5"/>
<path d="M333.755 11.6617V6.17385" stroke="#4B4B4B" stroke-width="0.5"/>
<path d="M334.819 11.6617V6.17385" stroke="#4B4B4B" stroke-width="0.5"/>
<path d="M335.88 11.6617V6.17385" stroke="#4B4B4B" stroke-width="0.5"/>
<path d="M336.942 11.6617V6.17385" stroke="#4B4B4B" stroke-width="0.5"/>
<path d="M338.005 11.6617V6.17385" stroke="#4B4B4B" stroke-width="0.5"/>
<path d="M339.067 11.6617V6.17385" stroke="#4B4B4B" stroke-width="0.5"/>
<path d="M340.13 11.6617V6.17385" stroke="#4B4B4B" stroke-width="0.5"/>
<path d="M341.192 11.6617V6.17385" stroke="#4B4B4B" stroke-width="0.5"/>
<path d="M342.255 11.6617V6.17385" stroke="#4B4B4B" stroke-width="0.5"/>
<path d="M343.317 11.6617V6.17385" stroke="#4B4B4B" stroke-width="0.5"/>
<path d="M344.38 11.6617V6.17385" stroke="#4B4B4B" stroke-width="0.5"/>
<path d="M345.442 11.6617V6.17385" stroke="#4B4B4B" stroke-width="0.5"/>
<path d="M346.505 11.6617V6.17385" stroke="#4B4B4B" stroke-width="0.5"/>
<path d="M347.567 11.6617V6.17385" stroke="#4B4B4B" stroke-width="0.5"/>
<path d="M348.628 11.6617V6.17385" stroke="#4B4B4B" stroke-width="0.5"/>
<path d="M349.692 11.6617V6.17385" stroke="#4B4B4B" stroke-width="0.5"/>
<path d="M350.753 11.6617V6.17385" stroke="#4B4B4B" stroke-width="0.5"/>
<path d="M351.817 11.6617V6.17385" stroke="#4B4B4B" stroke-width="0.5"/>
<path d="M352.878 11.6617V6.17385" stroke="#4B4B4B" stroke-width="0.5"/>
<path d="M353.94 11.6617V2.74391" stroke="#4B4B4B" stroke-width="0.5"/>
<path d="M355.003 11.6617V6.17385" stroke="#4B4B4B" stroke-width="0.5"/>
<path d="M356.065 11.6617V6.17385" stroke="#4B4B4B" stroke-width="0.5"/>
<path d="M357.128 11.6617V6.17385" stroke="#4B4B4B" stroke-width="0.5"/>
<path d="M358.19 11.6617V6.17385" stroke="#4B4B4B" stroke-width="0.5"/>
<path d="M359.253 11.6617V6.17385" stroke="#4B4B4B" stroke-width="0.5"/>
<path d="M360.313 11.6617V6.17385" stroke="#4B4B4B" stroke-width="0.5"/>
<path d="M361.378 11.6617V6.17385" stroke="#4B4B4B" stroke-width="0.5"/>
<path d="M362.438 11.6617V6.17385" stroke="#4B4B4B" stroke-width="0.5"/>
<path d="M363.503 11.6617V6.17385" stroke="#4B4B4B" stroke-width="0.5"/>
<path d="M364.563 11.6617V2.74391" stroke="#4B4B4B" stroke-width="0.5"/>
<path d="M365.628 11.6617V6.17385" stroke="#4B4B4B" stroke-width="0.5"/>
<path d="M366.688 11.6617V6.17385" stroke="#4B4B4B" stroke-width="0.5"/>
<path d="M367.753 11.6617V6.17385" stroke="#4B4B4B" stroke-width="0.5"/>
<path d="M11.3994 270.756V16.9989H0.250397V270.756H11.3994Z" stroke="#4B4B4B" stroke-width="0.5"/>
<path d="M11.6494 22.7251H7.94291" stroke="#4B4B4B" stroke-width="0.5"/>
<path d="M11.6494 23.8116H7.94291" stroke="#4B4B4B" stroke-width="0.5"/>
<path d="M11.6494 24.8982H7.94291" stroke="#4B4B4B" stroke-width="0.5"/>
<path d="M11.6494 25.9847H7.94291" stroke="#4B4B4B" stroke-width="0.5"/>
<path d="M11.6494 27.0713H7.94291" stroke="#4B4B4B" stroke-width="0.5"/>
<path d="M11.6494 28.1578H4.2364" stroke="#4B4B4B" stroke-width="0.5"/>
<path d="M11.6494 29.2444H7.94291" stroke="#4B4B4B" stroke-width="0.5"/>
<path d="M11.6494 30.3309H7.94291" stroke="#4B4B4B" stroke-width="0.5"/>
<path d="M11.6494 31.4176H7.94291" stroke="#4B4B4B" stroke-width="0.5"/>
<path d="M11.6494 32.5042H7.94291" stroke="#4B4B4B" stroke-width="0.5"/>
<path d="M11.6494 33.5907H7.94291" stroke="#4B4B4B" stroke-width="0.5"/>
<path d="M11.6494 34.6772H7.94291" stroke="#4B4B4B" stroke-width="0.5"/>
<path d="M11.6494 35.7638H7.94291" stroke="#4B4B4B" stroke-width="0.5"/>
<path d="M11.6494 36.8505H7.94291" stroke="#4B4B4B" stroke-width="0.5"/>
<path d="M11.6494 37.937H4.2364" stroke="#4B4B4B" stroke-width="0.5"/>
<path d="M11.6494 39.0236H7.94291" stroke="#4B4B4B" stroke-width="0.5"/>
<path d="M11.6494 40.1101H7.94291" stroke="#4B4B4B" stroke-width="0.5"/>
<path d="M11.6494 41.1967H7.94291" stroke="#4B4B4B" stroke-width="0.5"/>
<path d="M11.6494 42.2833H7.94291" stroke="#4B4B4B" stroke-width="0.5"/>
<path d="M11.6494 43.3698H7.94291" stroke="#4B4B4B" stroke-width="0.5"/>
<path d="M11.6494 44.4564H7.94291" stroke="#4B4B4B" stroke-width="0.5"/>
<path d="M11.6494 45.543H7.94291" stroke="#4B4B4B" stroke-width="0.5"/>
<path d="M11.6494 46.6295H7.94291" stroke="#4B4B4B" stroke-width="0.5"/>
<path d="M11.6494 47.7161H7.94291" stroke="#4B4B4B" stroke-width="0.5"/>
<path d="M11.6494 48.8026H7.94291" stroke="#4B4B4B" stroke-width="0.5"/>
<path d="M11.6494 49.8893H7.94291" stroke="#4B4B4B" stroke-width="0.5"/>
<path d="M11.6494 50.9758H4.2364" stroke="#4B4B4B" stroke-width="0.5"/>
<path d="M11.6494 52.0624H7.94291" stroke="#4B4B4B" stroke-width="0.5"/>
<path d="M11.6494 53.1489H7.94291" stroke="#4B4B4B" stroke-width="0.5"/>
<path d="M11.6494 54.2355H7.94291" stroke="#4B4B4B" stroke-width="0.5"/>
<path d="M11.6494 55.322H7.94291" stroke="#4B4B4B" stroke-width="0.5"/>
<path d="M11.6494 56.4086H7.94291" stroke="#4B4B4B" stroke-width="0.5"/>
<path d="M11.6494 57.4951H7.94291" stroke="#4B4B4B" stroke-width="0.5"/>
<path d="M11.6494 58.5818H7.94291" stroke="#4B4B4B" stroke-width="0.5"/>
<path d="M11.6494 59.6683H7.94291" stroke="#4B4B4B" stroke-width="0.5"/>
<path d="M11.6494 60.7549H7.94291" stroke="#4B4B4B" stroke-width="0.5"/>
<path d="M11.6494 61.8414H7.94291" stroke="#4B4B4B" stroke-width="0.5"/>
<path d="M11.6494 62.928H7.94291" stroke="#4B4B4B" stroke-width="0.5"/>
<path d="M11.6494 64.0145H7.94291" stroke="#4B4B4B" stroke-width="0.5"/>
<path d="M11.6494 65.1012H4.2364" stroke="#4B4B4B" stroke-width="0.5"/>
<path d="M11.6494 66.1877H7.94291" stroke="#4B4B4B" stroke-width="0.5"/>
<path d="M11.6494 67.2743H7.94291" stroke="#4B4B4B" stroke-width="0.5"/>
<path d="M11.6494 68.3608H7.94291" stroke="#4B4B4B" stroke-width="0.5"/>
<path d="M11.6494 69.4474H7.94291" stroke="#4B4B4B" stroke-width="0.5"/>
<path d="M11.6494 70.5341H7.94291" stroke="#4B4B4B" stroke-width="0.5"/>
<path d="M11.6494 71.6206H7.94291" stroke="#4B4B4B" stroke-width="0.5"/>
<path d="M11.6494 72.7072H7.94291" stroke="#4B4B4B" stroke-width="0.5"/>
<path d="M11.6494 73.7937H7.94291" stroke="#4B4B4B" stroke-width="0.5"/>
<path d="M11.6494 74.8802H7.94291" stroke="#4B4B4B" stroke-width="0.5"/>
<path d="M11.6494 75.9669H7.94291" stroke="#4B4B4B" stroke-width="0.5"/>
<path d="M11.6494 77.0535H7.94291" stroke="#4B4B4B" stroke-width="0.5"/>
<path d="M11.6494 78.14H7.94291" stroke="#4B4B4B" stroke-width="0.5"/>
<path d="M11.6494 79.2266H7.94291" stroke="#4B4B4B" stroke-width="0.5"/>
<path d="M11.6494 80.3131H7.94291" stroke="#4B4B4B" stroke-width="0.5"/>
<path d="M11.6494 81.3997H7.94291" stroke="#4B4B4B" stroke-width="0.5"/>
<path d="M11.6494 82.4862H7.94291" stroke="#4B4B4B" stroke-width="0.5"/>
<path d="M11.6494 83.5728H4.2364" stroke="#4B4B4B" stroke-width="0.5"/>
<path d="M11.6494 84.6594H7.94291" stroke="#4B4B4B" stroke-width="0.5"/>
<path d="M11.6494 85.746H7.94291" stroke="#4B4B4B" stroke-width="0.5"/>
<path d="M11.6494 86.8325H7.94291" stroke="#4B4B4B" stroke-width="0.5"/>
<path d="M11.6494 87.9191H7.94291" stroke="#4B4B4B" stroke-width="0.5"/>
<path d="M11.6494 89.0056H7.94291" stroke="#4B4B4B" stroke-width="0.5"/>
<path d="M11.6494 90.0922H7.94291" stroke="#4B4B4B" stroke-width="0.5"/>
<path d="M11.6494 91.1788H7.94291" stroke="#4B4B4B" stroke-width="0.5"/>
<path d="M11.6494 92.2654H7.94291" stroke="#4B4B4B" stroke-width="0.5"/>
<path d="M11.6494 93.3519H7.94291" stroke="#4B4B4B" stroke-width="0.5"/>
<path d="M11.6494 94.4385H7.94291" stroke="#4B4B4B" stroke-width="0.5"/>
<path d="M11.6494 95.525H7.94291" stroke="#4B4B4B" stroke-width="0.5"/>
<path d="M11.6494 96.6117H7.94291" stroke="#4B4B4B" stroke-width="0.5"/>
<path d="M11.6494 97.6982H7.94291" stroke="#4B4B4B" stroke-width="0.5"/>
<path d="M11.6494 98.7848H4.2364" stroke="#4B4B4B" stroke-width="0.5"/>
<path d="M11.6494 99.8713H7.94291" stroke="#4B4B4B" stroke-width="0.5"/>
<path d="M11.6494 100.958H7.94291" stroke="#4B4B4B" stroke-width="0.5"/>
<path d="M11.6494 102.044H7.94291" stroke="#4B4B4B" stroke-width="0.5"/>
<path d="M11.6494 103.131H7.94291" stroke="#4B4B4B" stroke-width="0.5"/>
<path d="M11.6494 104.218H7.94291" stroke="#4B4B4B" stroke-width="0.5"/>
<path d="M11.6494 105.304H7.94291" stroke="#4B4B4B" stroke-width="0.5"/>
<path d="M11.6494 106.391H7.94291" stroke="#4B4B4B" stroke-width="0.5"/>
<path d="M11.6494 107.477H7.94291" stroke="#4B4B4B" stroke-width="0.5"/>
<path d="M11.6494 108.564H4.2364" stroke="#4B4B4B" stroke-width="0.5"/>
<path d="M11.6494 109.651H7.94291" stroke="#4B4B4B" stroke-width="0.5"/>
<path d="M11.6494 110.737H7.94291" stroke="#4B4B4B" stroke-width="0.5"/>
<path d="M11.6494 111.824H7.94291" stroke="#4B4B4B" stroke-width="0.5"/>
<path d="M11.6494 112.91H7.94291" stroke="#4B4B4B" stroke-width="0.5"/>
<path d="M11.6494 113.997H7.94291" stroke="#4B4B4B" stroke-width="0.5"/>
<path d="M11.6494 115.083H7.94291" stroke="#4B4B4B" stroke-width="0.5"/>
<path d="M11.6494 116.17H7.94291" stroke="#4B4B4B" stroke-width="0.5"/>
<path d="M11.6494 117.256H7.94291" stroke="#4B4B4B" stroke-width="0.5"/>
<path d="M11.6494 118.343H4.2364" stroke="#4B4B4B" stroke-width="0.5"/>
<path d="M11.6494 119.429H7.94291" stroke="#4B4B4B" stroke-width="0.5"/>
<path d="M11.6494 120.516H7.94291" stroke="#4B4B4B" stroke-width="0.5"/>
<path d="M11.6494 121.603H7.94291" stroke="#4B4B4B" stroke-width="0.5"/>
<path d="M11.6494 122.689H7.94291" stroke="#4B4B4B" stroke-width="0.5"/>
<path d="M11.6494 123.776H7.94291" stroke="#4B4B4B" stroke-width="0.5"/>
<path d="M11.6494 124.862H7.94291" stroke="#4B4B4B" stroke-width="0.5"/>
<path d="M11.6494 125.949H7.94291" stroke="#4B4B4B" stroke-width="0.5"/>
<path d="M11.6494 127.036H7.94291" stroke="#4B4B4B" stroke-width="0.5"/>
<path d="M11.6494 128.122H7.94291" stroke="#4B4B4B" stroke-width="0.5"/>
<path d="M11.6494 129.209H7.94291" stroke="#4B4B4B" stroke-width="0.5"/>
<path d="M11.6494 130.295H7.94291" stroke="#4B4B4B" stroke-width="0.5"/>
<path d="M11.6494 131.382H4.2364" stroke="#4B4B4B" stroke-width="0.5"/>
<path d="M11.6494 132.468H7.94291" stroke="#4B4B4B" stroke-width="0.5"/>
<path d="M11.6494 133.555H7.94291" stroke="#4B4B4B" stroke-width="0.5"/>
<path d="M11.6494 134.641H7.94291" stroke="#4B4B4B" stroke-width="0.5"/>
<path d="M11.6494 135.728H7.94291" stroke="#4B4B4B" stroke-width="0.5"/>
<path d="M11.6494 136.815H7.94291" stroke="#4B4B4B" stroke-width="0.5"/>
<path d="M11.6494 137.901H7.94291" stroke="#4B4B4B" stroke-width="0.5"/>
<path d="M11.6494 138.988H7.94291" stroke="#4B4B4B" stroke-width="0.5"/>
<path d="M11.6494 140.074H7.94291" stroke="#4B4B4B" stroke-width="0.5"/>
<path d="M11.6494 141.161H7.94291" stroke="#4B4B4B" stroke-width="0.5"/>
<path d="M11.6494 142.247H7.94291" stroke="#4B4B4B" stroke-width="0.5"/>
<path d="M11.6494 143.334H4.2364" stroke="#4B4B4B" stroke-width="0.5"/>
<path d="M11.6494 144.421H7.94291" stroke="#4B4B4B" stroke-width="0.5"/>
<path d="M11.6494 145.507H7.94291" stroke="#4B4B4B" stroke-width="0.5"/>
<path d="M11.6494 146.594H7.94291" stroke="#4B4B4B" stroke-width="0.5"/>
<path d="M11.6494 147.68H7.94291" stroke="#4B4B4B" stroke-width="0.5"/>
<path d="M11.6494 148.767H7.94291" stroke="#4B4B4B" stroke-width="0.5"/>
<path d="M11.6494 149.854H7.94291" stroke="#4B4B4B" stroke-width="0.5"/>
<path d="M11.6494 150.94H7.94291" stroke="#4B4B4B" stroke-width="0.5"/>
<path d="M11.6494 152.026H7.94291" stroke="#4B4B4B" stroke-width="0.5"/>
<path d="M11.6494 153.113H4.2364" stroke="#4B4B4B" stroke-width="0.5"/>
<path d="M11.6494 154.2H7.94291" stroke="#4B4B4B" stroke-width="0.5"/>
<path d="M11.6494 155.286H7.94291" stroke="#4B4B4B" stroke-width="0.5"/>
<path d="M11.6494 156.373H7.94291" stroke="#4B4B4B" stroke-width="0.5"/>
<path d="M11.6494 157.459H7.94291" stroke="#4B4B4B" stroke-width="0.5"/>
<path d="M11.6494 158.546H7.94291" stroke="#4B4B4B" stroke-width="0.5"/>
<path d="M11.6494 159.633H7.94291" stroke="#4B4B4B" stroke-width="0.5"/>
<path d="M11.6494 160.719H7.94291" stroke="#4B4B4B" stroke-width="0.5"/>
<path d="M11.6494 161.806H7.94291" stroke="#4B4B4B" stroke-width="0.5"/>
<path d="M11.6494 162.892H7.94291" stroke="#4B4B4B" stroke-width="0.5"/>
<path d="M11.6494 163.979H4.2364" stroke="#4B4B4B" stroke-width="0.5"/>
<path d="M11.6494 165.065H7.94291" stroke="#4B4B4B" stroke-width="0.5"/>
<path d="M11.6494 166.152H7.94291" stroke="#4B4B4B" stroke-width="0.5"/>
<path d="M11.6494 167.239H7.94291" stroke="#4B4B4B" stroke-width="0.5"/>
<path d="M11.6494 168.325H7.94291" stroke="#4B4B4B" stroke-width="0.5"/>
<path d="M11.6494 169.412H7.94291" stroke="#4B4B4B" stroke-width="0.5"/>
<path d="M11.6494 170.498H7.94291" stroke="#4B4B4B" stroke-width="0.5"/>
<path d="M11.6494 171.585H7.94291" stroke="#4B4B4B" stroke-width="0.5"/>
<path d="M11.6494 172.671H4.2364" stroke="#4B4B4B" stroke-width="0.5"/>
<path d="M11.6494 173.758H7.94291" stroke="#4B4B4B" stroke-width="0.5"/>
<path d="M11.6494 174.844H7.94291" stroke="#4B4B4B" stroke-width="0.5"/>
<path d="M11.6494 175.931H7.94291" stroke="#4B4B4B" stroke-width="0.5"/>
<path d="M11.6494 177.018H7.94291" stroke="#4B4B4B" stroke-width="0.5"/>
<path d="M11.6494 178.104H7.94291" stroke="#4B4B4B" stroke-width="0.5"/>
<path d="M11.6494 179.191H7.94291" stroke="#4B4B4B" stroke-width="0.5"/>
<path d="M11.6494 180.277H7.94291" stroke="#4B4B4B" stroke-width="0.5"/>
<path d="M11.6494 181.364H7.94291" stroke="#4B4B4B" stroke-width="0.5"/>
<path d="M11.6494 182.45H7.94291" stroke="#4B4B4B" stroke-width="0.5"/>
<path d="M11.6494 183.537H4.2364" stroke="#4B4B4B" stroke-width="0.5"/>
<path d="M11.6494 184.624H7.94291" stroke="#4B4B4B" stroke-width="0.5"/>
<path d="M11.6494 185.71H7.94291" stroke="#4B4B4B" stroke-width="0.5"/>
<path d="M11.6494 186.797H7.94291" stroke="#4B4B4B" stroke-width="0.5"/>
<path d="M11.6494 187.883H7.94291" stroke="#4B4B4B" stroke-width="0.5"/>
<path d="M11.6494 188.97H7.94291" stroke="#4B4B4B" stroke-width="0.5"/>
<path d="M11.6494 190.056H7.94291" stroke="#4B4B4B" stroke-width="0.5"/>
<path d="M11.6494 191.143H7.94291" stroke="#4B4B4B" stroke-width="0.5"/>
<path d="M11.6494 192.23H7.94291" stroke="#4B4B4B" stroke-width="0.5"/>
<path d="M11.6494 193.316H4.2364" stroke="#4B4B4B" stroke-width="0.5"/>
<path d="M11.6494 194.403H7.94291" stroke="#4B4B4B" stroke-width="0.5"/>
<path d="M11.6494 195.489H7.94291" stroke="#4B4B4B" stroke-width="0.5"/>
<path d="M11.6494 196.576H7.94291" stroke="#4B4B4B" stroke-width="0.5"/>
<path d="M11.6494 197.662H7.94291" stroke="#4B4B4B" stroke-width="0.5"/>
<path d="M11.6494 198.749H7.94291" stroke="#4B4B4B" stroke-width="0.5"/>
<path d="M11.6494 199.836H7.94291" stroke="#4B4B4B" stroke-width="0.5"/>
<path d="M11.6494 200.922H7.94291" stroke="#4B4B4B" stroke-width="0.5"/>
<path d="M11.6494 202.009H7.94291" stroke="#4B4B4B" stroke-width="0.5"/>
<path d="M11.6494 203.095H7.94291" stroke="#4B4B4B" stroke-width="0.5"/>
<path d="M11.6494 204.182H7.94291" stroke="#4B4B4B" stroke-width="0.5"/>
<path d="M11.6494 205.268H7.94291" stroke="#4B4B4B" stroke-width="0.5"/>
<path d="M11.6494 206.355H4.2364" stroke="#4B4B4B" stroke-width="0.5"/>
<path d="M11.6494 207.442H7.94291" stroke="#4B4B4B" stroke-width="0.5"/>
<path d="M11.6494 208.528H7.94291" stroke="#4B4B4B" stroke-width="0.5"/>
<path d="M11.6494 209.615H7.94291" stroke="#4B4B4B" stroke-width="0.5"/>
<path d="M11.6494 210.701H7.94291" stroke="#4B4B4B" stroke-width="0.5"/>
<path d="M11.6494 211.788H7.94291" stroke="#4B4B4B" stroke-width="0.5"/>
<path d="M11.6494 212.874H7.94291" stroke="#4B4B4B" stroke-width="0.5"/>
<path d="M11.6494 213.961H7.94291" stroke="#4B4B4B" stroke-width="0.5"/>
<path d="M11.6494 215.047H7.94291" stroke="#4B4B4B" stroke-width="0.5"/>
<path d="M11.6494 216.134H4.2364" stroke="#4B4B4B" stroke-width="0.5"/>
<path d="M11.6494 217.221H7.94291" stroke="#4B4B4B" stroke-width="0.5"/>
<path d="M11.6494 218.307H7.94291" stroke="#4B4B4B" stroke-width="0.5"/>
<path d="M11.6494 219.394H7.94291" stroke="#4B4B4B" stroke-width="0.5"/>
<path d="M11.6494 220.48H7.94291" stroke="#4B4B4B" stroke-width="0.5"/>
<path d="M11.6494 221.567H7.94291" stroke="#4B4B4B" stroke-width="0.5"/>
<path d="M11.6494 222.653H7.94291" stroke="#4B4B4B" stroke-width="0.5"/>
<path d="M11.6494 223.74H7.94291" stroke="#4B4B4B" stroke-width="0.5"/>
<path d="M11.6494 224.827H7.94291" stroke="#4B4B4B" stroke-width="0.5"/>
<path d="M11.6494 225.913H4.2364" stroke="#4B4B4B" stroke-width="0.5"/>
<path d="M11.6494 227H7.94291" stroke="#4B4B4B" stroke-width="0.5"/>
<path d="M11.6494 228.086H7.94291" stroke="#4B4B4B" stroke-width="0.5"/>
<path d="M11.6494 229.173H7.94291" stroke="#4B4B4B" stroke-width="0.5"/>
<path d="M11.6494 230.26H7.94291" stroke="#4B4B4B" stroke-width="0.5"/>
<path d="M11.6494 231.346H7.94291" stroke="#4B4B4B" stroke-width="0.5"/>
<path d="M11.6494 232.433H7.94291" stroke="#4B4B4B" stroke-width="0.5"/>
<path d="M11.6494 233.519H7.94291" stroke="#4B4B4B" stroke-width="0.5"/>
<path d="M11.6494 234.606H7.94291" stroke="#4B4B4B" stroke-width="0.5"/>
<path d="M11.6494 235.692H4.2364" stroke="#4B4B4B" stroke-width="0.5"/>
<path d="M11.6494 236.779H7.94291" stroke="#4B4B4B" stroke-width="0.5"/>
<path d="M11.6494 237.865H7.94291" stroke="#4B4B4B" stroke-width="0.5"/>
<path d="M11.6494 238.952H7.94291" stroke="#4B4B4B" stroke-width="0.5"/>
<path d="M11.6494 240.039H7.94291" stroke="#4B4B4B" stroke-width="0.5"/>
<path d="M11.6494 241.125H7.94291" stroke="#4B4B4B" stroke-width="0.5"/>
<path d="M11.6494 242.212H7.94291" stroke="#4B4B4B" stroke-width="0.5"/>
<path d="M11.6494 243.298H7.94291" stroke="#4B4B4B" stroke-width="0.5"/>
<path d="M11.6494 244.385H7.94291" stroke="#4B4B4B" stroke-width="0.5"/>
<path d="M11.6494 245.471H4.2364" stroke="#4B4B4B" stroke-width="0.5"/>
<path d="M11.6494 246.558H7.94291" stroke="#4B4B4B" stroke-width="0.5"/>
<path d="M11.6494 247.644H7.94291" stroke="#4B4B4B" stroke-width="0.5"/>
<path d="M11.6494 248.731H7.94291" stroke="#4B4B4B" stroke-width="0.5"/>
<path d="M11.6494 249.818H7.94291" stroke="#4B4B4B" stroke-width="0.5"/>
<path d="M11.6494 250.904H7.94291" stroke="#4B4B4B" stroke-width="0.5"/>
<path d="M11.6494 251.991H7.94291" stroke="#4B4B4B" stroke-width="0.5"/>
<path d="M11.6494 253.077H7.94291" stroke="#4B4B4B" stroke-width="0.5"/>
<path d="M11.6494 254.164H7.94291" stroke="#4B4B4B" stroke-width="0.5"/>
<path d="M11.6494 255.25H4.2364" stroke="#4B4B4B" stroke-width="0.5"/>
<path d="M11.6494 256.337H7.94291" stroke="#4B4B4B" stroke-width="0.5"/>
<path d="M11.6494 257.424H7.94291" stroke="#4B4B4B" stroke-width="0.5"/>
<path d="M11.6494 258.51H7.94291" stroke="#4B4B4B" stroke-width="0.5"/>
<path d="M11.6494 259.597H7.94291" stroke="#4B4B4B" stroke-width="0.5"/>
<path d="M11.6494 260.683H7.94291" stroke="#4B4B4B" stroke-width="0.5"/>
<path d="M11.6494 261.77H7.94291" stroke="#4B4B4B" stroke-width="0.5"/>
<path d="M11.6494 262.856H4.2364" stroke="#4B4B4B" stroke-width="0.5"/>
<path d="M11.6494 263.943H7.94291" stroke="#4B4B4B" stroke-width="0.5"/>
<path d="M11.6494 265.03H7.94291" stroke="#4B4B4B" stroke-width="0.5"/>
<path d="M11.6494 266.116H7.94291" stroke="#4B4B4B" stroke-width="0.5"/>
<path d="M11.6494 267.203H7.94291" stroke="#4B4B4B" stroke-width="0.5"/>
<path d="M193.698 275.09L194.499 282.775L199.661 283.385V274.272L193.698 275.09Z" fill="white"/>
<path d="M199.661 283.729C199.647 283.729 199.634 283.729 199.62 283.726L194.458 283.117C194.298 283.098 194.171 282.971 194.155 282.81L193.353 275.124C193.335 274.939 193.465 274.772 193.649 274.747L199.614 273.929C199.712 273.915 199.813 273.945 199.888 274.01C199.963 274.076 200.005 274.17 200.005 274.27V283.383C200.005 283.482 199.963 283.576 199.889 283.641C199.827 283.698 199.744 283.729 199.661 283.729V283.729ZM194.813 282.465L199.316 282.996V274.667L194.075 275.386L194.813 282.464V282.465Z" fill="black"/>
<path d="M201.161 288.633C199.009 288.797 195.481 288.942 191.338 288.63C189.983 288.528 189.084 287.814 189.411 287.094C190.323 285.083 191.894 281.267 194.591 279.499L195.261 280.458L196.187 279.555C196.314 279.432 196.541 279.348 196.799 279.331L198.826 279.191C199.249 279.163 199.644 279.315 199.731 279.541L200.054 280.372L201.29 279.282L201.838 283.355C201.956 284.228 202.198 285.094 202.565 285.946L203.118 287.231C203.282 287.911 202.413 288.537 201.161 288.634V288.633Z" fill="white"/>
<path d="M196.282 289C194.771 289 193.087 288.949 191.29 288.814C190.55 288.759 189.882 288.535 189.461 288.2C189.038 287.864 188.897 287.444 189.076 287.049L189.271 286.613C190.202 284.536 191.762 281.06 194.324 279.38C194.403 279.328 194.525 279.302 194.647 279.315C194.769 279.326 194.869 279.37 194.913 279.433L195.32 280.014L195.884 279.464C196.064 279.289 196.39 279.169 196.755 279.144L198.782 279.005C199.379 278.965 199.944 279.182 200.068 279.5L200.212 279.873L200.993 279.183C201.072 279.114 201.224 279.08 201.369 279.099C201.515 279.119 201.622 279.186 201.632 279.266L202.181 283.34C202.297 284.2 202.539 285.062 202.9 285.903L203.453 287.188C203.648 287.984 202.638 288.707 201.21 288.816C199.942 288.913 198.257 288.999 196.281 288.999L196.282 289ZM194.489 279.878C192.241 281.577 190.814 284.76 189.943 286.701L189.748 287.138C189.614 287.431 189.719 287.742 190.033 287.991C190.344 288.239 190.838 288.405 191.386 288.446C195.454 288.752 198.921 288.617 201.114 288.449C202.171 288.368 202.917 287.832 202.776 287.255L202.229 285.988C201.86 285.129 201.612 284.248 201.495 283.368L201.023 279.873L200.348 280.469C200.275 280.534 200.134 280.568 199.996 280.555C199.856 280.542 199.745 280.484 199.717 280.41L199.394 279.578C199.343 279.445 199.115 279.357 198.871 279.375L196.844 279.515C196.696 279.525 196.562 279.574 196.489 279.645L195.563 280.548C195.497 280.611 195.372 280.648 195.236 280.643C195.101 280.638 194.985 280.591 194.938 280.524L194.487 279.879L194.489 279.878Z" fill="black"/>
<path d="M196.786 287.757C195.505 287.757 193.981 287.624 192.268 287.231C192.081 287.189 191.965 287.004 192.009 286.818C192.052 286.631 192.236 286.514 192.423 286.559C197.443 287.71 200.846 286.523 200.881 286.511C201.059 286.445 201.257 286.539 201.322 286.717C201.387 286.896 201.294 287.093 201.116 287.159C201.018 287.195 199.418 287.757 196.788 287.757H196.786Z" fill="black"/>
<path d="M194.293 281.852C194.108 281.852 193.955 281.705 193.948 281.519C193.942 281.328 194.091 281.17 194.282 281.163L199.12 281.002C199.313 280.98 199.47 281.145 199.476 281.336C199.482 281.527 199.333 281.685 199.142 281.691L194.304 281.852C194.304 281.852 194.296 281.852 194.291 281.852H194.293Z" fill="black"/>
<path d="M217.876 270.999L218.65 282.213H224.862L225.151 270.999H217.876Z" fill="white"/>
<path d="M224.861 282.558H218.649C218.468 282.558 218.317 282.417 218.305 282.237L217.531 271.022C217.525 270.926 217.558 270.832 217.623 270.764C217.689 270.693 217.78 270.654 217.876 270.654H225.149C225.242 270.654 225.331 270.692 225.397 270.757C225.463 270.825 225.497 270.914 225.496 271.006L225.207 282.221C225.203 282.407 225.049 282.558 224.863 282.558H224.861ZM218.972 281.868H224.526L224.797 271.343H218.247L218.974 281.868H218.972Z" fill="black"/>
<path d="M225.161 287.633C223.009 287.797 219.481 287.942 215.338 287.63C213.983 287.528 213.084 286.814 213.411 286.094C214.323 284.083 215.894 280.267 218.591 278.499L219.261 279.458L220.187 278.555C220.314 278.432 220.541 278.348 220.799 278.331L222.826 278.191C223.249 278.163 223.644 278.315 223.731 278.541L224.054 279.372L225.29 278.282L225.838 282.355C225.956 283.228 226.198 284.094 226.565 284.946L227.118 286.231C227.282 286.911 226.413 287.537 225.161 287.634V287.633Z" fill="white"/>
<path d="M220.282 288C218.771 288 217.087 287.949 215.29 287.814C214.55 287.759 213.882 287.535 213.461 287.2C213.038 286.864 212.897 286.444 213.076 286.049L213.271 285.613C214.202 283.536 215.762 280.06 218.324 278.38C218.403 278.328 218.525 278.302 218.647 278.315C218.769 278.326 218.869 278.37 218.913 278.433L219.32 279.014L219.884 278.464C220.064 278.289 220.39 278.169 220.755 278.144L222.782 278.005C223.379 277.965 223.944 278.182 224.068 278.5L224.212 278.873L224.993 278.183C225.072 278.114 225.224 278.08 225.369 278.099C225.515 278.119 225.622 278.186 225.632 278.266L226.181 282.34C226.297 283.2 226.539 284.062 226.9 284.903L227.453 286.188C227.648 286.984 226.638 287.707 225.21 287.816C223.942 287.913 222.257 287.999 220.281 287.999L220.282 288ZM218.489 278.878C216.241 280.577 214.814 283.76 213.943 285.701L213.748 286.138C213.614 286.431 213.719 286.742 214.033 286.991C214.344 287.239 214.838 287.405 215.386 287.446C219.454 287.752 222.921 287.617 225.114 287.449C226.171 287.368 226.917 286.832 226.776 286.255L226.229 284.988C225.86 284.129 225.612 283.248 225.495 282.368L225.023 278.873L224.348 279.469C224.275 279.534 224.134 279.568 223.996 279.555C223.856 279.542 223.745 279.484 223.717 279.41L223.394 278.578C223.343 278.445 223.115 278.357 222.871 278.375L220.844 278.515C220.696 278.525 220.562 278.574 220.489 278.645L219.563 279.548C219.497 279.611 219.372 279.648 219.236 279.643C219.101 279.638 218.985 279.591 218.938 279.524L218.487 278.879L218.489 278.878Z" fill="black"/>
<path d="M220.786 286.757C219.505 286.757 217.981 286.624 216.268 286.231C216.081 286.189 215.965 286.004 216.009 285.818C216.052 285.631 216.236 285.514 216.423 285.559C221.443 286.71 224.846 285.523 224.881 285.511C225.059 285.445 225.257 285.539 225.322 285.717C225.387 285.896 225.294 286.093 225.116 286.159C225.018 286.195 223.418 286.757 220.788 286.757H220.786Z" fill="black"/>
<path d="M218.293 280.852C218.108 280.852 217.955 280.705 217.948 280.519C217.942 280.328 218.091 280.17 218.282 280.163L223.12 280.002C223.313 279.98 223.47 280.145 223.476 280.336C223.482 280.527 223.333 280.685 223.142 280.691L218.304 280.852C218.304 280.852 218.296 280.852 218.291 280.852H218.293Z" fill="black"/>
<path d="M191.937 197.886C191.937 197.886 190.012 232.946 189.005 245.048C187.998 257.151 191.36 276.606 191.36 276.606L200.949 276.098C200.949 276.098 201.607 252.444 202.318 245.875C202.318 245.875 206.368 236.971 207.568 229.029C208.768 221.086 212.857 208.542 212.857 208.542C212.857 208.542 216.178 271.154 216.497 276.073C216.497 276.073 224.016 276.41 226.711 274.703C226.711 274.703 231.488 251.873 230.802 239.451C230.116 227.029 230.87 196.168 230.87 196.168L191.935 197.886H191.937Z" fill="white"/>
<path d="M191.36 276.95C191.194 276.95 191.048 276.83 191.02 276.664C190.985 276.469 187.662 257.027 188.661 245.019C189.655 233.059 191.573 198.217 191.593 197.866C191.602 197.689 191.745 197.548 191.922 197.54L230.856 195.822C230.955 195.814 231.044 195.853 231.113 195.921C231.182 195.988 231.22 196.08 231.217 196.176C231.209 196.485 230.471 227.166 231.149 239.432C231.829 251.755 227.1 274.545 227.052 274.773C227.033 274.864 226.978 274.944 226.898 274.994C224.142 276.739 216.796 276.43 216.484 276.418C216.309 276.41 216.166 276.271 216.155 276.095C215.87 271.716 213.175 220.98 212.616 210.459C211.449 214.223 208.824 223.041 207.91 229.08C206.764 236.666 202.988 245.224 202.656 245.966C201.955 252.521 201.301 275.871 201.294 276.108C201.29 276.288 201.147 276.433 200.967 276.443L191.378 276.95C191.378 276.95 191.366 276.95 191.36 276.95V276.95ZM192.263 198.217C192.069 201.732 190.293 233.715 189.347 245.077C188.423 256.178 191.231 273.732 191.648 276.244L200.612 275.769C200.693 272.925 201.313 251.929 201.974 245.838C201.979 245.802 201.988 245.766 202.002 245.731C202.043 245.642 206.047 236.777 207.226 228.975C208.416 221.097 212.487 208.559 212.528 208.434C212.579 208.275 212.739 208.175 212.901 208.199C213.065 208.221 213.19 208.357 213.2 208.523C213.233 209.138 216.407 269.005 216.821 275.738C218.227 275.776 224.046 275.846 226.403 274.485C226.809 272.505 231.104 251.187 230.457 239.469C229.818 227.91 230.433 200.065 230.515 196.528L192.262 198.217H192.263Z" fill="black"/>
<path d="M200.551 246.218H197.621C197.43 246.218 197.276 246.063 197.276 245.874C197.276 245.684 197.431 245.529 197.621 245.529H200.551C200.743 245.529 200.896 245.684 200.896 245.874C200.896 246.063 200.741 246.218 200.551 246.218Z" fill="black"/>
<path d="M221.429 264.428H221.422C221.231 264.425 221.081 264.267 221.084 264.077C221.191 258.277 227.507 247.89 227.777 247.45C227.875 247.288 228.088 247.235 228.251 247.335C228.414 247.434 228.466 247.647 228.366 247.81C228.301 247.916 221.877 258.476 221.775 264.09C221.772 264.278 221.618 264.428 221.43 264.428H221.429Z" fill="black"/>
<path d="M217.133 130.458C217.133 130.458 214.615 128.908 214.64 128.002L213.921 123.351C213.913 122.925 214.176 122.542 214.572 122.403L216 120.5C216.379 120.365 216.625 119.991 216.598 119.584L217.5 117V116C217.591 115.919 217.603 115.779 217.525 115.685L217.266 113.171C216.663 112.322 216.059 110.291 215.564 110.429C215.564 110.429 205.056 109.215 204.543 114.514C204.47 115.281 204.7 116.047 205.145 116.674L206.075 117.986C207.01 119.303 207.502 120.918 207.336 122.533C207.302 122.868 206.865 125.028 206.573 126.456C206.407 127.268 205.958 127.988 205.305 128.491C204.484 129.124 203.485 129.929 203.647 129.981C203.647 129.981 204.811 130.836 206.648 131.592C209.911 132.938 213.622 132.603 216.635 130.762L217.135 130.457L217.133 130.458Z" fill="white"/>
<path d="M210.794 132.753C209.337 132.753 207.884 132.476 206.518 131.912C204.663 131.147 203.493 130.295 203.445 130.259C203.368 130.203 203.307 130.114 203.291 130.023C203.25 129.788 203.227 129.658 205.096 128.219C205.683 127.766 206.089 127.116 206.237 126.388C206.864 123.329 206.981 122.638 206.995 122.499C207.147 121.022 206.721 119.49 205.797 118.187L204.867 116.874C204.359 116.158 204.123 115.309 204.204 114.481C204.309 113.395 204.807 112.487 205.684 111.777C208.61 109.412 214.855 110.006 215.552 110.081C216.092 110.003 216.454 110.772 216.902 111.735C217.117 112.199 217.341 112.676 217.551 112.972L217.966 115.045C218.161 115.285 218.135 115.632 217.903 115.838L217.787 116.974L217.586 118.032C217.62 118.591 217.029 120.315 216.506 120.5L215.73 121.653C215.483 121.741 214.274 123.055 214.271 123.324L214.985 127.949C214.988 127.97 214.99 127.99 214.99 128.012C214.979 128.435 216.185 129.465 217.32 130.164C217.422 130.227 217.485 130.338 217.485 130.458C217.485 130.579 217.422 130.69 217.319 130.753L216.819 131.057C214.979 132.18 212.886 132.751 210.798 132.751L210.794 132.753ZM204.132 129.893C204.576 130.183 205.518 130.754 206.779 131.273C209.902 132.56 213.519 132.26 216.456 130.468L216.486 130.449C215.652 129.888 214.312 128.859 214.296 128.027L213.582 123.402C213.579 123.387 213.579 123.371 213.577 123.355C213.568 122.78 214.963 121.19 215.5 121L216.276 119.845C216.506 119.764 216.909 118.325 216.893 118.071L217.086 116.845C217.079 116.739 217.122 116.635 217.202 116.565L217.359 115.393L217.001 113.388C216.739 113.021 216.503 112.514 216.276 112.022C216.081 111.604 215.76 110.914 215.585 110.77C215.566 110.77 215.546 110.77 215.527 110.769C215.461 110.761 208.928 110.039 206.117 112.311C205.379 112.908 204.977 113.638 204.889 114.545C204.825 115.208 205.017 115.892 205.428 116.472L206.358 117.784C207.379 119.223 207.849 120.921 207.68 122.566C207.652 122.835 207.393 124.167 206.911 126.522C206.729 127.412 206.233 128.208 205.515 128.76C204.723 129.371 204.328 129.708 204.132 129.89V129.893Z" fill="black"/>
<path d="M215.914 102.366C213.519 102.242 216.547 104.71 207.677 102.16C204.145 101.145 205.959 105.29 205.043 105.028C201.657 104.065 201.772 104.093 200.126 104.543C199.036 104.84 198.341 106.88 198.558 108.397C198.845 110.402 201.093 113.583 203.107 116.948C204.15 118.689 204.766 121.092 207 118.5C209.5 119.5 209.866 119.2 210.5 118.5C212.148 116.678 214.5 118.255 215.5 117.5C216.5 116.745 217.15 114.968 218.5 113.734C220.134 112.241 219.125 111.987 220.071 108.629C220.565 106.878 219.194 102.532 215.916 102.364L215.914 102.366Z" fill="black"/>
<path d="M237.353 142.37C237.885 142.335 242.197 149.984 244.222 153.634C244.798 154.673 246.111 155.025 247.126 154.418L263.514 144.619C264.852 143.818 266.006 142.738 266.881 141.444C268.267 139.396 269.105 137.306 270.941 135.862C272.434 134.688 273.949 133.383 274.402 133.042C274.685 132.828 275.975 133.774 274.97 135.407C274.66 135.909 273.52 136.919 273.205 137.38C272.702 138.115 272.688 139.105 273.225 139.814C273.797 140.571 274.267 141.779 273.589 143.439C272.586 145.897 270.383 146.477 269.139 146.603C268.515 146.666 267.936 146.96 267.515 147.429L252.281 164.395C249.918 167.028 246.021 167.574 243.033 165.691C238.202 162.645 232.011 156.556 227.597 148.908L237.352 142.363L237.353 142.37Z" fill="white"/>
<path d="M246.783 167.157C245.43 167.138 244.069 166.754 242.851 165.986C238.446 163.209 232.048 157.31 227.3 149.084C227.21 148.927 227.257 148.726 227.407 148.625L237.162 142.08C237.212 142.047 237.27 142.027 237.332 142.023C237.658 142.006 238.148 141.977 244.525 153.465C244.759 153.885 245.142 154.185 245.602 154.309C246.063 154.433 246.541 154.366 246.95 154.121L263.338 144.322C264.635 143.546 265.762 142.484 266.597 141.251C266.997 140.659 267.357 140.057 267.702 139.474C268.565 138.022 269.38 136.652 270.73 135.592C271.593 134.915 272.446 134.206 273.131 133.636C273.616 133.233 273.999 132.916 274.197 132.766C274.444 132.58 274.821 132.658 275.155 132.962C275.667 133.426 276.002 134.393 275.266 135.589C275.08 135.89 274.664 136.318 274.26 136.73C273.945 137.052 273.621 137.385 273.491 137.575C273.058 138.209 273.064 139.025 273.502 139.607C274.101 140.401 274.659 141.733 273.909 143.571C272.837 146.2 270.481 146.815 269.175 146.947C268.635 147.002 268.138 147.255 267.772 147.66L252.538 164.626C251.021 166.315 248.91 167.184 246.781 167.154L246.783 167.157ZM228.059 149.019C232.726 156.991 238.932 162.703 243.218 165.404C246.065 167.201 249.769 166.681 252.024 164.169L267.26 147.203C267.741 146.669 268.396 146.336 269.106 146.264C270.259 146.147 272.334 145.608 273.272 143.313C273.775 142.079 273.669 140.972 272.952 140.025C272.334 139.206 272.322 138.067 272.922 137.188C273.085 136.949 273.416 136.609 273.767 136.25C274.126 135.881 274.533 135.464 274.679 135.228C275.109 134.531 275.036 134.046 274.9 133.762C274.794 133.538 274.63 133.412 274.543 133.371C274.341 133.528 273.996 133.815 273.571 134.167C272.918 134.709 272.026 135.45 271.156 136.133C269.908 137.114 269.125 138.431 268.295 139.826C267.944 140.418 267.581 141.028 267.168 141.636C266.277 142.953 265.075 144.086 263.691 144.912L247.304 154.712C246.732 155.053 246.063 155.147 245.422 154.975C244.778 154.801 244.245 154.385 243.921 153.799C239.902 146.56 237.926 143.407 237.349 142.783L228.06 149.016L228.059 149.019Z" fill="#9F1127"/>
<path d="M185.228 150.852L193.805 155.462C193.805 155.462 189.639 162.579 190.316 163.155C192.731 165.209 198.339 168.591 202.264 170.333C203.631 170.94 205.226 170.561 206.224 169.434C206.978 168.584 208.166 167.766 209.958 167.737C211.69 167.71 208.972 169.428 209.205 171.721C209.331 172.953 211.568 173.777 214.692 174.775C217.815 175.774 216.75 179.139 212.612 179.086C208.126 179.028 206.139 177.547 204.942 177.138C202.556 176.324 182.081 168.097 180.138 164.79C178.635 162.235 185.228 150.85 185.228 150.85L185.228 150.852Z" fill="white"/>
<path d="M183.311 167.721C181.554 166.671 180.279 165.715 179.839 164.967C178.279 162.316 184.243 151.864 184.929 150.68C185.021 150.519 185.226 150.46 185.39 150.549L193.968 155.16C194.052 155.199 194.111 155.28 194.136 155.37C194.161 155.459 194.149 155.556 194.102 155.638C192.332 158.66 190.51 162.262 190.584 162.93C193.041 165.004 198.541 168.303 202.403 170.018C203.623 170.559 205.055 170.234 205.964 169.206C206.993 168.046 208.372 167.419 209.95 167.393C210.234 167.389 210.631 167.417 210.807 167.724C211.015 168.088 210.764 168.498 210.42 169.066C210.008 169.743 209.443 170.67 209.547 171.686C209.653 172.722 211.987 173.549 214.796 174.448C216.506 174.994 216.962 176.13 216.82 177.01C216.626 178.2 215.225 179.465 212.606 179.433C209.004 179.386 207.007 178.454 205.687 177.837C205.354 177.682 205.066 177.546 204.828 177.466C203.635 177.059 189.991 171.712 183.311 167.721V167.721ZM185.359 151.315C183.463 154.641 179.319 162.722 180.433 164.616C182.297 167.782 202.621 175.983 205.051 176.811C205.324 176.905 205.628 177.046 205.979 177.21C207.247 177.802 209.163 178.697 212.616 178.742C214.826 178.771 215.991 177.807 216.14 176.899C216.264 176.138 215.667 175.451 214.586 175.104C211.328 174.062 209.01 173.212 208.861 171.756C208.735 170.509 209.395 169.424 209.831 168.707C209.955 168.503 210.116 168.24 210.172 168.091C210.128 168.085 210.06 168.079 209.963 168.081C208.562 168.104 207.391 168.635 206.482 169.662C205.372 170.914 203.621 171.311 202.124 170.647C198.192 168.901 192.569 165.523 190.094 163.417C189.875 163.231 189.215 162.669 193.329 155.597L185.361 151.315L185.359 151.315Z" fill="#9F1127"/>
<path d="M181.016 156.534C181.016 156.534 179.935 136.56 195.034 130.95C206.726 126.605 221.656 128.48 226.336 130.103C237.858 134.098 243.528 149.321 243.528 149.321L230.026 151.224C230.026 151.224 234.095 194.959 232.33 204.714C232.33 204.714 221.465 205.989 216.855 204.162C212.247 202.336 197.094 199.775 189.85 203.126L191.165 156.346L181.014 156.534H181.016Z" fill="#9F1127"/>
<path d="M199.835 193.828C199.671 193.828 199.525 193.711 199.495 193.543C199.463 193.355 199.588 193.177 199.774 193.144C217.019 190.075 222.055 178.061 222.103 177.94C222.175 177.763 222.376 177.678 222.553 177.749C222.73 177.819 222.814 178.021 222.744 178.197C222.694 178.322 217.534 190.685 199.895 193.822C199.875 193.825 199.854 193.827 199.834 193.827L199.835 193.828Z" fill="white"/>
</svg>
