<svg width="445" height="293" viewBox="0 0 445 293" fill="none" xmlns="http://www.w3.org/2000/svg">
<path d="M261.579 21.3416H136.703L24.9912 132.791V273.507H373.291V132.791L261.579 21.3416Z" stroke="#4B4B4B" stroke-width="0.5" stroke-linecap="round" stroke-linejoin="round"/>
<path d="M51.2428 124.449L121.986 51.0946C133.339 39.3227 149.514 33.4717 165.782 35.2527L239.61 43.3352C251.534 44.6406 262.658 49.9611 271.152 58.421L342.334 129.323C352.27 139.219 357.853 152.656 357.853 166.67V201.22C357.853 230.351 334.206 253.967 305.037 253.967H89.2838C60.1143 253.967 36.4678 230.351 36.4678 201.22V161.04C36.4678 147.393 41.7636 134.278 51.2428 124.449Z" fill="#9F1127" fill-opacity="0.4"/>
<path d="M373.291 269.023H24.9912V276.793H373.291V269.023Z" stroke="#4B4B4B" stroke-width="0.5" stroke-linecap="round" stroke-linejoin="round"/>
<path d="M24.25 0.250055V11.3898H373.75V0.250055H24.25Z" stroke="#4B4B4B" stroke-width="0.5"/>
<path d="M33.6465 11.6398V7.06702" stroke="#4B4B4B" stroke-width="0.5"/>
<path d="M34.7188 11.6398V7.06702" stroke="#4B4B4B" stroke-width="0.5"/>
<path d="M35.793 11.6398V7.06702" stroke="#4B4B4B" stroke-width="0.5"/>
<path d="M36.8633 11.6398V7.06702" stroke="#4B4B4B" stroke-width="0.5"/>
<path d="M37.9355 11.6398V7.06702" stroke="#4B4B4B" stroke-width="0.5"/>
<path d="M39.0078 11.6398V7.06702" stroke="#4B4B4B" stroke-width="0.5"/>
<path d="M40.0781 11.6398V7.06702" stroke="#4B4B4B" stroke-width="0.5"/>
<path d="M41.1523 11.6398V7.06702" stroke="#4B4B4B" stroke-width="0.5"/>
<path d="M42.2227 11.6398V7.06702" stroke="#4B4B4B" stroke-width="0.5"/>
<path d="M43.2949 11.6398V4.1571" stroke="#4B4B4B" stroke-width="0.5"/>
<path d="M44.3672 11.6398V7.06702" stroke="#4B4B4B" stroke-width="0.5"/>
<path d="M45.4414 11.6398V7.06702" stroke="#4B4B4B" stroke-width="0.5"/>
<path d="M46.5098 11.6398V7.06702" stroke="#4B4B4B" stroke-width="0.5"/>
<path d="M47.582 11.6398V7.06702" stroke="#4B4B4B" stroke-width="0.5"/>
<path d="M48.6543 11.6398V7.06702" stroke="#4B4B4B" stroke-width="0.5"/>
<path d="M49.7285 11.6398V7.06702" stroke="#4B4B4B" stroke-width="0.5"/>
<path d="M50.8008 11.6398V7.06702" stroke="#4B4B4B" stroke-width="0.5"/>
<path d="M51.8711 11.6398V4.1571" stroke="#4B4B4B" stroke-width="0.5"/>
<path d="M52.9434 11.6398V7.06702" stroke="#4B4B4B" stroke-width="0.5"/>
<path d="M54.0137 11.6398V7.06702" stroke="#4B4B4B" stroke-width="0.5"/>
<path d="M55.0879 11.6398V7.06702" stroke="#4B4B4B" stroke-width="0.5"/>
<path d="M56.1602 11.6398V7.06702" stroke="#4B4B4B" stroke-width="0.5"/>
<path d="M57.2305 11.6398V7.06702" stroke="#4B4B4B" stroke-width="0.5"/>
<path d="M58.3027 11.6398V7.06702" stroke="#4B4B4B" stroke-width="0.5"/>
<path d="M59.377 11.6398V7.06702" stroke="#4B4B4B" stroke-width="0.5"/>
<path d="M60.4473 11.6398V7.06702" stroke="#4B4B4B" stroke-width="0.5"/>
<path d="M61.5176 11.6398V4.1571" stroke="#4B4B4B" stroke-width="0.5"/>
<path d="M62.5898 11.6398V7.06702" stroke="#4B4B4B" stroke-width="0.5"/>
<path d="M63.6641 11.6398V7.06702" stroke="#4B4B4B" stroke-width="0.5"/>
<path d="M64.7363 11.6398V7.06702" stroke="#4B4B4B" stroke-width="0.5"/>
<path d="M65.8086 11.6398V7.06702" stroke="#4B4B4B" stroke-width="0.5"/>
<path d="M66.877 11.6398V7.06702" stroke="#4B4B4B" stroke-width="0.5"/>
<path d="M67.9492 11.6398V7.06702" stroke="#4B4B4B" stroke-width="0.5"/>
<path d="M69.0234 11.6398V7.06702" stroke="#4B4B4B" stroke-width="0.5"/>
<path d="M70.0957 11.6398V7.06702" stroke="#4B4B4B" stroke-width="0.5"/>
<path d="M71.168 11.6398V7.06702" stroke="#4B4B4B" stroke-width="0.5"/>
<path d="M72.2383 11.6398V7.06702" stroke="#4B4B4B" stroke-width="0.5"/>
<path d="M73.3105 11.6398V7.06702" stroke="#4B4B4B" stroke-width="0.5"/>
<path d="M74.3828 11.6398V4.1571" stroke="#4B4B4B" stroke-width="0.5"/>
<path d="M75.4551 11.6398V7.06702" stroke="#4B4B4B" stroke-width="0.5"/>
<path d="M76.5254 11.6398V7.06702" stroke="#4B4B4B" stroke-width="0.5"/>
<path d="M77.5977 11.6398V7.06702" stroke="#4B4B4B" stroke-width="0.5"/>
<path d="M78.6719 11.6398V7.06702" stroke="#4B4B4B" stroke-width="0.5"/>
<path d="M79.7422 11.6398V7.06702" stroke="#4B4B4B" stroke-width="0.5"/>
<path d="M80.8145 11.6398V7.06702" stroke="#4B4B4B" stroke-width="0.5"/>
<path d="M81.8848 11.6398V7.06702" stroke="#4B4B4B" stroke-width="0.5"/>
<path d="M82.959 11.6398V7.06702" stroke="#4B4B4B" stroke-width="0.5"/>
<path d="M84.0312 11.6398V4.1571" stroke="#4B4B4B" stroke-width="0.5"/>
<path d="M85.1035 11.6398V7.06702" stroke="#4B4B4B" stroke-width="0.5"/>
<path d="M86.1738 11.6398V7.06702" stroke="#4B4B4B" stroke-width="0.5"/>
<path d="M87.2461 11.6398V7.06702" stroke="#4B4B4B" stroke-width="0.5"/>
<path d="M88.3184 11.6398V7.06702" stroke="#4B4B4B" stroke-width="0.5"/>
<path d="M89.3906 11.6398V7.06702" stroke="#4B4B4B" stroke-width="0.5"/>
<path d="M90.4629 11.6398V7.06702" stroke="#4B4B4B" stroke-width="0.5"/>
<path d="M91.5352 11.6398V7.06702" stroke="#4B4B4B" stroke-width="0.5"/>
<path d="M92.6055 11.6398V7.06702" stroke="#4B4B4B" stroke-width="0.5"/>
<path d="M93.6777 11.6398V7.06702" stroke="#4B4B4B" stroke-width="0.5"/>
<path d="M94.75 11.6398V7.06702" stroke="#4B4B4B" stroke-width="0.5"/>
<path d="M95.8223 11.6398V4.1571" stroke="#4B4B4B" stroke-width="0.5"/>
<path d="M96.8945 11.6398V7.06702" stroke="#4B4B4B" stroke-width="0.5"/>
<path d="M97.9668 11.6398V7.06702" stroke="#4B4B4B" stroke-width="0.5"/>
<path d="M99.0371 11.6398V7.06702" stroke="#4B4B4B" stroke-width="0.5"/>
<path d="M100.109 11.6398V7.06702" stroke="#4B4B4B" stroke-width="0.5"/>
<path d="M101.184 11.6398V7.06702" stroke="#4B4B4B" stroke-width="0.5"/>
<path d="M102.254 11.6398V7.06702" stroke="#4B4B4B" stroke-width="0.5"/>
<path d="M103.326 11.6398V7.06702" stroke="#4B4B4B" stroke-width="0.5"/>
<path d="M104.398 11.6398V7.06702" stroke="#4B4B4B" stroke-width="0.5"/>
<path d="M105.469 11.6398V7.06702" stroke="#4B4B4B" stroke-width="0.5"/>
<path d="M106.543 11.6398V7.06702" stroke="#4B4B4B" stroke-width="0.5"/>
<path d="M107.613 11.6398V4.1571" stroke="#4B4B4B" stroke-width="0.5"/>
<path d="M108.686 11.6398V7.06702" stroke="#4B4B4B" stroke-width="0.5"/>
<path d="M109.758 11.6398V7.06702" stroke="#4B4B4B" stroke-width="0.5"/>
<path d="M110.832 11.6398V7.06702" stroke="#4B4B4B" stroke-width="0.5"/>
<path d="M111.9 11.6398V4.1571" stroke="#4B4B4B" stroke-width="0.5"/>
<path d="M112.973 11.6398V7.06702" stroke="#4B4B4B" stroke-width="0.5"/>
<path d="M114.045 11.6398V7.06702" stroke="#4B4B4B" stroke-width="0.5"/>
<path d="M115.119 11.6398V7.06702" stroke="#4B4B4B" stroke-width="0.5"/>
<path d="M116.191 11.6398V7.06702" stroke="#4B4B4B" stroke-width="0.5"/>
<path d="M117.262 11.6398V7.06702" stroke="#4B4B4B" stroke-width="0.5"/>
<path d="M118.332 11.6398V7.06702" stroke="#4B4B4B" stroke-width="0.5"/>
<path d="M119.404 11.6398V7.06702" stroke="#4B4B4B" stroke-width="0.5"/>
<path d="M120.479 11.6398V7.06702" stroke="#4B4B4B" stroke-width="0.5"/>
<path d="M121.551 11.6398V7.06702" stroke="#4B4B4B" stroke-width="0.5"/>
<path d="M122.621 11.6398V7.06702" stroke="#4B4B4B" stroke-width="0.5"/>
<path d="M123.693 11.6398V7.06702" stroke="#4B4B4B" stroke-width="0.5"/>
<path d="M124.768 11.6398V4.1571" stroke="#4B4B4B" stroke-width="0.5"/>
<path d="M125.838 11.6398V7.06702" stroke="#4B4B4B" stroke-width="0.5"/>
<path d="M126.908 11.6398V7.06702" stroke="#4B4B4B" stroke-width="0.5"/>
<path d="M127.98 11.6398V7.06702" stroke="#4B4B4B" stroke-width="0.5"/>
<path d="M129.055 11.6398V7.06702" stroke="#4B4B4B" stroke-width="0.5"/>
<path d="M130.127 11.6398V7.06702" stroke="#4B4B4B" stroke-width="0.5"/>
<path d="M131.199 11.6398V7.06702" stroke="#4B4B4B" stroke-width="0.5"/>
<path d="M132.268 11.6398V7.06702" stroke="#4B4B4B" stroke-width="0.5"/>
<path d="M133.34 11.6398V7.06702" stroke="#4B4B4B" stroke-width="0.5"/>
<path d="M134.414 11.6398V7.06702" stroke="#4B4B4B" stroke-width="0.5"/>
<path d="M135.486 11.6398V7.06702" stroke="#4B4B4B" stroke-width="0.5"/>
<path d="M136.559 11.6398V7.06702" stroke="#4B4B4B" stroke-width="0.5"/>
<path d="M137.629 11.6398V7.06702" stroke="#4B4B4B" stroke-width="0.5"/>
<path d="M138.701 11.6398V7.06702" stroke="#4B4B4B" stroke-width="0.5"/>
<path d="M139.773 11.6398V7.06702" stroke="#4B4B4B" stroke-width="0.5"/>
<path d="M140.846 11.6398V4.1571" stroke="#4B4B4B" stroke-width="0.5"/>
<path d="M141.916 11.6398V7.06702" stroke="#4B4B4B" stroke-width="0.5"/>
<path d="M142.988 11.6398V7.06702" stroke="#4B4B4B" stroke-width="0.5"/>
<path d="M144.062 11.6398V7.06702" stroke="#4B4B4B" stroke-width="0.5"/>
<path d="M145.133 11.6398V7.06702" stroke="#4B4B4B" stroke-width="0.5"/>
<path d="M146.205 11.6398V7.06702" stroke="#4B4B4B" stroke-width="0.5"/>
<path d="M147.275 11.6398V7.06702" stroke="#4B4B4B" stroke-width="0.5"/>
<path d="M148.35 11.6398V7.06702" stroke="#4B4B4B" stroke-width="0.5"/>
<path d="M149.422 11.6398V7.06702" stroke="#4B4B4B" stroke-width="0.5"/>
<path d="M150.494 11.6398V7.06702" stroke="#4B4B4B" stroke-width="0.5"/>
<path d="M151.562 11.6398V7.06702" stroke="#4B4B4B" stroke-width="0.5"/>
<path d="M152.637 11.6398V7.06702" stroke="#4B4B4B" stroke-width="0.5"/>
<path d="M153.709 11.6398V4.1571" stroke="#4B4B4B" stroke-width="0.5"/>
<path d="M154.781 11.6398V7.06702" stroke="#4B4B4B" stroke-width="0.5"/>
<path d="M155.854 11.6398V7.06702" stroke="#4B4B4B" stroke-width="0.5"/>
<path d="M156.924 11.6398V7.06702" stroke="#4B4B4B" stroke-width="0.5"/>
<path d="M157.996 11.6398V7.06702" stroke="#4B4B4B" stroke-width="0.5"/>
<path d="M159.068 11.6398V7.06702" stroke="#4B4B4B" stroke-width="0.5"/>
<path d="M160.141 11.6398V7.06702" stroke="#4B4B4B" stroke-width="0.5"/>
<path d="M161.213 11.6398V7.06702" stroke="#4B4B4B" stroke-width="0.5"/>
<path d="M162.285 11.6398V7.06702" stroke="#4B4B4B" stroke-width="0.5"/>
<path d="M163.357 11.6398V7.06702" stroke="#4B4B4B" stroke-width="0.5"/>
<path d="M164.428 11.6398V7.06702" stroke="#4B4B4B" stroke-width="0.5"/>
<path d="M165.5 11.6398V7.06702" stroke="#4B4B4B" stroke-width="0.5"/>
<path d="M166.574 11.6398V4.1571" stroke="#4B4B4B" stroke-width="0.5"/>
<path d="M167.645 11.6398V7.06702" stroke="#4B4B4B" stroke-width="0.5"/>
<path d="M168.717 11.6398V7.06702" stroke="#4B4B4B" stroke-width="0.5"/>
<path d="M169.789 11.6398V7.06702" stroke="#4B4B4B" stroke-width="0.5"/>
<path d="M170.859 11.6398V7.06702" stroke="#4B4B4B" stroke-width="0.5"/>
<path d="M171.932 11.6398V7.06702" stroke="#4B4B4B" stroke-width="0.5"/>
<path d="M173.004 11.6398V7.06702" stroke="#4B4B4B" stroke-width="0.5"/>
<path d="M174.076 11.6398V7.06702" stroke="#4B4B4B" stroke-width="0.5"/>
<path d="M175.148 11.6398V7.06702" stroke="#4B4B4B" stroke-width="0.5"/>
<path d="M176.223 11.6398V7.06702" stroke="#4B4B4B" stroke-width="0.5"/>
<path d="M177.291 11.6398V4.1571" stroke="#4B4B4B" stroke-width="0.5"/>
<path d="M178.363 11.6398V7.06702" stroke="#4B4B4B" stroke-width="0.5"/>
<path d="M179.436 11.6398V7.06702" stroke="#4B4B4B" stroke-width="0.5"/>
<path d="M180.51 11.6398V7.06702" stroke="#4B4B4B" stroke-width="0.5"/>
<path d="M181.582 11.6398V7.06702" stroke="#4B4B4B" stroke-width="0.5"/>
<path d="M182.652 11.6398V7.06702" stroke="#4B4B4B" stroke-width="0.5"/>
<path d="M183.725 11.6398V7.06702" stroke="#4B4B4B" stroke-width="0.5"/>
<path d="M184.795 11.6398V7.06702" stroke="#4B4B4B" stroke-width="0.5"/>
<path d="M185.869 11.6398V7.06702" stroke="#4B4B4B" stroke-width="0.5"/>
<path d="M186.939 11.6398V4.1571" stroke="#4B4B4B" stroke-width="0.5"/>
<path d="M188.012 11.6398V7.06702" stroke="#4B4B4B" stroke-width="0.5"/>
<path d="M189.084 11.6398V7.06702" stroke="#4B4B4B" stroke-width="0.5"/>
<path d="M190.156 11.6398V7.06702" stroke="#4B4B4B" stroke-width="0.5"/>
<path d="M191.229 11.6398V7.06702" stroke="#4B4B4B" stroke-width="0.5"/>
<path d="M192.299 11.6398V7.06702" stroke="#4B4B4B" stroke-width="0.5"/>
<path d="M193.371 11.6398V7.06702" stroke="#4B4B4B" stroke-width="0.5"/>
<path d="M194.445 11.6398V7.06702" stroke="#4B4B4B" stroke-width="0.5"/>
<path d="M195.518 11.6398V7.06702" stroke="#4B4B4B" stroke-width="0.5"/>
<path d="M196.59 11.6398V7.06702" stroke="#4B4B4B" stroke-width="0.5"/>
<path d="M197.658 11.6398V7.06702" stroke="#4B4B4B" stroke-width="0.5"/>
<path d="M198.73 11.6398V7.06702" stroke="#4B4B4B" stroke-width="0.5"/>
<path d="M199.805 11.6398V4.1571" stroke="#4B4B4B" stroke-width="0.5"/>
<path d="M200.877 11.6398V7.06702" stroke="#4B4B4B" stroke-width="0.5"/>
<path d="M201.947 11.6398V7.06702" stroke="#4B4B4B" stroke-width="0.5"/>
<path d="M203.02 11.6398V7.06702" stroke="#4B4B4B" stroke-width="0.5"/>
<path d="M204.092 11.6398V7.06702" stroke="#4B4B4B" stroke-width="0.5"/>
<path d="M205.164 11.6398V7.06702" stroke="#4B4B4B" stroke-width="0.5"/>
<path d="M206.236 11.6398V7.06702" stroke="#4B4B4B" stroke-width="0.5"/>
<path d="M207.307 11.6398V7.06702" stroke="#4B4B4B" stroke-width="0.5"/>
<path d="M208.381 11.6398V7.06702" stroke="#4B4B4B" stroke-width="0.5"/>
<path d="M209.453 11.6398V7.06702" stroke="#4B4B4B" stroke-width="0.5"/>
<path d="M210.523 11.6398V7.06702" stroke="#4B4B4B" stroke-width="0.5"/>
<path d="M211.594 11.6398V7.06702" stroke="#4B4B4B" stroke-width="0.5"/>
<path d="M212.666 11.6398V7.06702" stroke="#4B4B4B" stroke-width="0.5"/>
<path d="M213.74 11.6398V7.06702" stroke="#4B4B4B" stroke-width="0.5"/>
<path d="M214.812 11.6398V4.1571" stroke="#4B4B4B" stroke-width="0.5"/>
<path d="M215.885 11.6398V7.06702" stroke="#4B4B4B" stroke-width="0.5"/>
<path d="M216.953 11.6398V7.06702" stroke="#4B4B4B" stroke-width="0.5"/>
<path d="M218.027 11.6398V7.06702" stroke="#4B4B4B" stroke-width="0.5"/>
<path d="M219.1 11.6398V7.06702" stroke="#4B4B4B" stroke-width="0.5"/>
<path d="M220.172 11.6398V7.06702" stroke="#4B4B4B" stroke-width="0.5"/>
<path d="M221.244 11.6398V7.06702" stroke="#4B4B4B" stroke-width="0.5"/>
<path d="M222.316 11.6398V7.06702" stroke="#4B4B4B" stroke-width="0.5"/>
<path d="M223.387 11.6398V7.06702" stroke="#4B4B4B" stroke-width="0.5"/>
<path d="M224.459 11.6398V4.1571" stroke="#4B4B4B" stroke-width="0.5"/>
<path d="M225.531 11.6398V7.06702" stroke="#4B4B4B" stroke-width="0.5"/>
<path d="M226.602 11.6398V7.06702" stroke="#4B4B4B" stroke-width="0.5"/>
<path d="M227.676 11.6398V7.06702" stroke="#4B4B4B" stroke-width="0.5"/>
<path d="M228.748 11.6398V7.06702" stroke="#4B4B4B" stroke-width="0.5"/>
<path d="M229.818 11.6398V7.06702" stroke="#4B4B4B" stroke-width="0.5"/>
<path d="M230.891 11.6398V7.06702" stroke="#4B4B4B" stroke-width="0.5"/>
<path d="M231.963 11.6398V4.1571" stroke="#4B4B4B" stroke-width="0.5"/>
<path d="M233.035 11.6398V7.06702" stroke="#4B4B4B" stroke-width="0.5"/>
<path d="M234.107 11.6398V7.06702" stroke="#4B4B4B" stroke-width="0.5"/>
<path d="M235.18 11.6398V7.06702" stroke="#4B4B4B" stroke-width="0.5"/>
<path d="M236.25 11.6398V7.06702" stroke="#4B4B4B" stroke-width="0.5"/>
<path d="M237.322 11.6398V7.06702" stroke="#4B4B4B" stroke-width="0.5"/>
<path d="M238.395 11.6398V7.06702" stroke="#4B4B4B" stroke-width="0.5"/>
<path d="M239.467 11.6398V7.06702" stroke="#4B4B4B" stroke-width="0.5"/>
<path d="M240.539 11.6398V7.06702" stroke="#4B4B4B" stroke-width="0.5"/>
<path d="M241.613 11.6398V7.06702" stroke="#4B4B4B" stroke-width="0.5"/>
<path d="M242.682 11.6398V7.06702" stroke="#4B4B4B" stroke-width="0.5"/>
<path d="M243.754 11.6398V4.1571" stroke="#4B4B4B" stroke-width="0.5"/>
<path d="M244.826 11.6398V7.06702" stroke="#4B4B4B" stroke-width="0.5"/>
<path d="M245.9 11.6398V7.06702" stroke="#4B4B4B" stroke-width="0.5"/>
<path d="M246.971 11.6398V7.06702" stroke="#4B4B4B" stroke-width="0.5"/>
<path d="M248.043 11.6398V7.06702" stroke="#4B4B4B" stroke-width="0.5"/>
<path d="M249.113 11.6398V7.06702" stroke="#4B4B4B" stroke-width="0.5"/>
<path d="M250.186 11.6398V7.06702" stroke="#4B4B4B" stroke-width="0.5"/>
<path d="M251.26 11.6398V7.06702" stroke="#4B4B4B" stroke-width="0.5"/>
<path d="M252.33 11.6398V7.06702" stroke="#4B4B4B" stroke-width="0.5"/>
<path d="M253.402 11.6398V7.06702" stroke="#4B4B4B" stroke-width="0.5"/>
<path d="M254.475 11.6398V7.06702" stroke="#4B4B4B" stroke-width="0.5"/>
<path d="M255.549 11.6398V7.06702" stroke="#4B4B4B" stroke-width="0.5"/>
<path d="M256.617 11.6398V4.1571" stroke="#4B4B4B" stroke-width="0.5"/>
<path d="M257.689 11.6398V7.06702" stroke="#4B4B4B" stroke-width="0.5"/>
<path d="M258.762 11.6398V7.06702" stroke="#4B4B4B" stroke-width="0.5"/>
<path d="M259.836 11.6398V7.06702" stroke="#4B4B4B" stroke-width="0.5"/>
<path d="M260.908 11.6398V7.06702" stroke="#4B4B4B" stroke-width="0.5"/>
<path d="M261.979 11.6398V7.06702" stroke="#4B4B4B" stroke-width="0.5"/>
<path d="M263.049 11.6398V7.06702" stroke="#4B4B4B" stroke-width="0.5"/>
<path d="M264.121 11.6398V7.06702" stroke="#4B4B4B" stroke-width="0.5"/>
<path d="M265.195 11.6398V7.06702" stroke="#4B4B4B" stroke-width="0.5"/>
<path d="M266.268 11.6398V7.06702" stroke="#4B4B4B" stroke-width="0.5"/>
<path d="M267.338 11.6398V7.06702" stroke="#4B4B4B" stroke-width="0.5"/>
<path d="M268.41 11.6398V7.06702" stroke="#4B4B4B" stroke-width="0.5"/>
<path d="M269.482 11.6398V4.1571" stroke="#4B4B4B" stroke-width="0.5"/>
<path d="M270.555 11.6398V7.06702" stroke="#4B4B4B" stroke-width="0.5"/>
<path d="M271.625 11.6398V7.06702" stroke="#4B4B4B" stroke-width="0.5"/>
<path d="M272.697 11.6398V7.06702" stroke="#4B4B4B" stroke-width="0.5"/>
<path d="M273.771 11.6398V7.06702" stroke="#4B4B4B" stroke-width="0.5"/>
<path d="M274.844 11.6398V7.06702" stroke="#4B4B4B" stroke-width="0.5"/>
<path d="M275.914 11.6398V7.06702" stroke="#4B4B4B" stroke-width="0.5"/>
<path d="M276.984 11.6398V7.06702" stroke="#4B4B4B" stroke-width="0.5"/>
<path d="M278.057 11.6398V7.06702" stroke="#4B4B4B" stroke-width="0.5"/>
<path d="M279.131 11.6398V7.06702" stroke="#4B4B4B" stroke-width="0.5"/>
<path d="M280.203 11.6398V7.06702" stroke="#4B4B4B" stroke-width="0.5"/>
<path d="M281.275 11.6398V4.1571" stroke="#4B4B4B" stroke-width="0.5"/>
<path d="M282.344 11.6398V7.06702" stroke="#4B4B4B" stroke-width="0.5"/>
<path d="M283.418 11.6398V7.06702" stroke="#4B4B4B" stroke-width="0.5"/>
<path d="M284.49 11.6398V7.06702" stroke="#4B4B4B" stroke-width="0.5"/>
<path d="M285.562 11.6398V7.06702" stroke="#4B4B4B" stroke-width="0.5"/>
<path d="M286.633 11.6398V7.06702" stroke="#4B4B4B" stroke-width="0.5"/>
<path d="M287.707 11.6398V7.06702" stroke="#4B4B4B" stroke-width="0.5"/>
<path d="M288.777 11.6398V7.06702" stroke="#4B4B4B" stroke-width="0.5"/>
<path d="M289.85 11.6398V7.06702" stroke="#4B4B4B" stroke-width="0.5"/>
<path d="M290.922 11.6398V7.06702" stroke="#4B4B4B" stroke-width="0.5"/>
<path d="M291.992 11.6398V4.1571" stroke="#4B4B4B" stroke-width="0.5"/>
<path d="M293.066 11.6398V7.06702" stroke="#4B4B4B" stroke-width="0.5"/>
<path d="M294.139 11.6398V7.06702" stroke="#4B4B4B" stroke-width="0.5"/>
<path d="M295.209 11.6398V7.06702" stroke="#4B4B4B" stroke-width="0.5"/>
<path d="M296.281 11.6398V7.06702" stroke="#4B4B4B" stroke-width="0.5"/>
<path d="M297.354 11.6398V7.06702" stroke="#4B4B4B" stroke-width="0.5"/>
<path d="M298.426 11.6398V7.06702" stroke="#4B4B4B" stroke-width="0.5"/>
<path d="M299.498 11.6398V7.06702" stroke="#4B4B4B" stroke-width="0.5"/>
<path d="M300.57 11.6398V7.06702" stroke="#4B4B4B" stroke-width="0.5"/>
<path d="M301.639 11.6398V7.06702" stroke="#4B4B4B" stroke-width="0.5"/>
<path d="M302.713 11.6398V4.1571" stroke="#4B4B4B" stroke-width="0.5"/>
<path d="M303.785 11.6398V7.06702" stroke="#4B4B4B" stroke-width="0.5"/>
<path d="M304.857 11.6398V7.06702" stroke="#4B4B4B" stroke-width="0.5"/>
<path d="M305.93 11.6398V7.06702" stroke="#4B4B4B" stroke-width="0.5"/>
<path d="M307.002 11.6398V7.06702" stroke="#4B4B4B" stroke-width="0.5"/>
<path d="M308.072 11.6398V7.06702" stroke="#4B4B4B" stroke-width="0.5"/>
<path d="M309.145 11.6398V7.06702" stroke="#4B4B4B" stroke-width="0.5"/>
<path d="M310.217 11.6398V7.06702" stroke="#4B4B4B" stroke-width="0.5"/>
<path d="M311.291 11.6398V7.06702" stroke="#4B4B4B" stroke-width="0.5"/>
<path d="M312.361 11.6398V7.06702" stroke="#4B4B4B" stroke-width="0.5"/>
<path d="M313.434 11.6398V7.06702" stroke="#4B4B4B" stroke-width="0.5"/>
<path d="M314.506 11.6398V4.1571" stroke="#4B4B4B" stroke-width="0.5"/>
<path d="M315.576 11.6398V7.06702" stroke="#4B4B4B" stroke-width="0.5"/>
<path d="M316.648 11.6398V7.06702" stroke="#4B4B4B" stroke-width="0.5"/>
<path d="M317.721 11.6398V7.06702" stroke="#4B4B4B" stroke-width="0.5"/>
<path d="M318.793 11.6398V7.06702" stroke="#4B4B4B" stroke-width="0.5"/>
<path d="M319.865 11.6398V7.06702" stroke="#4B4B4B" stroke-width="0.5"/>
<path d="M320.939 11.6398V7.06702" stroke="#4B4B4B" stroke-width="0.5"/>
<path d="M322.008 11.6398V7.06702" stroke="#4B4B4B" stroke-width="0.5"/>
<path d="M323.08 11.6398V4.1571" stroke="#4B4B4B" stroke-width="0.5"/>
<path d="M324.152 11.6398V7.06702" stroke="#4B4B4B" stroke-width="0.5"/>
<path d="M325.227 11.6398V7.06702" stroke="#4B4B4B" stroke-width="0.5"/>
<path d="M326.299 11.6398V7.06702" stroke="#4B4B4B" stroke-width="0.5"/>
<path d="M327.369 11.6398V7.06702" stroke="#4B4B4B" stroke-width="0.5"/>
<path d="M328.439 11.6398V7.06702" stroke="#4B4B4B" stroke-width="0.5"/>
<path d="M329.512 11.6398V7.06702" stroke="#4B4B4B" stroke-width="0.5"/>
<path d="M330.586 11.6398V7.06702" stroke="#4B4B4B" stroke-width="0.5"/>
<path d="M331.656 11.6398V7.06702" stroke="#4B4B4B" stroke-width="0.5"/>
<path d="M332.729 11.6398V4.1571" stroke="#4B4B4B" stroke-width="0.5"/>
<path d="M333.801 11.6398V7.06702" stroke="#4B4B4B" stroke-width="0.5"/>
<path d="M334.873 11.6398V7.06702" stroke="#4B4B4B" stroke-width="0.5"/>
<path d="M335.945 11.6398V7.06702" stroke="#4B4B4B" stroke-width="0.5"/>
<path d="M337.016 11.6398V7.06702" stroke="#4B4B4B" stroke-width="0.5"/>
<path d="M338.088 11.6398V7.06702" stroke="#4B4B4B" stroke-width="0.5"/>
<path d="M339.162 11.6398V7.06702" stroke="#4B4B4B" stroke-width="0.5"/>
<path d="M340.234 11.6398V7.06702" stroke="#4B4B4B" stroke-width="0.5"/>
<path d="M341.305 11.6398V7.06702" stroke="#4B4B4B" stroke-width="0.5"/>
<path d="M342.375 11.6398V7.06702" stroke="#4B4B4B" stroke-width="0.5"/>
<path d="M343.447 11.6398V7.06702" stroke="#4B4B4B" stroke-width="0.5"/>
<path d="M344.521 11.6398V4.1571" stroke="#4B4B4B" stroke-width="0.5"/>
<path d="M345.594 11.6398V7.06702" stroke="#4B4B4B" stroke-width="0.5"/>
<path d="M346.664 11.6398V7.06702" stroke="#4B4B4B" stroke-width="0.5"/>
<path d="M347.734 11.6398V7.06702" stroke="#4B4B4B" stroke-width="0.5"/>
<path d="M348.809 11.6398V7.06702" stroke="#4B4B4B" stroke-width="0.5"/>
<path d="M349.881 11.6398V7.06702" stroke="#4B4B4B" stroke-width="0.5"/>
<path d="M350.953 11.6398V7.06702" stroke="#4B4B4B" stroke-width="0.5"/>
<path d="M352.023 11.6398V7.06702" stroke="#4B4B4B" stroke-width="0.5"/>
<path d="M353.098 11.6398V7.06702" stroke="#4B4B4B" stroke-width="0.5"/>
<path d="M354.168 11.6398V7.06702" stroke="#4B4B4B" stroke-width="0.5"/>
<path d="M355.24 11.6398V4.1571" stroke="#4B4B4B" stroke-width="0.5"/>
<path d="M356.312 11.6398V7.06702" stroke="#4B4B4B" stroke-width="0.5"/>
<path d="M357.383 11.6398V7.06702" stroke="#4B4B4B" stroke-width="0.5"/>
<path d="M358.457 11.6398V7.06702" stroke="#4B4B4B" stroke-width="0.5"/>
<path d="M359.529 11.6398V7.06702" stroke="#4B4B4B" stroke-width="0.5"/>
<path d="M360.6 11.6398V7.06702" stroke="#4B4B4B" stroke-width="0.5"/>
<path d="M361.67 11.6398V7.06702" stroke="#4B4B4B" stroke-width="0.5"/>
<path d="M362.744 11.6398V7.06702" stroke="#4B4B4B" stroke-width="0.5"/>
<path d="M11.3984 268.771V21.4901H0.24942V268.771H11.3984Z" stroke="#4B4B4B" stroke-width="0.5"/>
<path d="M11.6484 27.064H7.94193" stroke="#4B4B4B" stroke-width="0.5"/>
<path d="M11.6484 28.1228H7.94193" stroke="#4B4B4B" stroke-width="0.5"/>
<path d="M11.6484 29.1818H7.94193" stroke="#4B4B4B" stroke-width="0.5"/>
<path d="M11.6484 30.2407H7.94193" stroke="#4B4B4B" stroke-width="0.5"/>
<path d="M11.6484 31.2996H7.94193" stroke="#4B4B4B" stroke-width="0.5"/>
<path d="M11.6484 32.3584H4.23543" stroke="#4B4B4B" stroke-width="0.5"/>
<path d="M11.6484 33.4174H7.94193" stroke="#4B4B4B" stroke-width="0.5"/>
<path d="M11.6484 34.4762H7.94193" stroke="#4B4B4B" stroke-width="0.5"/>
<path d="M11.6484 35.5352H7.94193" stroke="#4B4B4B" stroke-width="0.5"/>
<path d="M11.6484 36.5941H7.94193" stroke="#4B4B4B" stroke-width="0.5"/>
<path d="M11.6484 37.6528H7.94193" stroke="#4B4B4B" stroke-width="0.5"/>
<path d="M11.6484 38.7118H7.94193" stroke="#4B4B4B" stroke-width="0.5"/>
<path d="M11.6484 39.7708H7.94193" stroke="#4B4B4B" stroke-width="0.5"/>
<path d="M11.6484 40.8296H7.94193" stroke="#4B4B4B" stroke-width="0.5"/>
<path d="M11.6484 41.8885H4.23543" stroke="#4B4B4B" stroke-width="0.5"/>
<path d="M11.6484 42.9474H7.94193" stroke="#4B4B4B" stroke-width="0.5"/>
<path d="M11.6484 44.0063H7.94193" stroke="#4B4B4B" stroke-width="0.5"/>
<path d="M11.6484 45.0652H7.94193" stroke="#4B4B4B" stroke-width="0.5"/>
<path d="M11.6484 46.1241H7.94193" stroke="#4B4B4B" stroke-width="0.5"/>
<path d="M11.6484 47.183H7.94193" stroke="#4B4B4B" stroke-width="0.5"/>
<path d="M11.6484 48.2418H7.94193" stroke="#4B4B4B" stroke-width="0.5"/>
<path d="M11.6484 49.3008H7.94193" stroke="#4B4B4B" stroke-width="0.5"/>
<path d="M11.6484 50.3596H7.94193" stroke="#4B4B4B" stroke-width="0.5"/>
<path d="M11.6484 51.4186H7.94193" stroke="#4B4B4B" stroke-width="0.5"/>
<path d="M11.6484 52.4774H7.94193" stroke="#4B4B4B" stroke-width="0.5"/>
<path d="M11.6484 53.5364H7.94193" stroke="#4B4B4B" stroke-width="0.5"/>
<path d="M11.6484 54.5952H4.23543" stroke="#4B4B4B" stroke-width="0.5"/>
<path d="M11.6484 55.6542H7.94193" stroke="#4B4B4B" stroke-width="0.5"/>
<path d="M11.6484 56.7131H7.94193" stroke="#4B4B4B" stroke-width="0.5"/>
<path d="M11.6484 57.7719H7.94193" stroke="#4B4B4B" stroke-width="0.5"/>
<path d="M11.6484 58.8308H7.94193" stroke="#4B4B4B" stroke-width="0.5"/>
<path d="M11.6484 59.8896H7.94193" stroke="#4B4B4B" stroke-width="0.5"/>
<path d="M11.6484 60.9485H7.94193" stroke="#4B4B4B" stroke-width="0.5"/>
<path d="M11.6484 62.0074H7.94193" stroke="#4B4B4B" stroke-width="0.5"/>
<path d="M11.6484 63.0664H7.94193" stroke="#4B4B4B" stroke-width="0.5"/>
<path d="M11.6484 64.1252H7.94193" stroke="#4B4B4B" stroke-width="0.5"/>
<path d="M11.6484 65.1842H7.94193" stroke="#4B4B4B" stroke-width="0.5"/>
<path d="M11.6484 66.243H7.94193" stroke="#4B4B4B" stroke-width="0.5"/>
<path d="M11.6484 67.302H7.94193" stroke="#4B4B4B" stroke-width="0.5"/>
<path d="M11.6484 68.3608H4.23543" stroke="#4B4B4B" stroke-width="0.5"/>
<path d="M11.6484 69.4198H7.94193" stroke="#4B4B4B" stroke-width="0.5"/>
<path d="M11.6484 70.4786H7.94193" stroke="#4B4B4B" stroke-width="0.5"/>
<path d="M11.6484 71.5375H7.94193" stroke="#4B4B4B" stroke-width="0.5"/>
<path d="M11.6484 72.5964H7.94193" stroke="#4B4B4B" stroke-width="0.5"/>
<path d="M11.6484 73.6553H7.94193" stroke="#4B4B4B" stroke-width="0.5"/>
<path d="M11.6484 74.7142H7.94193" stroke="#4B4B4B" stroke-width="0.5"/>
<path d="M11.6484 75.7732H7.94193" stroke="#4B4B4B" stroke-width="0.5"/>
<path d="M11.6484 76.832H7.94193" stroke="#4B4B4B" stroke-width="0.5"/>
<path d="M11.6484 77.8909H7.94193" stroke="#4B4B4B" stroke-width="0.5"/>
<path d="M11.6484 78.9498H7.94193" stroke="#4B4B4B" stroke-width="0.5"/>
<path d="M11.6484 80.0087H7.94193" stroke="#4B4B4B" stroke-width="0.5"/>
<path d="M11.6484 81.0676H7.94193" stroke="#4B4B4B" stroke-width="0.5"/>
<path d="M11.6484 82.1265H7.94193" stroke="#4B4B4B" stroke-width="0.5"/>
<path d="M11.6484 83.1853H7.94193" stroke="#4B4B4B" stroke-width="0.5"/>
<path d="M11.6484 84.2443H7.94193" stroke="#4B4B4B" stroke-width="0.5"/>
<path d="M11.6484 85.3032H7.94193" stroke="#4B4B4B" stroke-width="0.5"/>
<path d="M11.6484 86.3621H4.23543" stroke="#4B4B4B" stroke-width="0.5"/>
<path d="M11.6484 87.4209H7.94193" stroke="#4B4B4B" stroke-width="0.5"/>
<path d="M11.6484 88.4799H7.94193" stroke="#4B4B4B" stroke-width="0.5"/>
<path d="M11.6484 89.5387H7.94193" stroke="#4B4B4B" stroke-width="0.5"/>
<path d="M11.6484 90.5975H7.94193" stroke="#4B4B4B" stroke-width="0.5"/>
<path d="M11.6484 91.6565H7.94193" stroke="#4B4B4B" stroke-width="0.5"/>
<path d="M11.6484 92.7153H7.94193" stroke="#4B4B4B" stroke-width="0.5"/>
<path d="M11.6484 93.7743H7.94193" stroke="#4B4B4B" stroke-width="0.5"/>
<path d="M11.6484 94.8333H7.94193" stroke="#4B4B4B" stroke-width="0.5"/>
<path d="M11.6484 95.8921H7.94193" stroke="#4B4B4B" stroke-width="0.5"/>
<path d="M11.6484 96.9509H7.94193" stroke="#4B4B4B" stroke-width="0.5"/>
<path d="M11.6484 98.0099H7.94193" stroke="#4B4B4B" stroke-width="0.5"/>
<path d="M11.6484 99.0687H7.94193" stroke="#4B4B4B" stroke-width="0.5"/>
<path d="M11.6484 100.128H7.94193" stroke="#4B4B4B" stroke-width="0.5"/>
<path d="M11.6484 101.187H4.23543" stroke="#4B4B4B" stroke-width="0.5"/>
<path d="M11.6484 102.245H7.94193" stroke="#4B4B4B" stroke-width="0.5"/>
<path d="M11.6484 103.304H7.94193" stroke="#4B4B4B" stroke-width="0.5"/>
<path d="M11.6484 104.363H7.94193" stroke="#4B4B4B" stroke-width="0.5"/>
<path d="M11.6484 105.422H7.94193" stroke="#4B4B4B" stroke-width="0.5"/>
<path d="M11.6484 106.481H7.94193" stroke="#4B4B4B" stroke-width="0.5"/>
<path d="M11.6484 107.54H7.94193" stroke="#4B4B4B" stroke-width="0.5"/>
<path d="M11.6484 108.599H7.94193" stroke="#4B4B4B" stroke-width="0.5"/>
<path d="M11.6484 109.658H7.94193" stroke="#4B4B4B" stroke-width="0.5"/>
<path d="M11.6484 110.717H4.23543" stroke="#4B4B4B" stroke-width="0.5"/>
<path d="M11.6484 111.776H7.94193" stroke="#4B4B4B" stroke-width="0.5"/>
<path d="M11.6484 112.834H7.94193" stroke="#4B4B4B" stroke-width="0.5"/>
<path d="M11.6484 113.893H7.94193" stroke="#4B4B4B" stroke-width="0.5"/>
<path d="M11.6484 114.952H7.94193" stroke="#4B4B4B" stroke-width="0.5"/>
<path d="M11.6484 116.011H7.94193" stroke="#4B4B4B" stroke-width="0.5"/>
<path d="M11.6484 117.07H7.94193" stroke="#4B4B4B" stroke-width="0.5"/>
<path d="M11.6484 118.129H7.94193" stroke="#4B4B4B" stroke-width="0.5"/>
<path d="M11.6484 119.188H7.94193" stroke="#4B4B4B" stroke-width="0.5"/>
<path d="M11.6484 120.247H4.23543" stroke="#4B4B4B" stroke-width="0.5"/>
<path d="M11.6484 121.305H7.94193" stroke="#4B4B4B" stroke-width="0.5"/>
<path d="M11.6484 122.364H7.94193" stroke="#4B4B4B" stroke-width="0.5"/>
<path d="M11.6484 123.423H7.94193" stroke="#4B4B4B" stroke-width="0.5"/>
<path d="M11.6484 124.482H7.94193" stroke="#4B4B4B" stroke-width="0.5"/>
<path d="M11.6484 125.541H7.94193" stroke="#4B4B4B" stroke-width="0.5"/>
<path d="M11.6484 126.6H7.94193" stroke="#4B4B4B" stroke-width="0.5"/>
<path d="M11.6484 127.659H7.94193" stroke="#4B4B4B" stroke-width="0.5"/>
<path d="M11.6484 128.718H7.94193" stroke="#4B4B4B" stroke-width="0.5"/>
<path d="M11.6484 129.777H7.94193" stroke="#4B4B4B" stroke-width="0.5"/>
<path d="M11.6484 130.835H7.94193" stroke="#4B4B4B" stroke-width="0.5"/>
<path d="M11.6484 131.894H7.94193" stroke="#4B4B4B" stroke-width="0.5"/>
<path d="M11.6484 132.953H4.23543" stroke="#4B4B4B" stroke-width="0.5"/>
<path d="M11.6484 134.012H7.94193" stroke="#4B4B4B" stroke-width="0.5"/>
<path d="M11.6484 135.071H7.94193" stroke="#4B4B4B" stroke-width="0.5"/>
<path d="M11.6484 136.13H7.94193" stroke="#4B4B4B" stroke-width="0.5"/>
<path d="M11.6484 137.189H7.94193" stroke="#4B4B4B" stroke-width="0.5"/>
<path d="M11.6484 138.248H7.94193" stroke="#4B4B4B" stroke-width="0.5"/>
<path d="M11.6484 139.307H7.94193" stroke="#4B4B4B" stroke-width="0.5"/>
<path d="M11.6484 140.366H7.94193" stroke="#4B4B4B" stroke-width="0.5"/>
<path d="M11.6484 141.424H7.94193" stroke="#4B4B4B" stroke-width="0.5"/>
<path d="M11.6484 142.483H7.94193" stroke="#4B4B4B" stroke-width="0.5"/>
<path d="M11.6484 143.542H7.94193" stroke="#4B4B4B" stroke-width="0.5"/>
<path d="M11.6484 144.601H4.23543" stroke="#4B4B4B" stroke-width="0.5"/>
<path d="M11.6484 145.66H7.94193" stroke="#4B4B4B" stroke-width="0.5"/>
<path d="M11.6484 146.719H7.94193" stroke="#4B4B4B" stroke-width="0.5"/>
<path d="M11.6484 147.778H7.94193" stroke="#4B4B4B" stroke-width="0.5"/>
<path d="M11.6484 148.837H7.94193" stroke="#4B4B4B" stroke-width="0.5"/>
<path d="M11.6484 149.896H7.94193" stroke="#4B4B4B" stroke-width="0.5"/>
<path d="M11.6484 150.955H7.94193" stroke="#4B4B4B" stroke-width="0.5"/>
<path d="M11.6484 152.013H7.94193" stroke="#4B4B4B" stroke-width="0.5"/>
<path d="M11.6484 153.072H7.94193" stroke="#4B4B4B" stroke-width="0.5"/>
<path d="M11.6484 154.131H4.23543" stroke="#4B4B4B" stroke-width="0.5"/>
<path d="M11.6484 155.19H7.94193" stroke="#4B4B4B" stroke-width="0.5"/>
<path d="M11.6484 156.249H7.94193" stroke="#4B4B4B" stroke-width="0.5"/>
<path d="M11.6484 157.308H7.94193" stroke="#4B4B4B" stroke-width="0.5"/>
<path d="M11.6484 158.367H7.94193" stroke="#4B4B4B" stroke-width="0.5"/>
<path d="M11.6484 159.426H7.94193" stroke="#4B4B4B" stroke-width="0.5"/>
<path d="M11.6484 160.484H7.94193" stroke="#4B4B4B" stroke-width="0.5"/>
<path d="M11.6484 161.543H7.94193" stroke="#4B4B4B" stroke-width="0.5"/>
<path d="M11.6484 162.602H7.94193" stroke="#4B4B4B" stroke-width="0.5"/>
<path d="M11.6484 163.661H7.94193" stroke="#4B4B4B" stroke-width="0.5"/>
<path d="M11.6484 164.72H4.23543" stroke="#4B4B4B" stroke-width="0.5"/>
<path d="M11.6484 165.779H7.94193" stroke="#4B4B4B" stroke-width="0.5"/>
<path d="M11.6484 166.838H7.94193" stroke="#4B4B4B" stroke-width="0.5"/>
<path d="M11.6484 167.897H7.94193" stroke="#4B4B4B" stroke-width="0.5"/>
<path d="M11.6484 168.956H7.94193" stroke="#4B4B4B" stroke-width="0.5"/>
<path d="M11.6484 170.015H7.94193" stroke="#4B4B4B" stroke-width="0.5"/>
<path d="M11.6484 171.073H7.94193" stroke="#4B4B4B" stroke-width="0.5"/>
<path d="M11.6484 172.132H7.94193" stroke="#4B4B4B" stroke-width="0.5"/>
<path d="M11.6484 173.191H4.23543" stroke="#4B4B4B" stroke-width="0.5"/>
<path d="M11.6484 174.25H7.94193" stroke="#4B4B4B" stroke-width="0.5"/>
<path d="M11.6484 175.309H7.94193" stroke="#4B4B4B" stroke-width="0.5"/>
<path d="M11.6484 176.368H7.94193" stroke="#4B4B4B" stroke-width="0.5"/>
<path d="M11.6484 177.427H7.94193" stroke="#4B4B4B" stroke-width="0.5"/>
<path d="M11.6484 178.486H7.94193" stroke="#4B4B4B" stroke-width="0.5"/>
<path d="M11.6484 179.545H7.94193" stroke="#4B4B4B" stroke-width="0.5"/>
<path d="M11.6484 180.603H7.94193" stroke="#4B4B4B" stroke-width="0.5"/>
<path d="M11.6484 181.662H7.94193" stroke="#4B4B4B" stroke-width="0.5"/>
<path d="M11.6484 182.721H7.94193" stroke="#4B4B4B" stroke-width="0.5"/>
<path d="M11.6484 183.78H4.23543" stroke="#4B4B4B" stroke-width="0.5"/>
<path d="M11.6484 184.839H7.94193" stroke="#4B4B4B" stroke-width="0.5"/>
<path d="M11.6484 185.898H7.94193" stroke="#4B4B4B" stroke-width="0.5"/>
<path d="M11.6484 186.957H7.94193" stroke="#4B4B4B" stroke-width="0.5"/>
<path d="M11.6484 188.016H7.94193" stroke="#4B4B4B" stroke-width="0.5"/>
<path d="M11.6484 189.075H7.94193" stroke="#4B4B4B" stroke-width="0.5"/>
<path d="M11.6484 190.134H7.94193" stroke="#4B4B4B" stroke-width="0.5"/>
<path d="M11.6484 191.193H7.94193" stroke="#4B4B4B" stroke-width="0.5"/>
<path d="M11.6484 192.251H7.94193" stroke="#4B4B4B" stroke-width="0.5"/>
<path d="M11.6484 193.31H4.23543" stroke="#4B4B4B" stroke-width="0.5"/>
<path d="M11.6484 194.369H7.94193" stroke="#4B4B4B" stroke-width="0.5"/>
<path d="M11.6484 195.428H7.94193" stroke="#4B4B4B" stroke-width="0.5"/>
<path d="M11.6484 196.487H7.94193" stroke="#4B4B4B" stroke-width="0.5"/>
<path d="M11.6484 197.546H7.94193" stroke="#4B4B4B" stroke-width="0.5"/>
<path d="M11.6484 198.605H7.94193" stroke="#4B4B4B" stroke-width="0.5"/>
<path d="M11.6484 199.664H7.94193" stroke="#4B4B4B" stroke-width="0.5"/>
<path d="M11.6484 200.723H7.94193" stroke="#4B4B4B" stroke-width="0.5"/>
<path d="M11.6484 201.781H7.94193" stroke="#4B4B4B" stroke-width="0.5"/>
<path d="M11.6484 202.84H7.94193" stroke="#4B4B4B" stroke-width="0.5"/>
<path d="M11.6484 203.899H7.94193" stroke="#4B4B4B" stroke-width="0.5"/>
<path d="M11.6484 204.958H7.94193" stroke="#4B4B4B" stroke-width="0.5"/>
<path d="M11.6484 206.017H4.23543" stroke="#4B4B4B" stroke-width="0.5"/>
<path d="M11.6484 207.076H7.94193" stroke="#4B4B4B" stroke-width="0.5"/>
<path d="M11.6484 208.135H7.94193" stroke="#4B4B4B" stroke-width="0.5"/>
<path d="M11.6484 209.194H7.94193" stroke="#4B4B4B" stroke-width="0.5"/>
<path d="M11.6484 210.253H7.94193" stroke="#4B4B4B" stroke-width="0.5"/>
<path d="M11.6484 211.311H7.94193" stroke="#4B4B4B" stroke-width="0.5"/>
<path d="M11.6484 212.37H7.94193" stroke="#4B4B4B" stroke-width="0.5"/>
<path d="M11.6484 213.429H7.94193" stroke="#4B4B4B" stroke-width="0.5"/>
<path d="M11.6484 214.488H7.94193" stroke="#4B4B4B" stroke-width="0.5"/>
<path d="M11.6484 215.547H4.23543" stroke="#4B4B4B" stroke-width="0.5"/>
<path d="M11.6484 216.606H7.94193" stroke="#4B4B4B" stroke-width="0.5"/>
<path d="M11.6484 217.665H7.94193" stroke="#4B4B4B" stroke-width="0.5"/>
<path d="M11.6484 218.724H7.94193" stroke="#4B4B4B" stroke-width="0.5"/>
<path d="M11.6484 219.783H7.94193" stroke="#4B4B4B" stroke-width="0.5"/>
<path d="M11.6484 220.841H7.94193" stroke="#4B4B4B" stroke-width="0.5"/>
<path d="M11.6484 221.9H7.94193" stroke="#4B4B4B" stroke-width="0.5"/>
<path d="M11.6484 222.959H7.94193" stroke="#4B4B4B" stroke-width="0.5"/>
<path d="M11.6484 224.018H7.94193" stroke="#4B4B4B" stroke-width="0.5"/>
<path d="M11.6484 225.077H4.23543" stroke="#4B4B4B" stroke-width="0.5"/>
<path d="M11.6484 226.136H7.94193" stroke="#4B4B4B" stroke-width="0.5"/>
<path d="M11.6484 227.195H7.94193" stroke="#4B4B4B" stroke-width="0.5"/>
<path d="M11.6484 228.254H7.94193" stroke="#4B4B4B" stroke-width="0.5"/>
<path d="M11.6484 229.313H7.94193" stroke="#4B4B4B" stroke-width="0.5"/>
<path d="M11.6484 230.372H7.94193" stroke="#4B4B4B" stroke-width="0.5"/>
<path d="M11.6484 231.43H7.94193" stroke="#4B4B4B" stroke-width="0.5"/>
<path d="M11.6484 232.489H7.94193" stroke="#4B4B4B" stroke-width="0.5"/>
<path d="M11.6484 233.548H7.94193" stroke="#4B4B4B" stroke-width="0.5"/>
<path d="M11.6484 234.607H4.23543" stroke="#4B4B4B" stroke-width="0.5"/>
<path d="M11.6484 235.666H7.94193" stroke="#4B4B4B" stroke-width="0.5"/>
<path d="M11.6484 236.725H7.94193" stroke="#4B4B4B" stroke-width="0.5"/>
<path d="M11.6484 237.784H7.94193" stroke="#4B4B4B" stroke-width="0.5"/>
<path d="M11.6484 238.843H7.94193" stroke="#4B4B4B" stroke-width="0.5"/>
<path d="M11.6484 239.902H7.94193" stroke="#4B4B4B" stroke-width="0.5"/>
<path d="M11.6484 240.96H7.94193" stroke="#4B4B4B" stroke-width="0.5"/>
<path d="M11.6484 242.019H7.94193" stroke="#4B4B4B" stroke-width="0.5"/>
<path d="M11.6484 243.078H7.94193" stroke="#4B4B4B" stroke-width="0.5"/>
<path d="M11.6484 244.137H4.23543" stroke="#4B4B4B" stroke-width="0.5"/>
<path d="M11.6484 245.196H7.94193" stroke="#4B4B4B" stroke-width="0.5"/>
<path d="M11.6484 246.255H7.94193" stroke="#4B4B4B" stroke-width="0.5"/>
<path d="M11.6484 247.314H7.94193" stroke="#4B4B4B" stroke-width="0.5"/>
<path d="M11.6484 248.373H7.94193" stroke="#4B4B4B" stroke-width="0.5"/>
<path d="M11.6484 249.432H7.94193" stroke="#4B4B4B" stroke-width="0.5"/>
<path d="M11.6484 250.49H7.94193" stroke="#4B4B4B" stroke-width="0.5"/>
<path d="M11.6484 251.549H7.94193" stroke="#4B4B4B" stroke-width="0.5"/>
<path d="M11.6484 252.608H7.94193" stroke="#4B4B4B" stroke-width="0.5"/>
<path d="M11.6484 253.667H4.23543" stroke="#4B4B4B" stroke-width="0.5"/>
<path d="M11.6484 254.726H7.94193" stroke="#4B4B4B" stroke-width="0.5"/>
<path d="M11.6484 255.785H7.94193" stroke="#4B4B4B" stroke-width="0.5"/>
<path d="M11.6484 256.844H7.94193" stroke="#4B4B4B" stroke-width="0.5"/>
<path d="M11.6484 257.903H7.94193" stroke="#4B4B4B" stroke-width="0.5"/>
<path d="M11.6484 258.962H7.94193" stroke="#4B4B4B" stroke-width="0.5"/>
<path d="M11.6484 260.021H7.94193" stroke="#4B4B4B" stroke-width="0.5"/>
<path d="M11.6484 261.079H4.23543" stroke="#4B4B4B" stroke-width="0.5"/>
<path d="M11.6484 262.138H7.94193" stroke="#4B4B4B" stroke-width="0.5"/>
<path d="M11.6484 263.197H7.94193" stroke="#4B4B4B" stroke-width="0.5"/>
<path d="M11.6484 264.256H7.94193" stroke="#4B4B4B" stroke-width="0.5"/>
<path d="M11.6484 265.315H7.94193" stroke="#4B4B4B" stroke-width="0.5"/>
<path d="M142.698 275.09L143.499 282.775L148.661 283.385V274.272L142.698 275.09Z" fill="white"/>
<path d="M148.661 283.729C148.647 283.729 148.634 283.729 148.62 283.726L143.458 283.117C143.298 283.098 143.171 282.971 143.155 282.81L142.353 275.124C142.335 274.939 142.465 274.772 142.649 274.747L148.614 273.929C148.712 273.915 148.813 273.945 148.888 274.01C148.963 274.076 149.005 274.17 149.005 274.27V283.383C149.005 283.482 148.963 283.576 148.889 283.641C148.827 283.698 148.744 283.729 148.661 283.729V283.729ZM143.813 282.465L148.316 282.996V274.667L143.075 275.386L143.813 282.464V282.465Z" fill="black"/>
<path d="M149.161 290.633C147.009 290.798 143.481 290.942 139.338 290.63C137.983 290.528 137.084 289.814 137.411 289.094C138.323 287.083 139.894 283.268 142.591 281.499L143.261 282.458L144.187 281.555C144.314 281.432 144.541 281.348 144.799 281.331L146.826 281.191C147.249 281.163 147.644 281.315 147.731 281.541L148.054 282.373L149.29 281.282L149.838 285.355C149.956 286.228 150.198 287.095 150.565 287.946L151.118 289.231C151.282 289.911 150.413 290.538 149.161 290.634V290.633Z" fill="white"/>
<path d="M144.282 291C142.771 291 141.087 290.949 139.29 290.814C138.55 290.759 137.882 290.535 137.461 290.2C137.038 289.864 136.897 289.444 137.076 289.049L137.271 288.613C138.202 286.536 139.762 283.06 142.324 281.38C142.403 281.328 142.525 281.302 142.647 281.315C142.769 281.326 142.869 281.37 142.913 281.433L143.32 282.014L143.884 281.464C144.064 281.289 144.39 281.169 144.755 281.144L146.782 281.005C147.379 280.965 147.944 281.182 148.068 281.5L148.212 281.873L148.993 281.183C149.072 281.114 149.224 281.08 149.369 281.099C149.515 281.119 149.622 281.186 149.632 281.266L150.181 285.34C150.297 286.2 150.539 287.062 150.9 287.903L151.453 289.188C151.648 289.984 150.638 290.707 149.21 290.816C147.942 290.913 146.257 290.999 144.281 290.999L144.282 291ZM142.489 281.878C140.241 283.577 138.814 286.76 137.943 288.701L137.748 289.138C137.614 289.431 137.719 289.742 138.033 289.991C138.344 290.239 138.838 290.405 139.386 290.446C143.454 290.752 146.921 290.617 149.114 290.449C150.171 290.368 150.917 289.832 150.776 289.255L150.229 287.988C149.86 287.129 149.612 286.248 149.495 285.368L149.023 281.873L148.348 282.469C148.275 282.534 148.134 282.568 147.996 282.555C147.856 282.542 147.745 282.484 147.717 282.41L147.394 281.578C147.343 281.445 147.115 281.357 146.871 281.375L144.844 281.515C144.696 281.525 144.562 281.574 144.489 281.645L143.563 282.548C143.497 282.611 143.372 282.648 143.236 282.643C143.101 282.638 142.985 282.591 142.938 282.524L142.487 281.879L142.489 281.878Z" fill="black"/>
<path d="M144.786 289.757C143.505 289.757 141.981 289.624 140.268 289.231C140.081 289.189 139.965 289.004 140.009 288.818C140.052 288.631 140.236 288.514 140.423 288.559C145.443 289.71 148.846 288.523 148.881 288.511C149.059 288.445 149.257 288.539 149.322 288.717C149.387 288.896 149.294 289.093 149.116 289.159C149.018 289.195 147.418 289.757 144.788 289.757H144.786Z" fill="black"/>
<path d="M142.293 283.852C142.108 283.852 141.955 283.705 141.948 283.519C141.942 283.328 142.091 283.17 142.282 283.163L147.12 283.002C147.313 282.98 147.47 283.145 147.476 283.336C147.482 283.527 147.333 283.685 147.142 283.691L142.304 283.852C142.304 283.852 142.296 283.852 142.291 283.852H142.293Z" fill="black"/>
<path d="M166.876 270.999L167.65 282.213H173.862L174.151 270.999H166.876Z" fill="white"/>
<path d="M173.861 282.557H167.649C167.468 282.557 167.317 282.417 167.305 282.236L166.531 271.022C166.525 270.926 166.558 270.832 166.623 270.763C166.689 270.693 166.78 270.654 166.876 270.654H174.149C174.242 270.654 174.331 270.691 174.397 270.757C174.463 270.825 174.497 270.914 174.496 271.006L174.207 282.221C174.203 282.407 174.049 282.557 173.863 282.557H173.861ZM167.972 281.868H173.526L173.797 271.343H167.247L167.974 281.868H167.972Z" fill="black"/>
<path d="M174.161 289.633C172.009 289.798 168.481 289.942 164.338 289.63C162.983 289.528 162.084 288.814 162.411 288.094C163.323 286.083 164.894 282.268 167.591 280.499L168.261 281.458L169.187 280.555C169.314 280.432 169.541 280.348 169.799 280.331L171.826 280.191C172.249 280.163 172.644 280.315 172.731 280.541L173.054 281.373L174.29 280.282L174.838 284.355C174.956 285.228 175.198 286.095 175.565 286.946L176.118 288.231C176.282 288.911 175.413 289.538 174.161 289.634V289.633Z" fill="white"/>
<path d="M169.282 290C167.771 290 166.087 289.949 164.29 289.814C163.55 289.759 162.882 289.535 162.461 289.2C162.038 288.864 161.897 288.444 162.076 288.049L162.271 287.613C163.202 285.536 164.762 282.06 167.324 280.38C167.403 280.328 167.525 280.302 167.647 280.315C167.769 280.326 167.869 280.37 167.913 280.433L168.32 281.014L168.884 280.464C169.064 280.289 169.39 280.169 169.755 280.144L171.782 280.005C172.379 279.965 172.944 280.182 173.068 280.5L173.212 280.873L173.993 280.183C174.072 280.114 174.224 280.08 174.369 280.099C174.515 280.119 174.622 280.186 174.632 280.266L175.181 284.34C175.297 285.2 175.539 286.062 175.9 286.903L176.453 288.188C176.648 288.984 175.638 289.707 174.21 289.816C172.942 289.913 171.257 289.999 169.281 289.999L169.282 290ZM167.489 280.878C165.241 282.577 163.814 285.76 162.943 287.701L162.748 288.138C162.614 288.431 162.719 288.742 163.033 288.991C163.344 289.239 163.838 289.405 164.386 289.446C168.454 289.752 171.921 289.617 174.114 289.449C175.171 289.368 175.917 288.832 175.776 288.255L175.229 286.988C174.86 286.129 174.612 285.248 174.495 284.368L174.023 280.873L173.348 281.469C173.275 281.534 173.134 281.568 172.996 281.555C172.856 281.542 172.745 281.484 172.717 281.41L172.394 280.578C172.343 280.445 172.115 280.357 171.871 280.375L169.844 280.515C169.696 280.525 169.562 280.574 169.489 280.645L168.563 281.548C168.497 281.611 168.372 281.648 168.236 281.643C168.101 281.638 167.985 281.591 167.938 281.524L167.487 280.879L167.489 280.878Z" fill="black"/>
<path d="M169.786 288.757C168.505 288.757 166.981 288.624 165.268 288.231C165.081 288.189 164.965 288.004 165.009 287.818C165.052 287.631 165.236 287.514 165.423 287.559C170.443 288.71 173.846 287.523 173.881 287.511C174.059 287.445 174.257 287.539 174.322 287.717C174.387 287.896 174.294 288.093 174.116 288.159C174.018 288.195 172.418 288.757 169.788 288.757H169.786Z" fill="black"/>
<path d="M167.293 282.852C167.108 282.852 166.955 282.705 166.948 282.519C166.942 282.328 167.091 282.17 167.282 282.163L172.12 282.002C172.313 281.98 172.47 282.145 172.476 282.336C172.482 282.527 172.333 282.685 172.142 282.691L167.304 282.852C167.304 282.852 167.296 282.852 167.291 282.852H167.293Z" fill="black"/>
<path d="M140.937 197.886C140.937 197.886 139.012 232.946 138.005 245.048C136.998 257.151 140.36 276.606 140.36 276.606L149.949 276.098C149.949 276.098 150.607 252.444 151.318 245.875C151.318 245.875 155.368 236.971 156.568 229.029C157.768 221.086 161.857 208.542 161.857 208.542C161.857 208.542 165.178 271.154 165.497 276.073C165.497 276.073 173.016 276.41 175.711 274.703C175.711 274.703 180.488 251.873 179.802 239.451C179.116 227.029 179.87 196.168 179.87 196.168L140.935 197.886H140.937Z" fill="white"/>
<path d="M140.36 276.95C140.194 276.95 140.048 276.83 140.02 276.664C139.985 276.469 136.662 257.027 137.661 245.019C138.655 233.059 140.573 198.217 140.593 197.866C140.602 197.689 140.745 197.548 140.922 197.54L179.856 195.822C179.955 195.814 180.044 195.853 180.113 195.921C180.182 195.988 180.22 196.08 180.217 196.176C180.209 196.485 179.471 227.166 180.149 239.432C180.829 251.755 176.1 274.545 176.052 274.773C176.033 274.864 175.978 274.944 175.898 274.994C173.142 276.739 165.796 276.43 165.484 276.418C165.309 276.41 165.166 276.271 165.155 276.095C164.87 271.716 162.175 220.98 161.616 210.459C160.449 214.223 157.824 223.041 156.91 229.08C155.764 236.666 151.988 245.224 151.656 245.966C150.955 252.521 150.301 275.871 150.294 276.108C150.29 276.288 150.147 276.433 149.967 276.443L140.378 276.95C140.378 276.95 140.366 276.95 140.36 276.95V276.95ZM141.263 198.217C141.069 201.732 139.293 233.715 138.347 245.077C137.423 256.178 140.231 273.732 140.648 276.244L149.612 275.769C149.693 272.925 150.313 251.929 150.974 245.838C150.979 245.802 150.988 245.766 151.002 245.731C151.043 245.642 155.047 236.777 156.226 228.975C157.416 221.097 161.487 208.559 161.528 208.434C161.579 208.275 161.739 208.175 161.901 208.199C162.065 208.221 162.19 208.357 162.2 208.523C162.233 209.138 165.407 269.005 165.821 275.738C167.227 275.776 173.046 275.846 175.403 274.485C175.809 272.505 180.104 251.187 179.457 239.469C178.818 227.91 179.433 200.065 179.515 196.528L141.262 198.217H141.263Z" fill="black"/>
<path d="M149.551 246.218H146.621C146.43 246.218 146.276 246.063 146.276 245.874C146.276 245.684 146.431 245.529 146.621 245.529H149.551C149.743 245.529 149.896 245.684 149.896 245.874C149.896 246.063 149.741 246.218 149.551 246.218Z" fill="black"/>
<path d="M170.429 264.428H170.422C170.231 264.425 170.081 264.267 170.084 264.077C170.191 258.277 176.507 247.89 176.777 247.45C176.875 247.288 177.088 247.235 177.251 247.335C177.414 247.434 177.466 247.647 177.366 247.81C177.301 247.916 170.877 258.476 170.775 264.09C170.772 264.278 170.618 264.428 170.43 264.428H170.429Z" fill="black"/>
<path d="M166.133 130.458C166.133 130.458 163.615 128.908 163.64 128.002L162.921 123.351C162.913 122.925 163.176 122.542 163.572 122.403L165 120.5C165.379 120.365 165.625 119.991 165.598 119.584L166.5 117V116C166.591 115.919 166.603 115.779 166.525 115.685L166.266 113.171C165.663 112.322 165.059 110.291 164.564 110.429C164.564 110.429 154.056 109.215 153.543 114.514C153.47 115.281 153.7 116.047 154.145 116.674L155.075 117.986C156.01 119.303 156.502 120.918 156.336 122.533C156.302 122.868 155.865 125.028 155.573 126.456C155.407 127.268 154.958 127.988 154.305 128.491C153.484 129.124 152.485 129.929 152.647 129.981C152.647 129.981 153.811 130.836 155.648 131.592C158.911 132.938 162.622 132.603 165.635 130.762L166.135 130.457L166.133 130.458Z" fill="white"/>
<path d="M159.794 132.753C158.337 132.753 156.884 132.476 155.518 131.912C153.663 131.147 152.493 130.295 152.445 130.259C152.368 130.203 152.307 130.114 152.291 130.023C152.25 129.788 152.227 129.658 154.096 128.219C154.683 127.766 155.089 127.116 155.237 126.388C155.864 123.329 155.981 122.638 155.995 122.499C156.147 121.022 155.721 119.49 154.797 118.187L153.867 116.874C153.359 116.158 153.123 115.309 153.204 114.481C153.309 113.395 153.807 112.487 154.684 111.777C157.61 109.412 163.855 110.006 164.552 110.081C165.092 110.003 165.454 110.772 165.902 111.735C166.117 112.199 166.341 112.676 166.551 112.972L166.966 115.045C167.161 115.285 167.135 115.632 166.903 115.838L166.787 116.974L166.586 118.032C166.62 118.591 166.029 120.315 165.506 120.5L164.73 121.653C164.483 121.741 163.274 123.055 163.271 123.324L163.985 127.949C163.988 127.97 163.99 127.99 163.99 128.012C163.979 128.435 165.185 129.465 166.32 130.164C166.422 130.227 166.485 130.338 166.485 130.458C166.485 130.579 166.422 130.69 166.319 130.753L165.819 131.057C163.979 132.18 161.886 132.751 159.798 132.751L159.794 132.753ZM153.132 129.893C153.576 130.183 154.518 130.754 155.779 131.273C158.902 132.56 162.519 132.26 165.456 130.468L165.486 130.449C164.652 129.888 163.312 128.859 163.296 128.027L162.582 123.402C162.579 123.387 162.579 123.371 162.577 123.355C162.568 122.78 163.963 121.19 164.5 121L165.276 119.845C165.506 119.764 165.909 118.325 165.893 118.071L166.086 116.845C166.079 116.739 166.122 116.635 166.202 116.565L166.359 115.393L166.001 113.388C165.739 113.021 165.503 112.514 165.276 112.022C165.081 111.604 164.76 110.914 164.585 110.77C164.566 110.77 164.546 110.77 164.527 110.769C164.461 110.761 157.928 110.039 155.117 112.311C154.379 112.908 153.977 113.638 153.889 114.545C153.825 115.208 154.017 115.892 154.428 116.472L155.358 117.784C156.379 119.223 156.849 120.921 156.68 122.566C156.652 122.835 156.393 124.167 155.911 126.522C155.729 127.412 155.233 128.208 154.515 128.76C153.723 129.371 153.328 129.708 153.132 129.89V129.893Z" fill="black"/>
<path d="M164.914 102.366C162.519 102.242 165.547 104.71 156.677 102.16C153.145 101.145 154.959 105.29 154.043 105.028C150.657 104.065 150.772 104.093 149.126 104.543C148.036 104.84 147.341 106.88 147.558 108.397C147.845 110.402 150.093 113.583 152.107 116.948C153.15 118.689 153.766 121.092 156 118.5C158.5 119.5 158.866 119.2 159.5 118.5C161.148 116.678 163.5 118.255 164.5 117.5C165.5 116.745 166.15 114.968 167.5 113.734C169.134 112.241 168.125 111.987 169.071 108.629C169.565 106.878 168.194 102.532 164.916 102.364L164.914 102.366Z" fill="black"/>
<path d="M186.353 142.37C186.885 142.335 191.197 149.984 193.222 153.634C193.798 154.673 195.111 155.025 196.126 154.418L212.514 144.619C213.852 143.818 215.006 142.738 215.881 141.444C217.267 139.396 218.105 137.306 219.941 135.862C221.434 134.688 222.949 133.383 223.402 133.042C223.685 132.828 224.975 133.774 223.97 135.407C223.66 135.909 222.52 136.919 222.205 137.38C221.702 138.115 221.688 139.105 222.225 139.814C222.797 140.571 223.267 141.779 222.589 143.439C221.586 145.897 219.383 146.477 218.139 146.603C217.515 146.666 216.936 146.96 216.515 147.429L201.281 164.395C198.918 167.028 195.021 167.574 192.033 165.691C187.202 162.645 181.011 156.556 176.597 148.908L186.352 142.363L186.353 142.37Z" fill="white"/>
<path d="M195.783 167.157C194.43 167.138 193.069 166.754 191.851 165.986C187.446 163.209 181.048 157.31 176.3 149.084C176.21 148.927 176.257 148.726 176.407 148.625L186.162 142.08C186.212 142.047 186.27 142.027 186.332 142.023C186.658 142.006 187.148 141.977 193.525 153.465C193.759 153.885 194.142 154.185 194.602 154.309C195.063 154.433 195.541 154.366 195.95 154.121L212.338 144.322C213.635 143.546 214.762 142.484 215.597 141.251C215.997 140.659 216.357 140.057 216.702 139.474C217.565 138.022 218.38 136.652 219.73 135.592C220.593 134.915 221.446 134.206 222.131 133.636C222.616 133.233 222.999 132.916 223.197 132.766C223.444 132.58 223.821 132.658 224.155 132.962C224.667 133.426 225.002 134.393 224.266 135.589C224.08 135.89 223.664 136.318 223.26 136.73C222.945 137.052 222.621 137.385 222.491 137.575C222.058 138.209 222.064 139.025 222.502 139.607C223.101 140.401 223.659 141.733 222.909 143.571C221.837 146.2 219.481 146.815 218.175 146.947C217.635 147.002 217.138 147.255 216.772 147.66L201.538 164.626C200.021 166.315 197.91 167.184 195.781 167.154L195.783 167.157ZM177.059 149.019C181.726 156.991 187.932 162.703 192.218 165.404C195.065 167.201 198.769 166.681 201.024 164.169L216.26 147.203C216.741 146.669 217.396 146.336 218.106 146.264C219.259 146.147 221.334 145.608 222.272 143.313C222.775 142.079 222.669 140.972 221.952 140.025C221.334 139.206 221.322 138.067 221.922 137.188C222.085 136.949 222.416 136.609 222.767 136.25C223.126 135.881 223.533 135.464 223.679 135.228C224.109 134.531 224.036 134.046 223.9 133.762C223.794 133.538 223.63 133.412 223.543 133.371C223.341 133.528 222.996 133.815 222.571 134.167C221.918 134.709 221.026 135.45 220.156 136.133C218.908 137.114 218.125 138.431 217.295 139.826C216.944 140.418 216.581 141.028 216.168 141.636C215.277 142.953 214.075 144.086 212.691 144.912L196.304 154.712C195.732 155.053 195.063 155.147 194.422 154.975C193.778 154.801 193.245 154.385 192.921 153.799C188.902 146.56 186.926 143.407 186.349 142.783L177.06 149.016L177.059 149.019Z" fill="#9F1127"/>
<path d="M141.855 156.522L133.727 151.157C133.727 151.157 129.438 158.2 128.61 157.877C125.656 156.726 120.019 153.393 116.624 150.763C115.441 149.847 115.018 148.263 115.537 146.851C115.927 145.783 116.084 144.35 115.259 142.758C114.462 141.221 114.239 144.429 112.109 145.311C110.966 145.784 109.179 144.206 106.819 141.929C104.458 139.653 102.001 142.187 104.01 145.805C106.189 149.726 108.435 150.773 109.363 151.633C111.211 153.347 128.165 167.471 131.998 167.613C134.959 167.724 141.856 156.52 141.856 156.52L141.855 156.522Z" fill="white"/>
<path d="M127.913 166.209C129.671 167.258 131.117 167.928 131.984 167.96C135.058 168.076 141.431 157.868 142.148 156.703C142.246 156.545 142.2 156.337 142.044 156.235L133.917 150.87C133.842 150.815 133.743 150.801 133.652 150.822C133.561 150.842 133.482 150.899 133.433 150.979C131.611 153.97 129.304 157.283 128.681 157.535C125.69 156.355 120.176 153.078 116.835 150.491C115.78 149.673 115.388 148.259 115.861 146.971C116.394 145.515 116.293 144.004 115.566 142.602C115.435 142.35 115.222 142.014 114.868 142.005C114.45 141.994 114.208 142.409 113.871 142.982C113.47 143.666 112.922 144.603 111.978 144.993C111.016 145.391 109.181 143.729 107.057 141.682C105.766 140.436 104.549 140.572 103.842 141.115C102.886 141.85 102.437 143.684 103.708 145.974C105.457 149.123 107.225 150.439 108.395 151.309C108.689 151.528 108.944 151.717 109.128 151.889C110.052 152.746 121.231 162.222 127.913 166.209V166.209ZM141.384 156.625C139.355 159.872 134.207 167.353 132.011 167.27C128.34 167.132 111.48 153.128 109.599 151.382C109.387 151.186 109.118 150.985 108.808 150.754C107.685 149.918 105.989 148.656 104.312 145.638C103.238 143.706 103.534 142.222 104.262 141.662C104.874 141.191 105.761 141.39 106.579 142.178C109.042 144.552 110.89 146.189 112.242 145.63C113.4 145.15 114.041 144.054 114.466 143.33C114.587 143.124 114.742 142.858 114.847 142.738C114.873 142.774 114.91 142.83 114.955 142.917C115.599 144.161 115.687 145.444 115.214 146.731C114.638 148.302 115.119 150.032 116.414 151.035C119.816 153.669 125.457 157.017 128.485 158.197C128.752 158.302 129.561 158.616 133.835 151.64L141.384 156.623L141.384 156.625Z" fill="#9F1127"/>
<path d="M130.017 156.534C130.017 156.534 128.936 136.56 144.035 130.95C155.727 126.605 170.657 128.48 175.337 130.103C186.859 134.098 192.529 149.321 192.529 149.321L179.027 151.224C179.027 151.224 183.096 194.959 181.331 204.714C181.331 204.714 170.466 205.989 165.856 204.162C161.248 202.336 146.095 199.775 138.851 203.126L140.166 156.346L130.015 156.534H130.017Z" fill="#9F1127"/>
<path d="M148.835 193.828C148.671 193.828 148.525 193.711 148.495 193.543C148.463 193.355 148.588 193.177 148.774 193.144C166.019 190.075 171.055 178.061 171.103 177.94C171.175 177.763 171.376 177.678 171.553 177.749C171.73 177.819 171.814 178.021 171.744 178.197C171.694 178.322 166.534 190.685 148.895 193.822C148.875 193.825 148.854 193.827 148.834 193.827L148.835 193.828Z" fill="white"/>
</svg>
