<svg width="494" height="569" viewBox="0 0 494 569" fill="none" xmlns="http://www.w3.org/2000/svg">
<path d="M80 20C80 8.95431 88.9543 0 100 0H243V282C243 293.046 234.046 302 223 302H80V20Z" fill="#DE97A2"/>
<rect x="243.5" y="0.5" width="38" height="14" stroke="#4B4B4B" stroke-opacity="0.1"/>
<rect x="261.5" y="15.5" width="38" height="14" stroke="#4B4B4B" stroke-opacity="0.1"/>
<rect x="261.5" y="45.5" width="38" height="14" stroke="#4B4B4B" stroke-opacity="0.1"/>
<rect x="261.5" y="75.5" width="38" height="14" stroke="#4B4B4B" stroke-opacity="0.1"/>
<rect x="261.5" y="105.5" width="38" height="14" stroke="#4B4B4B" stroke-opacity="0.1"/>
<rect x="261.5" y="135.5" width="38" height="14" stroke="#4B4B4B" stroke-opacity="0.1"/>
<rect x="261.5" y="165.5" width="38" height="14" stroke="#4B4B4B" stroke-opacity="0.1"/>
<rect x="261.5" y="195.5" width="38" height="14" stroke="#4B4B4B" stroke-opacity="0.1"/>
<rect x="261.5" y="225.5" width="38" height="14" stroke="#4B4B4B" stroke-opacity="0.1"/>
<rect x="261.5" y="255.5" width="38" height="14" stroke="#4B4B4B" stroke-opacity="0.1"/>
<rect x="261.5" y="285.5" width="38" height="14" stroke="#4B4B4B" stroke-opacity="0.1"/>
<rect x="261.5" y="345.5" width="38" height="14" stroke="#4B4B4B" stroke-opacity="0.1"/>
<rect x="261.5" y="375.5" width="38" height="14" stroke="#4B4B4B" stroke-opacity="0.1"/>
<rect x="261.5" y="405.5" width="38" height="14" stroke="#4B4B4B" stroke-opacity="0.1"/>
<rect x="261.5" y="420.5" width="38" height="8" stroke="#4B4B4B" stroke-opacity="0.1"/>
<rect x="243.5" y="15.5" width="17" height="14" stroke="#4B4B4B" stroke-opacity="0.1"/>
<rect x="243.5" y="45.5" width="17" height="14" stroke="#4B4B4B" stroke-opacity="0.1"/>
<rect x="243.5" y="75.5" width="17" height="14" stroke="#4B4B4B" stroke-opacity="0.1"/>
<rect x="243.5" y="105.5" width="17" height="14" stroke="#4B4B4B" stroke-opacity="0.1"/>
<rect x="243.5" y="135.5" width="17" height="14" stroke="#4B4B4B" stroke-opacity="0.1"/>
<rect x="243.5" y="165.5" width="17" height="14" stroke="#4B4B4B" stroke-opacity="0.1"/>
<rect x="243.5" y="195.5" width="17" height="14" stroke="#4B4B4B" stroke-opacity="0.1"/>
<rect x="243.5" y="225.5" width="17" height="14" stroke="#4B4B4B" stroke-opacity="0.1"/>
<rect x="243.5" y="255.5" width="17" height="14" stroke="#4B4B4B" stroke-opacity="0.1"/>
<rect x="243.5" y="285.5" width="17" height="14" stroke="#4B4B4B" stroke-opacity="0.1"/>
<rect x="243.5" y="420.5" width="17" height="8" stroke="#4B4B4B" stroke-opacity="0.1"/>
<rect x="282.5" y="0.5" width="38" height="14" stroke="#4B4B4B" stroke-opacity="0.1"/>
<rect x="300.5" y="15.5" width="38" height="14" stroke="#4B4B4B" stroke-opacity="0.1"/>
<rect x="300.5" y="45.5" width="38" height="14" stroke="#4B4B4B" stroke-opacity="0.1"/>
<rect x="300.5" y="75.5" width="38" height="14" stroke="#4B4B4B" stroke-opacity="0.1"/>
<rect x="300.5" y="105.5" width="38" height="14" stroke="#4B4B4B" stroke-opacity="0.1"/>
<rect x="300.5" y="135.5" width="38" height="14" stroke="#4B4B4B" stroke-opacity="0.1"/>
<rect x="300.5" y="165.5" width="38" height="14" stroke="#4B4B4B" stroke-opacity="0.1"/>
<rect x="300.5" y="195.5" width="38" height="14" stroke="#4B4B4B" stroke-opacity="0.1"/>
<rect x="300.5" y="225.5" width="38" height="14" stroke="#4B4B4B" stroke-opacity="0.1"/>
<rect x="300.5" y="255.5" width="38" height="14" stroke="#4B4B4B" stroke-opacity="0.1"/>
<rect x="300.5" y="285.5" width="38" height="14" stroke="#4B4B4B" stroke-opacity="0.1"/>
<rect x="300.5" y="345.5" width="38" height="14" stroke="#4B4B4B" stroke-opacity="0.1"/>
<rect x="300.5" y="375.5" width="38" height="14" stroke="#4B4B4B" stroke-opacity="0.1"/>
<rect x="300.5" y="405.5" width="38" height="14" stroke="#4B4B4B" stroke-opacity="0.1"/>
<rect x="300.5" y="420.5" width="38" height="8" stroke="#4B4B4B" stroke-opacity="0.1"/>
<rect x="321.5" y="0.5" width="38" height="14" stroke="#4B4B4B" stroke-opacity="0.1"/>
<rect x="339.5" y="15.5" width="38" height="14" stroke="#4B4B4B" stroke-opacity="0.1"/>
<rect x="339.5" y="45.5" width="38" height="14" stroke="#4B4B4B" stroke-opacity="0.1"/>
<rect x="339.5" y="75.5" width="38" height="14" stroke="#4B4B4B" stroke-opacity="0.1"/>
<rect x="339.5" y="105.5" width="38" height="14" stroke="#4B4B4B" stroke-opacity="0.1"/>
<rect x="339.5" y="135.5" width="38" height="14" stroke="#4B4B4B" stroke-opacity="0.1"/>
<rect x="339.5" y="165.5" width="38" height="14" stroke="#4B4B4B" stroke-opacity="0.1"/>
<rect x="339.5" y="195.5" width="38" height="14" stroke="#4B4B4B" stroke-opacity="0.1"/>
<rect x="339.5" y="225.5" width="38" height="14" stroke="#4B4B4B" stroke-opacity="0.1"/>
<rect x="339.5" y="255.5" width="38" height="14" stroke="#4B4B4B" stroke-opacity="0.1"/>
<rect x="339.5" y="285.5" width="38" height="14" stroke="#4B4B4B" stroke-opacity="0.1"/>
<rect x="89.5" y="285.5" width="38" height="14" stroke="#4B4B4B" stroke-opacity="0.1"/>
<rect x="339.5" y="345.5" width="38" height="14" stroke="#4B4B4B" stroke-opacity="0.1"/>
<rect x="339.5" y="375.5" width="38" height="14" stroke="#4B4B4B" stroke-opacity="0.1"/>
<rect x="339.5" y="405.5" width="38" height="14" stroke="#4B4B4B" stroke-opacity="0.1"/>
<rect x="339.5" y="420.5" width="38" height="8" stroke="#4B4B4B" stroke-opacity="0.1"/>
<rect x="360.5" y="0.5" width="38" height="14" stroke="#4B4B4B" stroke-opacity="0.1"/>
<rect x="378.5" y="15.5" width="38" height="14" stroke="#4B4B4B" stroke-opacity="0.1"/>
<rect x="378.5" y="45.5" width="38" height="14" stroke="#4B4B4B" stroke-opacity="0.1"/>
<rect x="378.5" y="75.5" width="38" height="14" stroke="#4B4B4B" stroke-opacity="0.1"/>
<rect x="378.5" y="105.5" width="38" height="14" stroke="#4B4B4B" stroke-opacity="0.1"/>
<rect x="378.5" y="135.5" width="38" height="14" stroke="#4B4B4B" stroke-opacity="0.1"/>
<rect x="378.5" y="165.5" width="38" height="14" stroke="#4B4B4B" stroke-opacity="0.1"/>
<rect x="378.5" y="195.5" width="38" height="14" stroke="#4B4B4B" stroke-opacity="0.1"/>
<rect x="378.5" y="225.5" width="38" height="14" stroke="#4B4B4B" stroke-opacity="0.1"/>
<rect x="378.5" y="255.5" width="38" height="14" stroke="#4B4B4B" stroke-opacity="0.1"/>
<rect x="378.5" y="285.5" width="38" height="14" stroke="#4B4B4B" stroke-opacity="0.1"/>
<rect x="128.5" y="285.5" width="38" height="14" stroke="#4B4B4B" stroke-opacity="0.1"/>
<rect x="378.5" y="345.5" width="38" height="14" stroke="#4B4B4B" stroke-opacity="0.1"/>
<rect x="378.5" y="375.5" width="38" height="14" stroke="#4B4B4B" stroke-opacity="0.1"/>
<rect x="378.5" y="405.5" width="38" height="14" stroke="#4B4B4B" stroke-opacity="0.1"/>
<rect x="378.5" y="420.5" width="38" height="8" stroke="#4B4B4B" stroke-opacity="0.1"/>
<rect x="399.5" y="0.5" width="38" height="14" stroke="#4B4B4B" stroke-opacity="0.1"/>
<rect x="417.5" y="15.5" width="38" height="14" stroke="#4B4B4B" stroke-opacity="0.1"/>
<rect x="417.5" y="45.5" width="38" height="14" stroke="#4B4B4B" stroke-opacity="0.1"/>
<rect x="417.5" y="75.5" width="38" height="14" stroke="#4B4B4B" stroke-opacity="0.1"/>
<rect x="417.5" y="105.5" width="38" height="14" stroke="#4B4B4B" stroke-opacity="0.1"/>
<rect x="417.5" y="135.5" width="38" height="14" stroke="#4B4B4B" stroke-opacity="0.1"/>
<rect x="417.5" y="165.5" width="38" height="14" stroke="#4B4B4B" stroke-opacity="0.1"/>
<rect x="417.5" y="195.5" width="38" height="14" stroke="#4B4B4B" stroke-opacity="0.1"/>
<rect x="417.5" y="225.5" width="38" height="14" stroke="#4B4B4B" stroke-opacity="0.1"/>
<rect x="417.5" y="255.5" width="38" height="14" stroke="#4B4B4B" stroke-opacity="0.1"/>
<rect x="417.5" y="285.5" width="38" height="14" stroke="#4B4B4B" stroke-opacity="0.1"/>
<rect x="167.5" y="285.5" width="38" height="14" stroke="#4B4B4B" stroke-opacity="0.1"/>
<rect x="417.5" y="345.5" width="38" height="14" stroke="#4B4B4B" stroke-opacity="0.1"/>
<rect x="417.5" y="375.5" width="38" height="14" stroke="#4B4B4B" stroke-opacity="0.1"/>
<rect x="417.5" y="405.5" width="38" height="14" stroke="#4B4B4B" stroke-opacity="0.1"/>
<rect x="417.5" y="420.5" width="38" height="8" stroke="#4B4B4B" stroke-opacity="0.1"/>
<rect x="438.5" y="0.5" width="36" height="14" stroke="#4B4B4B" stroke-opacity="0.1"/>
<rect x="456.5" y="15.5" width="36" height="14" stroke="#4B4B4B" stroke-opacity="0.1"/>
<rect x="243.5" y="30.5" width="38" height="14" stroke="#4B4B4B" stroke-opacity="0.1"/>
<rect x="282.5" y="30.5" width="38" height="14" stroke="#4B4B4B" stroke-opacity="0.1"/>
<rect x="321.5" y="30.5" width="38" height="14" stroke="#4B4B4B" stroke-opacity="0.1"/>
<rect x="360.5" y="30.5" width="38" height="14" stroke="#4B4B4B" stroke-opacity="0.1"/>
<rect x="399.5" y="30.5" width="38" height="14" stroke="#4B4B4B" stroke-opacity="0.1"/>
<rect x="438.5" y="30.5" width="36" height="14" stroke="#4B4B4B" stroke-opacity="0.1"/>
<rect x="475.5" y="30.5" width="17" height="14" stroke="#4B4B4B" stroke-opacity="0.1"/>
<rect x="243.5" y="60.5" width="38" height="14" stroke="#4B4B4B" stroke-opacity="0.1"/>
<rect x="282.5" y="60.5" width="38" height="14" stroke="#4B4B4B" stroke-opacity="0.1"/>
<rect x="321.5" y="60.5" width="38" height="14" stroke="#4B4B4B" stroke-opacity="0.1"/>
<rect x="360.5" y="60.5" width="38" height="14" stroke="#4B4B4B" stroke-opacity="0.1"/>
<rect x="399.5" y="60.5" width="38" height="14" stroke="#4B4B4B" stroke-opacity="0.1"/>
<rect x="438.5" y="60.5" width="36" height="14" stroke="#4B4B4B" stroke-opacity="0.1"/>
<rect x="475.5" y="60.5" width="17" height="14" stroke="#4B4B4B" stroke-opacity="0.1"/>
<rect x="243.5" y="90.5" width="38" height="14" stroke="#4B4B4B" stroke-opacity="0.1"/>
<rect x="282.5" y="90.5" width="38" height="14" stroke="#4B4B4B" stroke-opacity="0.1"/>
<rect x="321.5" y="90.5" width="38" height="14" stroke="#4B4B4B" stroke-opacity="0.1"/>
<rect x="360.5" y="90.5" width="38" height="14" stroke="#4B4B4B" stroke-opacity="0.1"/>
<rect x="399.5" y="90.5" width="38" height="14" stroke="#4B4B4B" stroke-opacity="0.1"/>
<rect x="438.5" y="90.5" width="36" height="14" stroke="#4B4B4B" stroke-opacity="0.1"/>
<rect x="475.5" y="90.5" width="17" height="14" stroke="#4B4B4B" stroke-opacity="0.1"/>
<rect x="243.5" y="120.5" width="38" height="14" stroke="#4B4B4B" stroke-opacity="0.1"/>
<rect x="282.5" y="120.5" width="38" height="14" stroke="#4B4B4B" stroke-opacity="0.1"/>
<rect x="321.5" y="120.5" width="38" height="14" stroke="#4B4B4B" stroke-opacity="0.1"/>
<rect x="360.5" y="120.5" width="38" height="14" stroke="#4B4B4B" stroke-opacity="0.1"/>
<rect x="399.5" y="120.5" width="38" height="14" stroke="#4B4B4B" stroke-opacity="0.1"/>
<rect x="438.5" y="120.5" width="36" height="14" stroke="#4B4B4B" stroke-opacity="0.1"/>
<rect x="475.5" y="120.5" width="17" height="14" stroke="#4B4B4B" stroke-opacity="0.1"/>
<rect x="243.5" y="150.5" width="38" height="14" stroke="#4B4B4B" stroke-opacity="0.1"/>
<rect x="282.5" y="150.5" width="38" height="14" stroke="#4B4B4B" stroke-opacity="0.1"/>
<rect x="321.5" y="150.5" width="38" height="14" stroke="#4B4B4B" stroke-opacity="0.1"/>
<rect x="360.5" y="150.5" width="38" height="14" stroke="#4B4B4B" stroke-opacity="0.1"/>
<rect x="399.5" y="150.5" width="38" height="14" stroke="#4B4B4B" stroke-opacity="0.1"/>
<rect x="438.5" y="150.5" width="36" height="14" stroke="#4B4B4B" stroke-opacity="0.1"/>
<rect x="475.5" y="150.5" width="17" height="14" stroke="#4B4B4B" stroke-opacity="0.1"/>
<rect x="243.5" y="180.5" width="38" height="14" stroke="#4B4B4B" stroke-opacity="0.1"/>
<rect x="282.5" y="180.5" width="38" height="14" stroke="#4B4B4B" stroke-opacity="0.1"/>
<rect x="321.5" y="180.5" width="38" height="14" stroke="#4B4B4B" stroke-opacity="0.1"/>
<rect x="360.5" y="180.5" width="38" height="14" stroke="#4B4B4B" stroke-opacity="0.1"/>
<rect x="399.5" y="180.5" width="38" height="14" stroke="#4B4B4B" stroke-opacity="0.1"/>
<rect x="438.5" y="180.5" width="36" height="14" stroke="#4B4B4B" stroke-opacity="0.1"/>
<rect x="475.5" y="180.5" width="17" height="14" stroke="#4B4B4B" stroke-opacity="0.1"/>
<rect x="243.5" y="210.5" width="38" height="14" stroke="#4B4B4B" stroke-opacity="0.1"/>
<rect x="282.5" y="210.5" width="38" height="14" stroke="#4B4B4B" stroke-opacity="0.1"/>
<rect x="321.5" y="210.5" width="38" height="14" stroke="#4B4B4B" stroke-opacity="0.1"/>
<rect x="360.5" y="210.5" width="38" height="14" stroke="#4B4B4B" stroke-opacity="0.1"/>
<rect x="399.5" y="210.5" width="38" height="14" stroke="#4B4B4B" stroke-opacity="0.1"/>
<rect x="438.5" y="210.5" width="36" height="14" stroke="#4B4B4B" stroke-opacity="0.1"/>
<rect x="475.5" y="210.5" width="17" height="14" stroke="#4B4B4B" stroke-opacity="0.1"/>
<rect x="243.5" y="240.5" width="38" height="14" stroke="#4B4B4B" stroke-opacity="0.1"/>
<rect x="282.5" y="240.5" width="38" height="14" stroke="#4B4B4B" stroke-opacity="0.1"/>
<rect x="321.5" y="240.5" width="38" height="14" stroke="#4B4B4B" stroke-opacity="0.1"/>
<rect x="360.5" y="240.5" width="38" height="14" stroke="#4B4B4B" stroke-opacity="0.1"/>
<rect x="399.5" y="240.5" width="38" height="14" stroke="#4B4B4B" stroke-opacity="0.1"/>
<rect x="438.5" y="240.5" width="36" height="14" stroke="#4B4B4B" stroke-opacity="0.1"/>
<rect x="475.5" y="240.5" width="17" height="14" stroke="#4B4B4B" stroke-opacity="0.1"/>
<rect x="243.5" y="270.5" width="38" height="14" stroke="#4B4B4B" stroke-opacity="0.1"/>
<rect x="282.5" y="270.5" width="38" height="14" stroke="#4B4B4B" stroke-opacity="0.1"/>
<rect x="321.5" y="270.5" width="38" height="14" stroke="#4B4B4B" stroke-opacity="0.1"/>
<rect x="360.5" y="270.5" width="38" height="14" stroke="#4B4B4B" stroke-opacity="0.1"/>
<rect x="399.5" y="270.5" width="38" height="14" stroke="#4B4B4B" stroke-opacity="0.1"/>
<rect x="438.5" y="270.5" width="36" height="14" stroke="#4B4B4B" stroke-opacity="0.1"/>
<rect x="475.5" y="270.5" width="17" height="14" stroke="#4B4B4B" stroke-opacity="0.1"/>
<rect x="243.5" y="300.5" width="38" height="14" stroke="#4B4B4B" stroke-opacity="0.1"/>
<rect x="282.5" y="300.5" width="38" height="14" stroke="#4B4B4B" stroke-opacity="0.1"/>
<rect x="321.5" y="300.5" width="38" height="14" stroke="#4B4B4B" stroke-opacity="0.1"/>
<rect x="360.5" y="300.5" width="38" height="14" stroke="#4B4B4B" stroke-opacity="0.1"/>
<rect x="399.5" y="300.5" width="38" height="14" stroke="#4B4B4B" stroke-opacity="0.1"/>
<rect x="438.5" y="300.5" width="36" height="14" stroke="#4B4B4B" stroke-opacity="0.1"/>
<rect x="475.5" y="300.5" width="17" height="14" stroke="#4B4B4B" stroke-opacity="0.1"/>
<rect x="-0.5" y="0.5" width="38" height="14" transform="matrix(-1 0 0 1 242 300)" stroke="#4B4B4B" stroke-opacity="0.1"/>
<rect x="-0.5" y="0.5" width="38" height="14" transform="matrix(-1 0 0 1 203 300)" stroke="#4B4B4B" stroke-opacity="0.1"/>
<rect x="-0.5" y="0.5" width="38" height="14" transform="matrix(-1 0 0 1 164 300)" stroke="#4B4B4B" stroke-opacity="0.1"/>
<rect x="-0.5" y="0.5" width="38" height="14" transform="matrix(-1 0 0 1 125 300)" stroke="#4B4B4B" stroke-opacity="0.1"/>
<rect x="-0.5" y="0.5" width="5" height="14" transform="matrix(-1 0 0 1 86 300)" stroke="#4B4B4B" stroke-opacity="0.1"/>
<rect x="243.5" y="330.5" width="38" height="14" stroke="#4B4B4B" stroke-opacity="0.1"/>
<rect x="282.5" y="330.5" width="38" height="14" stroke="#4B4B4B" stroke-opacity="0.1"/>
<rect x="321.5" y="330.5" width="38" height="14" stroke="#4B4B4B" stroke-opacity="0.1"/>
<rect x="360.5" y="330.5" width="38" height="14" stroke="#4B4B4B" stroke-opacity="0.1"/>
<rect x="399.5" y="330.5" width="38" height="14" stroke="#4B4B4B" stroke-opacity="0.1"/>
<rect x="438.5" y="330.5" width="36" height="14" stroke="#4B4B4B" stroke-opacity="0.1"/>
<rect x="475.5" y="330.5" width="17" height="14" stroke="#4B4B4B" stroke-opacity="0.1"/>
<rect x="-0.5" y="0.5" width="38" height="14" transform="matrix(-1 0 0 1 242 330)" stroke="#4B4B4B" stroke-opacity="0.1"/>
<rect x="-0.5" y="0.5" width="38" height="14" transform="matrix(-1 0 0 1 203 330)" stroke="#4B4B4B" stroke-opacity="0.1"/>
<rect x="-0.5" y="0.5" width="38" height="14" transform="matrix(-1 0 0 1 164 330)" stroke="#4B4B4B" stroke-opacity="0.1"/>
<rect x="-0.5" y="0.5" width="38" height="14" transform="matrix(-1 0 0 1 125 330)" stroke="#4B4B4B" stroke-opacity="0.1"/>
<rect x="-0.5" y="0.5" width="5" height="14" transform="matrix(-1 0 0 1 86 330)" stroke="#4B4B4B" stroke-opacity="0.1"/>
<rect x="-0.5" y="0.5" width="38" height="14" transform="matrix(-1 0 0 1 242 360)" stroke="#4B4B4B" stroke-opacity="0.1"/>
<rect x="-0.5" y="0.5" width="38" height="14" transform="matrix(-1 0 0 1 203 360)" stroke="#4B4B4B" stroke-opacity="0.1"/>
<rect x="-0.5" y="0.5" width="38" height="14" transform="matrix(-1 0 0 1 164 360)" stroke="#4B4B4B" stroke-opacity="0.1"/>
<rect x="-0.5" y="0.5" width="38" height="14" transform="matrix(-1 0 0 1 125 360)" stroke="#4B4B4B" stroke-opacity="0.1"/>
<rect x="-0.5" y="0.5" width="5" height="14" transform="matrix(-1 0 0 1 86 360)" stroke="#4B4B4B" stroke-opacity="0.1"/>
<rect x="-0.5" y="0.5" width="38" height="14" transform="matrix(-1 0 0 1 242 390)" stroke="#4B4B4B" stroke-opacity="0.1"/>
<rect x="-0.5" y="0.5" width="38" height="14" transform="matrix(-1 0 0 1 203 390)" stroke="#4B4B4B" stroke-opacity="0.1"/>
<rect x="-0.5" y="0.5" width="38" height="14" transform="matrix(-1 0 0 1 164 390)" stroke="#4B4B4B" stroke-opacity="0.1"/>
<rect x="-0.5" y="0.5" width="38" height="14" transform="matrix(-1 0 0 1 125 390)" stroke="#4B4B4B" stroke-opacity="0.1"/>
<rect x="-0.5" y="0.5" width="5" height="14" transform="matrix(-1 0 0 1 86 390)" stroke="#4B4B4B" stroke-opacity="0.1"/>
<rect x="-0.5" y="0.5" width="38" height="8" transform="matrix(-1 0 0 1 242 420)" stroke="#4B4B4B" stroke-opacity="0.1"/>
<rect x="-0.5" y="0.5" width="38" height="8" transform="matrix(-1 0 0 1 203 420)" stroke="#4B4B4B" stroke-opacity="0.1"/>
<rect x="-0.5" y="0.5" width="38" height="8" transform="matrix(-1 0 0 1 164 420)" stroke="#4B4B4B" stroke-opacity="0.1"/>
<path d="M84.8747 420.5C87.9675 425.459 93.4111 428.5 99.2956 428.5H125.5V420.5H84.8747Z" stroke="#4B4B4B" stroke-opacity="0.1"/>
<rect x="243.5" y="360.5" width="38" height="14" stroke="#4B4B4B" stroke-opacity="0.1"/>
<rect x="282.5" y="360.5" width="38" height="14" stroke="#4B4B4B" stroke-opacity="0.1"/>
<rect x="321.5" y="360.5" width="38" height="14" stroke="#4B4B4B" stroke-opacity="0.1"/>
<rect x="360.5" y="360.5" width="38" height="14" stroke="#4B4B4B" stroke-opacity="0.1"/>
<rect x="399.5" y="360.5" width="38" height="14" stroke="#4B4B4B" stroke-opacity="0.1"/>
<rect x="438.5" y="360.5" width="36" height="14" stroke="#4B4B4B" stroke-opacity="0.1"/>
<rect x="475.5" y="360.5" width="17" height="14" stroke="#4B4B4B" stroke-opacity="0.1"/>
<rect x="243.5" y="390.5" width="38" height="14" stroke="#4B4B4B" stroke-opacity="0.1"/>
<rect x="282.5" y="390.5" width="38" height="14" stroke="#4B4B4B" stroke-opacity="0.1"/>
<rect x="321.5" y="390.5" width="38" height="14" stroke="#4B4B4B" stroke-opacity="0.1"/>
<rect x="360.5" y="390.5" width="38" height="14" stroke="#4B4B4B" stroke-opacity="0.1"/>
<rect x="399.5" y="390.5" width="38" height="14" stroke="#4B4B4B" stroke-opacity="0.1"/>
<rect x="438.5" y="390.5" width="36" height="14" stroke="#4B4B4B" stroke-opacity="0.1"/>
<rect x="475.5" y="390.5" width="17" height="14" stroke="#4B4B4B" stroke-opacity="0.1"/>
<rect x="456.5" y="45.5" width="36" height="14" stroke="#4B4B4B" stroke-opacity="0.1"/>
<rect x="456.5" y="75.5" width="36" height="14" stroke="#4B4B4B" stroke-opacity="0.1"/>
<rect x="456.5" y="105.5" width="36" height="14" stroke="#4B4B4B" stroke-opacity="0.1"/>
<rect x="456.5" y="135.5" width="36" height="14" stroke="#4B4B4B" stroke-opacity="0.1"/>
<rect x="456.5" y="165.5" width="36" height="14" stroke="#4B4B4B" stroke-opacity="0.1"/>
<rect x="456.5" y="195.5" width="36" height="14" stroke="#4B4B4B" stroke-opacity="0.1"/>
<rect x="456.5" y="225.5" width="36" height="14" stroke="#4B4B4B" stroke-opacity="0.1"/>
<rect x="456.5" y="255.5" width="36" height="14" stroke="#4B4B4B" stroke-opacity="0.1"/>
<rect x="456.5" y="285.5" width="36" height="14" stroke="#4B4B4B" stroke-opacity="0.1"/>
<rect x="206.5" y="285.5" width="36" height="14" stroke="#4B4B4B" stroke-opacity="0.1"/>
<rect x="261.5" y="315.5" width="38" height="14" stroke="#4B4B4B" stroke-opacity="0.1"/>
<rect x="300.5" y="315.5" width="38" height="14" stroke="#4B4B4B" stroke-opacity="0.1"/>
<rect x="339.5" y="315.5" width="38" height="14" stroke="#4B4B4B" stroke-opacity="0.1"/>
<rect x="378.5" y="315.5" width="38" height="14" stroke="#4B4B4B" stroke-opacity="0.1"/>
<rect x="417.5" y="315.5" width="38" height="14" stroke="#4B4B4B" stroke-opacity="0.1"/>
<rect x="456.5" y="315.5" width="36" height="14" stroke="#4B4B4B" stroke-opacity="0.1"/>
<rect x="225.5" y="315.5" width="35" height="14" stroke="#4B4B4B" stroke-opacity="0.1"/>
<rect x="81.5" y="315.5" width="28" height="14" stroke="#4B4B4B" stroke-opacity="0.1"/>
<rect x="110.5" y="315.5" width="38" height="14" stroke="#4B4B4B" stroke-opacity="0.1"/>
<rect x="149.5" y="315.5" width="38" height="14" stroke="#4B4B4B" stroke-opacity="0.1"/>
<rect x="188.5" y="315.5" width="36" height="14" stroke="#4B4B4B" stroke-opacity="0.1"/>
<rect x="225.5" y="345.5" width="35" height="14" stroke="#4B4B4B" stroke-opacity="0.1"/>
<rect x="81.5" y="345.5" width="28" height="14" stroke="#4B4B4B" stroke-opacity="0.1"/>
<rect x="110.5" y="345.5" width="38" height="14" stroke="#4B4B4B" stroke-opacity="0.1"/>
<rect x="149.5" y="345.5" width="38" height="14" stroke="#4B4B4B" stroke-opacity="0.1"/>
<rect x="188.5" y="345.5" width="36" height="14" stroke="#4B4B4B" stroke-opacity="0.1"/>
<rect x="225.5" y="375.5" width="35" height="14" stroke="#4B4B4B" stroke-opacity="0.1"/>
<rect x="81.5" y="375.5" width="28" height="14" stroke="#4B4B4B" stroke-opacity="0.1"/>
<rect x="110.5" y="375.5" width="38" height="14" stroke="#4B4B4B" stroke-opacity="0.1"/>
<rect x="149.5" y="375.5" width="38" height="14" stroke="#4B4B4B" stroke-opacity="0.1"/>
<rect x="188.5" y="375.5" width="36" height="14" stroke="#4B4B4B" stroke-opacity="0.1"/>
<rect x="225.5" y="405.5" width="35" height="14" stroke="#4B4B4B" stroke-opacity="0.1"/>
<path d="M81.5 405.5H109.5V419.5H84C82.6193 419.5 81.5 418.381 81.5 417V405.5Z" stroke="#4B4B4B" stroke-opacity="0.1"/>
<rect x="110.5" y="405.5" width="38" height="14" stroke="#4B4B4B" stroke-opacity="0.1"/>
<rect x="149.5" y="405.5" width="38" height="14" stroke="#4B4B4B" stroke-opacity="0.1"/>
<rect x="188.5" y="405.5" width="36" height="14" stroke="#4B4B4B" stroke-opacity="0.1"/>
<rect x="456.5" y="345.5" width="36" height="14" stroke="#4B4B4B" stroke-opacity="0.1"/>
<rect x="456.5" y="375.5" width="36" height="14" stroke="#4B4B4B" stroke-opacity="0.1"/>
<path d="M456.5 405.5H492.5V416C492.5 417.933 490.933 419.5 489 419.5H456.5V405.5Z" stroke="#4B4B4B" stroke-opacity="0.1"/>
<path d="M490.038 420.5C486.334 425.516 480.456 428.5 474.183 428.5H456.5V420.5H490.038Z" stroke="#4B4B4B" stroke-opacity="0.1"/>
<rect x="80.5" y="0.5" width="413" height="429" rx="19.5" stroke="#4B4B4B"/>
<path d="M149.01 380.891C147.547 380.748 146.133 380.286 144.868 379.537C143.603 378.788 142.517 377.771 141.688 376.557C140.858 375.344 140.305 373.963 140.067 372.512C139.829 371.061 139.912 369.576 140.31 368.161L114.677 344.3L128.23 340.862L153.435 361.306C155.768 362.132 157.717 363.785 158.913 365.952C160.108 368.12 160.467 370.65 159.922 373.064C159.376 375.478 157.964 377.609 155.953 379.051C153.942 380.494 151.471 381.149 149.01 380.891V380.891Z" fill="#FFB8B8"/>
<path d="M184.404 557.253H196.664L202.496 509.965H184.402L184.404 557.253Z" fill="#FFB8B8"/>
<path d="M220.308 568.636L181.777 568.638L181.776 553.751L205.42 553.75C209.368 553.749 213.155 555.318 215.947 558.109C218.739 560.901 220.307 564.688 220.308 568.636V568.636L220.308 568.636Z" fill="#2F2E41"/>
<path d="M100.345 548.401L112.193 551.555L129.994 507.359L112.509 502.705L100.345 548.401Z" fill="#FFB8B8"/>
<path d="M132.113 568.64L94.8791 558.729L98.7083 544.343L121.557 550.425C125.372 551.44 128.628 553.93 130.607 557.346C132.587 560.762 133.129 564.824 132.113 568.64V568.64V568.64Z" fill="#2F2E41"/>
<path d="M199.961 548.3H181.253C180.072 548.304 178.931 547.865 178.057 547.071C177.182 546.276 176.636 545.183 176.527 544.007L165.171 426.075C165.088 425.21 164.706 424.401 164.092 423.786C163.478 423.171 162.67 422.788 161.805 422.704C160.94 422.619 160.072 422.838 159.351 423.323C158.629 423.807 158.099 424.527 157.85 425.36L124.876 535.559C124.528 536.731 123.74 537.722 122.678 538.327C121.616 538.932 120.362 539.103 119.176 538.805L101.773 534.454C101.166 534.302 100.595 534.032 100.092 533.658C99.5896 533.285 99.166 532.815 98.8456 532.278C98.5252 531.74 98.3143 531.144 98.2251 530.524C98.136 529.904 98.1703 529.273 98.3261 528.667C98.6102 527.556 126.737 417.638 126.982 416.509C133.355 369.541 140.979 356.955 145.075 350.194C145.414 349.635 145.726 349.12 146.006 348.634C146.358 348.025 148.519 341.989 149.89 338.069C150.068 337.431 150.376 336.838 150.796 336.325C151.215 335.813 151.735 335.393 152.325 335.092C169.536 326.29 189.672 332.383 195.434 334.46C196.389 334.796 197.21 335.433 197.772 336.275C215.057 362.346 206.575 513.766 204.699 543.856C204.62 545.06 204.087 546.189 203.208 547.014C202.328 547.839 201.167 548.299 199.961 548.3V548.3Z" fill="#656567"/>
<path d="M151.684 249.585C165.249 249.585 176.245 238.589 176.245 225.024C176.245 211.46 165.249 200.463 151.684 200.463C138.119 200.463 127.123 211.46 127.123 225.024C127.123 238.589 138.119 249.585 151.684 249.585Z" fill="#FFB8B8"/>
<path d="M149.081 342.838L148.905 342.667C148.574 342.347 115.849 310.287 120.084 280.643C121.896 267.963 132.155 259.861 149.752 257.212C156.217 256.252 162.811 257.657 168.323 261.17C173.834 264.683 177.892 270.067 179.752 276.333L197.152 335.817L149.081 342.838Z" fill="#CCCCCC"/>
<path d="M132.333 365.641L109.015 342.47C107.42 340.876 106.263 338.899 105.653 336.729C105.044 334.559 105.003 332.269 105.535 330.078L116.824 284.159C117.162 282.783 117.779 281.491 118.636 280.363C119.494 279.235 120.574 278.295 121.809 277.602C123.045 276.908 124.409 276.475 125.819 276.33C127.228 276.185 128.653 276.331 130.003 276.759C132.578 277.589 134.729 279.388 136 281.776C137.271 284.164 137.562 286.953 136.813 289.553L124.928 329.949L144.146 350.586L132.333 365.641Z" fill="#CCCCCC"/>
<path d="M257.405 286.562C256.788 287.897 255.887 289.08 254.763 290.028C253.64 290.977 252.322 291.667 250.903 292.051C249.484 292.435 247.998 292.504 246.55 292.251C245.102 291.999 243.727 291.432 242.521 290.591L211.392 306.725L212.767 293.02L240.364 275.941C241.912 274.009 244.114 272.712 246.554 272.296C248.994 271.88 251.502 272.373 253.602 273.683C255.703 274.992 257.25 277.026 257.951 279.4C258.652 281.774 258.457 284.322 257.405 286.562H257.405Z" fill="#FFB8B8"/>
<path d="M239.122 296.765L208.775 309.878C206.755 310.744 204.547 311.076 202.362 310.842C200.177 310.607 198.088 309.815 196.298 308.54L157.709 280.891C156.558 280.066 155.588 279.013 154.859 277.798C154.131 276.582 153.659 275.23 153.474 273.826C153.289 272.421 153.395 270.993 153.784 269.631C154.173 268.268 154.837 267 155.736 265.905C157.463 263.823 159.933 262.494 162.622 262.202C165.312 261.909 168.01 262.675 170.144 264.337L203.233 290.379L229.533 280.204L239.122 296.765Z" fill="#CCCCCC"/>
<path d="M155.756 232.895C158.786 229.098 164.447 228.894 168.609 226.39C174.061 223.11 176.315 215.779 174.558 209.664C172.801 203.549 167.62 198.783 161.68 196.504C155.739 194.224 149.13 194.196 142.864 195.298C133.534 196.939 124.348 201.293 118.657 208.867C112.967 216.441 111.519 227.533 116.676 235.479C119.046 239.132 122.705 242.147 123.651 246.397C124.894 251.976 120.98 257.357 116.787 261.243C112.01 265.669 106.53 269.376 102.345 274.365C98.1602 279.355 95.3695 286.172 97.2791 292.398C98.8791 297.614 103.535 301.457 108.641 303.382C113.746 305.306 119.307 305.584 124.762 305.691C130.059 305.795 135.685 305.666 140.148 302.81C144.925 299.752 147.476 293.951 147.664 288.283C147.852 282.614 145.958 277.06 143.419 271.988C141.906 268.965 140.147 266.036 139.141 262.808C138.136 259.58 137.961 255.918 139.572 252.945C141.264 249.82 144.689 247.936 148.176 247.251C148.357 247.215 148.549 247.184 148.749 247.155C149.741 247.027 150.697 246.698 151.559 246.189C152.42 245.681 153.17 245.003 153.762 244.196C154.354 243.39 154.776 242.472 155.003 241.497C155.23 240.523 155.257 239.513 155.082 238.528C154.685 236.313 154.72 234.194 155.756 232.895Z" fill="#2F2E41"/>
<path d="M325.474 569H0.525581C0.456633 569 0.388325 568.987 0.324567 568.962C0.26081 568.937 0.202861 568.901 0.154036 568.854C0.105212 568.808 0.0664721 568.752 0.0400403 568.692C0.0136086 568.631 0 568.566 0 568.5C0 568.434 0.0136086 568.369 0.0400403 568.308C0.0664721 568.248 0.105212 568.192 0.154036 568.146C0.202861 568.099 0.26081 568.063 0.324567 568.038C0.388325 568.013 0.456633 568 0.525581 568H325.474C325.543 568 325.612 568.013 325.675 568.038C325.739 568.063 325.797 568.099 325.846 568.146C325.895 568.192 325.934 568.248 325.96 568.308C325.986 568.369 326 568.434 326 568.5C326 568.566 325.986 568.631 325.96 568.692C325.934 568.752 325.895 568.808 325.846 568.854C325.797 568.901 325.739 568.937 325.675 568.962C325.612 568.987 325.543 569 325.474 569V569Z" fill="#3F3D56"/>
</svg>
